<svg xmlns="http://www.w3.org/2000/svg" width="114" height="146" fill="none" viewBox="0 0 114 146"><path fill="#a8c5ff" d="M53.91 5.148a6.02 6.02 0 0 1 9.046 0 6.02 6.02 0 0 0 7.51 1.253c3.153-1.803 7.173-.423 8.554 2.937a6.02 6.02 0 0 0 6.696 3.623c3.568-.68 6.922 1.93 7.138 5.556a6.02 6.02 0 0 0 5.156 5.601c3.596.515 5.921 4.073 4.948 7.573a6.02 6.02 0 0 0 3.058 6.972c3.234 1.654 4.277 5.774 2.22 8.768a6.02 6.02 0 0 0 .629 7.588c2.522 2.614 2.171 6.85-.747 9.014a6.02 6.02 0 0 0-1.869 7.38c1.536 3.292-.171 7.184-3.633 8.284a6.02 6.02 0 0 0-4.164 6.373c.383 3.613-2.495 6.74-6.126 6.655a6.02 6.02 0 0 0-6.009 4.676c-.81 3.541-4.547 5.564-7.954 4.305a6.02 6.02 0 0 0-7.201 2.472 6.02 6.02 0 0 1-8.922 1.489 6.02 6.02 0 0 0-7.614 0c-2.814 2.297-7.006 1.598-8.921-1.489a6.02 6.02 0 0 0-7.201-2.472c-3.408 1.259-7.145-.764-7.955-4.305a6.02 6.02 0 0 0-6.008-4.676 6.02 6.02 0 0 1-6.126-6.655 6.02 6.02 0 0 0-4.165-6.373c-3.462-1.1-5.169-4.992-3.633-8.284a6.02 6.02 0 0 0-1.869-7.38c-2.918-2.164-3.269-6.4-.747-9.014a6.02 6.02 0 0 0 .629-7.588c-2.057-2.994-1.014-7.114 2.22-8.768a6.02 6.02 0 0 0 3.059-6.972c-.974-3.5 1.35-7.058 4.947-7.573a6.02 6.02 0 0 0 5.156-5.601c.216-3.626 3.57-6.236 7.138-5.556a6.02 6.02 0 0 0 6.696-3.623c1.382-3.36 5.401-4.74 8.555-2.937a6.02 6.02 0 0 0 7.51-1.253"/><path fill="#a8c5ff" d="M26.473 76.33h60.343v52.97c0 7.389-7.737 12.226-14.38 8.991l-11.412-5.56a10 10 0 0 0-8.759 0l-11.413 5.56c-6.642 3.235-14.379-1.602-14.379-8.991z"/><path fill="#da39a1" d="M26.473 76.33H81.07v46.493c0 7.391-7.742 12.228-14.385 8.987l-8.528-4.161a10 10 0 0 0-8.77 0l-8.528 4.161c-6.643 3.241-14.385-1.596-14.385-8.987z"/><path fill="#072a6f" d="M49.979 5.823a5.916 5.916 0 0 1 8.889 0 5.916 5.916 0 0 0 7.38 1.231 5.916 5.916 0 0 1 8.407 2.887 5.916 5.916 0 0 0 6.58 3.56 5.916 5.916 0 0 1 7.015 5.46 5.916 5.916 0 0 0 5.068 5.505 5.916 5.916 0 0 1 4.862 7.442 5.916 5.916 0 0 0 3.005 6.852 5.916 5.916 0 0 1 2.183 8.617 5.916 5.916 0 0 0 .617 7.457 5.915 5.915 0 0 1-.734 8.859 5.916 5.916 0 0 0-1.836 7.253 5.917 5.917 0 0 1-3.571 8.14 5.916 5.916 0 0 0-4.093 6.264 5.916 5.916 0 0 1-6.02 6.54 5.916 5.916 0 0 0-5.904 4.596 5.917 5.917 0 0 1-7.818 4.231 5.915 5.915 0 0 0-7.077 2.429 5.916 5.916 0 0 1-8.768 1.463 5.92 5.92 0 0 0-7.482 0 5.916 5.916 0 0 1-8.768-1.463 5.915 5.915 0 0 0-7.077-2.429 5.917 5.917 0 0 1-7.818-4.231 5.916 5.916 0 0 0-5.904-4.596 5.916 5.916 0 0 1-6.02-6.54 5.916 5.916 0 0 0-4.093-6.264 5.916 5.916 0 0 1-3.57-8.14 5.916 5.916 0 0 0-1.837-7.253 5.916 5.916 0 0 1-.735-8.859 5.916 5.916 0 0 0 .618-7.457A5.916 5.916 0 0 1 7.66 38.76a5.916 5.916 0 0 0 3.006-6.852 5.916 5.916 0 0 1 4.862-7.442 5.916 5.916 0 0 0 5.068-5.504 5.916 5.916 0 0 1 7.014-5.46 5.916 5.916 0 0 0 6.58-3.561 5.916 5.916 0 0 1 8.408-2.887 5.916 5.916 0 0 0 7.38-1.231"/><circle cx="54.041" cy="54.041" r="39.528" fill="#fff"/><path fill="#fa67c7" d="M25.783 20.242c.215-1 1.42-1.416 2.207-.762l5.856 4.87c.282.235.649.346 1.016.307l7.604-.812a1.352 1.352 0 0 1 1.403 1.851l-2.865 7.066c-.139.34-.132.722.017 1.057l3.1 6.945c.415.932-.317 1.974-1.34 1.906l-7.627-.504a1.37 1.37 0 0 0-1.005.347l-5.69 5.104c-.763.685-1.982.317-2.23-.673l-1.849-7.377a1.35 1.35 0 0 0-.638-.843l-6.615-3.79a1.352 1.352 0 0 1-.04-2.322l6.485-4.056c.313-.195.533-.508.61-.867z"/><path fill="#da39a1" d="M17.099 56.589a.72.72 0 0 1 .42-1.154l3.933-.776a.72.72 0 0 0 .462-.313l2.191-3.375a.71.71 0 0 1 1.221.041l1.936 3.514a.7.7 0 0 0 .437.344l3.865 1.038c.519.14.701.784.334 1.18l-2.736 2.947a.72.72 0 0 0-.192.526l.197 4.017a.716.716 0 0 1-1.015.688l-3.626-1.693a.7.7 0 0 0-.556-.019l-3.743 1.444a.71.71 0 0 1-.961-.754l.495-3.994a.72.72 0 0 0-.152-.537z"/><g clip-path="url(#a)"><path fill="#b1abb4" d="M38.608 37.958c-3.884-3.275-7.86-1.71-10.831.976-2.495 2.495-4.039 6.098-4.039 7.061 0 2.534 2.467 8.14 7.528 10.255 2.429 10.261 6.825 13.201 10.568 9.79 3.138-5.202 3.742-22.205-3.226-28.082"/><path fill="#8c818f" d="M32.252 56.347a1.95 1.95 0 0 0-1.003-1.238c-4.528-2.346-6.738-7.556-6.738-9.5 0-.963 1.033-4.108 3.266-6.675-2.876 2.597-4.811 6.243-4.811 7.57 0 2.704 2.467 8.403 7.527 10.519 2.322 9.868 6.442 13.146 10.367 10.174.346-.261.671-.656.974-1.157-3.63 2.18-7.345-.962-9.582-9.693"/><path fill="#b1abb4" d="M86.955 46.504c0-2.698-8.001-14.99-15.642-8.546q-.093.081-.184.164l-1.184 28.903c1.574.957 4.321.376 5.85-1.155 1.422-1.854 2.679-4.794 3.632-8.847 5.061-2.116 7.528-7.815 7.528-10.52"/><path fill="#8c818f" d="M71.15 66.023c1.76-3.367 3.45-10.042 3.45-13.929 0-2.91-2.395-9.358-2.395-9.358s1.193-3.624-1.076-4.614c-7.43 6.606-5.961 26.127-2.068 29.075 2.313 1.752 4.693 1.332 6.733-1.327-1.48 1.066-3.07 1.11-4.644.153"/><path fill="#f5fcff" d="M43.052 75.94c0 5.023.976 12.69 3.944 12.69.358-.379.487-1.038.487-1.893V58.205h-.647s-3.784 9.643-3.784 17.735"/><path fill="#d8e2f3" d="M43.953 75.94c0-8.092 2.883-14.445 2.883-17.735h-1.931c0 3.29-2.883 9.643-2.883 17.735 0 5.787 1.361 13.051 4.03 13.051.417 0 .724-.127.944-.36-2.017-1.532-3.043-7.668-3.043-12.691"/><path fill="#f5fcff" d="M67.9 75.94c0-8.092-2.884-14.445-2.884-17.735h-.744s-.902 14.771-.902 28.532c0 .668.567 1.896 1.391 1.896 2.038-1.529 3.138-7.667 3.138-12.693"/><path fill="#d8e2f3" d="M64.272 58.205H62.34v28.532c0 1.38.336 2.254 1.431 2.254.352 0 .681-.127.99-.358-.36-.38-.49-1.04-.49-1.896z"/><path fill="#b1abb4" d="M78.55 75.156c-7.817 0-10.05 7.968-13.926 6.658-2.412-.815-2.284-3.422-2.284-10.656 0 0 5.322-3.277 7.096-5.667 1.703-3.591 3.232-9.338 3.232-13.397 0-2.91-2.395-9.358-2.395-9.358s1.012-3.41 1.012-7.553-3.907-8.217-9.067-8.217-7.257 1.287-7.257 1.287-2.097-1.287-7.258-1.287a9.4 9.4 0 0 0-4.58 1.177c-2.055 1.542-3.457 3.958-3.457 7.04 0 4.144 1.012 7.553 1.012 7.553s-2.395 6.448-2.395 9.358c0 5.858 3.182 14.714 4.73 15.616l5.5 3.32c0 13.21 6.098 18.895 13.738 18.895 10.803 0 11.64-10.192 16.298-10.192 1.433 0 2.337.835 3.038 2.081.152.27.487.376.766.241l4.285-2.781a2 2 0 0 0-.098-.111c-1.621-1.622-3.924-4.007-7.99-4.007"/><path fill="#8c818f" d="M81.978 80.92c-.701-1.25-1.993-2.088-3.428-2.088-4.658 0-5.496 10.192-16.299 10.192-7.421 0-12.536-5.364-12.824-17.778a1.93 1.93 0 0 0-1.021-1.655l-4.492-2.396c-1.548-.901-4.73-9.243-4.73-15.1 0-2.393 1.619-7.176 2.194-8.803.127-.357.145-.741.054-1.109-.281-1.127-.865-3.852-.865-7 0-3.082.96-5.442 2.555-7.04-2.722 1.507-4.486 4.257-4.486 7.04 0 4.144 1.011 7.553 1.011 7.553s-2.394 6.448-2.394 9.358c0 5.858 3.182 15.23 5.481 16.568l4.75 2.496c0 13.004 6.097 19.797 14.767 19.797 10.803 0 11.64-10.192 16.298-10.192 1.048 0 1.83.834 2.457 1.95.3.535.968.741 1.52.475l3.63-1.75a1.413 1.413 0 0 0 .481-2.164l-3.898 1.88a.583.583 0 0 1-.761-.234"/><path fill="#8c818f" d="M62.34 70.662v.496l4.847-2.495c.706-.411 1.495-1.58 2.25-3.172-.85.683-1.647 1.146-2.25 1.498l-3.8 1.956a1.93 1.93 0 0 0-1.047 1.717"/><path fill="#394240" d="M62.251 91.92c-2.286 0-4.41-.445-6.312-1.326a.966.966 0 0 1 .811-1.752c1.647.761 3.497 1.148 5.501 1.148 6.049 0 8.647-3.34 10.94-6.285 1.563-2.01 3.04-3.907 5.359-3.907 1.924 0 2.957 1.834 3.296 2.437a.2.2 0 0 0 .262.083.966.966 0 0 1 .839 1.74 2.136 2.136 0 0 1-2.784-.875c-.818-1.454-1.417-1.454-1.613-1.454-1.308 0-2.31 1.201-3.835 3.162-2.309 2.966-5.47 7.03-12.464 7.03m-16.198-1.963c-3.953 0-4.997-9.17-4.997-14.017 0-2.48.258-4.776.623-6.879a6 6 0 0 1-.685-.778c-2.492 1.62-5.117 1.133-7.27-1.375a.966.966 0 0 1 1.466-1.258c1.529 1.782 3.097 2.109 4.784.993-.545-1.032-1.14-2.414-1.758-4.264-1.208-3.615-1.928-7.46-1.928-10.285 0-2.715 1.867-8.068 2.347-9.398a30 30 0 0 1-.759-4.09c-2.051-1.676-4.288-1.97-6.65-.872-4.186 1.946-7.295 7.51-7.295 8.77 0 2.415 2.318 7.698 6.935 9.628.285.12.496.368.567.67.527 2.237 1.16 4.176 1.88 5.762a.966.966 0 1 1-1.758.8c-.721-1.588-1.356-3.487-1.89-5.652-2.82-1.323-4.623-3.547-5.655-5.222C22.77 50.48 22 48.185 22 46.504c0-2.205 3.637-8.301 8.412-10.52 2.518-1.17 5.002-1.109 7.275.16a28 28 0 0 1-.017-.96c0-2.299 1.057-4.618 2.9-6.364C42.49 27 45.023 26 47.703 26c4.018 0 6.315.767 7.257 1.179.943-.412 3.24-1.179 7.258-1.179 2.68 0 5.213 1.001 7.133 2.82 1.843 1.746 2.9 4.065 2.9 6.363q0 .489-.017.961c2.273-1.269 4.757-1.33 7.275-.16 4.775 2.219 8.412 8.315 8.412 10.52 0 .993-.277 2.247-.78 3.53a.965.965 0 1 1-1.798-.705c.41-1.049.647-2.078.647-2.825 0-1.26-3.11-6.824-7.295-8.77-2.362-1.097-4.599-.804-6.65.872a30 30 0 0 1-.759 4.09c.48 1.33 2.347 6.683 2.347 9.398 0 2.825-.72 6.67-1.928 10.285-.393 1.177-1.004 2.824-1.759 4.263.977.644 1.929.805 2.834.479 2.277-.82 4.358-4.582 5.707-10.32a.97.97 0 0 1 .568-.669c2.3-.961 3.851-2.68 4.748-3.951a.966.966 0 0 1 1.579 1.112c-1.39 1.971-3.154 3.49-5.127 4.419-1.55 6.297-3.903 10.175-6.82 11.226-1.478.532-3.025.306-4.504-.652-.222.296-.453.56-.689.78.365 2.102.623 4.396.623 6.874 0 .972-.04 1.975-.117 2.973l.134-.123c2.112-1.941 5.005-4.6 9.667-4.6 4.39 0 6.912 2.526 8.58 4.198l.094.093a2.382 2.382 0 0 1-.648 3.827l-.33.16a.966.966 0 0 1-.84-1.74l.331-.16a.44.44 0 0 0 .247-.328.44.44 0 0 0-.126-.394l-.094-.094c-1.53-1.532-3.625-3.63-7.213-3.63-3.91 0-6.275 2.173-8.36 4.09-1.843 1.692-3.584 3.291-5.875 2.517-1.474-.498-2.29-1.55-2.643-3.414-.303-1.59-.3-3.787-.298-7.111v-1.045c0-.362.203-.693.524-.859l4.205-2.165c-.328-1.643-.708-3.16-1.053-4.537-.558-2.23-1-3.993-1-5.393a.966.966 0 1 1 1.932 0c0 1.162.436 2.905.942 4.923.27 1.077.56 2.236.831 3.474 1.75-2.818 3.947-9.56 3.947-14.508 0-2.243-1.685-7.272-2.334-9.021a.97.97 0 0 1-.02-.61c.009-.033.971-3.337.971-7.28 0-1.77-.837-3.578-2.297-4.96a8.4 8.4 0 0 0-5.804-2.292c-3.458 0-5.455.604-6.292.937v5.06a.966.966 0 1 1-1.931 0v-5.061c-.832-.33-2.83-.936-6.292-.936a8.4 8.4 0 0 0-5.805 2.29c-1.46 1.384-2.297 3.192-2.297 4.963 0 3.957.963 7.245.972 7.278.06.2.053.415-.02.61-.65 1.75-2.334 6.779-2.334 9.022 0 4.948 2.197 11.69 3.947 14.508.271-1.239.561-2.397.831-3.474.506-2.018.942-3.761.942-4.923a.966.966 0 1 1 1.931 0c0 1.4-.44 3.162-1 5.392-.345 1.38-.725 2.898-1.053 4.544l4.115 2.162a.97.97 0 0 1 .517.855c0 7.155 1.882 12.62 5.444 15.802a.966.966 0 1 1-1.287 1.44c-1.758-1.57-3.15-3.61-4.157-6.062v4.4c0 2.66-1.303 3.219-2.396 3.219M43.46 70.135a37.4 37.4 0 0 0-.474 5.805c0 2.973.367 6.131.982 8.448.667 2.513 1.527 3.637 2.084 3.637.218 0 .246-.05.285-.119.067-.118.18-.429.18-1.169V71.742zm19.845 1.612v.458c-.008 7.794.358 8.265 1.628 8.694.56.19 1.094.076 1.698-.275a37 37 0 0 0 .302-4.684c0-2.063-.191-4.006-.475-5.816zm-4.836 8.407a.96.96 0 0 1-.564-.182c-1.02-.735-2.741-.735-3.76 0a.966.966 0 1 1-1.13-1.567c1.688-1.217 4.332-1.217 6.02 0a.966.966 0 0 1-.566 1.75m-.606-6.084a.96.96 0 0 1-.564-.183c-1.182-.851-3.178-.851-4.359 0a.966.966 0 0 1-1.13-1.566c1.856-1.338 4.763-1.338 6.618 0a.966.966 0 0 1-.566 1.749m1.16-6.978a.96.96 0 0 1-.563-.182c-1.898-1.369-5.104-1.369-7.001 0a.966.966 0 1 1-1.13-1.567c2.596-1.872 6.664-1.872 9.26 0a.966.966 0 0 1-.565 1.749m.55-7.725a.96.96 0 0 1-.564-.182c-2.195-1.584-5.904-1.584-8.1 0a.966.966 0 0 1-1.13-1.567c2.905-2.094 7.455-2.094 10.36 0a.966.966 0 0 1-.566 1.749m7.805-4.59a.966.966 0 0 1-.966-.967V50.6a.966.966 0 1 1 1.931 0v3.21a.966.966 0 0 1-.965.966m-24.837 0a.966.966 0 0 1-.965-.967V50.6a.966.966 0 1 1 1.931 0v3.21a.966.966 0 0 1-.966.966m17.032-3.135a.96.96 0 0 1-.564-.183c-2.195-1.583-5.904-1.583-8.1 0a.966.966 0 1 1-1.13-1.566c2.905-2.095 7.455-2.095 10.36 0a.966.966 0 0 1-.566 1.749m-1.054-7.883a.96.96 0 0 1-.564-.182c-1.624-1.171-4.367-1.171-5.99 0a.966.966 0 0 1-1.13-1.567c2.313-1.668 5.936-1.668 8.25 0a.966.966 0 0 1-.566 1.75"/></g><defs><clipPath id="a"><path fill="#fff" d="M22 26h65.921v65.921H22z"/></clipPath></defs></svg>