<svg xmlns="http://www.w3.org/2000/svg" width="114" height="146" fill="none" viewBox="0 0 114 146"><path fill="#a8c5ff" d="M53.91 5.148a6.02 6.02 0 0 1 9.046 0 6.02 6.02 0 0 0 7.51 1.253c3.153-1.803 7.173-.423 8.554 2.937a6.02 6.02 0 0 0 6.696 3.623c3.568-.68 6.922 1.93 7.138 5.556a6.02 6.02 0 0 0 5.156 5.601c3.596.515 5.921 4.073 4.948 7.573a6.02 6.02 0 0 0 3.058 6.972c3.234 1.654 4.277 5.774 2.22 8.768a6.02 6.02 0 0 0 .629 7.588c2.522 2.614 2.171 6.85-.747 9.014a6.02 6.02 0 0 0-1.869 7.38c1.536 3.292-.171 7.184-3.633 8.284a6.02 6.02 0 0 0-4.164 6.373c.383 3.613-2.495 6.74-6.126 6.655a6.02 6.02 0 0 0-6.009 4.676c-.81 3.541-4.547 5.564-7.954 4.305a6.02 6.02 0 0 0-7.201 2.472 6.02 6.02 0 0 1-8.922 1.489 6.02 6.02 0 0 0-7.614 0c-2.814 2.297-7.006 1.598-8.921-1.489a6.02 6.02 0 0 0-7.201-2.472c-3.408 1.259-7.145-.764-7.955-4.305a6.02 6.02 0 0 0-6.008-4.676 6.02 6.02 0 0 1-6.126-6.655 6.02 6.02 0 0 0-4.165-6.373c-3.462-1.1-5.169-4.992-3.633-8.284a6.02 6.02 0 0 0-1.869-7.38c-2.918-2.164-3.269-6.4-.747-9.014a6.02 6.02 0 0 0 .629-7.588c-2.057-2.994-1.014-7.114 2.22-8.768a6.02 6.02 0 0 0 3.059-6.972c-.974-3.5 1.35-7.058 4.947-7.573a6.02 6.02 0 0 0 5.156-5.601c.216-3.626 3.57-6.236 7.138-5.556a6.02 6.02 0 0 0 6.696-3.623c1.382-3.36 5.401-4.74 8.555-2.937a6.02 6.02 0 0 0 7.51-1.253"/><path fill="#a8c5ff" d="M26.473 76.33h60.343v52.97c0 7.389-7.737 12.226-14.38 8.991l-11.412-5.56a10 10 0 0 0-8.759 0l-11.413 5.56c-6.642 3.235-14.379-1.602-14.379-8.991z"/><path fill="#da39a1" d="M26.473 76.33H81.07v46.493c0 7.391-7.742 12.228-14.385 8.987l-8.528-4.161a10 10 0 0 0-8.77 0l-8.528 4.161c-6.643 3.241-14.385-1.596-14.385-8.987z"/><path fill="#072a6f" d="M49.979 5.823a5.916 5.916 0 0 1 8.889 0 5.916 5.916 0 0 0 7.38 1.231 5.916 5.916 0 0 1 8.407 2.887 5.916 5.916 0 0 0 6.58 3.56 5.916 5.916 0 0 1 7.015 5.46 5.916 5.916 0 0 0 5.068 5.505 5.916 5.916 0 0 1 4.862 7.442 5.916 5.916 0 0 0 3.005 6.852 5.916 5.916 0 0 1 2.183 8.617 5.916 5.916 0 0 0 .617 7.457 5.915 5.915 0 0 1-.734 8.859 5.916 5.916 0 0 0-1.836 7.253 5.917 5.917 0 0 1-3.571 8.14 5.916 5.916 0 0 0-4.093 6.264 5.916 5.916 0 0 1-6.02 6.54 5.916 5.916 0 0 0-5.904 4.596 5.917 5.917 0 0 1-7.818 4.231 5.915 5.915 0 0 0-7.077 2.429 5.916 5.916 0 0 1-8.768 1.463 5.92 5.92 0 0 0-7.482 0 5.916 5.916 0 0 1-8.768-1.463 5.915 5.915 0 0 0-7.077-2.429 5.917 5.917 0 0 1-7.818-4.231 5.916 5.916 0 0 0-5.904-4.596 5.916 5.916 0 0 1-6.02-6.54 5.916 5.916 0 0 0-4.093-6.264 5.916 5.916 0 0 1-3.57-8.14 5.916 5.916 0 0 0-1.837-7.253 5.916 5.916 0 0 1-.735-8.859 5.916 5.916 0 0 0 .618-7.457A5.916 5.916 0 0 1 7.66 38.76a5.916 5.916 0 0 0 3.006-6.852 5.916 5.916 0 0 1 4.862-7.442 5.916 5.916 0 0 0 5.068-5.504 5.916 5.916 0 0 1 7.014-5.46 5.916 5.916 0 0 0 6.58-3.561 5.916 5.916 0 0 1 8.408-2.887 5.916 5.916 0 0 0 7.38-1.231"/><circle cx="54.041" cy="54.041" r="39.528" fill="#fff"/><path fill="#fa67c7" d="M25.783 20.242c.215-1 1.42-1.416 2.207-.762l5.856 4.87c.282.235.649.346 1.016.307l7.604-.812a1.352 1.352 0 0 1 1.403 1.851l-2.865 7.066a1.35 1.35 0 0 0 .017 1.057l3.1 6.945c.415.932-.317 1.974-1.34 1.906l-7.627-.504a1.37 1.37 0 0 0-1.005.347l-5.69 5.104c-.763.685-1.982.317-2.23-.673l-1.849-7.377a1.35 1.35 0 0 0-.638-.843l-6.615-3.79a1.352 1.352 0 0 1-.04-2.322l6.485-4.056c.313-.195.533-.508.61-.867z"/><path fill="#da39a1" d="M17.099 56.589a.72.72 0 0 1 .42-1.154l3.933-.776a.72.72 0 0 0 .462-.313l2.191-3.375a.71.71 0 0 1 1.221.041l1.936 3.514a.7.7 0 0 0 .437.344l3.865 1.038c.519.14.701.784.334 1.18l-2.736 2.947a.72.72 0 0 0-.192.526l.197 4.017a.716.716 0 0 1-1.015.688l-3.626-1.693a.7.7 0 0 0-.556-.019l-3.743 1.444a.71.71 0 0 1-.961-.754l.495-3.994a.72.72 0 0 0-.152-.537z"/><path fill="#fccd7f" d="m35.793 74.053 2.386 5.477c.495 1.137 1.353 2.005 2.392 2.42l6.029.786 18.374 2.333 4.228-1.688c1.039-.414 1.897-1.282 2.392-2.42l2.387-5.476 5.507-28.701-10.355-11.316c-1.471-1.71-3.676-4.146-10.201-4.964-1.426-.179-3.057 2.157-4.933 2.157-1.874 0-3.505-2.335-4.931-2.155-2.274.287-4.026.771-5.408 1.356-2.525 1.067-2.921 4.89-3.9 6.027l-4.123 8.484z"/><path fill="#f7bf65" d="M41.609 80.118c-1.039-.414-1.897-1.282-2.393-2.42-.18-.412-.162-.9.038-1.299q.189-.372.31-.794a13.5 13.5 0 0 0 .143-6.957.18.18 0 0 1 .055-.177c.796-.654 1.359-1.674 1.505-2.872.261-2.124.173-4.2-.26-6.174-.291-1.327-.941-3.34-1.986-6.153-1.277-3.435-1.212-7.332.178-10.69l4.46-10.72c-1.81.765-2.984 1.702-3.866 2.591l.007-.008a20 20 0 0 0-.935 1.023l-9.906 11.816 5.059 28.2 2.386 5.478c.495 1.137 1.353 2.005 2.392 2.419l4.213 1.688 2.111-3.551z"/><path fill="#fdf9f3" d="M61.714 76.795H46.287l-.093 12.277c-.073.878-.856 2.581-.45 3.24.544.883 1.434 1.464 2.45 1.464 1.382 0 2.609-1.022 3.05-2.541.4-1.372 1.508-2.296 2.756-2.296s2.357.924 2.756 2.296c.442 1.519 1.67 2.541 3.05 2.541 1.016 0 1.906-.58 2.45-1.462.406-.66-.407-2.363-.48-3.242z"/><path fill="#feeed3" d="M62.255 92.314c.407-.66.62-1.486.547-2.365l-1.089-13.154H46.286l-1.09 13.154a3.9 3.9 0 0 0 .548 2.364q.232.019.468.02c.743 0 1.478-.146 2.188-.436 1.529-.626 2.664-2.844 2.854-4.712.25-2.456 1.226-4.672 2.745-6.317 1.526 1.653 2.504 3.88 2.748 6.348.183 1.847 1.34 4.063 2.85 4.681l.021.009c.703.285 1.433.43 2.17.43q.235-.001.467-.022"/><path fill="#feeed3" d="M50.323 79.084c.35 1.252 1.057 3.979 1.904 4.473a3.5 3.5 0 0 0 3.545 0c.848-.493 1.555-3.082 1.906-4.334z"/><path fill="#fddeb0" d="M50.266 80.763c.351 1.251 1.113 2.3 1.96 2.794.39-.856.884-1.646 1.469-2.344a.385.385 0 0 1 .608 0 10.3 10.3 0 0 1 1.468 2.344c.847-.493 1.572-1.423 1.922-2.675l-1.569-4.087h-4.245z"/><path fill="#fdf9f3" d="m49.068 30.506 1.043 2.174c1.162 2.427 1.772 5.158 1.77 7.934l-.001 6.35c-.002 3.224-1.473 6.206-3.868 7.84-3.428 2.342-5.534 6.611-5.537 11.227a38981 38981 0 0 0-.006 18.687c0 3 2.556 5.1 4.995 4.102.506-.207.866-.73.929-1.348l.068-.669c.371-3.657 2.001-6.956 4.49-9.174.334-.297 1.767-.294 2.099.003 2.493 2.226 4.128 5.545 4.49 9.212l.063.623c.06.62.422 1.145.93 1.353l.003.001c2.44.998 4.996-1.102 4.998-4.102l.009-18.82c.002-4.522-2.059-8.706-5.417-10.999l-.115-.078c-2.431-1.66-3.907-4.659-3.906-7.898l.002-6.305c0-2.78.613-5.513 1.78-7.94l1.045-2.175a43.4 43.4 0 0 0-9.864.002"/><path fill="#7a6d79" d="m58.72 67.13-1.204-.001c-1.105.922-1.33 1.547-1.597 2.545l-.026.106c-.169.706-.723 1.195-1.355 1.195h-1.077c-.632 0-1.187-.49-1.355-1.196l-.026-.106c-.312-1.165-.695-1.82-1.596-2.544H49.28l1.192-6.557h7.347z"/><path fill="#685e68" d="M51.809 64.219v1.442c0 .811-.567 1.469-1.266 1.469H49.28c-1.276 0-2.311-1.201-2.311-2.682 0-3.154 2.203-5.71 4.922-5.71h4.218c2.719 0 4.922 2.556 4.922 5.71 0 1.481-1.035 2.682-2.311 2.682h-1.262c-.7 0-1.266-.658-1.266-1.469V64.22c0-1.405-.981-2.544-2.191-2.544-1.211 0-2.192 1.139-2.192 2.544"/><path fill="#aa846a" d="m60.46 44.953-.059-1.272c-.061-1.329.866-2.434 2.013-2.404 1.292.033 2.709.266 3.459.654 2.75 1.422 2.996 4.23 2.749 6.26-.126 1.029-1.177 1.473-1.855.792-.735-.74-1.531-1.312-2.261-1.584-.433-.161-1.332-.252-2.166-.289-1.012-.045-1.825-.984-1.88-2.157m-12.92-.001.06-1.271c.06-1.33-.867-2.434-2.014-2.405-1.292.033-2.708.266-3.459.654-2.75 1.422-2.996 4.231-2.748 6.26.125 1.03 1.177 1.474 1.854.793.736-.74 1.532-1.312 2.262-1.584.433-.162 1.331-.252 2.165-.289 1.012-.045 1.826-.984 1.88-2.158m25.487 29.352-.71.607c-.383.327-.932.13-1.082-.393a9.5 9.5 0 0 1-.201-4.495 8.7 8.7 0 0 1 1.614-3.603c.16-.209.037-.538-.203-.544l-2.11-.055c-.345-.01-.631-.308-.68-.705-.16-1.304-.208-2.995.198-4.844.288-1.312 1.035-3.485 1.837-5.643 1.612-4.338 1.534-9.271-.227-13.53l-2.33-5.63c1.692-1.419 4.044-1.045 5.345.848l.651.949c2.212 3.22 5.011 5.83 8.197 7.644 1.926 1.097 3.316 3.154 3.77 5.588.768 4.11 1.849 10.39 1.849 13.182 0 1.202-.163 2.883-.713 4.776a17 17 0 0 1-1.915 4.28c-.313.497-.97.425-1.2-.13l-.45-1.086c-.123-.298-.507-.22-.532.11-.074.97-.319 2.243-1.006 3.508a7.5 7.5 0 0 1-1.428 1.868c-.288.273-.71.232-.96-.088l-1.34-1.716c-.13-.165-.361-.136-.454.06-.426.894-.96 2.324-1.094 4.167q-.048.7-.022 1.32c.037.986-.933 1.564-1.596.945a8.2 8.2 0 0 1-1.594-2.06c-.947-1.722-1.223-3.734-1.166-5.049.011-.276-.256-.445-.448-.281m-38.054 0 .711.607c.383.327.931.13 1.082-.393a9.54 9.54 0 0 0 .2-4.495 8.7 8.7 0 0 0-1.614-3.603c-.16-.209-.037-.538.203-.544l2.11-.055c.345-.01.632-.308.68-.705.16-1.304.208-2.995-.198-4.844-.288-1.312-1.035-3.485-1.837-5.643-1.611-4.338-1.534-9.271.228-13.53l2.329-5.63c-1.691-1.419-4.044-1.045-5.344.848l-.652.949c-2.211 3.22-4.762 5.684-7.948 7.497l-.385.556c-2.28 2.881-2.854 5.502-3.309 7.936-.768 4.11-.429 6.886-.429 9.678 0 1.202.163 2.883.714 4.776.526 1.81 2.693.413 3.018-.373-.052.77-.372 3.754.742 5.804.448.825.967 1.43 1.418 1.859a.64.64 0 0 0 .97-.08c.534-.682.933-1.43 1.466-2.112.438.835 1.353 2.748 1.508 4.888.034.466.578.942.562 1.354-.037.986 3.057-1.591 3.215-2.622a9.7 9.7 0 0 0 .113-1.843c-.012-.275.255-.444.447-.28"/><path fill="#9c775f" d="M24.346 51.377c0-2.266.198-4.478.576-6.614q-.123.075-.248.147c-1.927 1.096-3.316 3.154-3.771 5.588-.768 4.11-1.848 10.389-1.848 13.181 0 1.203.162 2.884.713 4.776a17 17 0 0 0 1.914 4.28c.313.498.97.425 1.2-.13l.45-1.085c.123-.298.508-.22.533.11.074.97.318 2.243 1.006 3.508.451.83.974 1.438 1.427 1.868.289.273.711.232.961-.088l1.34-1.716c.13-.166.36-.136.454.059.425.895.96 2.325 1.093 4.168.034.466.038.907.023 1.319-.038.986.933 1.564 1.596.946a8.2 8.2 0 0 0 1.594-2.06c.57-1.036.895-2.176 1.053-3.206-6.154-6-10.066-14.995-10.066-25.051"/><path fill="#394240" d="M69.666 48.36c.43-3.524-.765-6.205-3.364-7.548-.992-.513-2.647-.729-3.865-.76-.838-.024-1.658.367-2.242 1.067-.583.699-.892 1.656-.847 2.627l.059 1.271c.084 1.82 1.328 3.245 2.893 3.315q.526.025.908.063v3.3c0 .676.472 1.224 1.055 1.224.582 0 1.054-.548 1.054-1.224v-2.463q.38.293.76.675c.406.409.918.624 1.437.624.257 0 .516-.053.764-.16.744-.324 1.276-1.094 1.388-2.01m-2.089-.342c-.003.027-.008.047-.038.06-.042.018-.066-.006-.08-.02-.873-.878-1.782-1.508-2.63-1.825-.599-.223-1.662-.312-2.448-.347-.47-.02-.842-.45-.868-1l-.058-1.271a1.15 1.15 0 0 1 .255-.792.85.85 0 0 1 .68-.324c1.235.032 2.49.257 3.054.548 1.734.897 2.432 2.523 2.133 4.97"/><path fill="#394240" d="M88.128 50.238a10.2 10.2 0 0 0-1.204-3.265c-.327-.56-.983-.707-1.465-.328s-.609 1.14-.282 1.7a7.5 7.5 0 0 1 .89 2.412c1.176 6.297 1.824 10.886 1.824 12.922 0 .969-.115 2.516-.658 4.385a15.7 15.7 0 0 1-1.426 3.38l-.715-1.727c-.22-.53-.734-.804-1.224-.651s-.818.69-.778 1.277c.058.854.024 2.528-.853 4.142-.262.483-.58.924-.946 1.315l-1.367-1.751c-.224-.286-.55-.434-.882-.397s-.628.252-.8.582a13.1 13.1 0 0 0-1.47 6.387 7 7 0 0 1-1.242-1.646c-1.045-1.9-1.09-4.096-.948-4.862.093-.497-.09-1.01-.458-1.285a.94.94 0 0 0-1.198.042l-.83.709a8.1 8.1 0 0 1-.035-3.28 7.4 7.4 0 0 1 1.751-3.516c.312-.34.415-.865.262-1.329s-.533-.774-.961-.785l-2.452-.064a12.9 12.9 0 0 1 .214-4.032c.232-1.057.849-2.946 1.783-5.46 1.736-4.67 1.647-9.972-.245-14.544l-1.89-4.57c1.107-.427 2.365-.033 3.13 1.08l.652.949c2.042 2.973 4.528 5.42 7.39 7.271.508.33 1.15.118 1.434-.472s.102-1.336-.407-1.665c-2.62-1.696-4.898-3.936-6.768-6.66l-.651-.948c-1.462-2.128-3.96-2.744-6.005-1.614C67.396 31.843 63.958 29 54 29c-9.38 0-12.963 2.443-15.291 4.944-2.047-1.135-4.548-.52-6.012 1.61l-.652.949c-2.1 3.058-4.81 5.585-7.836 7.308-2.23 1.27-3.81 3.612-4.337 6.427C19.018 54.81 18 60.853 18 63.68c0 1.152.133 2.984.769 5.168a18.2 18.2 0 0 0 2.062 4.61c.367.584.957.892 1.577.827a1.6 1.6 0 0 0 .813-.33c.178.6.423 1.221.758 1.837.444.817 1 1.544 1.652 2.163.723.684 1.781.59 2.41-.215l.558-.714a10.4 10.4 0 0 1 .516 3.669c-.036.945.392 1.796 1.116 2.222.295.174.61.259.922.259.452 0 .898-.179 1.273-.527a9.4 9.4 0 0 0 2.185-3.09l.853 1.956c.622 1.43 1.685 2.504 2.99 3.024l3.041 1.213c.297 1.636 1.159 3.158 2.659 4-.126 1.14.24 2.707 1.031 3.704.769.982 1.866 1.545 3.009 1.545 1.835 0 3.463-1.356 4.05-3.374.254-.875.96-1.463 1.756-1.463s1.502.588 1.756 1.463C56.343 93.644 57.97 95 59.806 95c1.143 0 2.24-.563 3.009-1.545.69-.848 1.166-2.387 1.03-3.702 1.166-.573 2.466-2.35 2.663-4.004l3.038-1.21c1.305-.521 2.367-1.595 2.99-3.025l.853-1.957a9.6 9.6 0 0 0 2.185 3.09c.374.35.821.528 1.273.528.313 0 .627-.085.922-.259.724-.426 1.152-1.277 1.116-2.222a10.4 10.4 0 0 1 .517-3.669l.557.714c.629.806 1.687.9 2.41.215a8.7 8.7 0 0 0 1.652-2.163c.335-.616.58-1.237.758-1.836.238.182.515.297.812.33.62.065 1.21-.244 1.578-.828a18.2 18.2 0 0 0 2.062-4.61c.636-2.184.769-4.016.769-5.168 0-2.826-1.018-8.869-1.872-13.44M61.254 91.81c-.376.48-.89.743-1.448.743-.93 0-1.753-.686-2.05-1.708-.545-1.872-2.054-3.129-3.756-3.129s-3.211 1.257-3.755 3.129c-.297 1.022-1.121 1.708-2.051 1.708-.558 0-1.072-.264-1.448-.743a2.45 2.45 0 0 1-.508-1.514 4.3 4.3 0 0 0 1.577-.322c.892-.365 1.515-1.269 1.626-2.359l.068-.668c.127-1.252.415-2.45.84-3.567.9 1.178 2.2 1.876 3.651 1.876s2.75-.697 3.65-1.875c.43 1.128.718 2.338.843 3.603l.062.623c.107 1.078.745 2.007 1.63 2.369.52.212 1.05.318 1.577.323a2.45 2.45 0 0 1-.508 1.511M51.89 62.417c-.582 0-1.055.548-1.055 1.224v1.856c0 .225-.157.408-.351.408h-1.192c-.7 0-1.27-.661-1.27-1.474 0-2.474 1.735-4.487 3.867-4.487h4.22c2.132 0 3.866 2.013 3.866 4.487 0 .813-.57 1.474-1.27 1.474h-1.19c-.194 0-.352-.183-.352-.408V63.64c0-.676-.472-1.224-1.054-1.224s-1.055.548-1.055 1.224v1.856c0 .74.246 1.413.645 1.92a6.3 6.3 0 0 0-.818 2.026c-.037.185-.178.314-.342.314h-1.08c-.164 0-.305-.129-.343-.314a6.2 6.2 0 0 0-.817-2.025c.4-.508.646-1.181.646-1.921V63.64c0-.676-.472-1.224-1.055-1.224M54 78.254a11.6 11.6 0 0 1 2.484 2.794c-.544 1.285-1.606 1.76-2.484 1.76s-1.94-.475-2.484-1.76A11.5 11.5 0 0 1 54 78.254m16.654 2.156c-.374.857-1.01 1.501-1.794 1.814l-2.27.905.008-17.23c.001-2.817-.72-5.537-2.084-7.867-.328-.559-.984-.704-1.465-.323s-.607 1.14-.28 1.7c1.126 1.921 1.72 4.165 1.72 6.488l-.01 18.82c0 1.029-.415 1.96-1.139 2.553-.723.594-1.617.74-2.457.395a.4.4 0 0 1-.232-.338l-.062-.623c-.429-4.336-2.435-8.153-5.534-10.576v-3.987c.813-.177 1.593-.927 1.89-2.187.15-.634.456-1.21.908-1.601h.854c1.863 0 3.379-1.76 3.379-3.921 0-3.824-2.681-6.935-5.977-6.935h-4.218c-3.296 0-5.977 3.11-5.977 6.935 0 2.162 1.516 3.92 3.38 3.92h.854c.451.392.781.96.906 1.601.2 1.032.947 1.964 1.891 2.188v3.987c-3.087 2.412-5.092 6.213-5.531 10.532l-.068.668a.4.4 0 0 1-.232.338c-.836.341-1.73.197-2.453-.397s-1.137-1.523-1.137-2.551c0-2.605 0-5.784.002-9.015 0-.676-.472-1.224-1.055-1.224-.582 0-1.055.548-1.055 1.223l-.001 7.43-2.275-.908c-.783-.312-1.42-.956-1.794-1.814l-1.838-4.22.002-.016c.357.148.753.16 1.122.024.532-.195.956-.678 1.133-1.292.34-1.176.654-3.027.228-5.16a10.2 10.2 0 0 0-.932-2.686l.627-.016c.863-.023 1.579-.761 1.7-1.756.226-1.837.152-3.627-.22-5.32-.262-1.196-.898-3.156-1.89-5.824a17.4 17.4 0 0 1-1.033-7.105c.043-.674-.393-1.26-.974-1.31-.58-.05-1.087.457-1.13 1.13a20.2 20.2 0 0 0 1.2 8.254c.935 2.514 1.551 4.402 1.784 5.46.28 1.278.352 2.633.213 4.032l-2.451.064c-.428.011-.808.321-.961.785-.154.464-.05.989.261 1.33a7.4 7.4 0 0 1 1.751 3.515 8.1 8.1 0 0 1-.035 3.28l-.83-.709a.94.94 0 0 0-1.197-.042c-.368.276-.551.788-.459 1.285.142.766.097 2.962-.948 4.862a7 7 0 0 1-1.241 1.646 13.1 13.1 0 0 0-1.47-6.387c-.172-.33-.47-.545-.8-.582-.332-.036-.659.11-.882.397L26.708 75.8a6.4 6.4 0 0 1-.945-1.315c-.877-1.614-.912-3.287-.854-4.142.04-.587-.287-1.124-.777-1.277-.49-.154-1.005.12-1.225.651l-.715 1.727a15.7 15.7 0 0 1-1.425-3.38c-.543-1.87-.658-3.416-.658-4.385 0-2.036.648-6.625 1.825-12.922.389-2.08 1.556-3.81 3.204-4.749 3.305-1.88 6.264-4.64 8.557-7.98l.652-.948c.765-1.114 2.023-1.508 3.13-1.08-.495 1.205-1.601 3.85-2.044 4.952-.24.617-.003 1.341.528 1.619.53.277 1.156.003 1.395-.613.095-.257 2.25-5.44 2.383-5.772 1.244-1.44 3.203-3.529 8.752-4.368l.699 1.457c1.072 2.239 1.639 4.776 1.638 7.338l-.003 6.35c-.001 2.778-1.284 5.378-3.347 6.787-3.733 2.549-6.054 7.254-6.058 12.28l-.002 3.95c0 .677.472 1.225 1.054 1.225h.001c.582 0 1.054-.547 1.055-1.223l.002-3.95c.003-4.163 1.925-8.061 5.018-10.172 2.704-1.847 4.384-5.255 4.387-8.895l.002-6.35c.001-2.978-.657-5.927-1.904-8.53l-.25-.523c.98-.074 2.048-.114 3.217-.114 1.168 0 2.236.04 3.215.114l-.25.52c-1.25 2.604-1.912 5.556-1.913 8.537v6.304c-.003 3.657 1.693 7.088 4.424 8.953l.058.039c.168.115.352.17.535.17.36 0 .712-.216.91-.603.295-.582.128-1.332-.374-1.675l-.058-.04c-2.09-1.428-3.388-4.05-3.386-6.843v-6.305c.001-2.565.57-5.105 1.647-7.345l.7-1.457c5.55.84 7.51 2.93 8.753 4.369l2.251 5.442c1.627 3.934 1.704 8.496.21 12.516-.992 2.668-1.628 4.628-1.89 5.825-.372 1.693-.446 3.482-.22 5.32.121.994.837 1.733 1.7 1.755l.627.016a10.2 10.2 0 0 0-.932 2.686 11 11 0 0 0 .228 5.16c.177.614.6 1.097 1.133 1.293.37.136.765.123 1.122-.024l.002.016z"/><path fill="#394240" d="M42.682 49.232v2.463c0 .676.472 1.224 1.055 1.224.582 0 1.054-.548 1.054-1.224v-3.3q.382-.038.909-.063c1.564-.07 2.808-1.495 2.892-3.315l.06-1.271c.044-.97-.264-1.928-.847-2.627-.585-.7-1.405-1.092-2.243-1.067-1.218.031-2.873.247-3.865.76-2.599 1.343-3.793 4.024-3.364 7.549.112.916.644 1.686 1.389 2.01.248.107.506.16.763.16.519 0 1.031-.215 1.438-.624q.38-.382.76-.675m-2.221-1.154c-.03-.014-.035-.033-.039-.06-.298-2.448.4-4.074 2.134-4.97.564-.292 1.819-.517 3.053-.55h.021c.252 0 .485.115.66.325.178.213.27.494.255.791l-.059 1.272c-.025.549-.398.98-.867 1-.787.035-1.85.124-2.447.347-.85.316-1.759.947-2.63 1.824-.015.015-.04.04-.081.02"/></svg>