<svg xmlns="http://www.w3.org/2000/svg" width="114" height="146" fill="none" viewBox="0 0 114 146"><path fill="#a8c5ff" d="M53.91 5.148a6.02 6.02 0 0 1 9.046 0 6.02 6.02 0 0 0 7.51 1.253c3.153-1.803 7.173-.423 8.554 2.937a6.02 6.02 0 0 0 6.696 3.623c3.568-.68 6.922 1.93 7.138 5.556a6.02 6.02 0 0 0 5.156 5.601c3.596.515 5.921 4.073 4.948 7.573a6.02 6.02 0 0 0 3.058 6.972c3.234 1.654 4.277 5.774 2.22 8.768a6.02 6.02 0 0 0 .629 7.588c2.522 2.614 2.171 6.85-.747 9.014a6.02 6.02 0 0 0-1.869 7.38c1.536 3.292-.171 7.184-3.633 8.284a6.02 6.02 0 0 0-4.165 6.373c.385 3.613-2.494 6.74-6.125 6.655a6.02 6.02 0 0 0-6.009 4.676c-.81 3.541-4.547 5.564-7.954 4.305a6.02 6.02 0 0 0-7.202 2.472c-1.915 3.087-6.107 3.786-8.921 1.489a6.02 6.02 0 0 0-7.614 0c-2.814 2.297-7.006 1.598-8.921-1.489a6.02 6.02 0 0 0-7.201-2.472c-3.408 1.259-7.145-.764-7.955-4.305a6.02 6.02 0 0 0-6.008-4.676 6.02 6.02 0 0 1-6.126-6.655 6.02 6.02 0 0 0-4.165-6.373c-3.462-1.1-5.169-4.992-3.633-8.284a6.02 6.02 0 0 0-1.869-7.38c-2.918-2.164-3.269-6.4-.747-9.014a6.02 6.02 0 0 0 .629-7.588c-2.057-2.994-1.014-7.114 2.22-8.768a6.02 6.02 0 0 0 3.059-6.972c-.974-3.5 1.35-7.058 4.947-7.573a6.02 6.02 0 0 0 5.156-5.601c.216-3.626 3.57-6.236 7.138-5.556a6.02 6.02 0 0 0 6.696-3.623c1.381-3.36 5.401-4.74 8.555-2.937a6.02 6.02 0 0 0 7.51-1.253"/><path fill="#a8c5ff" d="M26.473 76.33h60.343v52.97c0 7.389-7.737 12.226-14.38 8.991l-11.412-5.56a10 10 0 0 0-8.759 0l-11.413 5.56c-6.642 3.235-14.379-1.602-14.379-8.991z"/><path fill="#da39a1" d="M26.473 76.33H81.07v46.493c0 7.391-7.742 12.228-14.385 8.987l-8.528-4.161a10 10 0 0 0-8.77 0l-8.528 4.161c-6.643 3.241-14.385-1.596-14.385-8.987z"/><path fill="#072a6f" d="M49.979 5.823a5.916 5.916 0 0 1 8.889 0 5.916 5.916 0 0 0 7.38 1.231 5.916 5.916 0 0 1 8.407 2.887 5.916 5.916 0 0 0 6.58 3.56 5.916 5.916 0 0 1 7.015 5.46 5.916 5.916 0 0 0 5.068 5.505 5.916 5.916 0 0 1 4.862 7.442 5.916 5.916 0 0 0 3.005 6.852 5.916 5.916 0 0 1 2.183 8.617 5.916 5.916 0 0 0 .617 7.457 5.915 5.915 0 0 1-.734 8.859 5.916 5.916 0 0 0-1.836 7.253 5.917 5.917 0 0 1-3.571 8.14 5.916 5.916 0 0 0-4.093 6.264 5.916 5.916 0 0 1-6.02 6.54 5.916 5.916 0 0 0-5.904 4.596 5.917 5.917 0 0 1-7.818 4.231 5.915 5.915 0 0 0-7.077 2.429 5.916 5.916 0 0 1-8.768 1.463 5.92 5.92 0 0 0-7.482 0 5.916 5.916 0 0 1-8.768-1.463 5.915 5.915 0 0 0-7.077-2.429 5.917 5.917 0 0 1-7.818-4.231 5.916 5.916 0 0 0-5.904-4.596 5.916 5.916 0 0 1-6.02-6.54 5.916 5.916 0 0 0-4.093-6.264 5.916 5.916 0 0 1-3.57-8.14 5.916 5.916 0 0 0-1.837-7.253 5.916 5.916 0 0 1-.735-8.859 5.916 5.916 0 0 0 .618-7.457A5.916 5.916 0 0 1 7.66 38.76a5.916 5.916 0 0 0 3.006-6.852 5.916 5.916 0 0 1 4.862-7.442 5.916 5.916 0 0 0 5.068-5.504 5.916 5.916 0 0 1 7.014-5.46 5.916 5.916 0 0 0 6.58-3.561 5.916 5.916 0 0 1 8.408-2.887 5.916 5.916 0 0 0 7.38-1.231"/><circle cx="54.041" cy="54.041" r="39.528" fill="#fff"/><path fill="#fa67c7" d="M25.783 20.242c.215-1 1.42-1.416 2.207-.762l5.856 4.87c.282.235.649.346 1.016.307l7.604-.812a1.352 1.352 0 0 1 1.403 1.851l-2.865 7.066a1.35 1.35 0 0 0 .017 1.057l3.1 6.945c.415.932-.317 1.974-1.34 1.906l-7.627-.504a1.37 1.37 0 0 0-1.005.347l-5.69 5.104c-.763.685-1.982.317-2.23-.673l-1.849-7.377a1.35 1.35 0 0 0-.638-.843l-6.615-3.79a1.352 1.352 0 0 1-.04-2.322l6.485-4.056c.313-.195.533-.508.61-.867z"/><path fill="#da39a1" d="M17.099 56.589a.72.72 0 0 1 .42-1.154l3.933-.776a.72.72 0 0 0 .462-.313l2.191-3.375a.71.71 0 0 1 1.221.041l1.936 3.514a.7.7 0 0 0 .437.344l3.865 1.038c.519.14.701.784.334 1.18l-2.736 2.947a.72.72 0 0 0-.192.526l.197 4.017a.716.716 0 0 1-1.015.688l-3.626-1.693a.7.7 0 0 0-.556-.019l-3.743 1.444a.71.71 0 0 1-.961-.754l.495-3.994a.72.72 0 0 0-.152-.537z"/><mask id="a" width="80" height="83" x="15" y="12" maskUnits="userSpaceOnUse" style="mask-type:alpha"><path fill="#fff" d="M94.057 54.528c0 21.831-17.698 39.529-39.529 39.529C32.698 94.057 15 76.358 15 54.527 15 32.698 15 9.5 54.528 15 88 4 94.057 32.697 94.057 54.528"/></mask><g mask="url(#a)"><path fill="#fff1cf" d="M61.497 95.356H47.503c-4.944-2.968-7.048-10.818-5.309-16.751 7.083.165 17.53.165 24.611-.002 3.404 6.153.919 13.969-5.31 16.753"/><path fill="#ffeab7" d="M72.339 73.189c-4.418 2.415-7.282 7.7-8.952 12.648a4.05 4.05 0 0 1-2.358-.005 21.4 21.4 0 0 1-4.094 4.003 4.06 4.06 0 0 1-2.435.803 4.06 4.06 0 0 1-2.435-.803 21.4 21.4 0 0 1-4.094-4.002 4.05 4.05 0 0 1-2.358.004c-1.67-4.948-4.534-10.233-8.952-12.648C40.513 66.14 47.065 60.702 54.5 60.702s13.987 5.438 17.839 12.487"/><path fill="#ffd9a0" d="M77.905 54.833c-4.782 2.77-10.745 2.588-7.186-2.08l-6.643-15.387 9.014 1.176c.251.192.385.3.385.3 3.996 5.645 3.168 10.177 6.95 14.319.428.469.908 1.672-2.52 1.672"/><path fill="#fdcb89" d="M31.095 54.833c4.782 2.77 10.744 2.588 7.186-2.08l6.643-15.387-9.014 1.176c-.251.192-.385.3-.385.3-3.996 5.645-3.168 10.177-6.95 14.319-.428.469-.908 1.672 2.52 1.672"/><path fill="#ffd9a0" d="M67.346 47.626c-5.297-1.928-7.815-8.37-5.736-14.083 2.81-7.723 11.458-12.578 14.87-14.238a1.533 1.533 0 0 1 2.072.754c1.547 3.466 5.05 12.743 2.24 20.466-2.08 5.712-8.15 9.029-13.446 7.1"/><path fill="#f1b3c1" d="M70.482 43.577a4.6 4.6 0 0 1-1.563-.274c-2.856-1.04-4.224-4.788-2.987-8.187 1.525-4.19 5.52-7.461 8.801-9.556a.766.766 0 0 1 1.144.417q.208.664.4 1.378c.856 3.182 1.583 7.776.193 11.596-.976 2.68-3.494 4.626-5.988 4.626"/><path fill="#fdcb89" d="M41.654 47.626c5.297-1.928 7.815-8.37 5.736-14.083-2.811-7.723-11.458-12.578-14.87-14.238a1.533 1.533 0 0 0-2.072.754c-1.547 3.466-5.051 12.743-2.24 20.466 2.079 5.712 8.15 9.029 13.446 7.1"/><path fill="#ec9eb0" d="M38.51 43.577c.538 0 1.064-.093 1.562-.274 2.856-1.04 4.224-4.788 2.987-8.187-1.525-4.19-5.519-7.461-8.801-9.556a.766.766 0 0 0-1.143.417q-.208.664-.401 1.378c-.855 3.182-1.583 7.776-.192 11.596.975 2.68 3.493 4.626 5.988 4.626"/><path fill="#ffd9a0" d="M75.966 86.66c0 2.505-.409 4.739-1.162 6.709a3.08 3.08 0 0 1-2.87 1.987H61.497c0-1.906.571-5.606 1.89-9.519.45-.133 3.888-4.26 5.391-6.211.34.09 5.031-.69 5.715-1.526.95 2.814 1.473 5.733 1.473 8.56"/><path fill="#fdcb89" d="M74.493 78.1a31 31 0 0 1-1.736 1.955 4.1 4.1 0 0 1-2.933 1.242c-.353 0-.705-.048-1.046-.138a21.4 21.4 0 0 1-4.128 4.045 4 4 0 0 1-1.263.633c1.67-4.948 4.534-10.233 8.951-12.648a31 31 0 0 1 2.155 4.911"/><path fill="#ffd9a0" d="M33.034 86.66c0 2.505.409 4.739 1.162 6.709a3.08 3.08 0 0 0 2.87 1.987h10.438c0-1.906-.572-5.606-1.891-9.519-.45-.133-3.889-4.26-5.391-6.211-.34.09-5.031-.69-5.715-1.526-.95 2.814-1.473 5.733-1.473 8.56"/><path fill="#fdcb89" d="M34.507 78.1a31 31 0 0 0 1.736 1.955 4.1 4.1 0 0 0 2.933 1.242c.353 0 .705-.048 1.046-.138a21.4 21.4 0 0 0 4.127 4.045c.387.287.813.5 1.264.633-1.67-4.948-4.534-10.233-8.952-12.648a31 31 0 0 0-2.154 4.911"/><path fill="#ffd9a0" d="M74.433 47.618c0 1.685-.22 3.418-.647 5.135-2.9 1.734-7.713 3.803-13.889 4.617-3.95-1.924-8.729-3.834-9.532-4.48-3.785-3.052-5.946-8.621-5.946-14.352 0-3.015 3.992-5.74 8.309-8.658q.868-.04 1.772-.041c12.653 0 19.933 6.04 19.933 17.779"/><path fill="#fdcb89" d="M59.897 57.37c-1.7.222-3.503.35-5.397.35-8.778 0-15.588-2.756-19.286-4.967a21.3 21.3 0 0 1-.647-5.135c0-11.18 6.602-17.19 18.16-17.738-1.202 2.45-1.885 5.28-1.885 8.294 0 5.732 2.474 10.796 6.258 13.848.804.647 1.992 2.792 2.797 5.348"/><path fill="#fff8e6" d="M78.107 66.421c.373 1.949 1.648 4.051 2.53 5.324a.73.73 0 0 1-.707 1.134c-1.24-.178-2.605-.648-3.625-1.328a.87.87 0 0 0-1.237.309 30 30 0 0 1-4.514 6.062 1.02 1.02 0 0 1-1.346.102 17 17 0 0 1-.802-.646.585.585 0 0 0-.888.163c-1.506 2.637-3.653 4.43-4.692 5.2a1.02 1.02 0 0 1-1.22 0 17 17 0 0 1-.918-.732.584.584 0 0 0-.886.16c-1.505 2.638-3.654 4.432-4.693 5.202-.36.268-.857.268-1.218 0-1.04-.77-3.187-2.564-4.693-5.201a.585.585 0 0 0-.787-.229c-10.778-9.184-11.061-18.507-9.514-25.8 1.034-4.879 4.619-9.697 9.4-12.086 2.063 1.723 3.265 5.542 2.068 8.834-.634 1.742-1.62 3.204-2.768 4.252 2.13.362 4.439.58 6.903.58s4.773-.218 6.903-.58c-1.148-1.048-2.134-2.51-2.768-4.251-1.562-4.292.959-9.483 4.145-9.752 7.162-.605 8.114 10.51 15.124 11.696.738 1.702 2.187 3.364 3.213 4.408.448.455.13 1.225-.51 1.237-.61.013-1.313-.023-1.973-.167a.439.439 0 0 0-.49.627c.776 1.521 2.05 2.964 2.976 3.903a.73.73 0 0 1-.497 1.243c-.627.017-1.346-.017-1.98-.176a.44.44 0 0 0-.536.512"/><path fill="#fff1cf" d="M48.411 81.941a.6.6 0 0 0-.1.067 17 17 0 0 1-.918.732 1.02 1.02 0 0 1-1.219 0c-1.04-.77-3.186-2.562-4.692-5.2a.585.585 0 0 0-.888-.162c-.3.257-.573.472-.802.645a1.02 1.02 0 0 1-1.346-.1 30 30 0 0 1-4.514-6.064.87.87 0 0 0-1.237-.308c-1.02.68-2.385 1.15-3.625 1.328a.73.73 0 0 1-.707-1.135c.882-1.272 2.157-3.374 2.53-5.323a.44.44 0 0 0-.535-.512c-.635.16-1.354.193-1.981.176a.73.73 0 0 1-.497-1.243c.926-.939 2.2-2.382 2.976-3.903a.439.439 0 0 0-.49-.627c-.66.144-1.363.18-1.974.167-.64-.012-.957-.782-.509-1.237 1.026-1.044 2.475-2.706 3.213-4.408 7.01-1.186 7.962-12.3 15.124-11.697.742.063 1.45.393 2.076.917-2.88 2.816-5.196 6.859-6.23 11.738-1.547 7.292-.228 16.45 6.345 26.149"/><path fill="#ffa1ac" d="M54.5 69.582a5.165 5.165 0 0 1-5.148-5.594l.53-6.35a2.495 2.495 0 0 1 3.172-2.191l1.103.315c.224.064.462.064.686 0l1.103-.316a2.495 2.495 0 0 1 3.172 2.192l.53 6.35a5.165 5.165 0 0 1-5.148 5.594"/><path fill="#fff1cf" d="M60.391 53.11c6.552 7.322-1.074 11.29-5.891 7.844-4.838 3.452-12.435-.536-5.892-7.844q5.963-6.081 11.783 0"/><path fill="#666667" d="M51.163 57.55c0 1.567 1.494 3.404 3.337 3.404s3.337-1.837 3.337-3.404-1.494-2.27-3.337-2.27-3.337.704-3.337 2.27"/><path fill="#394240" d="M73.875 43.547a1.15 1.15 0 0 1-1.12-.89c-.913-3.946-3.023-6.939-6.27-8.895a1.15 1.15 0 0 1-.384-1.59c1.674-2.706 4.37-5.257 8.014-7.582a1.9 1.9 0 0 1 1.687-.185 1.9 1.9 0 0 1 1.172 1.229c.145.46.285.941.414 1.424.898 3.34 1.656 8.184.162 12.287a8.6 8.6 0 0 1-3 3.983 1.15 1.15 0 0 1-.675.219m-5.19-11.095c2.72 1.92 4.654 4.532 5.77 7.792.395-.51.713-1.081.934-1.686 1.288-3.54.59-7.883-.222-10.904q-.115-.43-.24-.85c-1.999 1.318-4.488 3.257-6.242 5.648m6.094-6.129.001.003zM44.925 52.06a1.15 1.15 0 0 1-1.15-1.15v-1.84a1.15 1.15 0 0 1 2.3 0v1.84a1.15 1.15 0 0 1-1.15 1.15m19.15 0a1.15 1.15 0 0 1-1.15-1.15v-1.84a1.15 1.15 0 0 1 2.3 0v1.84a1.15 1.15 0 0 1-1.15 1.15"/><path fill="#394240" d="M79.9 61.623q.354.015.73.008a1.88 1.88 0 0 0 1.706-1.17 1.87 1.87 0 0 0-.399-2.024c-.87-.886-1.608-1.777-2.165-2.608.853-.177 1.62-.546 1.953-1.3.303-.685.13-1.505-.45-2.143-1.696-1.857-2.382-3.812-3.11-6.052a13.1 13.1 0 0 0 3.708-5.414c2.94-8.074-.609-17.605-2.271-21.327a2.66 2.66 0 0 0-1.529-1.429 2.67 2.67 0 0 0-2.096.11 42.5 42.5 0 0 0-6.806 4.145c-2.952 2.219-5.261 4.628-6.873 7.171-2.324-.598-4.941-.9-7.798-.9s-5.474.302-7.798.9c-1.612-2.543-3.921-4.952-6.873-7.17a42.5 42.5 0 0 0-6.808-4.148 2.67 2.67 0 0 0-2.094-.108 2.66 2.66 0 0 0-1.529 1.428c-1.662 3.723-5.21 13.254-2.27 21.327a13.1 13.1 0 0 0 3.707 5.415c-.729 2.24-1.414 4.195-3.11 6.054-.58.636-.753 1.456-.45 2.14.332.755 1.1 1.124 1.953 1.3-.557.832-1.294 1.722-2.165 2.609a1.88 1.88 0 0 0 1.306 3.194q.376.006.732-.008c-.65.935-1.423 1.788-2.038 2.41a1.88 1.88 0 0 0 1.283 3.204q.607.016 1.146-.03c-.519 1.51-1.479 3.026-2.075 3.886a1.87 1.87 0 0 0-.05 2.054 1.88 1.88 0 0 0 1.866.871c1.373-.196 2.755-.68 3.839-1.343.468.817.957 1.575 1.44 2.265a30.5 30.5 0 0 0-2.236 7.265 1.15 1.15 0 0 0 2.266.392 28 28 0 0 1 1.575-5.553 29 29 0 0 0 1.504 1.68c.76.784 1.99.877 2.866.218q.174-.133.337-.262.361.574.749 1.091c3.124 5.06 4.439 11.298 4.72 14.435h-9.225c-.804 0-1.509-.49-1.797-1.248-.61-1.596-.968-3.361-1.061-5.247a1.151 1.151 0 0 0-2.297.113c.106 2.129.512 4.133 1.208 5.954a4.25 4.25 0 0 0 3.947 2.728h34.864a4.25 4.25 0 0 0 3.947-2.726c.82-2.15 1.237-4.545 1.237-7.12 0-3.836-.906-7.875-2.626-11.722a29 29 0 0 0 1.438-2.263c1.086.663 2.466 1.147 3.838 1.343a1.878 1.878 0 0 0 1.817-2.927c-.596-.858-1.555-2.373-2.073-3.884q.537.046 1.147.03a1.88 1.88 0 0 0 1.282-3.202c-.617-.624-1.39-1.477-2.04-2.412M48.6 94.206c-.187-2.326-.89-6.202-2.415-10.195a2.16 2.16 0 0 0 1.892-.347q.233-.172.462-.354c1.555 2.473 3.562 4.168 4.664 4.985.382.284.84.426 1.297.426s.913-.142 1.292-.425c1.105-.818 3.11-2.511 4.667-4.986q.229.182.462.354c.56.416 1.255.53 1.892.347-1.525 3.993-2.228 7.869-2.415 10.195zm26.215-7.546c0 2.293-.365 4.412-1.087 6.3a1.91 1.91 0 0 1-1.797 1.246h-9.226c.282-3.136 1.596-9.373 4.723-14.436q.386-.516.747-1.09.164.13.34.263a2.174 2.174 0 0 0 2.864-.219c.388-.402.911-.968 1.503-1.679 1.268 3.192 1.933 6.484 1.933 9.615m4.108-21.865a1.57 1.57 0 0 0-1.476.387 1.59 1.59 0 0 0-.471 1.456c.331 1.727 1.262 3.51 2.145 4.904-.81-.216-1.584-.549-2.18-.948a2.02 2.02 0 0 0-1.581-.277 2.04 2.04 0 0 0-1.297.983 29 29 0 0 1-4.254 5.737 16 16 0 0 1-.66-.535 1.73 1.73 0 0 0-2.63.47c-1.348 2.36-3.243 3.994-4.303 4.79q-.402-.303-.78-.624a1.72 1.72 0 0 0-1.422-.39 1.73 1.73 0 0 0-1.211.852c-1.348 2.36-3.241 3.995-4.304 4.79-1.06-.794-2.955-2.428-4.303-4.786a1.73 1.73 0 0 0-1.212-.856 1.72 1.72 0 0 0-1.42.386q-.38.327-.782.627c-1.058-.794-2.953-2.428-4.301-4.788a1.732 1.732 0 0 0-2.636-.466c-.21.18-.426.354-.656.53a29 29 0 0 1-4.255-5.739 2.017 2.017 0 0 0-2.878-.702c-.595.397-1.37.73-2.179.946.885-1.394 1.814-3.177 2.144-4.899a1.58 1.58 0 0 0-.47-1.461 1.57 1.57 0 0 0-1.475-.387c-.197.05-.424.088-.673.11.86-.947 1.823-2.161 2.477-3.443a1.57 1.57 0 0 0-.158-1.693 1.58 1.58 0 0 0-1.603-.58 6 6 0 0 1-.707.108c.87-.963 1.824-2.174 2.477-3.455 3.434-.854 5.504-3.805 7.343-6.426 2.031-2.893 3.784-5.392 6.89-5.132.71.062 1.45.53 2.078 1.319 1.044 1.31 1.598 3.252 1.47 5.064a15 15 0 0 0-1.92 1.678c-4.571 5.106-2.414 8.312-1.643 9.172.587.656 1.336 1.138 2.176 1.445l-.077.932a6.33 6.33 0 0 0 1.645 4.8 6.33 6.33 0 0 0 4.648 2.04 6.33 6.33 0 0 0 4.648-2.04 6.33 6.33 0 0 0 1.645-4.8l-.077-.932a5.4 5.4 0 0 0 2.174-1.443c.772-.86 2.93-4.063-1.642-9.174l-.027-.03a14.3 14.3 0 0 0-1.893-1.675c-.122-1.806.436-3.741 1.477-5.045.627-.785 1.363-1.25 2.072-1.31 1.75-.148 3.147.511 4.668 2.206a1.15 1.15 0 1 0 1.712-1.537c-1.26-1.403-3.31-3.236-6.574-2.96-1.344.113-2.65.883-3.675 2.166-1.533 1.92-2.265 4.71-1.908 7.282.048.342.241.629.51.805q.474.311.96.724.488.413.978.923c2.215 2.48 2.824 4.757 1.63 6.09-.778.866-2.268 1.29-3.828.986q.184-.164.355-.35c.815-.883 1.282-2.002 1.282-3.068 0-2.078-1.76-3.42-4.487-3.42-2.726 0-4.486 1.342-4.486 3.42 0 1.066.466 2.185 1.281 3.068q.171.186.353.348c-1.56.307-3.051-.118-3.826-.984-1.194-1.334-.585-3.608 1.626-6.086.651-.66 1.303-1.207 1.938-1.62.273-.181.466-.477.51-.803.367-2.577-.36-5.375-1.896-7.304-1.026-1.29-2.334-2.064-3.683-2.178-4.424-.372-6.837 3.067-8.967 6.102-1.828 2.606-3.556 5.07-6.354 5.59-.595-.005-.997-.049-1.262-.1 1.886-2.21 2.623-4.485 3.4-6.887.261-.57.274-1.304-.278-1.68a10.8 10.8 0 0 1-3.567-4.886c-.885-2.426-2.438-9.195 2.21-19.603a.38.38 0 0 1 .218-.204.4.4 0 0 1 .3.015c2.815 1.37 9.729 5.2 13.144 11.147a1.15 1.15 0 0 0 1.337.548c2.318-.693 5.01-1.044 8.002-1.044s5.684.35 8.002 1.044a1.16 1.16 0 0 0 1.339-.55c3.415-5.947 10.327-9.774 13.14-11.143a.4.4 0 0 1 .303-.017.38.38 0 0 1 .217.205c4.648 10.407 3.094 17.176 2.21 19.602a10.8 10.8 0 0 1-3.567 4.885c-.553.377-.54 1.112-.279 1.68.778 2.403 1.515 4.679 3.401 6.888-.265.051-.667.095-1.262.1-2.21-.41-3.786-2.032-5.465-4.336a1.151 1.151 0 0 0-1.858 1.355c1.645 2.26 3.564 4.427 6.43 5.14.652 1.279 1.606 2.49 2.475 3.453a6 6 0 0 1-.703-.106 1.58 1.58 0 0 0-1.606.578c-.38.49-.44 1.14-.158 1.695.654 1.28 1.617 2.494 2.477 3.442a4.5 4.5 0 0 1-.672-.11M54.5 62.32a7.86 7.86 0 0 0 3.882 1.041h.059l.061.724a3.97 3.97 0 0 1-1.047 3.053 3.97 3.97 0 0 1-2.955 1.297 3.97 3.97 0 0 1-2.955-1.297 3.97 3.97 0 0 1-1.047-3.053l.061-.725a7.87 7.87 0 0 0 3.941-1.04m-2.187-4.767c0-.264.157-1.12 2.187-1.12s2.187.856 2.187 1.12c0 1.193-1.222 2.254-2.187 2.254s-2.187-1.061-2.187-2.254"/><path fill="#394240" d="M35.125 43.547a1.15 1.15 0 0 1-.675-.22 8.6 8.6 0 0 1-3-3.982c-.32-.88-.552-1.837-.689-2.843a1.15 1.15 0 1 1 2.279-.31c.115.844.307 1.64.571 2.366a6.3 6.3 0 0 0 .933 1.686c1.117-3.26 3.05-5.872 5.77-7.791-1.754-2.392-4.243-4.332-6.241-5.648q-.126.421-.24.848a29 29 0 0 0-.718 3.485 1.15 1.15 0 1 1-2.279-.316c.17-1.218.43-2.485.776-3.766.128-.479.268-.959.416-1.426a1.9 1.9 0 0 1 1.17-1.225 1.9 1.9 0 0 1 1.688.186c3.643 2.324 6.34 4.875 8.013 7.581a1.15 1.15 0 0 1-.385 1.59c-3.246 1.956-5.356 4.95-6.268 8.894a1.15 1.15 0 0 1-1.12.89m-.903-17.228-.001.002z"/></g></svg>