<svg xmlns="http://www.w3.org/2000/svg" width="114" height="146" fill="none" viewBox="0 0 114 146"><path fill="#a8c5ff" d="M53.91 5.148a6.02 6.02 0 0 1 9.046 0 6.02 6.02 0 0 0 7.51 1.253c3.153-1.803 7.173-.423 8.554 2.937a6.02 6.02 0 0 0 6.696 3.623c3.568-.68 6.922 1.93 7.138 5.556a6.02 6.02 0 0 0 5.156 5.601c3.596.515 5.921 4.073 4.948 7.573a6.02 6.02 0 0 0 3.058 6.972c3.234 1.654 4.277 5.774 2.22 8.768a6.02 6.02 0 0 0 .629 7.588c2.522 2.614 2.171 6.85-.747 9.014a6.02 6.02 0 0 0-1.869 7.38c1.536 3.292-.171 7.184-3.633 8.284a6.02 6.02 0 0 0-4.165 6.373c.385 3.613-2.494 6.74-6.125 6.655a6.02 6.02 0 0 0-6.009 4.676c-.81 3.541-4.547 5.564-7.954 4.305a6.02 6.02 0 0 0-7.201 2.472 6.02 6.02 0 0 1-8.922 1.489 6.02 6.02 0 0 0-7.614 0c-2.814 2.297-7.006 1.598-8.921-1.489a6.02 6.02 0 0 0-7.201-2.472c-3.408 1.259-7.145-.764-7.955-4.305a6.02 6.02 0 0 0-6.008-4.676 6.02 6.02 0 0 1-6.126-6.655 6.02 6.02 0 0 0-4.165-6.373c-3.462-1.1-5.169-4.992-3.633-8.284a6.02 6.02 0 0 0-1.869-7.38c-2.918-2.164-3.269-6.4-.747-9.014a6.02 6.02 0 0 0 .629-7.588c-2.057-2.994-1.014-7.114 2.22-8.768a6.02 6.02 0 0 0 3.059-6.972c-.974-3.5 1.35-7.058 4.947-7.573a6.02 6.02 0 0 0 5.156-5.601c.216-3.626 3.57-6.236 7.138-5.556a6.02 6.02 0 0 0 6.696-3.623c1.382-3.36 5.401-4.74 8.555-2.937a6.02 6.02 0 0 0 7.51-1.253"/><path fill="#a8c5ff" d="M26.473 76.33h60.343v52.97c0 7.389-7.737 12.226-14.38 8.991l-11.412-5.56a10 10 0 0 0-8.759 0l-11.413 5.56c-6.642 3.235-14.379-1.602-14.379-8.991z"/><path fill="#da39a1" d="M26.473 76.33H81.07v46.493c0 7.391-7.742 12.228-14.385 8.987l-8.528-4.161a10 10 0 0 0-8.77 0l-8.528 4.161c-6.643 3.241-14.385-1.596-14.385-8.987z"/><path fill="#072a6f" d="M49.979 5.823a5.916 5.916 0 0 1 8.889 0 5.916 5.916 0 0 0 7.38 1.231 5.916 5.916 0 0 1 8.407 2.887 5.916 5.916 0 0 0 6.58 3.56 5.916 5.916 0 0 1 7.015 5.46 5.916 5.916 0 0 0 5.068 5.505 5.916 5.916 0 0 1 4.862 7.442 5.916 5.916 0 0 0 3.005 6.852 5.916 5.916 0 0 1 2.183 8.617 5.916 5.916 0 0 0 .617 7.457 5.915 5.915 0 0 1-.734 8.859 5.916 5.916 0 0 0-1.836 7.253 5.917 5.917 0 0 1-3.571 8.14 5.916 5.916 0 0 0-4.093 6.264 5.916 5.916 0 0 1-6.02 6.54 5.916 5.916 0 0 0-5.904 4.596 5.917 5.917 0 0 1-7.818 4.231 5.915 5.915 0 0 0-7.077 2.429 5.916 5.916 0 0 1-8.768 1.463 5.92 5.92 0 0 0-7.482 0 5.916 5.916 0 0 1-8.768-1.463 5.915 5.915 0 0 0-7.077-2.429 5.917 5.917 0 0 1-7.818-4.231 5.916 5.916 0 0 0-5.904-4.596 5.916 5.916 0 0 1-6.02-6.54 5.916 5.916 0 0 0-4.093-6.264 5.916 5.916 0 0 1-3.57-8.14 5.916 5.916 0 0 0-1.837-7.253 5.916 5.916 0 0 1-.735-8.859 5.916 5.916 0 0 0 .618-7.457A5.916 5.916 0 0 1 7.66 38.76a5.916 5.916 0 0 0 3.006-6.852 5.916 5.916 0 0 1 4.862-7.442 5.916 5.916 0 0 0 5.068-5.504 5.916 5.916 0 0 1 7.014-5.46 5.916 5.916 0 0 0 6.58-3.561 5.916 5.916 0 0 1 8.408-2.887 5.916 5.916 0 0 0 7.38-1.231"/><circle cx="54.041" cy="54.041" r="39.528" fill="#fff"/><path fill="#fa67c7" d="M25.783 20.242c.215-1 1.42-1.416 2.207-.762l5.856 4.87c.282.235.649.346 1.016.307l7.604-.812a1.352 1.352 0 0 1 1.403 1.851l-2.865 7.066c-.139.34-.132.722.017 1.057l3.1 6.945c.415.932-.317 1.974-1.34 1.906l-7.627-.504a1.37 1.37 0 0 0-1.005.347l-5.69 5.104c-.763.685-1.982.317-2.23-.673l-1.849-7.377a1.35 1.35 0 0 0-.638-.843l-6.615-3.79a1.352 1.352 0 0 1-.04-2.322l6.485-4.056c.313-.195.533-.508.61-.867z"/><path fill="#da39a1" d="M17.099 56.589a.72.72 0 0 1 .42-1.154l3.933-.776a.72.72 0 0 0 .462-.313l2.191-3.375a.71.71 0 0 1 1.221.041l1.936 3.514a.7.7 0 0 0 .437.344l3.865 1.038c.519.14.701.784.334 1.18l-2.736 2.947a.72.72 0 0 0-.192.526l.197 4.017a.716.716 0 0 1-1.015.688l-3.626-1.693a.7.7 0 0 0-.556-.019l-3.743 1.444a.71.71 0 0 1-.961-.754l.495-3.994a.72.72 0 0 0-.152-.537z"/><mask id="b" width="80" height="80" x="15" y="15" maskUnits="userSpaceOnUse" style="mask-type:alpha"><path fill="#fff" d="M94.057 54.528c0 21.831-17.698 39.529-39.529 39.529C32.698 94.057 15 76.358 15 54.527 15 32.698 32.697 15 54.528 15s39.529 17.697 39.529 39.528"/></mask><g clip-path="url(#a)" mask="url(#b)"><path fill="#ffdcc3" d="M40.71 64.174c-.382 2.366-.891 6.442-.669 10.644.372 7.238 2.569 14.858 4.246 14.858 1.676 0 .944-7.525 1.06-14.858.064-4.309.457-8.554.744-11.175-1.688.287-3.47.467-5.38.53m25.119-.53c.287 2.621.68 6.866.743 11.175.117 7.334-.573 14.858 1.061 14.858 1.635 0 3.874-7.62 4.245-14.858.223-4.202-.286-8.278-.668-10.644a40 40 0 0 1-5.38-.542z"/><path fill="#a29aa5" d="M81.59 54.94c-.106-.901-.149-1.803-.191-2.706-.68-13.828-11.812-21.989-25.439-21.989-13.626 0-24.759 8.161-25.438 21.99-.042.901-.085 1.804-.191 2.706l-4.086 34.735h18.041c-1.676 0-3.873-7.62-4.245-14.858-.222-4.203.287-8.278.67-10.644a40 40 0 0 0 5.38-.542c-.287 2.622-.68 6.867-.743 11.176-.117 7.333.573 14.857-1.062 14.857h23.348c-1.634 0-.944-7.524-1.06-14.858-.065-4.308-.457-8.553-.744-11.175 1.688.276 3.47.467 5.38.531.383 2.367.892 6.442.67 10.645-.372 7.237-2.569 14.857-4.246 14.857h18.042L81.59 54.93z"/><path fill="#a29aa5" d="M28 88h52v8H28z"/><path fill="#394240" d="M74.405 52.49c-1.624-1.582-4.118-3.121-7.397-4.586a1.062 1.062 0 1 0-.86 1.943c3.015 1.337 5.36 2.78 6.782 4.16.127.127.244.286.318.456 1.19 2.643 1.062 5.21-.382 7.864-.275.499-.849.828-1.4.785-6.145-.18-11.165-1.55-14.911-4.043a1.06 1.06 0 0 0-1.178 0c-3.757 2.505-8.766 3.863-14.911 4.043a1.59 1.59 0 0 1-1.4-.796c-1.444-2.653-1.572-5.221-.383-7.864.085-.18.191-.34.318-.466 1.422-1.39 3.768-2.823 6.782-4.16.53-.234.775-.87.541-1.401a1.067 1.067 0 0 0-1.4-.542c-3.28 1.465-5.774 3.004-7.398 4.585-.329.318-.583.69-.774 1.114-1.454 3.237-1.306 6.516.456 9.753a3.7 3.7 0 0 0 2.292 1.773c-.371 2.62-.7 6.155-.51 9.753.287 5.529 2.134 15.865 5.307 15.865.425 0 .817-.17 1.136-.488 1.072-1.082 1.082-3.916 1.008-9.71-.021-1.858-.053-3.778-.021-5.71.053-3.778.371-7.556.658-10.294 3.406-.658 6.378-1.783 8.893-3.343 2.515 1.56 5.487 2.685 8.894 3.343.286 2.738.594 6.516.657 10.294.032 1.932 0 3.853-.02 5.71-.075 5.794-.064 8.617 1.007 9.71.308.319.712.489 1.136.489 3.173 0 5.02-10.337 5.306-15.866.191-3.598-.138-7.132-.51-9.753.967-.255 1.816-.892 2.293-1.773 1.762-3.226 1.921-6.505.457-9.753a3.8 3.8 0 0 0-.775-1.114zM44.286 74.807c-.031 1.963 0 3.894.022 5.773.042 2.833.085 6.25-.212 7.651-1.04-1.602-2.664-7.12-2.993-13.467-.191-3.545.159-7.036.53-9.583a45 45 0 0 0 3.27-.287c-.277 2.728-.553 6.315-.606 9.913zm26.532-.043c-.329 6.346-1.953 11.854-2.993 13.468-.297-1.412-.254-4.83-.212-7.652.021-1.868.053-3.81.021-5.773-.053-3.598-.34-7.185-.605-9.913 1.051.138 2.144.234 3.27.287.37 2.536.72 6.028.53 9.583zM49.646 43.893a1.06 1.06 0 0 0 .69 1.337q.35.11.668.319l.658.435c.18.116.382.18.584.18.34 0 .68-.17.88-.478a1.063 1.063 0 0 0-.296-1.475l-.658-.435a4.6 4.6 0 0 0-1.2-.573 1.06 1.06 0 0 0-1.337.69zm11.302-.69a5 5 0 0 0-1.199.573l-.658.435a1.07 1.07 0 0 0-.297 1.475c.202.308.541.478.88.478a1 1 0 0 0 .585-.18l.657-.436q.32-.207.67-.318c.562-.18.87-.775.689-1.337a1.06 1.06 0 0 0-1.337-.69zm-21.915-.223a2.653 2.653 0 0 0 5.253-.53v-.531c0-.584-.477-1.061-1.06-1.061H38.98c-.583 0-1.061.477-1.061 1.06 0 .585.478 1.062 1.061 1.062zm33.855 0h.053c.583 0 1.06-.477 1.06-1.061s-.477-1.061-1.06-1.061h-4.245c-.584 0-1.062.477-1.062 1.06v.532a2.654 2.654 0 0 0 5.254.53"/><path fill="#394240" d="M60.609 72.93c-3.163 2.535-6.124 2.535-9.286 0a1.064 1.064 0 0 0-1.497.169 1.074 1.074 0 0 0 .17 1.496c1.953 1.56 3.959 2.346 5.964 2.346s4.023-.786 5.965-2.346c.456-.371.53-1.03.17-1.496a1.073 1.073 0 0 0-1.497-.17z"/><path fill="#394240" d="M82.64 54.813c-.095-.817-.137-1.645-.18-2.504v-.128c-.668-13.541-11.568-22.997-26.5-22.997-14.931 0-25.83 9.456-26.5 22.997v.128c-.052.87-.084 1.687-.18 2.504L25.194 89.55a1.063 1.063 0 1 0 2.112.244l4.086-34.736c.106-.891.149-1.782.191-2.653v-.127c.626-12.555 10.422-20.981 24.388-20.981s23.762 8.437 24.377 20.98v.128c.053.87.096 1.762.202 2.653l4.086 34.736c.064.54.52.933 1.05.933h.128c.584-.063.997-.594.934-1.177l-4.086-34.736z"/><path fill="#394240" d="M60.683 38.852c-3.13-1.56-6.304-1.56-9.435 0-.52.265-.732.902-.477 1.422.265.52.902.732 1.422.477 2.536-1.273 4.999-1.273 7.546 0 .148.075.318.117.477.117.393 0 .764-.212.955-.583a1.054 1.054 0 0 0-.477-1.422zM48.224 52.84a1.057 1.057 0 0 0-1.496 0l-1.062 1.06a1.057 1.057 0 0 0 .754 1.805c.276 0 .54-.106.753-.308l1.061-1.061a1.057 1.057 0 0 0 0-1.497zm-1.507 4.244-1.061 1.062a1.057 1.057 0 0 0 .753 1.804c.276 0 .541-.106.754-.308l1.06-1.061a1.057 1.057 0 1 0-1.495-1.497zm-5.307-2.122-1.06 1.061a1.057 1.057 0 0 0 .753 1.804c.276 0 .541-.106.753-.307l1.061-1.062a1.057 1.057 0 1 0-1.496-1.496zm23.348.446c.213.212.478.307.754.307s.541-.106.753-.307a1.057 1.057 0 0 0 0-1.497l-1.06-1.061a1.057 1.057 0 1 0-1.497 1.496l1.06 1.062zm-1.061 3.183 1.061 1.062c.213.212.478.307.754.307s.541-.106.753-.307a1.057 1.057 0 0 0 0-1.497l-1.06-1.061a1.057 1.057 0 1 0-1.497 1.496zm7.121-.753c.276 0 .541-.106.754-.308a1.057 1.057 0 0 0 0-1.496l-1.062-1.062a1.057 1.057 0 1 0-1.496 1.497l1.061 1.061c.212.212.478.308.754.308zM49.9 56.469c.213.212.478.308.754.308s.541-.107.754-.308l1.06-1.061a1.057 1.057 0 1 0-1.496-1.497l-1.06 1.061a1.057 1.057 0 0 0 0 1.497zm9.552-2.569a1.057 1.057 0 0 0 0 1.497l1.061 1.061c.212.212.478.308.754.308s.541-.106.753-.308a1.057 1.057 0 0 0 0-1.496L60.96 53.9a1.057 1.057 0 0 0-1.496 0z"/></g><defs><clipPath id="a"><path fill="#fff" d="M22 26h67.921v67.921H22z"/></clipPath></defs></svg>