<svg xmlns="http://www.w3.org/2000/svg" width="114" height="146" fill="none" viewBox="0 0 114 146"><path fill="#a8c5ff" d="M53.91 5.148a6.02 6.02 0 0 1 9.046 0 6.02 6.02 0 0 0 7.51 1.253c3.153-1.803 7.173-.423 8.554 2.937a6.02 6.02 0 0 0 6.696 3.623c3.568-.68 6.922 1.93 7.138 5.556a6.02 6.02 0 0 0 5.156 5.601c3.596.515 5.921 4.073 4.948 7.573a6.02 6.02 0 0 0 3.058 6.972c3.234 1.654 4.277 5.774 2.22 8.768a6.02 6.02 0 0 0 .629 7.588c2.522 2.614 2.171 6.85-.747 9.014a6.02 6.02 0 0 0-1.869 7.38c1.536 3.292-.171 7.184-3.633 8.284a6.02 6.02 0 0 0-4.165 6.373c.385 3.613-2.494 6.74-6.125 6.655a6.02 6.02 0 0 0-6.009 4.676c-.81 3.541-4.547 5.564-7.954 4.305a6.02 6.02 0 0 0-7.202 2.472c-1.915 3.087-6.107 3.786-8.921 1.489a6.02 6.02 0 0 0-7.614 0c-2.814 2.297-7.006 1.598-8.921-1.489a6.02 6.02 0 0 0-7.201-2.472c-3.408 1.259-7.145-.764-7.955-4.305a6.02 6.02 0 0 0-6.008-4.676 6.02 6.02 0 0 1-6.126-6.655 6.02 6.02 0 0 0-4.165-6.373c-3.462-1.1-5.169-4.992-3.633-8.284a6.02 6.02 0 0 0-1.869-7.38c-2.918-2.164-3.269-6.4-.747-9.014a6.02 6.02 0 0 0 .629-7.588c-2.057-2.994-1.014-7.114 2.22-8.768a6.02 6.02 0 0 0 3.059-6.972c-.974-3.5 1.35-7.058 4.947-7.573a6.02 6.02 0 0 0 5.156-5.601c.216-3.626 3.57-6.236 7.138-5.556a6.02 6.02 0 0 0 6.696-3.623c1.381-3.36 5.401-4.74 8.555-2.937a6.02 6.02 0 0 0 7.51-1.253"/><path fill="#a8c5ff" d="M26.473 76.33h60.343v52.97c0 7.389-7.737 12.226-14.38 8.991l-11.412-5.56a10 10 0 0 0-8.759 0l-11.413 5.56c-6.642 3.235-14.379-1.602-14.379-8.991z"/><path fill="#da39a1" d="M26.473 76.33H81.07v46.493c0 7.391-7.742 12.228-14.385 8.987l-8.528-4.161a10 10 0 0 0-8.77 0l-8.528 4.161c-6.643 3.241-14.385-1.596-14.385-8.987z"/><path fill="#072a6f" d="M49.979 5.823a5.916 5.916 0 0 1 8.889 0 5.916 5.916 0 0 0 7.38 1.231 5.916 5.916 0 0 1 8.407 2.886 5.916 5.916 0 0 0 6.58 3.562 5.916 5.916 0 0 1 7.015 5.46 5.916 5.916 0 0 0 5.068 5.504 5.916 5.916 0 0 1 4.862 7.442 5.916 5.916 0 0 0 3.005 6.852 5.916 5.916 0 0 1 2.183 8.617 5.916 5.916 0 0 0 .617 7.457 5.915 5.915 0 0 1-.734 8.859 5.916 5.916 0 0 0-1.836 7.253 5.917 5.917 0 0 1-3.571 8.14 5.916 5.916 0 0 0-4.093 6.264 5.916 5.916 0 0 1-6.02 6.54 5.916 5.916 0 0 0-5.904 4.596c-.796 3.48-4.47 5.468-7.818 4.23a5.92 5.92 0 0 0-7.077 2.43 5.916 5.916 0 0 1-8.768 1.463 5.92 5.92 0 0 0-7.482 0 5.916 5.916 0 0 1-8.768-1.463 5.92 5.92 0 0 0-7.077-2.43 5.916 5.916 0 0 1-7.818-4.23 5.916 5.916 0 0 0-5.904-4.596 5.916 5.916 0 0 1-6.02-6.54 5.916 5.916 0 0 0-4.093-6.264 5.916 5.916 0 0 1-3.57-8.14 5.916 5.916 0 0 0-1.837-7.253 5.916 5.916 0 0 1-.735-8.86 5.916 5.916 0 0 0 .618-7.456A5.916 5.916 0 0 1 7.66 38.76a5.916 5.916 0 0 0 3.006-6.852 5.916 5.916 0 0 1 4.862-7.442 5.916 5.916 0 0 0 5.068-5.505 5.916 5.916 0 0 1 7.014-5.46 5.916 5.916 0 0 0 6.58-3.56 5.916 5.916 0 0 1 8.408-2.887 5.916 5.916 0 0 0 7.38-1.231"/><circle cx="54.041" cy="54.041" r="39.528" fill="#fff"/><path fill="#fa67c7" d="M25.783 20.242c.215-1 1.42-1.416 2.207-.762l5.856 4.87c.282.235.649.346 1.016.307l7.604-.812a1.352 1.352 0 0 1 1.403 1.851l-2.865 7.066a1.35 1.35 0 0 0 .017 1.057l3.1 6.945c.415.932-.317 1.974-1.34 1.906l-7.627-.504a1.37 1.37 0 0 0-1.005.347l-5.69 5.104c-.763.685-1.982.317-2.23-.673l-1.849-7.377a1.35 1.35 0 0 0-.638-.843l-6.615-3.79a1.352 1.352 0 0 1-.04-2.322l6.485-4.056c.313-.195.533-.508.61-.867z"/><path fill="#da39a1" d="M17.099 56.589a.72.72 0 0 1 .42-1.154l3.933-.776a.72.72 0 0 0 .462-.313l2.191-3.375a.71.71 0 0 1 1.221.041l1.936 3.514a.7.7 0 0 0 .437.344l3.865 1.038c.519.14.701.784.334 1.18l-2.736 2.947a.72.72 0 0 0-.192.526l.197 4.017a.716.716 0 0 1-1.015.688l-3.626-1.693a.7.7 0 0 0-.556-.019l-3.743 1.444a.71.71 0 0 1-.961-.754l.495-3.994a.72.72 0 0 0-.152-.537z"/><path fill="#e8ab4c" d="M83.1 60.199c0-4.53-1.712-8.906-4.82-12.32l-1.575-1.73c3.669 0 5.503-3.511 5.503-3.511-3.453 0-6.694-1.597-8.702-4.287-8.54-11.262-26.012-10.986-33.988 0-2.007 2.69-5.248 4.287-8.702 4.287 0 0 1.835 3.512 5.503 3.512l-1.574 1.729c-3.109 3.414-4.821 7.79-4.821 12.32l4.561-1.757s-2.407 6.118-.767 10.537c1.639 4.419 6.27 5.268 6.27 5.268l.344 1.974c.86 4.941 5.326 8.563 10.559 8.563 1.818 0 3.55.737 4.77 2.028l.837.888.015.016.014-.016.837-.888c1.219-1.291 2.952-2.028 4.77-2.028 5.233 0 9.698-3.622 10.558-8.563l.344-1.974s4.632-.85 6.271-5.268-.768-10.537-.768-10.537z"/><path fill="#df941e" d="M57.738 84.939c-1.218-1.292-2.951-2.03-4.77-2.03-5.232 0-9.698-3.62-10.558-8.562l-.344-1.974s-4.631-.849-6.27-5.268c-1.64-4.419.767-12.055.767-12.055l-3.777 1.526c.182-3.206 1.713-7.157 4.822-10.57l1.574-1.73c-3.154 0-4.971-.626-5.647-1.975-1.002.293-2.718.337-2.718.337s1.834 3.512 5.503 3.512l-1.575 1.729c-3.108 3.414-4.821 7.79-4.821 12.32l4.561-1.757s-2.407 6.118-.767 10.537c1.639 4.419 6.27 5.268 6.27 5.268l.344 1.974c.86 4.941 5.326 8.563 10.559 8.563 1.818 0 3.55.737 4.77 2.029l.837.888.015.015.014-.015.837-.888c.36-.382.766-.714 1.205-.994z"/><path fill="#72869e" d="M69.567 59.387a7.97 7.97 0 0 0 1.61-4.787c0-2.742-1.43-5.303-3.812-6.824L60.17 43.18v-3.516l-3.669 1.758-3.668-1.758v3.516l-7.196 4.596c-2.38 1.521-3.81 4.082-3.81 6.824 0 1.718.562 3.392 1.609 4.787l2.024 2.698a12.75 12.75 0 0 0-1.865 6.622v2.63c0 4.836 4.092 8.757 9.139 8.757h7.47c5.047 0 9.138-3.92 9.138-8.757v-2.63c0-2.352-.655-4.61-1.836-6.576h.002z"/><path fill="#536275" d="M61.84 77.449h-7.47c-5.047 0-9.139-3.92-9.139-8.757v-2.63c0-2.37.666-4.646 1.865-6.622l-2.024-2.697a7.97 7.97 0 0 1-1.61-4.788c0-.963.177-1.903.51-2.784-1.366 1.481-2.146 3.405-2.146 5.43a7.97 7.97 0 0 0 1.61 4.787l2.024 2.697a12.75 12.75 0 0 0-1.865 6.622v2.63c0 4.836 4.092 8.757 9.139 8.757h7.47c3.922 0 7.265-2.368 8.562-5.692-1.676 1.864-4.156 3.047-6.926 3.047"/><path fill="#394240" d="M55.533 79.17h1.895v1.757h-1.895zm11.993-18.631a14.5 14.5 0 0 0-5.116-4.289l-.855 1.554c4.22 2.132 6.842 6.297 6.842 10.869V71.3c0 4.34-3.685 7.87-8.214 7.87h-.933v1.756h.933c5.54 0 10.046-4.318 10.046-9.626v-2.628c0-2.316-.59-4.54-1.664-6.51l1.717-2.288a8.77 8.77 0 0 0 1.78-5.296c0-3.04-1.576-5.861-4.215-7.548l-1.691-1.08-1.017 1.461 1.69 1.08c2.13 1.36 3.4 3.636 3.4 6.087a7.07 7.07 0 0 1-1.436 4.27zM56.502 40.432l-4.582-2.196V42.7l-6.78 4.331c-2.64 1.687-4.216 4.508-4.216 7.548 0 1.912.615 3.743 1.78 5.296l1.717 2.288a13.6 13.6 0 0 0-1.664 6.51V71.3c0 5.309 4.506 9.627 10.046 9.627h.868v-1.756h-.868c-4.53 0-8.214-3.53-8.214-7.87v-2.628c0-4.572 2.622-8.737 6.842-10.87l-.855-1.553a14.5 14.5 0 0 0-5.116 4.288l-1.268-1.688a7.07 7.07 0 0 1-1.435-4.27c0-2.452 1.27-4.728 3.399-6.087l7.597-4.854v-2.561l2.749 1.317 2.749-1.317v2.561l4.23 2.703 1.016-1.462-3.413-2.18v-4.464z"/><path fill="#394240" d="M62.022 51.852c0-.996 1.834-.938 1.834 0v1.875c0 .644-1.834.879-1.834 0zm-12.482 0c0-.996 1.834-.938 1.834 0v1.875c0 .644-1.835.879-1.835 0zm8.96 9.515.76-.729c.531-.508 1.736.82 1.297 1.242l-.76.729c-.427.408-1.9-.664-1.297-1.242m-3.485 0-.76-.729c-.53-.508-1.736.82-1.296 1.242l.76.729c.427.408 1.9-.664 1.296-1.242m11.547 6.389h-1.833c0 1.453-1.233 2.634-2.749 2.634h-4.553v-6.146h-1.833v6.146h-4.61c-1.516 0-2.749-1.181-2.749-2.634h-1.833c0 2.42 2.056 4.39 4.582 4.39H61.98c2.527 0 4.582-1.97 4.582-4.39"/><path fill="#394240" d="M78.469 46.767c3.762-1.335 4.389-3.674 5.191-5.017-3.7.285-7.47-1.058-9.563-4.09-5.639-7.446-15.66-10.764-25.256-7.261l.637 1.646c8.824-2.983 17.695-.303 23.153 6.668 1.841 2.547 4.717 4.238 7.878 4.677-.772.855-2.062 1.869-3.83 1.869h-2.016l2.898 3.183c2.658 2.918 4.243 6.574 4.54 10.412l-5.179-1.994c2.213 4.825 4.501 14.954-4.707 16.6l-.449 2.576c-.789 4.531-4.845 7.82-9.645 7.82a7.52 7.52 0 0 0-5.616 2.499 7.52 7.52 0 0 0-5.617-2.498c-4.8 0-8.855-3.29-9.644-7.821-.068-.409-.383-2.19-.451-2.572-9.224-1.668-6.908-11.808-4.702-16.605l-5.182 1.995c.296-3.838 1.882-7.494 4.54-10.412l2.898-3.183H36.33c-1.769 0-3.059-1.015-3.83-1.869 7.856-1.13 7.99-7.606 15.227-10.627l-.802-1.58c-8.74 3.73-7.565 11.014-17.576 10.567.8 1.339 1.43 3.683 5.191 5.017-3.872 3.962-5.786 9.304-5.516 14.705l4.027-1.55c-.623 2.24-1.364 6.136-.184 9.317 1.434 3.864 4.888 5.253 6.322 5.674.47 5.922 5.382 10.749 11.699 10.7 2.628-.04 4.073 1.652 5.635 3.387 1.544-1.8 2.953-3.397 5.598-3.387 6.315.05 11.23-4.779 11.698-10.7 1.434-.421 4.889-1.81 6.322-5.674 1.18-3.18.44-7.078-.184-9.318l4.027 1.55c.219-6.179-1.996-11.056-5.516-14.704"/></svg>