<svg xmlns="http://www.w3.org/2000/svg" width="114" height="146" fill="none" viewBox="0 0 114 146"><path fill="#a8c5ff" d="M53.91 5.148a6.02 6.02 0 0 1 9.046 0 6.02 6.02 0 0 0 7.51 1.253c3.153-1.803 7.173-.423 8.554 2.937a6.02 6.02 0 0 0 6.696 3.623c3.568-.68 6.922 1.93 7.138 5.556a6.02 6.02 0 0 0 5.156 5.601c3.596.515 5.921 4.073 4.948 7.573a6.02 6.02 0 0 0 3.058 6.972c3.234 1.654 4.277 5.774 2.22 8.768a6.02 6.02 0 0 0 .629 7.588c2.522 2.614 2.171 6.85-.747 9.014a6.02 6.02 0 0 0-1.869 7.38c1.536 3.292-.171 7.184-3.633 8.284a6.02 6.02 0 0 0-4.164 6.373c.383 3.613-2.495 6.74-6.126 6.655a6.02 6.02 0 0 0-6.009 4.676c-.81 3.541-4.547 5.564-7.954 4.305a6.02 6.02 0 0 0-7.201 2.472 6.02 6.02 0 0 1-8.922 1.489 6.02 6.02 0 0 0-7.614 0c-2.814 2.297-7.006 1.598-8.921-1.489a6.02 6.02 0 0 0-7.201-2.472c-3.408 1.259-7.145-.764-7.955-4.305a6.02 6.02 0 0 0-6.008-4.676 6.02 6.02 0 0 1-6.126-6.655 6.02 6.02 0 0 0-4.165-6.373c-3.462-1.1-5.169-4.992-3.633-8.284a6.02 6.02 0 0 0-1.869-7.38c-2.918-2.164-3.269-6.4-.747-9.014a6.02 6.02 0 0 0 .629-7.588c-2.057-2.994-1.014-7.114 2.22-8.768a6.02 6.02 0 0 0 3.059-6.972c-.974-3.5 1.35-7.058 4.947-7.573a6.02 6.02 0 0 0 5.156-5.601c.216-3.626 3.57-6.236 7.138-5.556a6.02 6.02 0 0 0 6.696-3.623c1.382-3.36 5.401-4.74 8.555-2.937a6.02 6.02 0 0 0 7.51-1.253"/><path fill="#a8c5ff" d="M26.473 76.33h60.343v52.97c0 7.389-7.737 12.226-14.38 8.991l-11.412-5.56a10 10 0 0 0-8.759 0l-11.413 5.56c-6.642 3.235-14.379-1.602-14.379-8.991z"/><path fill="#da39a1" d="M26.473 76.33H81.07v46.493c0 7.391-7.742 12.228-14.385 8.987l-8.528-4.161a10 10 0 0 0-8.77 0l-8.528 4.161c-6.643 3.241-14.385-1.596-14.385-8.987z"/><path fill="#072a6f" d="M49.979 5.823a5.916 5.916 0 0 1 8.889 0 5.916 5.916 0 0 0 7.38 1.231 5.916 5.916 0 0 1 8.407 2.887 5.916 5.916 0 0 0 6.58 3.56 5.916 5.916 0 0 1 7.015 5.46 5.916 5.916 0 0 0 5.068 5.505 5.916 5.916 0 0 1 4.862 7.442 5.916 5.916 0 0 0 3.005 6.852 5.916 5.916 0 0 1 2.183 8.617 5.916 5.916 0 0 0 .617 7.457 5.915 5.915 0 0 1-.734 8.859 5.916 5.916 0 0 0-1.836 7.253 5.917 5.917 0 0 1-3.571 8.14 5.916 5.916 0 0 0-4.093 6.264 5.916 5.916 0 0 1-6.02 6.54 5.916 5.916 0 0 0-5.904 4.596 5.917 5.917 0 0 1-7.818 4.231 5.915 5.915 0 0 0-7.077 2.429 5.916 5.916 0 0 1-8.768 1.463 5.92 5.92 0 0 0-7.482 0 5.916 5.916 0 0 1-8.768-1.463 5.915 5.915 0 0 0-7.077-2.429 5.917 5.917 0 0 1-7.818-4.231 5.916 5.916 0 0 0-5.904-4.596 5.916 5.916 0 0 1-6.02-6.54 5.916 5.916 0 0 0-4.093-6.264 5.916 5.916 0 0 1-3.57-8.14 5.916 5.916 0 0 0-1.837-7.253 5.916 5.916 0 0 1-.735-8.859 5.916 5.916 0 0 0 .618-7.457A5.916 5.916 0 0 1 7.66 38.76a5.916 5.916 0 0 0 3.006-6.852 5.916 5.916 0 0 1 4.862-7.442 5.916 5.916 0 0 0 5.068-5.504 5.916 5.916 0 0 1 7.014-5.46 5.916 5.916 0 0 0 6.58-3.561 5.916 5.916 0 0 1 8.408-2.887 5.916 5.916 0 0 0 7.38-1.231"/><circle cx="54.041" cy="54.041" r="39.528" fill="#fff"/><path fill="#fa67c7" d="M25.783 20.242c.215-1 1.42-1.416 2.207-.762l5.856 4.87c.282.235.649.346 1.016.307l7.604-.812a1.352 1.352 0 0 1 1.403 1.851l-2.865 7.066c-.139.34-.132.722.017 1.057l3.1 6.945c.415.932-.317 1.974-1.34 1.906l-7.627-.504a1.37 1.37 0 0 0-1.005.347l-5.69 5.104c-.763.685-1.982.317-2.23-.673l-1.849-7.377a1.35 1.35 0 0 0-.638-.843l-6.615-3.79a1.352 1.352 0 0 1-.04-2.322l6.485-4.056c.313-.195.533-.508.61-.867z"/><path fill="#da39a1" d="M17.099 56.589a.72.72 0 0 1 .42-1.154l3.933-.776a.72.72 0 0 0 .462-.313l2.191-3.375a.71.71 0 0 1 1.221.041l1.936 3.514a.7.7 0 0 0 .437.344l3.865 1.038c.519.14.701.784.334 1.18l-2.736 2.947a.72.72 0 0 0-.192.526l.197 4.017a.716.716 0 0 1-1.015.688l-3.626-1.693a.7.7 0 0 0-.556-.019l-3.743 1.444a.71.71 0 0 1-.961-.754l.495-3.994a.72.72 0 0 0-.152-.537z"/><g clip-path="url(#a)"><path fill="#d3d3d4" d="M76.49 46.985c4.177-7.215 2.814-14.602 2.007-17.516a1.61 1.61 0 0 0-1.762-1.164c-8.954 1.17-14.644 8.525-14.644 8.525v10.898zm-42.976 0c-4.177-7.215-2.815-14.602-2.008-17.516a1.61 1.61 0 0 1 1.763-1.164c8.954 1.17 14.526 8.408 14.526 8.408v10.78z"/><path fill="#d3d3d4" d="M76.49 46.985c4.177-7.215 2.814-14.602 2.007-17.516a1.61 1.61 0 0 0-1.762-1.164c-8.954 1.17-14.644 8.525-14.644 8.525v10.898z"/><path fill="#8d8f95" d="M66.825 37.934c1.646-2.946 4.934-4.31 6.944-4.892a1.61 1.61 0 0 1 2.042 1.353c.597 4.684-1.767 10.168-1.767 10.168l-6.797.47z"/><path fill="#d3d3d4" d="M33.514 46.985c-4.177-7.215-2.815-14.602-2.008-17.516a1.61 1.61 0 0 1 1.763-1.164c8.954 1.17 14.526 8.408 14.526 8.408v10.78z"/><path fill="#8d8f95" d="M43.18 37.934c-1.647-2.946-4.935-4.31-6.946-4.892a1.61 1.61 0 0 0-2.041 1.353c-.597 4.684 1.767 9.7 1.767 9.7h8.32z"/><path fill="#ddddde" d="M54.945 35.393c-27.187 0-29.062 35.076-29.062 35.076 10.312 0 18.266 13.233 29.06 13.233 11.484 0 18.984-13.233 29.178-13.233 0 0-2.93-35.076-29.176-35.076"/><path fill="#d3d3d4" d="M54.945 35.393q-1.006 0-1.966.064C77.467 37.104 80.254 70.47 80.254 70.47c-9.594 0-16.802 11.718-27.189 13.099.617.086 1.243.134 1.878.134 11.484 0 18.984-13.233 29.178-13.233 0 0-2.93-35.076-29.176-35.076"/><path fill="#fff5e6" d="M47.66 44.798c-4.551-4.472-9.04-2.944-10.687-2.13C26.82 52.943 25.883 70.47 25.883 70.47c1.971 0 3.857.485 5.692 1.268L51.78 63.43s2.836-11.795-4.12-18.632m24.536-2.46c-1.825-.631-5.955-1.397-9.987 2.46-7.05 6.742-3.985 18.632-3.985 18.632l24.392 7.136q.743-.095 1.505-.097s-1.496-17.907-11.925-28.131"/><path fill="#fae8cd" d="M72.196 42.338c-1.053-.364-2.873-.773-4.999-.313a10 10 0 0 1 1.132.313c9.285 9.103 11.49 24.294 11.861 27.518l2.426.71q.743-.094 1.505-.096s-1.496-17.908-11.925-28.132"/><path fill="#8d8f95" d="M35.326 73.762s2.783-6.168 10.534-6.714c6.35-.447 7.424-5.022 4.476-8.078-3.066-3.18-13.973-5.35-24.453 11.353m48.795 3.439s-2.784-6.168-10.534-6.714c-6.35-.447-7.424-5.022-4.476-8.078 3.066-3.18 13.973-5.35 24.453 11.353"/><path fill="#48494d" d="M55.88 78.136a2.1 2.1 0 0 0 .742-.54l1.45-1.659c.428-.49.084-1.258-.564-1.258h-5.013c-.66 0-1 .797-.544 1.28l1.604 1.697q.257.268.568.424"/><path fill="#7e7f87" d="M84.121 70.323c-1.676-2.672-3.364-4.86-5.028-6.639.335 1.43 1.015 4.434 1.103 5.663 0 0-4.177 1.392-6.49 2.846.674.908.972 1.57.972 1.57z"/><path fill="#394240" d="m84.997 70.396-.03-.31c-.098-.948-.463-3.962-1.459-7.905-.277-1.1-1.981-.669-1.704.43.379 1.499.664 2.867.876 4.03-2.23-3.017-4.589-5.436-7.038-7.214-2.773-2.013-5.611-3.182-8.437-3.475-3.114-.323-6.717.442-8.717 3.042-.288-4.843.69-10.082 4.328-13.56 4.692-4.49 8.92-2.163 9.278-1.953 4.16 4.302 6.822 9.903 8.513 15.01.356 1.077 2.024.524 1.668-.552-1.334-4.03-2.992-7.587-4.955-10.636 4.268-7.481 2.84-15.12 2.024-18.069a2.5 2.5 0 0 0-2.723-1.8c-8.48 1.108-13.52 6.9-14.438 8.04-4.648-1.303-9.755-1.291-14.42-.07-1.056-1.29-6.064-6.883-14.38-7.97a2.5 2.5 0 0 0-2.723 1.8c-.802 2.896-2.194 10.319 1.803 17.672a40 40 0 0 0-3.049 5.67c-3.55 8.05-4.277 15.976-4.39 17.568-.119.565.22 1.204.859 1.204 5.737 0 10.625 4.192 15.06 7.323 4.08 2.879 8.867 6.1 14.092 5.908 6.154-.036 11.11-3.614 15.904-7.076 4.382-3.165 8.52-6.155 13.182-6.155a.887.887 0 0 0 .876-.952M60.3 59.58c1.042-1.081 3.428-2.222 6.724-1.88 2.514.261 5.066 1.32 7.586 3.15 2.814 2.042 5.516 5.01 8.046 8.827-2.687.311-5.203 1.446-7.624 2.908-.4-.653-1.083-1.62-2.104-2.607-1.624-1.57-4.455-3.506-8.723-3.806-2.62-.185-4.454-1.155-5.032-2.66-.475-1.238-.054-2.708 1.127-3.932m7.577-21.68c.813-1.205 2.56-2.978 6.137-4.014a.736.736 0 0 1 .925.62c.44 3.45-.602 6.939-1.075 8.291a30 30 0 0 0-.367-.393c-1.726-1.811-3.602-3.313-5.62-4.503m8.972-8.723a.734.734 0 0 1 .801.526c.73 2.636 1.988 9.307-1.444 15.969q-.521-.72-1.068-1.396a1 1 0 0 0 .128-.212c.084-.198 2.036-4.918 1.417-9.78-.19-1.482-1.714-2.505-3.158-2.086-1.913.554-5.306 1.91-7.2 4.863a24 24 0 0 0-2.325-1c1.507-1.665 6.015-5.992 12.849-6.885m-44.496.526a.735.735 0 0 1 .802-.526c6.702.876 11.167 5.055 12.759 6.786q-1.197.414-2.335.946a9.3 9.3 0 0 0-1.072-1.32c-.768-.787-2.061.405-1.258 1.228q.417.429.752.898a24.7 24.7 0 0 0-3.625 2.48 27 27 0 0 0-1.928 1.755 8 8 0 0 0-.498.278c-.51-1.612-1.273-4.682-.885-7.722a.736.736 0 0 1 .925-.62c.826.24 1.613.54 2.341.892 1.02.494 1.786-1.088.766-1.582a16.7 16.7 0 0 0-2.618-.998c-1.444-.419-2.969.605-3.158 2.086-.563 4.424 1.001 8.728 1.351 9.618q-.55.663-1.074 1.37c-3.182-6.527-1.96-12.986-1.245-15.569m-1.312 23.541c1.595-3.606 3.7-7.035 6.467-9.864 1.56-.74 5.485-1.936 9.535 2.045 3.558 3.496 4.604 8.662 4.407 13.485-1.627-2.052-4.323-2.934-6.867-3.021-2.27-.08-5.845.442-9.981 3.366-.926.655.089 2.09 1.015 1.435 3.736-2.642 6.905-3.114 8.906-3.045 2.528.087 4.334 1.057 5.18 1.935 1.163 1.206 1.809 3.045.804 4.543-.989 1.475-3.062 1.932-4.708 2.048-4.372.308-8.453 2.6-10.785 6.345-2.443-1.436-4.977-2.54-7.667-2.842 1.653-2.492 3.388-4.634 5.17-6.378.787-.77-.407-2.06-1.229-1.257-1.403 1.374-2.776 2.979-4.1 4.79.51-3.332 1.597-8.483 3.853-13.585m24.043 24.183a1.18 1.18 0 0 1-.89-.375l-1.413-1.494h4.456l-1.276 1.46a1.18 1.18 0 0 1-.877.41m14.826-1.35c-4.334 3.131-8.807 6.36-14.03 6.713v-3.722a2.96 2.96 0 0 0 1.404-.894l1.45-1.658a1.62 1.62 0 0 0 .258-1.758 1.61 1.61 0 0 0-1.483-.958h-5.014a1.639 1.639 0 0 0-1.183 2.763l1.605 1.697a2.96 2.96 0 0 0 1.206.77v3.763c-4.852-.326-9.264-3.48-13.538-6.536-1.341-.959-2.695-1.927-4.075-2.817.955-1.528 3.778-5.118 9.412-5.515 3.33-.235 5.716-1.614 6.55-3.784q.092-.243.158-.493l.004-.013.005-.021q.037-.146.063-.291c.18-.873.64-3.47.505-6.682-.22-5.203-1.925-9.515-4.931-12.47-2.91-2.86-5.823-3.41-7.927-3.29 4.095-3.059 9-4.609 14.596-4.609 5.899 0 10.588 1.837 14.314 4.678-1.927-.084-4.752.433-7.658 3.213-3.052 2.92-4.749 7.225-4.906 12.453-.117 3.895.646 6.907.679 7.033q.001.008.005.014.064.241.154.478c.833 2.17 3.22 3.55 6.55 3.784 2.975.21 5.523 1.308 7.571 3.266a11.7 11.7 0 0 1 1.893 2.336c-1.23.813-2.44 1.686-3.637 2.55"/><path fill="#394240" d="M45.51 63.078c1.132 0 1.133-1.758 0-1.758-1.13 0-1.133 1.758 0 1.758m18.984 0c1.13 0 1.132-1.758 0-1.758s-1.133 1.758 0 1.758"/></g><defs><clipPath id="a"><path fill="#fff" d="M25 26h60v60H25z"/></clipPath></defs></svg>