<svg xmlns="http://www.w3.org/2000/svg" width="114" height="146" fill="none" viewBox="0 0 114 146"><path fill="#a8c5ff" d="M53.91 5.148a6.02 6.02 0 0 1 9.046 0 6.02 6.02 0 0 0 7.51 1.253c3.153-1.803 7.173-.423 8.554 2.937a6.02 6.02 0 0 0 6.696 3.623c3.568-.68 6.922 1.93 7.138 5.556a6.02 6.02 0 0 0 5.156 5.601c3.596.515 5.921 4.073 4.948 7.573a6.02 6.02 0 0 0 3.058 6.972c3.234 1.654 4.277 5.774 2.22 8.768a6.02 6.02 0 0 0 .629 7.588c2.522 2.614 2.171 6.85-.747 9.014a6.02 6.02 0 0 0-1.869 7.38c1.536 3.292-.171 7.184-3.633 8.284a6.02 6.02 0 0 0-4.165 6.373c.385 3.613-2.494 6.74-6.125 6.655a6.02 6.02 0 0 0-6.009 4.676c-.81 3.541-4.547 5.564-7.954 4.305a6.02 6.02 0 0 0-7.202 2.472c-1.915 3.087-6.107 3.786-8.921 1.489a6.02 6.02 0 0 0-7.614 0c-2.814 2.297-7.006 1.598-8.921-1.489a6.02 6.02 0 0 0-7.201-2.472c-3.408 1.259-7.145-.764-7.955-4.305a6.02 6.02 0 0 0-6.008-4.676 6.02 6.02 0 0 1-6.126-6.655 6.02 6.02 0 0 0-4.165-6.373c-3.462-1.1-5.169-4.992-3.633-8.284a6.02 6.02 0 0 0-1.869-7.38c-2.918-2.164-3.269-6.4-.747-9.014a6.02 6.02 0 0 0 .629-7.588c-2.057-2.994-1.014-7.114 2.22-8.768a6.02 6.02 0 0 0 3.059-6.972c-.974-3.5 1.35-7.058 4.947-7.573a6.02 6.02 0 0 0 5.156-5.601c.216-3.626 3.57-6.236 7.138-5.556a6.02 6.02 0 0 0 6.696-3.623c1.381-3.36 5.401-4.74 8.555-2.937a6.02 6.02 0 0 0 7.51-1.253"/><path fill="#a8c5ff" d="M26.473 76.33h60.343v52.97c0 7.389-7.737 12.226-14.38 8.991l-11.412-5.56a10 10 0 0 0-8.759 0l-11.413 5.56c-6.642 3.235-14.379-1.602-14.379-8.991z"/><path fill="#da39a1" d="M26.473 76.33H81.07v46.493c0 7.391-7.742 12.228-14.385 8.987l-8.528-4.161a10 10 0 0 0-8.77 0l-8.528 4.161c-6.643 3.241-14.385-1.596-14.385-8.987z"/><path fill="#072a6f" d="M49.979 5.823a5.916 5.916 0 0 1 8.889 0 5.916 5.916 0 0 0 7.38 1.231 5.916 5.916 0 0 1 8.407 2.887 5.916 5.916 0 0 0 6.58 3.56 5.916 5.916 0 0 1 7.015 5.46 5.916 5.916 0 0 0 5.068 5.505 5.916 5.916 0 0 1 4.862 7.442 5.916 5.916 0 0 0 3.005 6.852 5.916 5.916 0 0 1 2.183 8.617 5.916 5.916 0 0 0 .617 7.457 5.915 5.915 0 0 1-.734 8.859 5.916 5.916 0 0 0-1.836 7.253 5.917 5.917 0 0 1-3.571 8.14 5.916 5.916 0 0 0-4.093 6.264 5.916 5.916 0 0 1-6.02 6.54 5.916 5.916 0 0 0-5.904 4.596 5.917 5.917 0 0 1-7.818 4.231 5.915 5.915 0 0 0-7.077 2.429 5.916 5.916 0 0 1-8.768 1.463 5.92 5.92 0 0 0-7.482 0 5.916 5.916 0 0 1-8.768-1.463 5.915 5.915 0 0 0-7.077-2.429 5.917 5.917 0 0 1-7.818-4.231 5.916 5.916 0 0 0-5.904-4.596 5.916 5.916 0 0 1-6.02-6.54 5.916 5.916 0 0 0-4.093-6.264 5.916 5.916 0 0 1-3.57-8.14 5.916 5.916 0 0 0-1.837-7.253 5.916 5.916 0 0 1-.735-8.859 5.916 5.916 0 0 0 .618-7.457A5.916 5.916 0 0 1 7.66 38.76a5.916 5.916 0 0 0 3.006-6.852 5.916 5.916 0 0 1 4.862-7.442 5.916 5.916 0 0 0 5.068-5.504 5.916 5.916 0 0 1 7.014-5.46 5.916 5.916 0 0 0 6.58-3.561 5.916 5.916 0 0 1 8.408-2.887 5.916 5.916 0 0 0 7.38-1.231"/><circle cx="54.041" cy="54.041" r="39.528" fill="#fff"/><path fill="#fa67c7" d="M25.783 20.242c.215-1 1.42-1.416 2.207-.762l5.856 4.87c.282.235.649.346 1.016.307l7.604-.812a1.352 1.352 0 0 1 1.403 1.851l-2.865 7.066a1.35 1.35 0 0 0 .017 1.057l3.1 6.945c.415.932-.317 1.974-1.34 1.906l-7.627-.504a1.37 1.37 0 0 0-1.005.347l-5.69 5.104c-.763.685-1.982.317-2.23-.673l-1.849-7.377a1.35 1.35 0 0 0-.638-.843l-6.615-3.79a1.352 1.352 0 0 1-.04-2.322l6.485-4.056c.313-.195.533-.508.61-.867z"/><path fill="#da39a1" d="M17.099 56.589a.72.72 0 0 1 .42-1.154l3.933-.776a.72.72 0 0 0 .462-.313l2.191-3.375a.71.71 0 0 1 1.221.041l1.936 3.514a.7.7 0 0 0 .437.344l3.865 1.038c.519.14.701.784.334 1.18l-2.736 2.947a.72.72 0 0 0-.192.526l.197 4.017a.716.716 0 0 1-1.015.688l-3.626-1.693a.7.7 0 0 0-.556-.019l-3.743 1.444a.71.71 0 0 1-.961-.754l.495-3.994a.72.72 0 0 0-.152-.537z"/><mask id="b" width="80" height="80" x="15" y="15" maskUnits="userSpaceOnUse" style="mask-type:alpha"><path fill="#fff" d="M94.057 54.528c0 21.831-17.698 39.529-39.529 39.529C32.698 94.057 15 76.358 15 54.527 15 32.698 32.697 15 54.528 15s39.529 17.697 39.529 39.528"/></mask><g clip-path="url(#a)" mask="url(#b)"><path fill="#6e6868" d="M75.045 65.934c0-13.846-2.933-28.988-20.545-28.988-17.611 0-20.544 15.142-20.544 28.987 0 13.846-6.15 16.736-6.15 29.122h7.69L54.5 86.308l19.004 8.747h7.69c0-12.386-6.15-15.276-6.15-29.122"/><path fill="#394240" d="M56.111 36.99a29 29 0 0 0-1.611-.044c-17.611 0-20.544 15.142-20.544 28.988s-6.15 16.735-6.15 29.12h3.222c0-12.385 6.15-15.275 6.15-29.12 0-13.412 2.752-28.042 18.933-28.944" opacity=".1"/><path fill="#ffa001" d="M45.429 62.13s.448 3.803 9.071 3.803 9.071-3.804 9.071-3.804v-1.65l-8.49-2.581-9.652 2.477z"/><path fill="#ffc108" d="M67.212 58.724h-2.508c-7.474 0-4.92-6.813-10.204-6.813s-2.73 6.813-10.204 6.813h-2.508c-.862 0-1.56.762-1.56 1.703 0 .94.698 1.702 1.56 1.702h3.64c3.352 0 6.584-2.182 9.072.266 2.488-2.448 5.72-.266 9.072-.266h3.64c.862 0 1.561-.762 1.561-1.703 0-.94-.7-1.703-1.561-1.703"/><path fill="#e6e1d7" d="M43.964 56.04c2.064 0 3.737-1.825 3.737-4.077s-1.673-4.077-3.737-4.077-3.737 1.826-3.737 4.077 1.673 4.077 3.737 4.077m21.072 0c2.064 0 3.737-1.825 3.737-4.077s-1.673-4.077-3.737-4.077-3.737 1.826-3.737 4.077 1.673 4.077 3.737 4.077m8.468 39.015s1.419-13.005-3.785-19.301-8.11-1.327-15.219-1.327c-7.11 0-10.015-4.97-15.219 1.327s-3.784 19.3-3.784 19.3z"/><path fill="#394240" d="M75.127 68.778c-.443.047-.766.477-.723.96.46 5.109 1.802 8.6 3.101 11.977 1.407 3.658 2.74 7.123 2.873 12.46h-5.993a47 47 0 0 0-.02-6.48c-.406-5.556-1.768-9.772-4.048-12.53-1.989-2.406-3.837-3.48-5.995-3.48-1.294 0-2.583.388-3.947.797-1.663.5-3.548 1.066-5.875 1.066s-4.212-.566-5.875-1.066c-1.364-.41-2.653-.796-3.947-.796-2.158 0-4.007 1.073-5.995 3.48-2.28 2.757-3.642 6.973-4.049 12.53a47 47 0 0 0-.02 6.48h-5.992c.133-5.338 1.466-8.803 2.873-12.46 1.606-4.174 3.266-8.49 3.266-15.782 0-8.449 1.164-14.744 3.56-19.245 1.48-2.782 3.473-4.932 5.925-6.39 2.762-1.642 6.212-2.475 10.254-2.475s7.492.833 10.254 2.476c2.452 1.457 4.446 3.607 5.926 6.389 2.395 4.502 3.559 10.796 3.559 19.245v.124l.001.082c.002.485.363.876.806.876h.003c.445-.002.804-.398.803-.883l-.002-.2c0-8.766-1.235-15.35-3.776-20.127-3.439-6.462-9.351-9.74-17.574-9.74s-14.135 3.277-17.574 9.74c-2.54 4.777-3.776 11.361-3.776 20.127 0 6.939-1.597 11.089-3.14 15.102-1.48 3.846-3.01 7.822-3.01 14.02 0 .485.36.878.806.878h53.388c.445 0 .806-.393.806-.878 0-6.198-1.53-10.174-3.009-14.02-1.252-3.257-2.548-6.624-2.983-11.468-.044-.483-.437-.837-.881-.79M39.88 76.342c1.184-1.433 2.68-2.898 4.798-2.898 1.077 0 2.208.34 3.519.733 1.761.53 3.758 1.129 6.303 1.129s4.542-.6 6.303-1.129c1.31-.393 2.442-.733 3.52-.733 2.116 0 3.613 1.465 4.798 2.898 4.188 5.068 3.842 14.993 3.646 17.834H36.232c-.197-2.84-.546-12.76 3.648-17.834"/><path fill="#394240" d="M43.964 56.919c2.505 0 4.543-2.223 4.543-4.956s-2.038-4.956-4.543-4.956-4.542 2.223-4.542 4.956 2.037 4.956 4.542 4.956m0-8.154c1.617 0 2.932 1.435 2.932 3.198s-1.315 3.198-2.932 3.198-2.931-1.435-2.931-3.198 1.315-3.198 2.931-3.198"/><path fill="#394240" d="M43.964 53.873c.967 0 1.75-.855 1.75-1.91s-.783-1.91-1.75-1.91-1.75.856-1.75 1.91c0 1.055.783 1.91 1.75 1.91m21.072-6.866c-2.505 0-4.543 2.223-4.543 4.956s2.038 4.956 4.543 4.956 4.543-2.223 4.543-4.956-2.038-4.956-4.543-4.956m0 8.154c-1.617 0-2.932-1.435-2.932-3.198 0-1.764 1.315-3.198 2.932-3.198s2.931 1.435 2.931 3.198-1.315 3.198-2.931 3.198"/><path fill="#394240" d="M65.036 53.873c.967 0 1.75-.855 1.75-1.91s-.783-1.91-1.75-1.91-1.75.856-1.75 1.91c0 1.055.783 1.91 1.75 1.91m-23.248 9.135h3.076c.214.48.621 1.118 1.39 1.732 1.72 1.375 4.495 2.072 8.246 2.072s6.525-.697 8.246-2.072c.769-.614 1.176-1.252 1.39-1.732h3.076c1.305 0 2.366-1.158 2.366-2.582s-1.061-2.581-2.366-2.581h-2.508c-3.603 0-4.512-1.661-5.475-3.419-.87-1.59-1.858-3.393-4.73-3.393-2.87 0-3.858 1.803-4.729 3.393-.962 1.758-1.872 3.419-5.475 3.419h-2.507c-1.305 0-2.367 1.158-2.367 2.582s1.062 2.581 2.367 2.581M54.5 65.055c-4.878 0-6.899-1.24-7.724-2.142l.08-.012c.67-.093 1.332-.235 1.994-.38 1.7-.37 3.684-.877 5.11.527a.756.756 0 0 0 1.08 0c1.422-1.4 3.42-.895 5.11-.526.662.144 1.325.286 1.995.38l.079.011c-.825.903-2.846 2.142-7.724 2.142m-12.712-5.453h2.508c4.517 0 5.815-2.37 6.858-4.274.807-1.474 1.39-2.538 3.346-2.538s2.54 1.065 3.346 2.538c1.043 1.904 2.341 4.274 6.858 4.274h2.508c.416 0 .755.37.755.825s-.339.824-.755.824h-3.64c-2.077 0-4.056-.896-6.13-.896-1.023 0-2.078.28-2.942.923-.834-.62-1.803-.923-2.941-.923-2.076 0-4.054.896-6.13.896h-3.64c-.417 0-.756-.37-.756-.825s.339-.824.755-.824"/></g><defs><clipPath id="a"><path fill="#fff" d="M27 36h55v60H27z"/></clipPath></defs></svg>