<svg xmlns="http://www.w3.org/2000/svg" width="114" height="146" fill="none" viewBox="0 0 114 146"><path fill="#a8c5ff" d="M53.91 5.148a6.02 6.02 0 0 1 9.046 0 6.02 6.02 0 0 0 7.51 1.253c3.153-1.803 7.173-.423 8.554 2.937a6.02 6.02 0 0 0 6.696 3.623c3.568-.68 6.922 1.93 7.138 5.556a6.02 6.02 0 0 0 5.156 5.601c3.596.515 5.921 4.073 4.948 7.573a6.02 6.02 0 0 0 3.058 6.972c3.234 1.654 4.277 5.774 2.22 8.768a6.02 6.02 0 0 0 .629 7.588c2.522 2.614 2.171 6.85-.747 9.014a6.02 6.02 0 0 0-1.869 7.38c1.536 3.292-.171 7.184-3.633 8.284a6.02 6.02 0 0 0-4.165 6.373c.385 3.613-2.494 6.74-6.125 6.655a6.02 6.02 0 0 0-6.009 4.676c-.81 3.541-4.547 5.564-7.954 4.305a6.02 6.02 0 0 0-7.202 2.472c-1.915 3.087-6.107 3.786-8.921 1.489a6.02 6.02 0 0 0-7.614 0c-2.814 2.297-7.006 1.598-8.921-1.489a6.02 6.02 0 0 0-7.201-2.472c-3.408 1.259-7.145-.764-7.955-4.305a6.02 6.02 0 0 0-6.008-4.676 6.02 6.02 0 0 1-6.126-6.655 6.02 6.02 0 0 0-4.165-6.373c-3.462-1.1-5.169-4.992-3.633-8.284a6.02 6.02 0 0 0-1.869-7.38c-2.918-2.164-3.269-6.4-.747-9.014a6.02 6.02 0 0 0 .629-7.588c-2.057-2.994-1.014-7.114 2.22-8.768a6.02 6.02 0 0 0 3.059-6.972c-.974-3.5 1.35-7.058 4.947-7.573a6.02 6.02 0 0 0 5.156-5.601c.216-3.626 3.57-6.236 7.138-5.556a6.02 6.02 0 0 0 6.696-3.623c1.381-3.36 5.401-4.74 8.555-2.937a6.02 6.02 0 0 0 7.51-1.253"/><path fill="#a8c5ff" d="M26.473 76.33h60.343v52.97c0 7.389-7.737 12.226-14.38 8.991l-11.412-5.56a10 10 0 0 0-8.759 0l-11.413 5.56c-6.642 3.235-14.379-1.602-14.379-8.991z"/><path fill="#da39a1" d="M26.473 76.33H81.07v46.493c0 7.391-7.742 12.228-14.385 8.987l-8.528-4.161a10 10 0 0 0-8.77 0l-8.528 4.161c-6.643 3.241-14.385-1.596-14.385-8.987z"/><path fill="#072a6f" d="M49.979 5.823a5.916 5.916 0 0 1 8.889 0 5.916 5.916 0 0 0 7.38 1.231 5.916 5.916 0 0 1 8.407 2.887 5.916 5.916 0 0 0 6.58 3.56 5.916 5.916 0 0 1 7.015 5.46 5.916 5.916 0 0 0 5.068 5.505 5.916 5.916 0 0 1 4.862 7.442 5.916 5.916 0 0 0 3.005 6.852 5.916 5.916 0 0 1 2.183 8.617 5.916 5.916 0 0 0 .617 7.457 5.915 5.915 0 0 1-.734 8.859 5.916 5.916 0 0 0-1.836 7.253 5.917 5.917 0 0 1-3.571 8.14 5.916 5.916 0 0 0-4.093 6.264 5.916 5.916 0 0 1-6.02 6.54 5.916 5.916 0 0 0-5.904 4.596 5.917 5.917 0 0 1-7.818 4.231 5.915 5.915 0 0 0-7.077 2.429 5.916 5.916 0 0 1-8.768 1.463 5.92 5.92 0 0 0-7.482 0 5.916 5.916 0 0 1-8.768-1.463 5.915 5.915 0 0 0-7.077-2.429 5.917 5.917 0 0 1-7.818-4.231 5.916 5.916 0 0 0-5.904-4.596 5.916 5.916 0 0 1-6.02-6.54 5.916 5.916 0 0 0-4.093-6.264 5.916 5.916 0 0 1-3.57-8.14 5.916 5.916 0 0 0-1.837-7.253 5.916 5.916 0 0 1-.735-8.859 5.916 5.916 0 0 0 .618-7.457A5.916 5.916 0 0 1 7.66 38.76a5.916 5.916 0 0 0 3.006-6.852 5.916 5.916 0 0 1 4.862-7.442 5.916 5.916 0 0 0 5.068-5.504 5.916 5.916 0 0 1 7.014-5.46 5.916 5.916 0 0 0 6.58-3.561 5.916 5.916 0 0 1 8.408-2.887 5.916 5.916 0 0 0 7.38-1.231"/><circle cx="54.041" cy="54.041" r="39.528" fill="#fff"/><path fill="#fa67c7" d="M25.783 20.242c.215-1 1.42-1.416 2.207-.762l5.856 4.87c.282.235.649.346 1.016.307l7.604-.812a1.352 1.352 0 0 1 1.403 1.851l-2.865 7.066a1.35 1.35 0 0 0 .017 1.057l3.1 6.945c.415.932-.317 1.974-1.34 1.906l-7.627-.504a1.37 1.37 0 0 0-1.005.347l-5.69 5.104c-.763.685-1.982.317-2.23-.673l-1.849-7.377a1.35 1.35 0 0 0-.638-.843l-6.615-3.79a1.352 1.352 0 0 1-.04-2.322l6.485-4.056c.313-.195.533-.508.61-.867z"/><path fill="#da39a1" d="M17.099 56.589a.72.72 0 0 1 .42-1.154l3.933-.776a.72.72 0 0 0 .462-.313l2.191-3.375a.71.71 0 0 1 1.221.041l1.936 3.514a.7.7 0 0 0 .437.344l3.865 1.038c.519.14.701.784.334 1.18l-2.736 2.947a.72.72 0 0 0-.192.526l.197 4.017a.716.716 0 0 1-1.015.688l-3.626-1.693a.7.7 0 0 0-.556-.019l-3.743 1.444a.71.71 0 0 1-.961-.754l.495-3.994a.72.72 0 0 0-.152-.537z"/><path fill="#fcf2b4" d="M53.115 37.387s.601 4.584-2.624 5.524c-2.25.655-2.958-2.097-5.436-2.434-2.062-.281-10.447.693-14.34-1.405-4.653-2.508-11.3-15.895-7.498-18.071 1.153-.66 2.575.016 3.936 4.588 1.573 5.279 5.44 6.94 6.186 4.588.504-1.59-2.062-4.588-1.124-5.43.937-.843 1.899 1.745 2.905 1.123 1.16-.717-1.78-5.244.187-5.805 1.968-.562 3.408 3.385 4.78 3.09 1.309-.282.049-7.14 2.906-6.93 2.474.184.303 10.674 3.468 10.3 2.381-.28 2.999-10.3 5.998-10.205 2.365.073-2.089 12.257-4.078 17.406a2.14 2.14 0 0 0 1.479 2.848z"/><path fill="#f7ea97" d="m53.115 37.387-3.255-.813a2.14 2.14 0 0 1-1.479-2.848c1.99-5.15 6.443-17.333 4.078-17.407-3-.093-3.617 9.925-5.998 10.206-.472.056-.824-.13-1.091-.487a165 165 0 0 1-2.768 7.688 2.14 2.14 0 0 0 1.48 2.848l1.373.343c1.23.307 2.028 1.513 1.8 2.761a5.4 5.4 0 0 1-.49 1.504c1.273.888 2.095 2.204 3.726 1.729 3.225-.94 2.624-5.524 2.624-5.524"/><path fill="#9d735b" d="M47.83 62.774c3.052 2.781.674 13.69 4.334 13.883 3.07.162 2.6-9.544 2.6-9.544.964-2.314 1.554 2.645 3.179 2.506 2.138-.183 5.76-13.097 5.76-13.097"/><path fill="#d1a184" d="M62.773 55.879c-12.653 9.457-19.307 7.116-20.338 5.618-1.37-1.991-2.437-7.865-.75-12.078 2.179-5.441 10.591-12.36 10.591-12.36h15.183s-1.59 19.463 26.148 18.379c0 0 1.37 27.359-22.32 32.452-12.863-7.823-12.169-29.483-12.169-29.483"/><path fill="#b28367" d="M93.607 55.438C65.87 56.522 67.46 37.059 67.46 37.059h-5.78s-1.59 19.463 26.148 18.379c0 0 1.207 24.11-18.245 31.277q.81.63 1.704 1.175c23.69-5.093 22.32-32.452 22.32-32.452"/><path fill="#fcf2b4" d="M63.706 37.042c-.523.13-.888.602-.883 1.14.013 1.392.364 3.922 2.668 4.594 2.25.655 2.958-2.097 5.436-2.435 2.062-.28 10.447.694 14.34-1.404 4.653-2.508 11.3-15.895 7.498-18.071-1.153-.66-2.574.015-3.936 4.588-1.573 5.279-5.44 6.94-6.186 4.588-.504-1.59 2.062-4.588 1.125-5.431-.938-.843-1.9 1.746-2.906 1.124-1.16-.718 1.78-5.244-.187-5.806-1.968-.561-3.408 3.386-4.78 3.09-1.31-.282-.05-7.14-2.906-6.928-2.475.183-.303 10.673-3.468 10.299-2.381-.281-2.999-10.3-5.998-10.206-2.365.074 2.09 12.26 4.078 17.409a2.14 2.14 0 0 1-1.479 2.845z"/><path fill="#f7ea97" d="M92.766 20.865c-1.153-.66-2.574.016-3.936 4.588-.59 1.981-1.504 3.453-2.454 4.394-1.77 3.91-4.574 7.843-6.887 9.09-1.698.914-4.25 1.245-6.759 1.35 3.304.033 9.39.346 12.538-1.35 4.653-2.508 11.3-15.896 7.498-18.072"/><path fill="#394240" d="M93.564 54.354a52 52 0 0 1-4.31-.004c-1.4-.065-1.496 2.102-.097 2.165a54 54 0 0 0 3.377.038c-.024 2.175-.307 7.396-2.249 12.905-1.471 4.177-3.597 7.703-6.319 10.482-3.293 3.364-7.49 5.648-12.481 6.795-6.052-3.898-8.798-11.21-10.038-16.71-1.136-5.037-1.25-9.509-1.251-11.03a57 57 0 0 0 3.226-2.249 1.084 1.084 0 0 0-1.298-1.736c-3.119 2.332-11.001 7.652-16.826 6.693-1.294-.213-1.87-.676-1.97-.821-1.13-1.64-2.229-7.086-.637-11.061 1.827-4.564 8.497-10.415 9.98-11.68h9.07l-.002.05c.028 2.944 1.285 4.993 3.45 5.624q1.146.35 2.264-.137c1.653 4.582 5.666 9.982 15.268 12.043 1.325.284 1.804-1.83.455-2.119-9.057-1.944-12.557-7.092-13.883-11.245 1.382-1.162 2.853-1 4.55-.97 3.532.062 8.872.155 11.938-1.497 1.896-1.022 4.174-3.675 6.095-7.099 1.546-2.754 5.563-10.5 1.427-12.866-3.162-1.81-4.887 3.117-5.513 5.219-.416 1.395-1.893 5.428-3.79 4.858-.919-.276 2.067-4.996.492-6.197-.88-.672-1.89-.42-2.648.265.416-1.552 1.428-4.527-.872-5.183-2.06-.588-3.387 1.53-4.608 2.752-.348-2.16-.152-6.873-3.455-6.63-3.664.27-1.723 10.366-3.232 10.306-2.986-1.742-1.277-10.37-6.188-10.215-5.184.163 2.647 17.706 3.102 18.882.591 1.532-2.243 1.782-3.087 1.993H52.276c-.888 0-3.432-.442-2.884-1.86 6.055-15.675 4.87-17.464 4.423-18.137a1.61 1.61 0 0 0-1.322-.742c-2.423-.072-3.46 3.135-4.468 6.24-.417 1.285-1.19 3.666-1.721 3.975-.628.04-.77-4.191-.785-4.434-.1-1.655.031-5.69-2.447-5.873-2.775-.204-3.107 3.292-3.298 5.281-.039.407-.09.94-.156 1.35-1.233-1.236-2.529-3.347-4.608-2.753-2.311.66-1.271 3.628-.872 5.183-.722-.651-1.82-1.01-2.648-.265-1.061.954-.412 2.435.161 3.743.143.328 1.19 2.46.33 2.454-.351-.003-1.027-.29-1.773-1.09-1.773-1.902-3.185-11.473-7.53-8.987-2.131 1.22-2.236 4.526-.294 9.307.527 1.298 2.535.483 2.008-.816-1.58-3.888-1.437-6.152-.637-6.61.962-.55 4.084 7.742 4.869 8.584 1.06 1.138 2.247 1.77 3.338 1.78 1.151.009 2.066-.719 2.41-1.8.37-1.168-.218-2.508-.736-3.692-.09-.206 1.392.387 2.054-.022 1.95-1.206-.178-4.096.002-5.696 1.88.015 2.25 3.63 4.623 3.118 1.299-.28 1.446-1.809 1.617-3.58.073-.768.02-2.883.877-3.324.634.963.48 2.743.547 3.839.119 1.977.066 6.829 3.231 6.453 1.797-.212 2.586-2.642 3.5-5.456.422-1.303.86-2.65 1.359-3.612.228-.44.436-.73.608-.906.008.724-.19 2.444-1.387 6.348-1.017 3.314-2.354 6.92-3.297 9.36-.767 1.988.576 3.958 2.519 4.362a68 68 0 0 0-2.635 2.505c-1.554-1.031-3.38-.877-5.152-.846-3.308.058-8.306.145-10.873-1.238-1.265-.682-2.919-2.511-4.425-4.894-.749-1.184-2.58-.026-1.832 1.158 1.012 1.6 3.036 4.462 5.228 5.643 3.067 1.653 8.406 1.56 11.94 1.498 1.107-.02 2.537-.245 3.574.285-2.054 2.231-4.083 4.83-5.035 7.207-1.83 4.57-.711 10.809.863 13.096 1.171 1.702 3.912 1.94 5.777 1.848.925 1.183 1.136 3.893 1.324 6.304.134 1.72.26 3.344.624 4.642.565 2.017 2.792 4.014 4.73 2.084 1.479-1.472 1.824-5.108 1.877-7.604.784 1.194 2.219 1.789 3.373.726.782 3.605 1.965 7.167 3.765 10.398 2.02 3.629 4.615 6.423 7.711 8.306q.383.219.79.133c5.616-1.207 10.337-3.737 14.03-7.521 2.945-3.017 5.236-6.824 6.81-11.315 2.658-7.59 2.35-14.441 2.336-14.73a1.08 1.08 0 0 0-1.125-1.028M66.384 37.49c1.815-.453 2.91-2.522 2.228-4.287-1.83-4.74-4.736-10.529-4.685-15.71 2.08 2.13 1.82 9.543 5.467 9.974 4.59.543 2.378-8.163 3.778-10.293 1.937.385-.214 6.322 2.494 6.905 2.337.504 2.754-3.09 4.624-3.117.181 1.64-1.97 4.476.002 5.695.662.41 2.144-.185 2.053.022-.518 1.183-1.105 2.524-.735 3.69.358 1.13 1.248 1.801 2.383 1.801 3.11 0 5.125-3.892 5.874-6.406.112-.376 1.275-4.577 2.36-3.957.495.284.59 1.102.582 1.738-.055 4.276-4.723 12.642-8.056 14.439-2.567 1.383-7.566 1.296-10.873 1.238-2.529-.044-4.263.005-6.248 1.705-.886.758-1.224.988-1.838.809-.849-.247-1.865-1.066-1.888-3.563 0 0 2.29-.636 2.478-.683m-8.525 30.95c-.234-.276-.542-.89-.705-1.215-.455-.907-.921-1.845-1.919-1.811-.811.029-1.591.947-1.553 1.75.045.948.243 8.512-1.461 8.412-.995-.053-1.24-3.19-1.417-5.48-.18-2.324-.367-4.705-1.16-6.432 2.21-.44 5.004-1.416 8.404-3.36.048 1.583.201 4.018.648 6.857-.4.75-.68 1.112-.837 1.28"/><path fill="#394240" d="M57.143 44.635c-.992.99.54 2.524 1.531 1.533a1.17 1.17 0 0 1 1.65 0c.99.99 2.523-.543 1.532-1.533a3.34 3.34 0 0 0-4.713 0M44.967 52.52a1.083 1.083 0 0 0-1.19.966c-.011.118-.284 2.903.787 5.724.488 1.284 2.523.54 2.026-.769-.883-2.326-.659-4.71-.657-4.731a1.083 1.083 0 0 0-.966-1.19"/></svg>