<svg xmlns="http://www.w3.org/2000/svg" width="114" height="146" fill="none" viewBox="0 0 114 146"><path fill="#a8c5ff" d="M53.91 5.148a6.02 6.02 0 0 1 9.046 0 6.02 6.02 0 0 0 7.51 1.253c3.153-1.803 7.173-.423 8.554 2.937a6.02 6.02 0 0 0 6.696 3.623c3.568-.68 6.922 1.93 7.138 5.556a6.02 6.02 0 0 0 5.156 5.601c3.596.515 5.921 4.073 4.948 7.573a6.02 6.02 0 0 0 3.058 6.972c3.234 1.654 4.277 5.774 2.22 8.768a6.02 6.02 0 0 0 .629 7.588c2.522 2.614 2.171 6.85-.747 9.014a6.02 6.02 0 0 0-1.869 7.38c1.536 3.292-.171 7.184-3.633 8.284a6.02 6.02 0 0 0-4.164 6.373c.383 3.613-2.495 6.74-6.126 6.655a6.02 6.02 0 0 0-6.009 4.676c-.81 3.541-4.547 5.564-7.954 4.305a6.02 6.02 0 0 0-7.201 2.472 6.02 6.02 0 0 1-8.922 1.489 6.02 6.02 0 0 0-7.614 0c-2.814 2.297-7.006 1.598-8.921-1.489a6.02 6.02 0 0 0-7.201-2.472c-3.408 1.259-7.145-.764-7.955-4.305a6.02 6.02 0 0 0-6.008-4.676 6.02 6.02 0 0 1-6.126-6.655 6.02 6.02 0 0 0-4.165-6.373c-3.462-1.1-5.169-4.992-3.633-8.284a6.02 6.02 0 0 0-1.869-7.38c-2.918-2.164-3.269-6.4-.747-9.014a6.02 6.02 0 0 0 .629-7.588c-2.057-2.994-1.014-7.114 2.22-8.768a6.02 6.02 0 0 0 3.059-6.972c-.974-3.5 1.35-7.058 4.947-7.573a6.02 6.02 0 0 0 5.156-5.601c.216-3.626 3.57-6.236 7.138-5.556a6.02 6.02 0 0 0 6.696-3.623c1.382-3.36 5.401-4.74 8.555-2.937a6.02 6.02 0 0 0 7.51-1.253"/><path fill="#a8c5ff" d="M26.473 76.33h60.343v52.97c0 7.389-7.737 12.226-14.38 8.99l-11.412-5.559a10 10 0 0 0-8.759 0l-11.413 5.559c-6.642 3.236-14.379-1.601-14.379-8.99z"/><path fill="#da39a1" d="M26.473 76.33H81.07v46.493c0 7.391-7.742 12.228-14.385 8.987l-8.528-4.161a10 10 0 0 0-8.77 0l-8.528 4.161c-6.643 3.241-14.385-1.596-14.385-8.987z"/><path fill="#072a6f" d="M49.979 5.823a5.916 5.916 0 0 1 8.889 0 5.916 5.916 0 0 0 7.38 1.231 5.916 5.916 0 0 1 8.407 2.886 5.916 5.916 0 0 0 6.58 3.562 5.916 5.916 0 0 1 7.015 5.46 5.916 5.916 0 0 0 5.068 5.504 5.916 5.916 0 0 1 4.862 7.442 5.916 5.916 0 0 0 3.005 6.852 5.916 5.916 0 0 1 2.183 8.617 5.916 5.916 0 0 0 .617 7.457 5.915 5.915 0 0 1-.734 8.859 5.916 5.916 0 0 0-1.836 7.253 5.917 5.917 0 0 1-3.571 8.14 5.916 5.916 0 0 0-4.093 6.264 5.916 5.916 0 0 1-6.02 6.54 5.916 5.916 0 0 0-5.904 4.596c-.796 3.48-4.47 5.468-7.818 4.23a5.92 5.92 0 0 0-7.077 2.43 5.916 5.916 0 0 1-8.768 1.463 5.92 5.92 0 0 0-7.482 0 5.916 5.916 0 0 1-8.768-1.463 5.92 5.92 0 0 0-7.077-2.43 5.916 5.916 0 0 1-7.818-4.23 5.916 5.916 0 0 0-5.904-4.596 5.916 5.916 0 0 1-6.02-6.54 5.916 5.916 0 0 0-4.093-6.264 5.916 5.916 0 0 1-3.57-8.14 5.916 5.916 0 0 0-1.837-7.253 5.916 5.916 0 0 1-.735-8.86 5.916 5.916 0 0 0 .618-7.456A5.916 5.916 0 0 1 7.66 38.76a5.916 5.916 0 0 0 3.006-6.852 5.916 5.916 0 0 1 4.862-7.442 5.916 5.916 0 0 0 5.068-5.505 5.916 5.916 0 0 1 7.014-5.46 5.916 5.916 0 0 0 6.58-3.56 5.916 5.916 0 0 1 8.408-2.887 5.916 5.916 0 0 0 7.38-1.231"/><circle cx="54.041" cy="54.041" r="39.528" fill="#fff"/><path fill="#fa67c7" d="M25.783 20.242a1.367 1.367 0 0 1 2.207-.762l5.856 4.87c.282.235.649.346 1.016.307l7.604-.812a1.352 1.352 0 0 1 1.403 1.851l-2.865 7.066a1.35 1.35 0 0 0 .017 1.057l3.1 6.945c.415.932-.317 1.974-1.34 1.906l-7.627-.504a1.37 1.37 0 0 0-1.005.347l-5.69 5.104c-.763.685-1.982.317-2.23-.673l-1.849-7.377a1.35 1.35 0 0 0-.638-.843l-6.615-3.79a1.352 1.352 0 0 1-.04-2.322l6.485-4.056c.313-.195.533-.508.61-.867z"/><path fill="#da39a1" d="M17.099 56.589a.72.72 0 0 1 .42-1.154l3.933-.776a.72.72 0 0 0 .462-.313l2.191-3.375a.71.71 0 0 1 1.222.04l1.935 3.515a.7.7 0 0 0 .437.344l3.865 1.038c.519.14.701.784.334 1.18l-2.736 2.947a.72.72 0 0 0-.192.526l.197 4.017a.716.716 0 0 1-1.015.688l-3.626-1.693a.7.7 0 0 0-.556-.019l-3.743 1.444a.71.71 0 0 1-.961-.754l.495-3.994a.72.72 0 0 0-.152-.537z"/><path fill="#fff" fill-rule="evenodd" d="M50.632 42.12c-5.426 1.775-8.45 7.098-9.08 12.52-.508 4.368-2.275 6.426-4.003 9.34C29.18 78.1 40.342 87.558 54.79 87.558S80.4 78.1 72.03 63.982c-1.727-2.915-3.494-4.973-4.002-9.34-.63-5.423-3.654-10.746-9.08-12.52-1.247-.408-2.631-.635-4.158-.635-1.526 0-2.91.227-4.157.635" clip-rule="evenodd"/><path fill="#ffa4b8" fill-rule="evenodd" d="M74.43 14.108c-7.096 10.799-10.447 25.801-10.447 31.26.854.92 1.569 1.959 2.152 3.064 8.762-13.1 20.035-19.904 8.295-34.324m-39.282 0c-11.74 14.42-.466 21.223 8.296 34.324a14.3 14.3 0 0 1 2.152-3.063c0-5.46-3.351-20.462-10.447-31.26" clip-rule="evenodd"/><path fill="#fff" fill-rule="evenodd" d="M63.983 45.369c0-5.46 3.351-20.462 10.447-31.26-8.198 0-14.414 22.884-15.483 28.012 2.033.665 3.703 1.812 5.036 3.248m-28.834-31.26c7.096 10.798 10.447 25.8 10.447 31.26 1.332-1.436 3.003-2.583 5.036-3.248-1.069-5.128-7.285-28.013-15.483-28.013" clip-rule="evenodd"/><path fill="#d8d7d7" fill-rule="evenodd" d="M63.983 45.369c0-1.05.124-2.454.375-4.112a15.2 15.2 0 0 0-4.63-2.367 66 66 0 0 0-.781 3.23c2.033.666 3.703 1.813 5.036 3.249M45.22 41.257a15.2 15.2 0 0 1 4.63-2.367c.362 1.367.626 2.487.78 3.23-2.032.666-3.703 1.813-5.035 3.249 0-1.05-.125-2.454-.375-4.112" clip-rule="evenodd"/><path fill="#d8d7d7" fill-rule="evenodd" d="M50.54 42.152c-5.368 1.804-8.361 7.097-8.988 12.489-.508 4.367-2.275 6.425-4.003 9.34-6.855 11.564-.605 20 9.82 22.675-8.332-3.49-12.584-11.295-6.495-21.567 1.728-2.914 3.495-4.973 4.003-9.34.483-4.153 2.37-10.197 5.663-13.597" clip-rule="evenodd"/><path fill="#394240" d="M80.202 28.832c1.185-4.951-.376-9.852-4.911-15.423L74.958 13h-.527c-3.978 0-7.826 4.293-11.435 12.759-2.462 5.775-4.162 11.982-4.874 14.987a14.8 14.8 0 0 0-3.331-.368q-1.74.001-3.332.368c-.712-3.005-2.412-9.212-4.874-14.987C42.975 17.293 39.128 13 35.15 13h-.527l-.333.409c-5.395 6.626-6.6 12.283-3.906 18.344l2.026-.9c-2.18-4.906-1.396-9.403 2.645-14.82 6.12 10.037 9.27 23.455 9.427 28.92l-.036.04c-.378.437-.732.904-1.063 1.393-1.507-2.141-3.044-4.102-4.54-6.007-2.08-2.651-4.047-5.155-5.442-7.588l-1.923 1.102c1.475 2.573 3.49 5.139 5.622 7.855 1.676 2.134 3.403 4.339 5.063 6.77a19 19 0 0 0-1.711 5.995c-.39 3.351-1.57 5.23-2.935 7.406-.3.479-.61.973-.92 1.496-4.461 7.526-3.195 12.973-1.347 16.217 3.175 5.572 10.662 9.034 19.54 9.034 6.91 0 13.089-2.103 16.955-5.769l-1.526-1.608c-3.458 3.28-9.082 5.16-15.429 5.16-8.083 0-14.833-3.033-17.614-7.914-2.233-3.92-1.774-8.757 1.328-13.99.296-.499.598-.98.891-1.447 1.445-2.304 2.81-4.48 3.259-8.33 1.045-8.985 7.19-12.173 12.136-12.173s11.091 3.188 12.137 12.174c.447 3.85 1.813 6.025 3.258 8.329.293.466.596.948.892 1.448 3.446 5.813 3.634 11.061.544 15.176l1.772 1.331c3.62-4.82 3.475-11.084-.41-17.638-.31-.523-.62-1.017-.92-1.496-1.365-2.175-2.544-4.055-2.934-7.406a19 19 0 0 0-1.712-5.994c1.66-2.432 3.389-4.637 5.064-6.771 3.573-4.55 6.659-8.48 7.72-12.916m-35.656-2.204c2.455 5.76 4.13 11.95 4.795 14.794-.99.412-1.92.943-2.78 1.59-.64-6.028-3.415-17.365-8.844-26.835 2.228 1.602 4.58 5.176 6.829 10.45m20.489 0c2.249-5.275 4.6-8.85 6.828-10.451-5.428 9.47-8.204 20.807-8.842 26.835a12.8 12.8 0 0 0-2.782-1.59c.665-2.844 2.34-9.034 4.796-14.794m1.163 19.758q-.496-.735-1.064-1.394l-.035-.04c.157-5.464 3.307-18.881 9.426-28.918 3.327 4.475 4.448 8.408 3.52 12.282-.948 3.965-3.895 7.718-7.307 12.063-1.496 1.905-3.033 3.866-4.54 6.007"/><circle cx="48.547" cy="61.552" r="1.892" fill="#394240"/><circle cx="62.419" cy="61.552" r="1.892" fill="#394240"/><path stroke="#394240" stroke-linecap="round" stroke-width="1.3" d="M54.852 73.533v6.936"/><path fill="#ffa4b8" d="M59.266 71.01H50.44l4.413 3.153z"/><path stroke="#394240" stroke-linecap="round" stroke-width="1.3" d="m50.439 70.38 4.413 3.153 4.414-3.153"/></svg>