<svg xmlns="http://www.w3.org/2000/svg" width="114" height="146" fill="none" viewBox="0 0 114 146"><path fill="#a8c5ff" d="M53.91 5.148a6.02 6.02 0 0 1 9.046 0 6.02 6.02 0 0 0 7.51 1.253c3.153-1.803 7.173-.423 8.554 2.937a6.02 6.02 0 0 0 6.696 3.623c3.568-.68 6.922 1.93 7.138 5.556a6.02 6.02 0 0 0 5.156 5.601c3.596.515 5.921 4.073 4.948 7.573a6.02 6.02 0 0 0 3.058 6.972c3.234 1.654 4.277 5.774 2.22 8.768a6.02 6.02 0 0 0 .629 7.588c2.522 2.614 2.171 6.85-.747 9.014a6.02 6.02 0 0 0-1.869 7.38c1.536 3.292-.171 7.184-3.633 8.284a6.02 6.02 0 0 0-4.164 6.373c.383 3.613-2.495 6.74-6.126 6.655a6.02 6.02 0 0 0-6.009 4.676c-.81 3.541-4.547 5.564-7.954 4.305a6.02 6.02 0 0 0-7.201 2.472 6.02 6.02 0 0 1-8.922 1.489 6.02 6.02 0 0 0-7.614 0c-2.814 2.297-7.006 1.598-8.921-1.489a6.02 6.02 0 0 0-7.201-2.472c-3.408 1.259-7.145-.764-7.955-4.305a6.02 6.02 0 0 0-6.008-4.676 6.02 6.02 0 0 1-6.126-6.655 6.02 6.02 0 0 0-4.165-6.373c-3.462-1.1-5.169-4.992-3.633-8.284a6.02 6.02 0 0 0-1.869-7.38c-2.918-2.164-3.269-6.4-.747-9.014a6.02 6.02 0 0 0 .629-7.588c-2.057-2.994-1.014-7.114 2.22-8.768a6.02 6.02 0 0 0 3.059-6.972c-.974-3.5 1.35-7.058 4.947-7.573a6.02 6.02 0 0 0 5.156-5.601c.216-3.626 3.57-6.236 7.138-5.556a6.02 6.02 0 0 0 6.696-3.623c1.382-3.36 5.401-4.74 8.555-2.937a6.02 6.02 0 0 0 7.51-1.253"/><path fill="#a8c5ff" d="M26.473 76.33h60.343v52.97c0 7.389-7.737 12.226-14.38 8.991l-11.412-5.56a10 10 0 0 0-8.759 0l-11.413 5.56c-6.642 3.235-14.379-1.602-14.379-8.991z"/><path fill="#da39a1" d="M26.473 76.33H81.07v46.493c0 7.391-7.742 12.228-14.385 8.987l-8.528-4.161a10 10 0 0 0-8.77 0l-8.528 4.161c-6.643 3.241-14.385-1.596-14.385-8.987z"/><path fill="#072a6f" d="M49.979 5.823a5.916 5.916 0 0 1 8.889 0 5.916 5.916 0 0 0 7.38 1.231 5.916 5.916 0 0 1 8.407 2.887 5.916 5.916 0 0 0 6.58 3.56 5.916 5.916 0 0 1 7.015 5.46 5.916 5.916 0 0 0 5.068 5.505 5.916 5.916 0 0 1 4.862 7.442 5.916 5.916 0 0 0 3.005 6.852 5.916 5.916 0 0 1 2.183 8.617 5.916 5.916 0 0 0 .617 7.457 5.915 5.915 0 0 1-.734 8.859 5.916 5.916 0 0 0-1.836 7.253 5.917 5.917 0 0 1-3.571 8.14 5.916 5.916 0 0 0-4.093 6.264 5.916 5.916 0 0 1-6.02 6.54 5.916 5.916 0 0 0-5.904 4.596 5.917 5.917 0 0 1-7.818 4.231 5.915 5.915 0 0 0-7.077 2.429 5.916 5.916 0 0 1-8.768 1.463 5.92 5.92 0 0 0-7.482 0 5.916 5.916 0 0 1-8.768-1.463 5.915 5.915 0 0 0-7.077-2.429 5.917 5.917 0 0 1-7.818-4.231 5.916 5.916 0 0 0-5.904-4.596 5.916 5.916 0 0 1-6.02-6.54 5.916 5.916 0 0 0-4.093-6.264 5.916 5.916 0 0 1-3.57-8.14 5.916 5.916 0 0 0-1.837-7.253 5.916 5.916 0 0 1-.735-8.859 5.916 5.916 0 0 0 .618-7.457A5.916 5.916 0 0 1 7.66 38.76a5.916 5.916 0 0 0 3.006-6.852 5.916 5.916 0 0 1 4.862-7.442 5.916 5.916 0 0 0 5.068-5.504 5.916 5.916 0 0 1 7.014-5.46 5.916 5.916 0 0 0 6.58-3.561 5.916 5.916 0 0 1 8.408-2.887 5.916 5.916 0 0 0 7.38-1.231"/><circle cx="54.041" cy="54.041" r="39.528" fill="#fff"/><path fill="#fa67c7" d="M25.783 20.242a1.367 1.367 0 0 1 2.207-.762l5.856 4.87c.282.235.649.346 1.016.307l7.604-.812a1.352 1.352 0 0 1 1.403 1.851l-2.865 7.066a1.35 1.35 0 0 0 .017 1.057l3.1 6.945c.415.932-.317 1.974-1.34 1.906l-7.627-.504a1.37 1.37 0 0 0-1.005.347l-5.69 5.104c-.763.685-1.982.317-2.23-.673l-1.849-7.377a1.35 1.35 0 0 0-.638-.843l-6.615-3.79a1.352 1.352 0 0 1-.04-2.322l6.485-4.056c.313-.195.533-.508.61-.867z"/><path fill="#da39a1" d="M17.099 56.589a.72.72 0 0 1 .42-1.154l3.933-.776a.72.72 0 0 0 .462-.313l2.191-3.375a.71.71 0 0 1 1.222.041l1.935 3.514a.7.7 0 0 0 .437.344l3.865 1.038c.519.14.701.784.334 1.18l-2.736 2.947a.72.72 0 0 0-.192.526l.197 4.017a.716.716 0 0 1-1.015.688l-3.626-1.693a.7.7 0 0 0-.556-.019l-3.743 1.444a.71.71 0 0 1-.961-.754l.495-3.994a.72.72 0 0 0-.152-.537z"/><path fill="#e4ac59" d="m75.384 52.957 6.82-12.958a7 7 0 0 0 .88-3.538 7 7 0 0 0-.998-3.5v-.01a6.5 6.5 0 0 0-.761-1.02c-1.082-1.176-2.532-1.86-4.058-1.917-1.526-.055-3.015.522-4.166 1.616-1.875 2.22-4.202 3.929-6.793 4.99l-2.42.99H49.109l-2.42-.99c-2.591-1.061-4.918-2.77-6.794-4.99a5.9 5.9 0 0 0-2.227-1.349 5.5 5.5 0 0 0-2.54-.22 5.7 5.7 0 0 0-2.396.945 6.3 6.3 0 0 0-1.821 1.944v.01a7 7 0 0 0-.999 3.5 7 7 0 0 0 .88 3.539l6.82 12.958z"/><path fill="#f7bf63" d="M48.57 83h-3.68c-2.808.034-5.524-1.083-7.613-3.13-2.088-2.046-3.395-4.873-3.664-7.92a13 13 0 0 1 .616-5.01 12.2 12.2 0 0 1 2.454-4.289c.301-.33.528-.732.663-1.174a3.3 3.3 0 0 0 .114-1.372 23 23 0 0 1-.213-3.153c.007-5.568 2.041-10.906 5.656-14.839s8.515-6.138 13.62-6.13c5.107.007 10.001 2.225 13.607 6.168s5.628 9.286 5.622 14.854c0 1.038-.071 2.074-.214 3.1-.059.46-.02.928.115 1.369s.362.841.663 1.17a12.2 12.2 0 0 1 2.454 4.288c.53 1.604.74 3.312.616 5.01-.267 3.05-1.574 5.878-3.662 7.926S70.918 83.034 68.11 83z"/><path fill="#595241" d="M56.499 58.006c1.012 0 1.833-1.119 1.833-2.5 0-1.38-.82-2.5-1.833-2.5s-1.834 1.12-1.834 2.5c0 1.381.821 2.5 1.834 2.5m0-14.998c1.012 0 1.833-1.343 1.833-3 0-1.656-.82-2.999-1.833-2.999s-1.834 1.343-1.834 3c0 1.656.821 3 1.834 3M76.21 75.002c1.266 0 2.292-1.343 2.292-3 0-1.656-1.026-2.999-2.292-2.999s-2.292 1.343-2.292 3c0 1.656 1.026 3 2.292 3m-39.422-.001c1.266 0 2.292-1.343 2.292-3 0-1.656-1.026-2.999-2.292-2.999s-2.292 1.343-2.292 3c0 1.656 1.026 3 2.292 3m16.869-25.131c.933-.429 1.292-1.808.8-3.081-.49-1.273-1.646-1.958-2.58-1.53-.933.43-1.292 1.809-.8 3.081.49 1.273 1.646 1.958 2.58 1.53m8.293-1.517c.49-1.273.132-2.652-.802-3.08-.933-.43-2.089.256-2.58 1.529-.49 1.272-.132 2.652.802 3.08.933.429 2.088-.256 2.58-1.529"/><path fill="#f9ebc6" d="m47.782 76.672.751 6.119c.176 1.44.824 2.762 1.826 3.72 1.001.958 2.288 1.487 3.62 1.49h5.042c1.332-.003 2.619-.532 3.62-1.49 1.002-.958 1.65-2.28 1.826-3.72l.752-6.119-.468-7.669H48.25z"/><path fill="#f9ebc6" d="M69.335 71.003c0 3.87-2.87 6-6.418 6s-6.417-2.13-6.417-6c0 3.87-2.87 6-6.418 6s-6.417-2.13-6.417-6c.004-1.855.681-3.632 1.884-4.944s2.833-2.05 4.533-2.055h12.835c1.702 0 3.335.738 4.538 2.05 1.204 1.313 1.88 3.093 1.88 4.95"/><path fill="#605642" d="M61.084 64.504c0 1.381-2.053 4.5-4.584 4.5s-4.584-3.119-4.584-4.5 2.053-2.5 4.584-2.5 4.584 1.12 4.584 2.5"/><path fill="#8e2e53" d="m62.018 76.952-.871 5.25c-.01.03-.01.07-.019.1a3.48 3.48 0 0 1-1.093 1.94 2.98 2.98 0 0 1-1.969.759h-3.135a2.98 2.98 0 0 1-1.969-.76 3.48 3.48 0 0 1-1.093-1.94c-.01-.03-.01-.07-.019-.1l-.87-5.249c3.126-.33 5.519-2.41 5.519-5.949 0 3.54 2.392 5.62 5.518 5.95"/><path fill="#595241" d="M82.086 32.95a4.05 4.05 0 0 0-2.882-.52c-.986.194-1.882.752-2.536 1.58-2.543 2.68-5.604 4.706-8.957 5.929a19 19 0 0 0-3.823-2.33l2.42-.99c2.591-1.06 4.918-2.769 6.793-4.989a5.9 5.9 0 0 1 2.228-1.349 5.5 5.5 0 0 1 2.54-.22 5.7 5.7 0 0 1 2.396.945 6.3 6.3 0 0 1 1.82 1.944m-32.947 4.66a18.8 18.8 0 0 0-3.805 2.339c-3.357-1.252-6.427-3.278-9.002-5.939-.655-.828-1.55-1.386-2.537-1.58a4.05 4.05 0 0 0-2.882.52q.334-.55.761-1.02c1.082-1.175 2.532-1.86 4.058-1.916s3.015.522 4.166 1.616c1.875 2.22 4.202 3.93 6.793 4.99l2.42.99zm-5.473 43.392a3.6 3.6 0 0 1-.495 1.86l-.019-.01a10.8 10.8 0 0 1-4.052-1.56h-.009a3.3 3.3 0 0 1 .567-2.12 2.82 2.82 0 0 1 1.716-1.17c.666.072 1.28.427 1.71.988a2.96 2.96 0 0 1 .582 2.012m30.254 0q.002.146-.01.29l-.027.01a10.9 10.9 0 0 1-4.016 1.55l-.036.01a3.6 3.6 0 0 1-.495-1.86 2.95 2.95 0 0 1 .582-2.012 2.5 2.5 0 0 1 1.71-.988c.666.072 1.28.427 1.709.988s.638 1.284.582 2.012"/><path fill="#fff" d="M45.499 59.006c2.025 0 3.667-2.239 3.667-5 0-2.76-1.642-4.999-3.667-4.999s-3.668 2.239-3.668 5c0 2.76 1.642 4.999 3.667 4.999m22.003 0c2.025 0 3.667-2.239 3.667-5 0-2.76-1.642-4.999-3.667-4.999s-3.667 2.239-3.667 5c0 2.76 1.642 4.999 3.667 4.999"/><path fill="#394240" d="m82.903 32.493-.022-.039-.01-.02-.022-.038a7.3 7.3 0 0 0-2.1-2.231 6.6 6.6 0 0 0-2.76-1.087 6.4 6.4 0 0 0-2.923.253 6.8 6.8 0 0 0-2.567 1.545q-.037.037-.07.075c-1.781 2.102-3.986 3.722-6.441 4.732l-2.08.85a18.6 18.6 0 0 0-7.366-1.517c-.014 0-.028-.006-.043-.006s-.028.006-.044.006c-.516 0-1.034.017-1.558.06-1.982.17-3.93.666-5.776 1.47l-2.109-.863c-2.455-1.01-4.66-2.63-6.441-4.732a1 1 0 0 0-.07-.075 6.8 6.8 0 0 0-2.567-1.553 6.4 6.4 0 0 0-2.926-.256 6.6 6.6 0 0 0-2.76 1.09 7.25 7.25 0 0 0-2.099 2.239l-.021.038-.011.021-.02.035a8.1 8.1 0 0 0-1.096 3.988 8.1 8.1 0 0 0 .997 4.019l6.66 12.652a23.2 23.2 0 0 0-.104 7.104c.04.258.172.489.367.642a.86.86 0 0 0 .674.178.9.9 0 0 0 .595-.388c.145-.21.208-.472.176-.732a21 21 0 0 1-.202-3c.03-4.823 1.65-9.473 4.568-13.1 2.917-3.625 6.933-5.984 11.315-6.644a5.5 5.5 0 0 0-.298 1.8c0 2.242 1.207 4 2.75 4s2.75-1.758 2.75-4a5.5 5.5 0 0 0-.307-1.827c3.747.537 7.247 2.336 10.012 5.146A20.1 20.1 0 0 1 73.296 49a21.6 21.6 0 0 1 1.335 10.96 4.3 4.3 0 0 0 .148 1.824 4.1 4.1 0 0 0 .88 1.56 11.3 11.3 0 0 1 2.511 4.886 2.7 2.7 0 0 0-1.043-.225c-.91.071-1.757.531-2.358 1.28a4 4 0 0 0-.851 2.719c-.056.993.25 1.97.85 2.719.602.749 1.449 1.209 2.359 1.28.085 0 .167-.015.25-.023a11 11 0 0 1-2.765 3.585 3.6 3.6 0 0 0-1.115-1.806 3.1 3.1 0 0 0-1.871-.756c-.91.072-1.757.532-2.358 1.28a4 4 0 0 0-.85 2.72q.004.495.106.978c-.139.006-.275.021-.415.021h-2.62l.56-4.561c1.243-.434 2.325-1.295 3.083-2.456a7 7 0 0 0 1.119-3.98v-4.646a6.8 6.8 0 0 0-.875-3.382 6.1 6.1 0 0 0-2.382-2.366 4.1 4.1 0 0 1-1.256-1.068c.546.303 1.15.461 1.763.463 2.527 0 4.583-2.69 4.583-5.999s-2.056-5.999-4.584-5.999-4.583 2.69-4.583 6v2.645a6.8 6.8 0 0 0 .873 3.385 6.1 6.1 0 0 0 2.384 2.368c.579.313 1.08.773 1.461 1.342s.632 1.229.73 1.925a7.4 7.4 0 0 0-2.463-1.968 6.8 6.8 0 0 0-2.985-.7h-1.418c-.851-1.2-2.719-1.999-5-1.999-2.28 0-4.148.8-5 2h-1.417a6.8 6.8 0 0 0-2.985.697 7.4 7.4 0 0 0-2.464 1.965 4.6 4.6 0 0 1 .73-1.925 4.14 4.14 0 0 1 1.461-1.342 6.1 6.1 0 0 0 2.383-2.366 6.8 6.8 0 0 0 .875-3.382v-2.646c0-3.308-2.057-5.999-4.584-5.999-2.528 0-4.584 2.69-4.584 6 0 3.308 2.056 5.998 4.584 5.998a3.65 3.65 0 0 0 1.763-.463c-.35.443-.777.806-1.256 1.068a6.1 6.1 0 0 0-2.383 2.366 6.8 6.8 0 0 0-.874 3.382v4.645a7 7 0 0 0 1.119 3.981c.757 1.16 1.839 2.022 3.083 2.456l.565 4.561h-2.626c-.14 0-.275-.015-.414-.02q.102-.484.106-.98a4 4 0 0 0-.85-2.718c-.602-.75-1.449-1.21-2.359-1.28a3.1 3.1 0 0 0-1.871.755 3.6 3.6 0 0 0-1.115 1.806 10.95 10.95 0 0 1-2.765-3.585c.084.008.165.023.25.023.91-.071 1.758-.531 2.359-1.28.6-.749.906-1.726.85-2.719a4 4 0 0 0-.85-2.719c-.601-.749-1.448-1.209-2.358-1.28a2.6 2.6 0 0 0-1.029.222c.14-.617.33-1.22.568-1.8.102-.241.111-.516.027-.765a.97.97 0 0 0-.478-.56.85.85 0 0 0-.7-.03.95.95 0 0 0-.515.521 14.1 14.1 0 0 0-1.053 5.9q-.002.019-.007.04-.011.137.01.275c.005.076 0 .152 0 .228.252 2.923 1.393 5.67 3.241 7.805s4.298 3.533 6.96 3.974a.8.8 0 0 0 .275.047h.017q.847.134 1.701.14h2.95c.396 1.442 1.207 2.707 2.314 3.607S52.6 88.996 53.982 89h5.042c1.38-.004 2.723-.492 3.83-1.392 1.105-.9 1.916-2.165 2.312-3.607h2.95a11.4 11.4 0 0 0 1.704-.142h.017a.8.8 0 0 0 .275-.047c2.66-.444 5.108-1.845 6.954-3.98 1.846-2.136 2.984-4.883 3.234-7.805.008-.115 0-.23.007-.345q.009-.08.007-.159v-.014c.063-1.756-.2-3.508-.774-5.15a13.3 13.3 0 0 0-2.563-4.407 2 2 0 0 1-.448-.778 2.2 2.2 0 0 1-.082-.915 23.5 23.5 0 0 0-.099-7.12l3.49-6.632a1.06 1.06 0 0 0 .091-.759 1 1 0 0 0-.159-.35 1 1 0 0 0-.269-.257.85.85 0 0 0-.696-.1.9.9 0 0 0-.321.173 1 1 0 0 0-.236.294l-2.537 4.818c-1.059-3.62-2.957-6.88-5.511-9.465-.211-.214-.429-.418-.642-.62 2.89-1.278 5.526-3.155 7.762-5.526a3.4 3.4 0 0 1 1.893-1.27 3.2 3.2 0 0 1 2.21.254 6 6 0 0 1 .739 2.9 6 6 0 0 1-.748 2.899l-1.061 2.01a1.06 1.06 0 0 0-.091.76q.047.192.158.35a1 1 0 0 0 .27.257q.158.099.338.126.181.025.358-.026a.9.9 0 0 0 .32-.173 1 1 0 0 0 .237-.294l1.051-1.988A8.1 8.1 0 0 0 84 36.492a8.1 8.1 0 0 0-1.096-3.999M67.5 50.007c1.517 0 2.75 1.794 2.75 4s-1.233 3.999-2.75 3.999-2.75-1.794-2.75-4 1.234-4 2.75-4m-22.002 7.999c-1.517 0-2.75-1.794-2.75-4s1.233-4 2.75-4 2.75 1.795 2.75 4-1.234 4-2.75 4m-9.626 11.997c.745 0 1.375.916 1.375 2s-.63 2-1.375 2a1.34 1.34 0 0 1-.767-.34 1.54 1.54 0 0 1-.456-.753 11 11 0 0 1-.122-1.036c-.006-.079 0-.158 0-.238a1.8 1.8 0 0 1 .402-1.081 1.54 1.54 0 0 1 .943-.552m5.5 8.999c.746 0 1.376.916 1.376 2q-.002.373-.102.73a10 10 0 0 1-2.628-1.03c.005-.413.143-.81.391-1.121.248-.312.59-.517.963-.58m27.045-7.999c0 3.69-2.963 5-5.5 5s-5.501-1.31-5.501-5v-1.115a6.34 6.34 0 0 0 2.856-1.79 7.2 7.2 0 0 0 1.673-3.094h.972c1.458.002 2.856.634 3.888 1.76 1.03 1.124 1.61 2.649 1.612 4.24M56.5 74.66c.884 1.468 2.24 2.52 3.801 2.95l-.622 3.751c-.078.46-.3.877-.63 1.176-.33.3-.745.464-1.174.464h-2.75c-.429 0-.844-.164-1.173-.464a2.04 2.04 0 0 1-.63-1.175l-.623-3.752c1.561-.43 2.918-1.482 3.801-2.95m0-11.655c2.275 0 3.667.97 3.667 1.5 0 .856-1.65 3.499-3.667 3.499s-3.667-2.643-3.667-3.5c0-.529 1.393-1.5 3.667-1.5m-11.918 7.998c.002-1.59.581-3.115 1.613-4.24 1.031-1.125 2.43-1.757 3.888-1.759h.971a7.2 7.2 0 0 0 1.673 3.095 6.34 6.34 0 0 0 2.856 1.79v1.114c0 3.69-2.963 5-5.5 5s-5.501-1.31-5.501-5M59.021 87h-5.043c-1.11-.001-2.182-.442-3.017-1.241s-1.375-1.9-1.521-3.1l-.582-4.742q.61.082 1.224.085c.275 0 .544-.022.81-.044l.625 3.763c.155.92.6 1.753 1.26 2.352a3.48 3.48 0 0 0 2.347.928h2.75a3.5 3.5 0 0 0 2.349-.928 4.1 4.1 0 0 0 1.259-2.353l.624-3.762c.266.022.533.044.81.044q.615-.003 1.224-.085l-.582 4.744c-.146 1.2-.687 2.301-1.521 3.1-.835.797-1.907 1.238-3.017 1.24m11.23-5.999c0-1.083.63-2 1.375-2 .374.063.715.268.963.58s.387.708.391 1.12a10 10 0 0 1-2.627 1.027 2.7 2.7 0 0 1-.102-.727m6.876-6.998c-.746 0-1.375-.916-1.375-2s.63-2 1.375-2c.366.058.702.255.948.555.247.301.389.687.401 1.09q.001.113-.004.225-.038.52-.12 1.026a1.55 1.55 0 0 1-.456.758 1.35 1.35 0 0 1-.77.346M39.258 32.35c1.97 2.31 4.403 4.092 7.11 5.205l.458.186q-.838.505-1.627 1.094c-3.07-1.187-5.872-3.073-8.22-5.533-.82-.94-1.883-1.585-3.048-1.847a4.7 4.7 0 0 1 2.781-.378 4.93 4.93 0 0 1 2.546 1.278zM37.3 50.348l-5.724-10.87a6 6 0 0 1-.74-2.888c0-1.019.256-2.018.74-2.89a3.2 3.2 0 0 1 2.212-.255 3.4 3.4 0 0 1 1.894 1.272c2.245 2.382 4.894 4.265 7.799 5.544-2.88 2.672-5.02 6.166-6.181 10.09zm19.2-9.34c-.375 0-.918-.778-.918-2 0-1.135.469-1.88.836-1.979h.144c.367.078.854.83.854 1.984 0 1.217-.543 1.995-.917 1.995m19.52-7.705c-2.33 2.457-5.118 4.337-8.175 5.51a19 19 0 0 0-1.625-1.089l.41-.168c2.707-1.114 5.14-2.895 7.11-5.205a4.93 4.93 0 0 1 2.547-1.276 4.7 4.7 0 0 1 2.781.381c-1.164.263-2.228.907-3.048 1.847"/><path fill="#394240" d="M53.75 55.506c-.055.86.202 1.71.717 2.365s1.245 1.062 2.033 1.135c.788-.073 1.518-.48 2.033-1.135a3.48 3.48 0 0 0 .717-2.365 3.48 3.48 0 0 0-.717-2.364c-.515-.655-1.245-1.063-2.033-1.135-.788.072-1.518.48-2.033 1.135a3.48 3.48 0 0 0-.717 2.364m3.667 0c0 .8-.43 1.5-.917 1.5s-.917-.7-.917-1.5.43-1.5.917-1.5.917.7.917 1.5M53.761 44.52a2.32 2.32 0 0 0-2.248-.17c-.36.166-.68.42-.935.745a2.8 2.8 0 0 0-.527 1.125 4.3 4.3 0 0 0 .17 2.517 3.87 3.87 0 0 0 1.53 1.893c.4.243.851.373 1.31.377.322.003.64-.065.938-.2a2.6 2.6 0 0 0 .93-.752 2.9 2.9 0 0 0 .536-1.118 4.3 4.3 0 0 0-.169-2.518 3.87 3.87 0 0 0-1.531-1.893zm-.063 3.864a.8.8 0 0 1-.135.345.7.7 0 0 1-.274.229.63.63 0 0 1-.662-.084 1.93 1.93 0 0 1-.716-.91 2.13 2.13 0 0 1-.096-1.196.9.9 0 0 1 .146-.337q.108-.15.264-.237a.5.5 0 0 1 .229-.05c.152.006.3.051.432.133.32.215.57.533.716.911.145.378.179.796.096 1.196M59 50.8c.298.136.617.204.94.2a2.6 2.6 0 0 0 1.309-.373 3.87 3.87 0 0 0 1.53-1.894c.307-.796.366-1.68.17-2.516a2.8 2.8 0 0 0-.527-1.125 2.5 2.5 0 0 0-.935-.746 2.32 2.32 0 0 0-2.249.171 3.87 3.87 0 0 0-1.53 1.893 4.3 4.3 0 0 0-.17 2.517c.098.413.281.795.534 1.12.253.324.57.582.928.754m.398-3.611c.139-.383.39-.704.716-.912a.9.9 0 0 1 .432-.132q.12-.002.23.049a.8.8 0 0 1 .263.237q.106.151.146.337c.083.4.049.817-.097 1.195a1.93 1.93 0 0 1-.715.911.74.74 0 0 1-.663.083.8.8 0 0 1-.262-.238.9.9 0 0 1-.146-.336 2 2 0 0 1 .096-1.195m-13.899 5.817a.88.88 0 0 0-.649.293 1.05 1.05 0 0 0-.268.707v1c0 .266.096.52.268.708a.88.88 0 0 0 .648.292.88.88 0 0 0 .649-.292c.172-.188.268-.442.268-.708v-1c0-.265-.096-.52-.268-.707a.88.88 0 0 0-.648-.293m22.002 3a.88.88 0 0 0 .648-.292 1.05 1.05 0 0 0 .269-.708v-1c0-.265-.097-.52-.269-.707a.88.88 0 0 0-.648-.293.88.88 0 0 0-.648.293 1.05 1.05 0 0 0-.269.707v1c0 .266.097.52.269.708a.88.88 0 0 0 .648.292"/></svg>