<svg xmlns="http://www.w3.org/2000/svg" width="114" height="146" fill="none" viewBox="0 0 114 146"><path fill="#a8c5ff" d="M53.91 5.148a6.02 6.02 0 0 1 9.046 0 6.02 6.02 0 0 0 7.51 1.253c3.153-1.803 7.173-.423 8.554 2.937a6.02 6.02 0 0 0 6.696 3.623c3.568-.68 6.922 1.93 7.138 5.556a6.02 6.02 0 0 0 5.156 5.602c3.596.514 5.921 4.072 4.948 7.572a6.02 6.02 0 0 0 3.058 6.972c3.234 1.654 4.277 5.774 2.22 8.768a6.02 6.02 0 0 0 .629 7.588 6.02 6.02 0 0 1-.747 9.014 6.02 6.02 0 0 0-1.869 7.38c1.536 3.292-.171 7.184-3.633 8.284a6.02 6.02 0 0 0-4.165 6.373c.385 3.613-2.494 6.74-6.125 6.655a6.02 6.02 0 0 0-6.009 4.676c-.81 3.541-4.547 5.564-7.954 4.305a6.02 6.02 0 0 0-7.202 2.472c-1.915 3.087-6.107 3.786-8.921 1.489a6.02 6.02 0 0 0-7.614 0c-2.814 2.297-7.006 1.598-8.921-1.489a6.02 6.02 0 0 0-7.201-2.472c-3.408 1.259-7.145-.764-7.955-4.305a6.02 6.02 0 0 0-6.008-4.676 6.02 6.02 0 0 1-6.126-6.655 6.02 6.02 0 0 0-4.165-6.373c-3.462-1.1-5.169-4.992-3.633-8.284a6.02 6.02 0 0 0-1.869-7.38c-2.918-2.164-3.269-6.4-.747-9.014a6.02 6.02 0 0 0 .629-7.588c-2.057-2.994-1.014-7.114 2.22-8.768a6.02 6.02 0 0 0 3.059-6.972 6.018 6.018 0 0 1 4.947-7.572 6.02 6.02 0 0 0 5.156-5.602c.216-3.626 3.57-6.236 7.138-5.556a6.02 6.02 0 0 0 6.696-3.623c1.381-3.36 5.401-4.74 8.555-2.937a6.02 6.02 0 0 0 7.51-1.253"/><path fill="#a8c5ff" d="M26.473 76.33h60.343v52.97c0 7.389-7.737 12.226-14.38 8.991l-11.412-5.56a10 10 0 0 0-8.759 0l-11.413 5.56c-6.642 3.235-14.379-1.602-14.379-8.991z"/><path fill="#da39a1" d="M26.473 76.33H81.07v46.493c0 7.391-7.742 12.228-14.385 8.987l-8.528-4.161a10 10 0 0 0-8.77 0l-8.528 4.161c-6.643 3.241-14.385-1.596-14.385-8.987z"/><path fill="#072a6f" d="M49.979 5.823a5.916 5.916 0 0 1 8.889 0 5.916 5.916 0 0 0 7.38 1.231 5.916 5.916 0 0 1 8.407 2.887 5.916 5.916 0 0 0 6.58 3.56 5.916 5.916 0 0 1 7.015 5.46 5.916 5.916 0 0 0 5.068 5.505 5.916 5.916 0 0 1 4.862 7.442 5.916 5.916 0 0 0 3.005 6.852 5.916 5.916 0 0 1 2.183 8.617 5.916 5.916 0 0 0 .617 7.457 5.915 5.915 0 0 1-.734 8.859 5.916 5.916 0 0 0-1.836 7.253 5.917 5.917 0 0 1-3.571 8.14 5.916 5.916 0 0 0-4.093 6.264 5.916 5.916 0 0 1-6.02 6.54 5.916 5.916 0 0 0-5.904 4.596 5.917 5.917 0 0 1-7.818 4.231 5.915 5.915 0 0 0-7.077 2.429 5.916 5.916 0 0 1-8.768 1.463 5.92 5.92 0 0 0-7.482 0 5.916 5.916 0 0 1-8.768-1.463 5.915 5.915 0 0 0-7.077-2.429 5.917 5.917 0 0 1-7.818-4.231 5.916 5.916 0 0 0-5.904-4.596 5.916 5.916 0 0 1-6.02-6.54 5.916 5.916 0 0 0-4.093-6.264 5.916 5.916 0 0 1-3.57-8.14 5.916 5.916 0 0 0-1.837-7.253 5.916 5.916 0 0 1-.735-8.859 5.916 5.916 0 0 0 .618-7.457A5.916 5.916 0 0 1 7.66 38.76a5.916 5.916 0 0 0 3.006-6.852 5.916 5.916 0 0 1 4.862-7.442 5.916 5.916 0 0 0 5.068-5.504 5.916 5.916 0 0 1 7.014-5.46 5.916 5.916 0 0 0 6.58-3.561 5.916 5.916 0 0 1 8.408-2.887 5.916 5.916 0 0 0 7.38-1.231"/><circle cx="54.041" cy="54.041" r="39.528" fill="#fff"/><path fill="#fa67c7" d="M25.783 20.242c.215-1 1.42-1.416 2.207-.762l5.856 4.87c.282.235.649.346 1.016.307l7.604-.812a1.352 1.352 0 0 1 1.403 1.851l-2.865 7.066a1.35 1.35 0 0 0 .017 1.057l3.1 6.945c.415.932-.317 1.974-1.34 1.906l-7.627-.504a1.37 1.37 0 0 0-1.005.347l-5.69 5.104c-.763.685-1.982.317-2.23-.673l-1.849-7.377a1.35 1.35 0 0 0-.638-.843l-6.615-3.79a1.352 1.352 0 0 1-.04-2.322l6.485-4.056c.313-.195.533-.508.61-.867z"/><path fill="#da39a1" d="M17.099 56.589a.72.72 0 0 1 .42-1.154l3.933-.776a.72.72 0 0 0 .462-.313l2.191-3.375a.71.71 0 0 1 1.221.041l1.936 3.514a.7.7 0 0 0 .437.344l3.865 1.038c.519.14.701.784.334 1.18l-2.736 2.947a.72.72 0 0 0-.192.526l.197 4.017a.716.716 0 0 1-1.015.688l-3.626-1.693a.7.7 0 0 0-.556-.019l-3.743 1.444a.71.71 0 0 1-.961-.754l.495-3.994a.72.72 0 0 0-.152-.537z"/><path fill="#717171" d="M31.317 69.704c-.563.392-1.153.747-1.688 1.175-4.67 3.737-6.886 7.467-10.123 12.786l-.316.649c-.457.937.502 1.94 1.456 1.519 4.674-2.066 9.412-4.667 13.76-7.095zm46.576 0c.563.392 1.153.747 1.689 1.175 4.668 3.737 6.885 7.467 10.122 12.786l.316.649c.457.937-.502 1.94-1.456 1.519-4.674-2.066-9.412-4.667-13.76-7.095zM53.486 17.528c-2.334 5.728-4.632 17.213-4.632 17.213h11.503s-2.298-11.485-4.632-17.213c-.408-1-1.832-1-2.24 0"/><path fill="#848484" d="M65.93 83.019a41 41 0 0 1-22.65 0c-16.808-4.83-18.983-16.993-18.542-24.637.224-3.88 1.122-6.596 1.122-6.596 1.863-6.241 5.368-10.86 9.308-14.262 4.162-3.595 9.04-5.855 14.101-6.783a29.5 29.5 0 0 1 10.672 0 29.73 29.73 0 0 1 14.101 6.783c3.94 3.401 7.445 8.02 9.308 14.262 0 0 .898 2.716 1.123 6.596.44 7.644-1.734 19.808-18.543 24.637"/><path fill="#717171" d="M65.93 83.018a41 41 0 0 1-18.418.977c4.162.107 8.336-.42 12.38-1.581 16.809-4.829 18.983-16.992 18.542-24.636-.224-3.881-1.122-6.596-1.122-6.596-1.863-6.242-5.368-10.86-9.308-14.263a29.77 29.77 0 0 0-13.495-6.664 29.5 29.5 0 0 1 5.432.486c5.062.928 9.94 3.188 14.102 6.782 3.94 3.403 7.444 8.021 9.307 14.263 0 0 .899 2.715 1.122 6.596.441 7.644-1.734 19.807-18.541 24.636"/><path fill="#faf7f8" d="M65.93 83.018a41 41 0 0 1-22.65 0C26.473 78.19 24.298 66.026 24.739 58.382c.083-1.453.262-2.743.454-3.79 2.61-.138 5.215.33 7.69 1.248 3.31 1.226 5.62 3.979 8.332 6.098l.123.096c7.805 6.044 18.732 6.044 26.537 0l.122-.096c2.713-2.12 5.023-4.872 8.332-6.099 2.475-.917 5.081-1.385 7.69-1.246a31 31 0 0 1 .455 3.789c.44 7.644-1.735 19.807-18.543 24.636"/><path fill="#f0eef0" d="M65.93 83.018a41 41 0 0 1-18.418.977c4.162.107 8.336-.42 12.38-1.581 16.809-4.829 18.983-16.992 18.542-24.636a31 31 0 0 0-.251-2.532c1.906-.519 3.87-.758 5.835-.653q.092.49.174 1.05c.083.562.15 1.132.203 1.7.668 7.242-1.376 14.618-6.896 19.608-3.271 2.957-7.361 4.859-11.57 6.067"/><path fill="#faf7f8" d="M67.728 44.502c-1.466 1.06-2.65 2.624-2.831 4.466-.162 1.643.683 3.03 2.265 3.557 2.681.894 5.851-.962 7.214-3.327.867-1.504 1.38-4.002-.118-5.298-1.817-1.574-4.55-.828-6.53.602m-26.244 0c1.466 1.06 2.649 2.624 2.83 4.466.163 1.643-.682 3.03-2.264 3.557-2.681.894-5.851-.962-7.214-3.327-.867-1.504-1.38-4.002.118-5.298 1.817-1.574 4.55-.828 6.53.602"/><path fill="#394240" d="M90.984 83.845a13 13 0 0 0-.573-1.08c-2.527-4.153-4.555-7.485-7.754-10.602 2.715-4.9 3.101-10.106 2.886-13.842-.224-3.863-1.086-6.596-1.17-6.855-1.478-4.944-4.088-9.32-7.755-13.007a1.072 1.072 0 1 0-1.52 1.512c3.419 3.436 5.85 7.515 7.225 12.122l.01.029c.003.011.166.513.366 1.38-2.221.048-4.483.494-6.743 1.333-2.535.94-4.485 2.67-6.371 4.344-4.675 4.148-10.102 6.735-16.495 6.265-5.275-.388-9.597-2.834-13.465-6.265-1.886-1.674-3.836-3.405-6.37-4.344-2.26-.839-4.523-1.285-6.744-1.334.2-.866.363-1.367.366-1.378l.01-.03c1.602-5.367 4.624-9.996 8.981-13.758a28.86 28.86 0 0 1 15.306-6.78c3.387-.414 6.69-.246 10.037.553a28.7 28.7 0 0 1 10.216 4.709 1.072 1.072 0 1 0 1.262-1.734c-3.71-2.7-7.857-4.5-12.33-5.353-.913-3.945-2.266-9.23-3.642-12.606a2.27 2.27 0 0 0-2.112-1.417 2.27 2.27 0 0 0-2.112 1.417c-1.367 3.353-2.709 8.575-3.643 12.606a30.9 30.9 0 0 0-14.383 6.983c-4.668 4.03-7.908 8.994-9.63 14.753-.084.259-.947 2.992-1.17 6.855-.215 3.736.17 8.942 2.886 13.842a32 32 0 0 0-3.225 3.667 1.072 1.072 0 1 0 1.709 1.295 30 30 0 0 1 2.678-3.097 22.2 22.2 0 0 0 4.469 4.72c-3.711 2.057-7.88 4.297-11.972 6.105q-.023.01-.023.008a.1.1 0 0 1-.041-.04c-.005-.008-.007-.012.005-.036.146-.3.298-.61.466-.887a258 258 0 0 1 1.665-2.712 1.072 1.072 0 0 0-1.817-1.137c-.544.868-1.095 1.775-1.68 2.735-.209.344-.384.697-.561 1.061a2.175 2.175 0 0 0 .393 2.485 2.2 2.2 0 0 0 2.46.484c4.503-1.99 9.065-4.474 13.032-6.684 2.397 1.555 5.32 2.898 8.873 3.92a42.1 42.1 0 0 0 23.242 0c3.554-1.022 6.475-2.365 8.872-3.92 3.967 2.21 8.53 4.694 13.033 6.684a2.19 2.19 0 0 0 2.46-.485 2.17 2.17 0 0 0 .393-2.484M54.478 17.933c.011-.027.034-.082.127-.082s.116.055.127.082c1.23 3.018 2.458 7.697 3.344 11.447a30.4 30.4 0 0 0-6.942 0c.901-3.814 2.121-8.445 3.344-11.447m11.156 64.056a39.9 39.9 0 0 1-22.058 0c-7.16-2.057-12.24-5.677-15.101-10.758-2.552-4.534-2.86-9.456-2.667-12.786a30 30 0 0 1 .295-2.804c2.097 0 4.248.403 6.407 1.204 2.157.8 3.874 2.324 5.692 3.938 4.651 4.127 10.042 6.86 16.403 6.86 6.367 0 11.742-2.725 16.403-6.86 1.818-1.614 3.535-3.138 5.693-3.938 2.159-.8 4.31-1.204 6.406-1.204.127.83.236 1.775.295 2.804.192 3.33-.114 8.252-2.666 12.786a19 19 0 0 1-.365.62c-2.918 4.757-7.872 8.165-14.737 10.138m23.428 2.832a.1.1 0 0 1-.04.04l-.024-.008c-4.093-1.808-8.261-4.048-11.972-6.104a22.2 22.2 0 0 0 4.469-4.72c2.807 2.821 4.639 5.83 7.084 9.85l.183.302.295.604c.012.023.01.027.005.037"/><path fill="#394240" d="M45.44 55.699v2.262a1.072 1.072 0 1 0 2.143 0V55.7a1.072 1.072 0 1 0-2.144 0m16.188-.001v2.262a1.072 1.072 0 1 0 2.144 0V55.7a1.072 1.072 0 1 0-2.144 0m9.271-13.685c-3.439.499-6.717 3.286-7.069 6.848-.214 2.165.961 4.002 2.993 4.68 3.209 1.07 6.877-1.024 8.482-3.809 2.105-3.653.363-8.412-4.406-7.72m2.549 6.649c-1.397 2.422-4.202 3.426-5.947 2.845-1.078-.36-1.652-1.27-1.537-2.435.133-1.35 1.005-2.7 2.392-3.702 1.249-.902 2.416-1.266 3.374-1.266.765 0 1.395.232 1.826.605.999.864.538 2.831-.108 3.953m-31.309-5.066c-1.144-.826-2.48-1.386-3.826-1.583-2.888-.42-5.53 1.457-5.375 4.512.053 1.063.407 2.233.969 3.208 1.268 2.2 3.982 4.09 6.717 4.09 2.774 0 5.04-2.108 4.758-4.961-.211-2.138-1.505-4.01-3.243-5.266m-.428 7.912c-1.745.582-4.55-.423-5.946-2.845-1.059-1.837-.975-4.557 1.716-4.558 2.52 0 5.518 2.439 5.767 4.968.115 1.165-.46 2.075-1.537 2.435"/></svg>