<svg xmlns="http://www.w3.org/2000/svg" width="114" height="146" fill="none" viewBox="0 0 114 146"><path fill="#a8c5ff" d="M53.91 5.148a6.02 6.02 0 0 1 9.046 0 6.02 6.02 0 0 0 7.51 1.253c3.153-1.803 7.173-.423 8.554 2.937a6.02 6.02 0 0 0 6.696 3.623c3.568-.68 6.922 1.93 7.138 5.556a6.02 6.02 0 0 0 5.156 5.602c3.596.514 5.921 4.072 4.948 7.572a6.02 6.02 0 0 0 3.058 6.972c3.234 1.654 4.277 5.774 2.22 8.768a6.02 6.02 0 0 0 .629 7.588 6.02 6.02 0 0 1-.747 9.014 6.02 6.02 0 0 0-1.869 7.38c1.536 3.292-.171 7.184-3.633 8.284a6.02 6.02 0 0 0-4.164 6.373c.383 3.613-2.495 6.74-6.126 6.655a6.02 6.02 0 0 0-6.009 4.676c-.81 3.541-4.547 5.564-7.954 4.305a6.02 6.02 0 0 0-7.201 2.472 6.02 6.02 0 0 1-8.922 1.489 6.02 6.02 0 0 0-7.614 0c-2.814 2.297-7.006 1.598-8.921-1.489a6.02 6.02 0 0 0-7.201-2.472c-3.408 1.259-7.145-.764-7.955-4.305a6.02 6.02 0 0 0-6.008-4.676 6.02 6.02 0 0 1-6.126-6.655 6.02 6.02 0 0 0-4.165-6.373c-3.462-1.1-5.169-4.992-3.633-8.284a6.02 6.02 0 0 0-1.869-7.38c-2.918-2.164-3.269-6.4-.747-9.014a6.02 6.02 0 0 0 .629-7.588c-2.057-2.994-1.014-7.114 2.22-8.768a6.02 6.02 0 0 0 3.059-6.972 6.018 6.018 0 0 1 4.947-7.572 6.02 6.02 0 0 0 5.156-5.602c.216-3.626 3.57-6.236 7.138-5.556a6.02 6.02 0 0 0 6.696-3.623c1.382-3.36 5.401-4.74 8.555-2.937a6.02 6.02 0 0 0 7.51-1.253"/><path fill="#a8c5ff" d="M26.473 76.33h60.343v52.97c0 7.389-7.737 12.226-14.38 8.991l-11.412-5.56a10 10 0 0 0-8.759 0l-11.413 5.56c-6.642 3.235-14.379-1.602-14.379-8.991z"/><path fill="#da39a1" d="M26.473 76.33H81.07v46.493c0 7.391-7.742 12.228-14.385 8.987l-8.528-4.161a10 10 0 0 0-8.77 0l-8.528 4.161c-6.643 3.241-14.385-1.596-14.385-8.987z"/><path fill="#072a6f" d="M49.979 5.823a5.916 5.916 0 0 1 8.889 0 5.916 5.916 0 0 0 7.38 1.231 5.916 5.916 0 0 1 8.407 2.887 5.916 5.916 0 0 0 6.58 3.56 5.916 5.916 0 0 1 7.015 5.46 5.916 5.916 0 0 0 5.068 5.505 5.916 5.916 0 0 1 4.862 7.442 5.916 5.916 0 0 0 3.005 6.852 5.916 5.916 0 0 1 2.183 8.617 5.916 5.916 0 0 0 .617 7.457 5.915 5.915 0 0 1-.734 8.859 5.916 5.916 0 0 0-1.836 7.253 5.917 5.917 0 0 1-3.571 8.14 5.916 5.916 0 0 0-4.093 6.264 5.916 5.916 0 0 1-6.02 6.54 5.916 5.916 0 0 0-5.904 4.596 5.917 5.917 0 0 1-7.818 4.231 5.915 5.915 0 0 0-7.077 2.429 5.916 5.916 0 0 1-8.768 1.463 5.92 5.92 0 0 0-7.482 0 5.916 5.916 0 0 1-8.768-1.463 5.915 5.915 0 0 0-7.077-2.429 5.917 5.917 0 0 1-7.818-4.231 5.916 5.916 0 0 0-5.904-4.596 5.916 5.916 0 0 1-6.02-6.54 5.916 5.916 0 0 0-4.093-6.264 5.916 5.916 0 0 1-3.57-8.14 5.916 5.916 0 0 0-1.837-7.253 5.916 5.916 0 0 1-.735-8.859 5.916 5.916 0 0 0 .618-7.457A5.916 5.916 0 0 1 7.66 38.76a5.916 5.916 0 0 0 3.006-6.852 5.916 5.916 0 0 1 4.862-7.442 5.916 5.916 0 0 0 5.068-5.504 5.916 5.916 0 0 1 7.014-5.46 5.916 5.916 0 0 0 6.58-3.561 5.916 5.916 0 0 1 8.408-2.887 5.916 5.916 0 0 0 7.38-1.231"/><circle cx="54.041" cy="54.041" r="39.528" fill="#fff"/><path fill="#fa67c7" d="M25.783 20.242c.215-1 1.42-1.416 2.207-.762l5.856 4.87c.282.235.649.346 1.016.307l7.604-.812a1.352 1.352 0 0 1 1.403 1.851l-2.865 7.066c-.139.34-.132.722.017 1.057l3.1 6.945c.415.932-.317 1.974-1.34 1.906l-7.627-.504a1.37 1.37 0 0 0-1.005.347l-5.69 5.104c-.763.685-1.982.317-2.23-.673l-1.849-7.377a1.35 1.35 0 0 0-.638-.843l-6.615-3.79a1.352 1.352 0 0 1-.04-2.322l6.485-4.056c.313-.195.533-.508.61-.867z"/><path fill="#da39a1" d="M17.099 56.589a.72.72 0 0 1 .42-1.154l3.933-.776a.72.72 0 0 0 .462-.313l2.191-3.375a.71.71 0 0 1 1.221.041l1.936 3.514a.7.7 0 0 0 .437.344l3.865 1.038c.519.14.701.784.334 1.18l-2.736 2.947a.72.72 0 0 0-.192.526l.197 4.017a.716.716 0 0 1-1.015.688l-3.626-1.693a.7.7 0 0 0-.556-.019l-3.743 1.444a.71.71 0 0 1-.961-.754l.495-3.994a.72.72 0 0 0-.152-.537z"/><path fill="#ff938a" d="M73.556 51.606c-3.578 1.016-6.98 1.747-10.305 2.196-10.31-1.001-15.87-7.867-15.87-15.774 0-4.835 2.59-9.97 8.46-13.082 13.494.381 23.418 11.245 17.715 26.66"/><path fill="#fd7a6e" d="M63.25 53.802c-8.745 1.182-16.977.42-26.59-2.196-5.804-15.693 4.585-26.67 18.448-26.67q.369 0 .733.01a17.08 17.08 0 0 0-5.225 12.318c0 7.906 5.354 14.562 12.635 16.538"/><path fill="#ff938a" d="M63.179 72.295a6.24 6.24 0 0 1 0 6.308l-1.161 1.983a2.5 2.5 0 0 0 0 2.524q.161.285.358.61c.862 1.437-.172 3.265-1.848 3.265a2.15 2.15 0 0 1-1.86-1.066L58.131 85a6.24 6.24 0 0 1 0-6.307l1.161-1.983a2.5 2.5 0 0 0 0-2.523l-1.16-1.984a6.24 6.24 0 0 1 0-6.307l1.16-1.983a2.5 2.5 0 0 0 0-2.523l-1.16-1.983a6.24 6.24 0 0 1-.434-5.409H62.6l-.582.994a2.5 2.5 0 0 0 0 2.523l1.16 1.983a6.24 6.24 0 0 1 0 6.307l-1.16 1.984a2.5 2.5 0 0 0 0 2.523zm-11.093 6.399a6.24 6.24 0 0 1 0 6.307l-.537.918a2.15 2.15 0 0 1-1.86 1.066c-1.675 0-2.71-1.828-1.848-3.265q.197-.324.359-.61a2.5 2.5 0 0 0 0-2.524l-1.161-1.983a6.24 6.24 0 0 1 0-6.308l1.16-1.982a2.5 2.5 0 0 0 0-2.523l-1.16-1.984a6.24 6.24 0 0 1 0-6.307l1.16-1.983a2.5 2.5 0 0 0 0-2.523l-.581-.994h4.901a6.24 6.24 0 0 1-.433 5.408l-1.161 1.984a2.5 2.5 0 0 0 0 2.523l1.161 1.983a6.24 6.24 0 0 1 0 6.307l-1.161 1.984a2.5 2.5 0 0 0 0 2.523zm20.529-6.399a6.24 6.24 0 0 1 0 6.308l-1.161 1.983a2.5 2.5 0 0 0 0 2.524c.106.19.228.394.358.61.861 1.437-.172 3.265-1.848 3.265a2.15 2.15 0 0 1-1.86-1.066L67.567 85a6.24 6.24 0 0 1 0-6.307l1.161-1.983a2.5 2.5 0 0 0 0-2.523l-1.16-1.984a6.25 6.25 0 0 1 0-6.307l1.16-1.983a2.5 2.5 0 0 0 0-2.523l-1.16-1.983a6.24 6.24 0 0 1-.434-5.409h4.901l-.581.994a2.5 2.5 0 0 0 0 2.523l1.16 1.983a6.25 6.25 0 0 1 0 6.307l-1.16 1.984a2.5 2.5 0 0 0 0 2.523zM42.65 78.694a6.24 6.24 0 0 1 0 6.307l-.536.918a2.15 2.15 0 0 1-1.86 1.066c-1.676 0-2.71-1.828-1.848-3.265.13-.216.252-.42.358-.61a2.5 2.5 0 0 0 0-2.523l-1.161-1.984a6.24 6.24 0 0 1 0-6.307l1.161-1.983a2.5 2.5 0 0 0 0-2.523l-1.161-1.984a6.25 6.25 0 0 1 0-6.307l1.161-1.983a2.5 2.5 0 0 0 0-2.523L38.182 54h4.902a6.24 6.24 0 0 1-.434 5.409l-1.16 1.983a2.5 2.5 0 0 0 0 2.524l1.16 1.982a6.25 6.25 0 0 1 0 6.307l-1.16 1.984a2.5 2.5 0 0 0 0 2.523z"/><path fill="#ffc4bf" d="M73.43 63.206a8 8 0 0 1-7.245 0l-2.278-1.156a3.25 3.25 0 0 0-2.897 0l-2.279 1.156a8 8 0 0 1-7.245 0l-2.278-1.156a3.25 3.25 0 0 0-2.897 0l-2.279 1.156a8 8 0 0 1-7.244 0 4.16 4.16 0 0 1-2.279-3.71v-6.359h41.2v6.358a4.16 4.16 0 0 1-2.279 3.711"/><path fill="#fff" d="M44.879 43.872c2.026 0 3.669-1.309 3.669-2.922s-1.643-2.922-3.669-2.922-3.669 1.308-3.669 2.922c0 1.613 1.643 2.921 3.669 2.921m19.887.001c2.026 0 3.669-1.309 3.669-2.922s-1.643-2.922-3.67-2.922c-2.026 0-3.668 1.308-3.668 2.922 0 1.613 1.642 2.921 3.669 2.921"/><path fill="#666667" d="M57.78 38.705c0-1.828-1.324-2-2.957-2-1.634 0-2.958.172-2.958 2s1.324 3.31 2.958 3.31c1.633 0 2.958-1.482 2.958-3.31"/><path fill="#ffaaa1" d="M73.521 49.973c-4.604 0-4.604 2.365-9.207 2.365-4.602 0-4.602-2.365-9.205-2.365s-4.603 2.365-9.205 2.365-4.603-2.365-9.208-2.365c-.928 0-1.663.072-2.283.192a2.63 2.63 0 0 0-2.115 2.586c0 1.608 1.428 2.853 3.019 2.61.414-.063.87-.1 1.38-.1 4.604 0 4.604 2.365 9.208 2.365 4.602 0 4.603-2.363 9.204-2.364 4.6 0 4.602 2.364 9.203 2.364 4.605 0 4.605-2.364 9.21-2.364.509 0 .965.035 1.379.099 1.59.243 3.019-1.002 3.019-2.61a2.63 2.63 0 0 0-2.115-2.586c-.62-.12-1.356-.192-2.284-.192"/><path fill="#b0f0ef" d="M27.642 47.92a2.497 2.497 0 1 0 0-4.994 2.497 2.497 0 0 0 0 4.993m2.471 23.296a2.185 2.185 0 1 0 0-4.37 2.185 2.185 0 0 0 0 4.37m52.774-28.601a2.185 2.185 0 1 0 0-4.37 2.185 2.185 0 0 0 0 4.37m-3.436-11.435a3.121 3.121 0 1 0 0-6.243 3.121 3.121 0 0 0 0 6.243"/><path fill="#394240" d="M54.822 42.952c-2.148 0-3.895-1.905-3.895-4.247 0-1.505.75-2.201 1.38-2.52.68-.345 1.497-.416 2.515-.416s1.835.07 2.515.416c.63.319 1.38 1.015 1.38 2.52 0 2.342-1.748 4.247-3.895 4.247m0-5.31c-1.94 0-2.022.326-2.022 1.063 0 1.31.907 2.374 2.022 2.374s2.021-1.065 2.021-2.374c0-.737-.081-1.063-2.021-1.063m-9.33.756a.936.936 0 0 1-.936-.936v-1.498a.936.936 0 1 1 1.872 0v1.498a.936.936 0 0 1-.936.936m18.66 0a.936.936 0 0 1-.936-.936v-1.498a.936.936 0 1 1 1.872 0v1.498a.936.936 0 0 1-.936.936m-36.51 10.458a3.437 3.437 0 0 1-3.433-3.434 3.437 3.437 0 0 1 3.433-3.433 3.437 3.437 0 0 1 3.433 3.434 3.437 3.437 0 0 1-3.433 3.433m0-4.994c-.86 0-1.56.7-1.56 1.56s.7 1.561 1.56 1.561 1.56-.7 1.56-1.56-.7-1.561-1.56-1.561m2.471 28.289a3.125 3.125 0 0 1-3.121-3.121c0-1.721 1.4-3.121 3.12-3.121 1.722 0 3.122 1.4 3.122 3.12 0 1.722-1.4 3.122-3.121 3.122m0-4.37a1.25 1.25 0 0 0-1.249 1.249 1.25 1.25 0 0 0 2.497 0 1.25 1.25 0 0 0-1.248-1.249M82.887 43.55a3.125 3.125 0 0 1-3.121-3.121c0-1.721 1.4-3.122 3.12-3.122 1.722 0 3.122 1.4 3.122 3.122 0 1.72-1.4 3.12-3.121 3.12m0-4.37a1.25 1.25 0 0 0-1.249 1.249 1.25 1.25 0 0 0 2.497 0 1.25 1.25 0 0 0-1.248-1.249m-3.435-7.064a4.06 4.06 0 0 1-4.058-4.058A4.06 4.06 0 0 1 79.451 24a4.06 4.06 0 0 1 4.058 4.058 4.06 4.06 0 0 1-4.058 4.057m0-6.242c-1.205 0-2.185.98-2.185 2.185 0 1.204.98 2.184 2.185 2.184 1.204 0 2.184-.98 2.184-2.184s-.98-2.185-2.184-2.185"/><path fill="#394240" d="M78.05 50.484a3.54 3.54 0 0 0-2.07-1.24 10 10 0 0 0-.666-.104c1.37-5.245 1.015-10.2-1.045-14.392a.936.936 0 0 0-1.681.826c1.906 3.879 2.183 8.522.813 13.465-2.45.021-3.758.69-4.913 1.284-1.126.578-2.1 1.078-4.175 1.078s-3.047-.5-4.174-1.078c-1.173-.603-2.503-1.286-5.03-1.286-2.529 0-3.859.683-5.032 1.286-1.126.578-2.1 1.078-4.174 1.078s-3.048-.5-4.175-1.078c-1.154-.593-2.463-1.263-4.913-1.284-.838-3.017-1.065-5.91-.675-8.608s1.384-5.143 2.955-7.266c3.43-4.634 9.266-7.292 16.013-7.292 6.162 0 11.697 2.285 15.189 6.271a.936.936 0 0 0 1.409-1.234C67.859 26.519 61.809 24 55.108 24c-7.347 0-13.732 2.934-17.518 8.05-3.424 4.628-4.362 10.66-2.686 17.09q-.345.044-.67.105a3.57 3.57 0 0 0-2.873 3.506 3.58 3.58 0 0 0 2.211 3.31v3.434a5.09 5.09 0 0 0 2.33 4.277c.14.88.442 1.738.892 2.507l1.161 1.984a1.56 1.56 0 0 1 0 1.577l-1.16 1.983a7.19 7.19 0 0 0 0 7.253l1.16 1.984a1.56 1.56 0 0 1-.009 1.593c-.1.179-.22.379-.344.586a3.06 3.06 0 0 0-.039 3.115 3.06 3.06 0 0 0 2.69 1.567 3.1 3.1 0 0 0 2.668-1.53l.537-.917a7.19 7.19 0 0 0 0-7.253l-1.16-1.983a1.56 1.56 0 0 1-.001-1.577l1.161-1.984a7.19 7.19 0 0 0 0-7.253l-.467-.798a9 9 0 0 0 1.464-.586l.855-.433a7.2 7.2 0 0 0 .92 2.672l1.161 1.983a1.56 1.56 0 0 1 0 1.578l-1.16 1.983a7.19 7.19 0 0 0 0 7.253l1.16 1.983a1.56 1.56 0 0 1 0 1.578l-.009.016c-.101.181-.22.38-.344.586a3.06 3.06 0 0 0-.039 3.115 3.06 3.06 0 0 0 2.69 1.567 3.1 3.1 0 0 0 2.668-1.53l.537-.917a7.19 7.19 0 0 0 0-7.253l-1.161-1.983a1.57 1.57 0 0 1 0-1.577l1.16-1.984a7.19 7.19 0 0 0 0-7.253l-.489-.836a8.97 8.97 0 0 0 5.408 0l-.49.836a7.19 7.19 0 0 0 0 7.253l1.162 1.984a1.56 1.56 0 0 1 0 1.577l-1.161 1.983a7.19 7.19 0 0 0 0 7.253l.537.919a3.09 3.09 0 0 0 2.668 1.528 3.06 3.06 0 0 0 2.69-1.567 3.06 3.06 0 0 0-.04-3.117 23 23 0 0 1-.343-.584l-.01-.016a1.56 1.56 0 0 1 0-1.578l1.162-1.984c.241-.413.44-.848.593-1.293a.936.936 0 1 0-1.772-.606c-.112.328-.26.649-.438.954l-1.161 1.984a3.44 3.44 0 0 0-.005 3.46c.114.203.24.413.369.628.229.382.234.841.015 1.229a1.22 1.22 0 0 1-2.112.015l-.537-.918a5.31 5.31 0 0 1 0-5.361l1.161-1.983a3.44 3.44 0 0 0 0-3.469l-1.161-1.984a5.31 5.31 0 0 1 0-5.36l1.16-1.981c.187-.319.32-.667.396-1.029l.94-.476a2.3 2.3 0 0 1 1.66-.15 5.3 5.3 0 0 1-.725 2.598l-1.161 1.984a3.44 3.44 0 0 0 0 3.47l1.16 1.98q.198.34.338.69a.936.936 0 1 0 1.74-.694 7 7 0 0 0-.46-.94l-1.161-1.983a1.56 1.56 0 0 1 0-1.577l1.16-1.984c.486-.83.795-1.736.92-2.672l.855.433q.712.36 1.465.586l-.467.798a7.19 7.19 0 0 0 0 7.253l1.16 1.984a1.56 1.56 0 0 1 0 1.577l-1.16 1.983a7.19 7.19 0 0 0 0 7.253l.537.919a3.09 3.09 0 0 0 2.668 1.528 3.06 3.06 0 0 0 2.69-1.567 3.06 3.06 0 0 0-.04-3.116 22 22 0 0 1-.343-.585l-.01-.016a1.57 1.57 0 0 1 0-1.578l1.161-1.983a7.19 7.19 0 0 0 0-7.254l-1.16-1.982a1.56 1.56 0 0 1 0-1.577l1.16-1.985a7.2 7.2 0 0 0 .893-2.506 5.07 5.07 0 0 0 2.33-4.277v-3.437a3.58 3.58 0 0 0 2.211-3.308c0-.822-.287-1.627-.807-2.266M41.841 66.37a5.31 5.31 0 0 1 0 5.361l-1.161 1.985a3.44 3.44 0 0 0 0 3.469l1.16 1.982a5.31 5.31 0 0 1 0 5.361l-.535.917a1.22 1.22 0 0 1-1.053.604c-.445 0-.841-.231-1.06-.618a1.2 1.2 0 0 1 .015-1.228c.13-.217.257-.429.369-.629a3.44 3.44 0 0 0-.005-3.46L38.41 78.13a5.31 5.31 0 0 1 0-5.361l1.162-1.983a3.44 3.44 0 0 0 0-3.469l-1.161-1.983a5 5 0 0 1-.314-.631 9 9 0 0 0 2.932.28zm9.436 5.361-1.162 1.985a3.44 3.44 0 0 0 0 3.469l1.162 1.982a5.31 5.31 0 0 1 0 5.361l-.537.917a1.22 1.22 0 0 1-1.052.604c-.445 0-.841-.231-1.06-.618a1.2 1.2 0 0 1 .015-1.228q.197-.324.369-.629a3.44 3.44 0 0 0-.006-3.46l-1.16-1.984a5.31 5.31 0 0 1 0-5.361l1.16-1.983a3.44 3.44 0 0 0 0-3.469l-1.16-1.984a5.3 5.3 0 0 1-.726-2.599 2.3 2.3 0 0 1 1.663.152l.938.475c.076.361.208.71.395 1.027l1.16 1.982a5.31 5.31 0 0 1 0 5.361m20.528-6.398-1.161 1.984a3.44 3.44 0 0 0 0 3.47l1.161 1.981a5.31 5.31 0 0 1 0 5.362l-1.161 1.984a3.44 3.44 0 0 0-.005 3.46c.112.2.238.412.368.628.23.382.235.841.016 1.229-.22.387-.616.618-1.06.618a1.22 1.22 0 0 1-1.052-.603l-.537-.918a5.31 5.31 0 0 1 0-5.36l1.16-1.984a3.44 3.44 0 0 0 0-3.469l-1.16-1.984a5.31 5.31 0 0 1 0-5.36l.812-1.388a9 9 0 0 0 2.932-.28q-.134.323-.313.63m4.58-11.286a1.65 1.65 0 0 1-1.346.387c-.48-.072-.99-.109-1.52-.109-2.528 0-3.858.683-5.031 1.286-1.128.579-2.101 1.079-4.177 1.079s-3.048-.5-4.175-1.079c-1.173-.602-2.502-1.285-5.029-1.286-2.525.001-3.854.684-5.027 1.286-.67.344-1.304.669-2.157.869a.936.936 0 0 0 .426 1.823c1.078-.252 1.845-.646 2.586-1.026 1.127-.579 2.1-1.078 4.172-1.079 2.074 0 3.047.5 4.173 1.079 1.174.603 2.503 1.286 5.031 1.286 2.529 0 3.859-.683 5.032-1.286 1.127-.579 2.101-1.079 4.177-1.079.435 0 .852.03 1.238.088l.013.002v3.207a3.21 3.21 0 0 1-1.766 2.876 7.09 7.09 0 0 1-6.398 0l-2.278-1.155a4.2 4.2 0 0 0-3.743 0l-2.28 1.155a7.08 7.08 0 0 1-6.397 0l-2.279-1.155a4.2 4.2 0 0 0-3.744 0l-2.279 1.155a7.09 7.09 0 0 1-6.398 0 3.22 3.22 0 0 1-1.765-2.875v-3.209l.011-.001a8 8 0 0 1 1.24-.088c2.076 0 3.05.5 4.177 1.079.766.393 1.56.8 2.692 1.051a.936.936 0 0 0 .405-1.828c-.898-.199-1.55-.534-2.242-.89-1.174-.602-2.504-1.285-5.032-1.285-.529 0-1.04.037-1.516.109a1.695 1.695 0 0 1-1.946-1.683c0-.814.57-1.516 1.355-1.667a11 11 0 0 1 2.107-.175c2.076 0 3.05.5 4.177 1.08 1.173.602 2.503 1.285 5.03 1.285s3.857-.683 5.03-1.285c1.127-.58 2.1-1.08 4.176-1.08s3.048.5 4.175 1.08c1.173.602 2.502 1.285 5.03 1.285 2.527 0 3.857-.683 5.03-1.285 1.127-.58 2.101-1.08 4.177-1.08.805 0 1.495.058 2.107.175.378.072.722.28.97.582.248.306.385.691.385 1.085 0 .499-.218.971-.596 1.296"/></svg>