<svg xmlns="http://www.w3.org/2000/svg" width="114" height="146" fill="none" viewBox="0 0 114 146"><path fill="#a8c5ff" d="M53.91 5.148a6.02 6.02 0 0 1 9.046 0 6.02 6.02 0 0 0 7.51 1.253c3.153-1.803 7.173-.423 8.554 2.937a6.02 6.02 0 0 0 6.696 3.623c3.568-.68 6.922 1.93 7.138 5.556a6.02 6.02 0 0 0 5.156 5.601c3.596.515 5.921 4.073 4.948 7.573a6.02 6.02 0 0 0 3.058 6.972c3.234 1.654 4.277 5.774 2.22 8.768a6.02 6.02 0 0 0 .629 7.588c2.522 2.614 2.171 6.85-.747 9.014a6.02 6.02 0 0 0-1.869 7.38c1.536 3.292-.171 7.184-3.633 8.284a6.02 6.02 0 0 0-4.165 6.373c.385 3.613-2.494 6.74-6.125 6.655a6.02 6.02 0 0 0-6.009 4.676c-.81 3.541-4.547 5.564-7.954 4.305a6.02 6.02 0 0 0-7.202 2.472c-1.915 3.087-6.107 3.786-8.921 1.489a6.02 6.02 0 0 0-7.614 0c-2.814 2.297-7.006 1.598-8.921-1.489a6.02 6.02 0 0 0-7.201-2.472c-3.408 1.259-7.145-.764-7.955-4.305a6.02 6.02 0 0 0-6.008-4.676 6.02 6.02 0 0 1-6.126-6.655 6.02 6.02 0 0 0-4.165-6.373c-3.462-1.1-5.169-4.992-3.633-8.284a6.02 6.02 0 0 0-1.869-7.38c-2.918-2.164-3.269-6.4-.747-9.014a6.02 6.02 0 0 0 .629-7.588c-2.057-2.994-1.014-7.114 2.22-8.768a6.02 6.02 0 0 0 3.059-6.972c-.974-3.5 1.35-7.058 4.947-7.573a6.02 6.02 0 0 0 5.156-5.601c.216-3.626 3.57-6.236 7.138-5.556a6.02 6.02 0 0 0 6.696-3.623c1.381-3.36 5.401-4.74 8.555-2.937a6.02 6.02 0 0 0 7.51-1.253"/><path fill="#a8c5ff" d="M26.473 76.33h60.343v52.97c0 7.389-7.737 12.226-14.38 8.991l-11.412-5.56a10 10 0 0 0-8.759 0l-11.413 5.56c-6.642 3.235-14.379-1.602-14.379-8.991z"/><path fill="#da39a1" d="M26.473 76.33H81.07v46.493c0 7.391-7.742 12.228-14.385 8.987l-8.528-4.161a10 10 0 0 0-8.77 0l-8.528 4.161c-6.643 3.241-14.385-1.596-14.385-8.987z"/><path fill="#072a6f" d="M49.979 5.823a5.916 5.916 0 0 1 8.889 0 5.916 5.916 0 0 0 7.38 1.231 5.916 5.916 0 0 1 8.407 2.887 5.916 5.916 0 0 0 6.58 3.56 5.916 5.916 0 0 1 7.015 5.46 5.916 5.916 0 0 0 5.068 5.505 5.916 5.916 0 0 1 4.862 7.442 5.916 5.916 0 0 0 3.005 6.852 5.916 5.916 0 0 1 2.183 8.617 5.916 5.916 0 0 0 .617 7.457 5.915 5.915 0 0 1-.734 8.859 5.916 5.916 0 0 0-1.836 7.253 5.917 5.917 0 0 1-3.571 8.14 5.916 5.916 0 0 0-4.093 6.264 5.916 5.916 0 0 1-6.02 6.54 5.916 5.916 0 0 0-5.904 4.596 5.917 5.917 0 0 1-7.818 4.231 5.915 5.915 0 0 0-7.077 2.429 5.916 5.916 0 0 1-8.768 1.463 5.92 5.92 0 0 0-7.482 0 5.916 5.916 0 0 1-8.768-1.463 5.915 5.915 0 0 0-7.077-2.429 5.917 5.917 0 0 1-7.818-4.231 5.916 5.916 0 0 0-5.904-4.596 5.916 5.916 0 0 1-6.02-6.54 5.916 5.916 0 0 0-4.093-6.264 5.916 5.916 0 0 1-3.57-8.14 5.916 5.916 0 0 0-1.837-7.253 5.916 5.916 0 0 1-.735-8.859 5.916 5.916 0 0 0 .618-7.457A5.916 5.916 0 0 1 7.66 38.76a5.916 5.916 0 0 0 3.006-6.852 5.916 5.916 0 0 1 4.862-7.442 5.916 5.916 0 0 0 5.068-5.504 5.916 5.916 0 0 1 7.014-5.46 5.916 5.916 0 0 0 6.58-3.561 5.916 5.916 0 0 1 8.408-2.887 5.916 5.916 0 0 0 7.38-1.231"/><circle cx="54.041" cy="54.041" r="39.528" fill="#fff"/><path fill="#fa67c7" d="M25.783 20.242c.215-1 1.42-1.416 2.207-.762l5.856 4.87c.282.235.649.346 1.016.307l7.604-.812a1.352 1.352 0 0 1 1.403 1.851l-2.865 7.066a1.35 1.35 0 0 0 .017 1.057l3.1 6.945c.415.932-.317 1.974-1.34 1.906l-7.627-.504a1.37 1.37 0 0 0-1.005.347l-5.69 5.104c-.763.685-1.982.317-2.23-.673l-1.849-7.377a1.35 1.35 0 0 0-.638-.843l-6.615-3.79a1.352 1.352 0 0 1-.04-2.322l6.485-4.056c.313-.195.533-.508.61-.867z"/><path fill="#da39a1" d="M17.099 56.589a.72.72 0 0 1 .42-1.154l3.933-.776a.72.72 0 0 0 .462-.313l2.191-3.375a.71.71 0 0 1 1.221.041l1.936 3.514a.7.7 0 0 0 .437.344l3.865 1.038c.519.14.701.784.334 1.18l-2.736 2.947a.72.72 0 0 0-.192.526l.197 4.017a.716.716 0 0 1-1.015.688l-3.626-1.693a.7.7 0 0 0-.556-.019l-3.743 1.444a.71.71 0 0 1-.961-.754l.495-3.994a.72.72 0 0 0-.152-.537z"/><path fill="#ea9b58" d="m74.286 39.642-3.952 2.281-5.742-9.946 7.728-4.462a2.56 2.56 0 0 1 3.498.937l1.001 1.734a6.92 6.92 0 0 1-2.533 9.456m-37.412 0 3.952 2.281 5.742-9.946-7.728-4.462a2.56 2.56 0 0 0-3.498.937l-1.001 1.734a6.92 6.92 0 0 0 2.533 9.456"/><path fill="#d88a55" d="m46.57 31.977-5.743 9.946-3.951-2.281a6.9 6.9 0 0 1-2.466-2.417 22.9 22.9 0 0 1 6.335-8.612zm30.176 5.259a6.9 6.9 0 0 1-2.46 2.406l-3.952 2.281-5.742-9.946 5.819-3.36a22.95 22.95 0 0 1 6.335 8.619"/><path fill="#ea9b58" d="M64.72 81.91c9.86-2.466 16.34-12.642 13.644-23.039L73.84 41.417a18.868 18.868 0 0 0-36.528 0l-4.526 17.454c-2.688 10.37 3.75 20.517 13.565 23.02z"/><path fill="#d88a55" d="M59.943 81.906 46.35 81.89c-9.816-2.502-16.253-12.65-13.564-23.018l4.524-17.455a18.84 18.84 0 0 1 6.717-10.187 18.9 18.9 0 0 1 5.837-3.062 39.6 39.6 0 0 0-6.32 21.533c0 13.237 6.46 24.966 16.4 32.205"/><path fill="#aa693b" d="M57.584 84.828h-4.016c-5.536 0-10.023-4.487-10.023-10.023V59.32a8.45 8.45 0 0 1 8.452-8.452h7.158a8.45 8.45 0 0 1 8.452 8.452v15.486c0 5.536-4.488 10.023-10.023 10.023"/><path fill="#394240" d="M51.251 61.038v.67a1.172 1.172 0 0 0 2.344 0v-.67c0-2.316-1.884-4.2-4.2-4.2a1.172 1.172 0 0 0 0 2.344c1.023 0 1.856.832 1.856 1.856m10.514-4.2a4.205 4.205 0 0 0-4.2 4.2v.67a1.172 1.172 0 0 0 2.343 0v-.67c0-1.023.833-1.856 1.857-1.856a1.172 1.172 0 0 0 0-2.344m-5.017 17.949V67.18a1.172 1.172 0 0 0-2.344 0v7.608l-3.547 3.547a1.172 1.172 0 0 0 1.657 1.658l3.062-3.062 3.061 3.062a1.17 1.17 0 0 0 1.657 0c.458-.458.458-1.2 0-1.658z"/><path fill="#394240" d="m79.5 58.577-4.526-17.454a20 20 0 0 0-.124-.456c3.876-2.24 5.209-7.216 2.97-11.094l-.982-1.7a3.72 3.72 0 0 0-2.272-1.744 3.72 3.72 0 0 0-2.861.386l-4.96 3a20 20 0 0 0-11.17-3.403 20 20 0 0 0-11.073 3.339q-.023-.017-.05-.033l-5.017-2.915a3.72 3.72 0 0 0-2.84-.374 3.72 3.72 0 0 0-2.273 1.744l-.982 1.7c-2.237 3.876-.907 8.847 2.963 11.09q-.066.229-.126.46l-4.525 17.454c-1.348 5.199-.59 10.598 2.132 15.205 2.683 4.54 7.11 7.89 12.159 9.212A11.15 11.15 0 0 0 53.567 86h4.017c2.943 0 5.624-1.143 7.625-3.007 5.035-1.318 9.45-4.65 12.135-9.172 2.742-4.616 3.507-10.03 2.155-15.244m-6.594-30.05a1.4 1.4 0 0 1 1.053-.134c.36.097.663.328.85.652l.981 1.7a5.785 5.785 0 0 1-1.735 7.653 20 20 0 0 0-5.312-7.352zM35.37 30.746l.982-1.7a1.4 1.4 0 0 1 .85-.652 1.4 1.4 0 0 1 1.059.138l4.22 2.453a20 20 0 0 0-5.383 7.409 5.785 5.785 0 0 1-1.728-7.648m31.065 44.06c0 4.88-3.971 8.851-8.851 8.851h-4.017c-4.88 0-8.85-3.97-8.85-8.85V59.318c0-4.014 3.265-7.28 7.28-7.28h7.158c4.014 0 7.28 3.266 7.28 7.28zm8.894-2.181a17.9 17.9 0 0 1-7.629 6.971 11.1 11.1 0 0 0 1.078-4.79V59.32c0-5.306-4.317-9.624-9.624-9.624h-7.158c-5.306 0-9.623 4.318-9.623 9.624v15.486c0 1.713.387 3.336 1.077 4.79a17.9 17.9 0 0 1-7.648-7.005c-2.404-4.067-3.072-8.834-1.882-13.424l4.525-17.454a17.697 17.697 0 0 1 34.26 0l4.526 17.454c1.193 4.604.518 9.384-1.902 13.458"/><path stroke="#394240" stroke-linecap="round" stroke-width="2" d="M70 46h-4m-21 0h-4"/></svg>