<svg xmlns="http://www.w3.org/2000/svg" width="114" height="146" fill="none" viewBox="0 0 114 146"><path fill="#a8c5ff" d="M53.91 5.148a6.02 6.02 0 0 1 9.046 0 6.02 6.02 0 0 0 7.51 1.253c3.153-1.803 7.173-.423 8.554 2.937a6.02 6.02 0 0 0 6.696 3.623c3.568-.68 6.922 1.93 7.138 5.556a6.02 6.02 0 0 0 5.156 5.602c3.596.514 5.921 4.072 4.948 7.572a6.02 6.02 0 0 0 3.058 6.972c3.234 1.654 4.277 5.774 2.22 8.768a6.02 6.02 0 0 0 .629 7.588 6.02 6.02 0 0 1-.747 9.014 6.02 6.02 0 0 0-1.869 7.38c1.536 3.292-.171 7.184-3.633 8.284a6.02 6.02 0 0 0-4.165 6.373c.385 3.613-2.494 6.74-6.125 6.655a6.02 6.02 0 0 0-6.009 4.676c-.81 3.541-4.547 5.564-7.954 4.305a6.02 6.02 0 0 0-7.202 2.472c-1.915 3.087-6.107 3.786-8.921 1.489a6.02 6.02 0 0 0-7.614 0c-2.814 2.297-7.006 1.598-8.921-1.489a6.02 6.02 0 0 0-7.201-2.472c-3.408 1.259-7.145-.764-7.955-4.305a6.02 6.02 0 0 0-6.008-4.676 6.02 6.02 0 0 1-6.126-6.655 6.02 6.02 0 0 0-4.165-6.373c-3.462-1.1-5.169-4.992-3.633-8.284a6.02 6.02 0 0 0-1.869-7.38c-2.918-2.164-3.269-6.4-.747-9.014a6.02 6.02 0 0 0 .629-7.588c-2.057-2.994-1.014-7.114 2.22-8.768a6.02 6.02 0 0 0 3.059-6.972 6.018 6.018 0 0 1 4.947-7.572 6.02 6.02 0 0 0 5.156-5.602c.216-3.626 3.57-6.236 7.138-5.556a6.02 6.02 0 0 0 6.696-3.623c1.381-3.36 5.401-4.74 8.555-2.937a6.02 6.02 0 0 0 7.51-1.253"/><path fill="#a8c5ff" d="M26.473 76.33h60.343v52.97c0 7.389-7.737 12.226-14.38 8.991l-11.412-5.56a10 10 0 0 0-8.759 0l-11.413 5.56c-6.642 3.235-14.379-1.602-14.379-8.991z"/><path fill="#da39a1" d="M26.473 76.33H81.07v46.493c0 7.391-7.742 12.228-14.385 8.987l-8.528-4.161a10 10 0 0 0-8.77 0l-8.528 4.161c-6.643 3.241-14.385-1.596-14.385-8.987z"/><path fill="#072a6f" d="M49.979 5.823a5.916 5.916 0 0 1 8.889 0 5.916 5.916 0 0 0 7.38 1.231 5.916 5.916 0 0 1 8.407 2.887 5.916 5.916 0 0 0 6.58 3.56 5.916 5.916 0 0 1 7.015 5.46 5.916 5.916 0 0 0 5.068 5.505 5.916 5.916 0 0 1 4.862 7.442 5.916 5.916 0 0 0 3.005 6.852 5.916 5.916 0 0 1 2.183 8.617 5.916 5.916 0 0 0 .617 7.457 5.915 5.915 0 0 1-.734 8.859 5.916 5.916 0 0 0-1.836 7.253 5.917 5.917 0 0 1-3.571 8.14 5.916 5.916 0 0 0-4.093 6.264 5.916 5.916 0 0 1-6.02 6.54 5.916 5.916 0 0 0-5.904 4.596 5.917 5.917 0 0 1-7.818 4.231 5.915 5.915 0 0 0-7.077 2.429 5.916 5.916 0 0 1-8.768 1.463 5.92 5.92 0 0 0-7.482 0 5.916 5.916 0 0 1-8.768-1.463 5.915 5.915 0 0 0-7.077-2.429 5.917 5.917 0 0 1-7.818-4.231 5.916 5.916 0 0 0-5.904-4.596 5.916 5.916 0 0 1-6.02-6.54 5.916 5.916 0 0 0-4.093-6.264 5.916 5.916 0 0 1-3.57-8.14 5.916 5.916 0 0 0-1.837-7.253 5.916 5.916 0 0 1-.735-8.859 5.916 5.916 0 0 0 .618-7.457A5.916 5.916 0 0 1 7.66 38.76a5.916 5.916 0 0 0 3.006-6.852 5.916 5.916 0 0 1 4.862-7.442 5.916 5.916 0 0 0 5.068-5.504 5.916 5.916 0 0 1 7.014-5.46 5.916 5.916 0 0 0 6.58-3.561 5.916 5.916 0 0 1 8.408-2.887 5.916 5.916 0 0 0 7.38-1.231"/><circle cx="54.041" cy="54.041" r="39.528" fill="#fff"/><path fill="#fa67c7" d="M25.783 20.242c.215-1 1.42-1.416 2.207-.762l5.856 4.87c.282.235.649.346 1.016.307l7.604-.812a1.352 1.352 0 0 1 1.403 1.851l-2.865 7.066a1.35 1.35 0 0 0 .017 1.057l3.1 6.945c.415.932-.317 1.974-1.34 1.906l-7.627-.504a1.37 1.37 0 0 0-1.005.347l-5.69 5.104c-.763.685-1.982.317-2.23-.673l-1.849-7.377a1.35 1.35 0 0 0-.638-.843l-6.615-3.79a1.352 1.352 0 0 1-.04-2.322l6.485-4.056c.313-.195.533-.508.61-.867z"/><path fill="#da39a1" d="M17.099 56.589a.72.72 0 0 1 .42-1.154l3.933-.776a.72.72 0 0 0 .462-.313l2.191-3.375a.71.71 0 0 1 1.221.041l1.936 3.514a.7.7 0 0 0 .437.344l3.865 1.038c.519.14.701.784.334 1.18l-2.736 2.947a.72.72 0 0 0-.192.526l.197 4.017a.716.716 0 0 1-1.015.688l-3.626-1.693a.7.7 0 0 0-.556-.019l-3.743 1.444a.71.71 0 0 1-.961-.754l.495-3.994a.72.72 0 0 0-.152-.537z"/><path fill="#bdc152" d="M71.496 70.537s14.51 0 14.51-11.608c0-7.984-5.934-13.993-8.004-15.846L62.96 34.314a4.91 4.91 0 0 0-4.488.034 2.95 2.95 0 0 1-2.968 0 4.91 4.91 0 0 0-4.488-.034L35.97 43.083c-2.07 1.853-8.003 7.862-8.003 15.846 0 11.608 14.51 11.608 14.51 11.608z"/><path fill="#71873f" d="M56.987 65.7a59.2 59.2 0 0 0 23.169-4.538 7.574 7.574 0 0 0 3.784-10.398 27.1 27.1 0 0 0-5.937-7.681l-15.044-8.769a4.91 4.91 0 0 0-4.486.033 2.96 2.96 0 0 1-2.972 0 4.91 4.91 0 0 0-4.486-.033L35.97 43.083a27.1 27.1 0 0 0-5.937 7.681 7.573 7.573 0 0 0 3.784 10.398 59.2 59.2 0 0 0 23.17 4.538"/><path fill="#71873f" d="m41.339 63.708 1.138 6.829.182 10.286c.443 1.556 1.86 3.884 6.27 5.186l3.417.698c1.54.19 3.09.282 4.64.274h-.01a36 36 0 0 0 4.653-.276l3.421-.701c4.387-1.301 5.804-3.617 6.25-5.171l.196-10.296 1.139-6.83a4.105 4.105 0 0 0-4.05-4.778H45.389a4.105 4.105 0 0 0-4.05 4.779"/><path fill="#71873f" d="M68.586 58.929H45.388a4.105 4.105 0 0 0-4.05 4.779l.009.045c3.288 2.515 9.057 4.183 15.64 4.183 6.582 0 12.35-1.671 15.64-4.183l.008-.045a4.105 4.105 0 0 0-4.05-4.779" opacity=".5"/><path fill="#617434" d="M52.386 66.432a5.803 5.803 0 0 0-9.909 4.105 11.1 11.1 0 0 0-1.924 5.602 5.79 5.79 0 0 0 5.803 6.005h21.26a5.787 5.787 0 0 0 5.804-6.005 11.1 11.1 0 0 0-1.924-5.602 5.803 5.803 0 0 0-9.918-4.092c-1.479-.5-3.03-.752-4.591-.745a13.4 13.4 0 0 0-4.59.746z"/><path fill="#71873f" d="M65.693 64.733a5.78 5.78 0 0 0-4.115 1.712c-1.479-.5-3.03-.752-4.591-.745a13.3 13.3 0 0 0-4.591.746l-.01-.014a5.803 5.803 0 0 0-9.909 4.105 11.1 11.1 0 0 0-1.925 5.602q-.022.541.058 1.078a40.6 40.6 0 0 0 16.377 3.21 40.6 40.6 0 0 0 16.376-3.21 5.7 5.7 0 0 0 .058-1.078 11.1 11.1 0 0 0-1.925-5.602 5.804 5.804 0 0 0-5.803-5.804"/><path fill="#71873f" d="M62.959 34.314a4.91 4.91 0 0 0-4.488.034 2.95 2.95 0 0 1-2.968 0 4.91 4.91 0 0 0-4.488-.034l-6.23 3.631c1.685 4.092 6.507 7.05 12.202 7.05 5.694 0 10.516-2.958 12.201-7.05z" opacity=".5"/><path fill="#bdc152" d="M65.942 83.33h-17.91a1.683 1.683 0 0 0-1.685 1.642c.823.434 1.688.783 2.582 1.041l3.417.699a36 36 0 0 0 4.635.269 36 36 0 0 0 4.648-.276l3.421-.701a13.7 13.7 0 0 0 2.577-1.038 1.68 1.68 0 0 0-1.685-1.637"/><path fill="#43551b" d="M65.693 72.471a1.935 1.935 0 1 0 0-3.869 1.935 1.935 0 0 0 0 3.87m-17.412-.001a1.935 1.935 0 1 0 0-3.869 1.935 1.935 0 0 0 0 3.87"/><path fill="#c4bfb7" d="m53.118 82.144-.728 4.372a1.713 1.713 0 0 1-3.38.001l-.729-4.373zm12.575 0-.728 4.372a1.713 1.713 0 0 1-3.38.001l-.729-4.373z"/><path fill="#bdc152" d="M65.282 54.002a19.93 19.93 0 0 0-16.59 0l-.821-1.753a21.9 21.9 0 0 1 18.232 0zM49.7 60.752l-.902-1.712a17.71 17.71 0 0 1 16.378 0l-.902 1.712a15.74 15.74 0 0 0-14.575 0"/><path fill="#e8e4db" d="m64.965 86.517.61-3.663h-2.032a1.233 1.233 0 0 0-1.218 1.439l.49 2.934a1.7 1.7 0 0 0 .299.707c.053.004.105.014.16.014a1.71 1.71 0 0 0 1.691-1.431m-12.585 0 .61-3.663h-2.032a1.233 1.233 0 0 0-1.218 1.439l.49 2.934c.044.255.146.497.298.707.053.004.107.014.16.014a1.71 1.71 0 0 0 1.692-1.431"/><path fill="#71873f" d="M52.634 71.988a1.45 1.45 0 0 1-1.45-1.451 2.9 2.9 0 0 0-2.903-2.902 1.45 1.45 0 1 1 0-2.902 5.81 5.81 0 0 1 5.804 5.804 1.45 1.45 0 0 1-1.451 1.45"/><path fill="#617434" d="M60.566 70.26c-.085-2.06 1.694-4.215 2.071-4.643a5.8 5.8 0 0 0-1.055.833 14.1 14.1 0 0 0-4.595-.75 14.3 14.3 0 0 0-3.601.44c6.437-.572 7.18 4.12 7.18 4.12m-14.923 2.87c-3.496-1.852-2.658-4.85-2.56-5.162a5.8 5.8 0 0 0-.605 2.569 10.6 10.6 0 0 0-1.258 2.418c1.23-1.342 4.423.175 4.423.175m22.695 0c3.495-1.852 2.657-4.85 2.558-5.162.399.798.606 1.677.607 2.569.521.748.944 1.561 1.257 2.418-1.23-1.342-4.422.175-4.422.175"/><path fill="#71873f" d="M70.045 71.988a1.45 1.45 0 0 1-1.45-1.451 2.9 2.9 0 0 0-2.903-2.902 1.45 1.45 0 0 1 0-2.902 5.81 5.81 0 0 1 5.804 5.804 1.45 1.45 0 0 1-1.45 1.45"/><path fill="#394240" d="M78.514 43.556c-.186-.178-.36-.339-.511-.473l-15.006-8.747a11.64 11.64 0 0 0-1.174 5.133c0 5.672 3.898 10.27 8.706 10.27 3.58 0 6.645-2.545 7.985-6.183" opacity=".1"/><path fill="#71873f" d="M70.53 47.321a8.706 8.706 0 1 0-.001-17.411 8.706 8.706 0 0 0 0 17.411"/><path fill="#e8e4db" d="M70.53 47.321a8.706 8.706 0 0 0 8.705-8.705H61.823a8.706 8.706 0 0 0 8.706 8.705"/><path fill="#394240" d="M75.366 38.616a4.837 4.837 0 0 1-9.673 0z"/><path fill="#71873f" d="M70.53 29.91a8.65 8.65 0 0 0-5.354 1.85v.085a4.82 4.82 0 0 0 4.821 4.822h9.011a8.706 8.706 0 0 0-8.479-6.757"/><path fill="#394240" d="M35.46 43.556c.186-.178.36-.339.511-.473l15.006-8.747a11.64 11.64 0 0 1 1.173 5.133c0 5.672-3.897 10.27-8.705 10.27-3.58 0-6.646-2.545-7.985-6.183" opacity=".1"/><path fill="#71873f" d="M43.445 47.321a8.706 8.706 0 1 0 0-17.411 8.706 8.706 0 0 0 0 17.411"/><path fill="#e8e4db" d="M43.445 47.321a8.706 8.706 0 0 1-8.706-8.705H52.15a8.706 8.706 0 0 1-8.705 8.705"/><path fill="#394240" d="M38.608 38.616a4.837 4.837 0 0 0 9.673 0z"/><path fill="#71873f" d="M43.445 29.91a8.65 8.65 0 0 1 5.353 1.85v.085a4.82 4.82 0 0 1-4.821 4.822h-9.012a8.706 8.706 0 0 1 8.48-6.757"/><path fill="#394240" d="M65.692 68.118a2.419 2.419 0 1 0 0 4.837 2.419 2.419 0 0 0 0-4.837m0 3.87a1.451 1.451 0 1 1 0-2.903 1.451 1.451 0 0 1 0 2.902M48.28 68.118a2.418 2.418 0 1 0 0 4.837 2.418 2.418 0 0 0 0-4.837m0 3.87a1.451 1.451 0 1 1 0-2.903 1.451 1.451 0 0 1 0 2.902m-.41-19.739.82 1.753a19.93 19.93 0 0 1 16.592 0l.82-1.753a21.9 21.9 0 0 0-18.232 0"/><path fill="#394240" d="M86.973 58.929c0-7.783-5.391-13.783-7.773-16.058a9.662 9.662 0 0 0-16.638-9.737 5.55 5.55 0 0 0-4.584.376 1.99 1.99 0 0 1-1.989 0 5.56 5.56 0 0 0-4.584-.376 9.661 9.661 0 0 0-16.632 9.737C32.391 45.146 27 51.146 27 58.93c0 9.986 9.884 12.042 13.853 12.464a11.8 11.8 0 0 0-1.267 4.702 6.6 6.6 0 0 0 1.852 4.912c.12.126.25.242.378.357.59 1.777 2.176 4.023 6.26 5.385a2.668 2.668 0 0 0 4.836.993q2.026.209 4.063.206h.011a39 39 0 0 0 4.079-.208 2.67 2.67 0 0 0 4.836-.997c4.063-1.354 5.644-3.592 6.237-5.361a7 7 0 0 0 .397-.375 6.6 6.6 0 0 0 1.852-4.912 11.8 11.8 0 0 0-1.267-4.702c3.969-.422 13.853-2.478 13.853-12.464M65.233 39.1a5.32 5.32 0 0 0 10.592 0h2.418a7.728 7.728 0 0 1-15.429 0zm.992 0h8.609a4.327 4.327 0 0 1-8.609 0m4.304-8.222a7.74 7.74 0 0 1 7.714 7.255H62.814a7.74 7.74 0 0 1 7.715-7.255M38.149 39.1a5.32 5.32 0 0 0 10.591 0h2.418a7.73 7.73 0 0 1-15.428 0zm.992 0h8.609a4.328 4.328 0 0 1-8.61 0m4.303-8.222a7.74 7.74 0 0 1 7.714 7.255H35.73a7.74 7.74 0 0 1 7.714-7.255m4.017 52.234.24 1.435a8.9 8.9 0 0 1-2.528-1.548q.586.109 1.184.113zm3.238 3.87a.744.744 0 0 1-.735-.624l-.541-3.246h2.553l-.54 3.245a.745.745 0 0 1-.737.624m6.28-.968c-1.237 0-2.409-.052-3.5-.155l.458-2.747h6.1l.458 2.746c-1.09.103-2.27.156-3.515.156m6.295.967a.744.744 0 0 1-.735-.624l-.541-3.245h2.553l-.54 3.245a.745.745 0 0 1-.737.624m2.998-2.441.24-1.428h1.104a6.7 6.7 0 0 0 1.17-.11 8.9 8.9 0 0 1-2.514 1.538m4.863-4.868a4.83 4.83 0 0 1-3.519 1.506h-21.26a4.83 4.83 0 0 1-3.52-1.507 4.7 4.7 0 0 1-1.318-3.488 10.2 10.2 0 0 1 1.733-5.065.97.97 0 0 0 .193-.58 4.837 4.837 0 0 1 8.243-3.434.97.97 0 0 0 1.045.249 12.4 12.4 0 0 1 4.254-.685 13.3 13.3 0 0 1 4.25.677.96.96 0 0 0 1.027-.222 4.837 4.837 0 0 1 8.266 3.414c0 .21.068.413.193.58a10.1 10.1 0 0 1 1.733 5.066 4.7 4.7 0 0 1-1.318 3.489zm1.51-10.157 1.741-10.424-1.907-.319-1.303 7.8a6.765 6.765 0 0 0-9.83-1.228 15.6 15.6 0 0 0-4.36-.61 15 15 0 0 0-4.352.614 6.766 6.766 0 0 0-9.837 1.223l-1.301-7.802-1.907.32 1.74 10.425c-3.29-.26-12.394-1.776-12.394-10.584 0-6.752 4.573-12.103 6.888-14.378a9.665 9.665 0 0 0 16.54-9.673 3.48 3.48 0 0 1 2.65.307 3.9 3.9 0 0 0 3.947 0 3.48 3.48 0 0 1 2.65-.306 9.664 9.664 0 0 0 16.54 9.673c2.315 2.274 6.888 7.625 6.888 14.377 0 8.786-9.103 10.317-12.391 10.583z"/><path fill="#394240" d="m48.797 59.04.902 1.712a15.74 15.74 0 0 1 14.575 0l.901-1.712a17.71 17.71 0 0 0-16.378 0"/></svg>