<svg xmlns="http://www.w3.org/2000/svg" width="114" height="146" fill="none" viewBox="0 0 114 146"><path fill="#a8c5ff" d="M53.91 5.148a6.02 6.02 0 0 1 9.046 0 6.02 6.02 0 0 0 7.51 1.253c3.153-1.803 7.173-.423 8.554 2.937a6.02 6.02 0 0 0 6.696 3.623c3.568-.68 6.922 1.93 7.138 5.556a6.02 6.02 0 0 0 5.156 5.601c3.596.515 5.921 4.073 4.948 7.573a6.02 6.02 0 0 0 3.058 6.972c3.234 1.654 4.277 5.774 2.22 8.768a6.02 6.02 0 0 0 .629 7.588c2.522 2.614 2.171 6.85-.747 9.014a6.02 6.02 0 0 0-1.869 7.38c1.536 3.292-.171 7.184-3.633 8.284a6.02 6.02 0 0 0-4.164 6.373c.383 3.613-2.495 6.74-6.126 6.655a6.02 6.02 0 0 0-6.009 4.676c-.81 3.541-4.547 5.564-7.954 4.305a6.02 6.02 0 0 0-7.201 2.472 6.02 6.02 0 0 1-8.922 1.489 6.02 6.02 0 0 0-7.614 0c-2.814 2.297-7.006 1.598-8.921-1.489a6.02 6.02 0 0 0-7.201-2.472c-3.408 1.259-7.145-.764-7.955-4.305a6.02 6.02 0 0 0-6.008-4.676 6.02 6.02 0 0 1-6.126-6.655 6.02 6.02 0 0 0-4.165-6.373c-3.462-1.1-5.169-4.992-3.633-8.284a6.02 6.02 0 0 0-1.869-7.38c-2.918-2.164-3.269-6.4-.747-9.014a6.02 6.02 0 0 0 .629-7.588c-2.057-2.994-1.014-7.114 2.22-8.768a6.02 6.02 0 0 0 3.059-6.972c-.974-3.5 1.35-7.058 4.947-7.573a6.02 6.02 0 0 0 5.156-5.601c.216-3.626 3.57-6.236 7.138-5.556a6.02 6.02 0 0 0 6.696-3.623c1.382-3.36 5.401-4.74 8.555-2.937a6.02 6.02 0 0 0 7.51-1.253"/><path fill="#a8c5ff" d="M26.473 76.33h60.343v52.97c0 7.389-7.737 12.226-14.38 8.991l-11.412-5.56a10 10 0 0 0-8.759 0l-11.413 5.56c-6.642 3.235-14.379-1.602-14.379-8.991z"/><path fill="#da39a1" d="M26.473 76.33H81.07v46.493c0 7.391-7.742 12.228-14.385 8.987l-8.528-4.161a10 10 0 0 0-8.77 0l-8.528 4.161c-6.643 3.241-14.385-1.596-14.385-8.987z"/><path fill="#072a6f" d="M49.979 5.823a5.916 5.916 0 0 1 8.889 0 5.916 5.916 0 0 0 7.38 1.231 5.916 5.916 0 0 1 8.407 2.887 5.916 5.916 0 0 0 6.58 3.56 5.916 5.916 0 0 1 7.015 5.46 5.916 5.916 0 0 0 5.068 5.505 5.916 5.916 0 0 1 4.862 7.442 5.916 5.916 0 0 0 3.005 6.852 5.916 5.916 0 0 1 2.183 8.617 5.916 5.916 0 0 0 .617 7.457 5.915 5.915 0 0 1-.734 8.859 5.916 5.916 0 0 0-1.836 7.253 5.917 5.917 0 0 1-3.571 8.14 5.916 5.916 0 0 0-4.093 6.264 5.916 5.916 0 0 1-6.02 6.54 5.916 5.916 0 0 0-5.904 4.596 5.917 5.917 0 0 1-7.818 4.231 5.915 5.915 0 0 0-7.077 2.429 5.916 5.916 0 0 1-8.768 1.463 5.92 5.92 0 0 0-7.482 0 5.916 5.916 0 0 1-8.768-1.463 5.915 5.915 0 0 0-7.077-2.429 5.917 5.917 0 0 1-7.818-4.231 5.916 5.916 0 0 0-5.904-4.596 5.916 5.916 0 0 1-6.02-6.54 5.916 5.916 0 0 0-4.093-6.264 5.916 5.916 0 0 1-3.57-8.14 5.916 5.916 0 0 0-1.837-7.253 5.916 5.916 0 0 1-.735-8.859 5.916 5.916 0 0 0 .618-7.457A5.916 5.916 0 0 1 7.66 38.76a5.916 5.916 0 0 0 3.006-6.852 5.916 5.916 0 0 1 4.862-7.442 5.916 5.916 0 0 0 5.068-5.504 5.916 5.916 0 0 1 7.014-5.46 5.916 5.916 0 0 0 6.58-3.561 5.916 5.916 0 0 1 8.408-2.887 5.916 5.916 0 0 0 7.38-1.231"/><circle cx="54.041" cy="54.041" r="39.528" fill="#fff"/><path fill="#fa67c7" d="M25.783 20.242c.215-1 1.42-1.416 2.207-.762l5.856 4.87c.282.235.649.346 1.016.307l7.604-.812a1.352 1.352 0 0 1 1.403 1.851l-2.865 7.066c-.139.34-.132.722.017 1.057l3.1 6.945c.415.932-.317 1.974-1.34 1.906l-7.627-.504a1.37 1.37 0 0 0-1.005.347l-5.69 5.104c-.763.685-1.982.317-2.23-.673l-1.849-7.377a1.35 1.35 0 0 0-.638-.843l-6.615-3.79a1.352 1.352 0 0 1-.04-2.322l6.485-4.056c.313-.195.533-.508.61-.867z"/><path fill="#da39a1" d="M17.099 56.589a.72.72 0 0 1 .42-1.154l3.933-.776a.72.72 0 0 0 .462-.313l2.191-3.375a.71.71 0 0 1 1.221.041l1.936 3.514a.7.7 0 0 0 .437.344l3.865 1.038c.519.14.701.784.334 1.18l-2.736 2.947a.72.72 0 0 0-.192.526l.197 4.017a.716.716 0 0 1-1.015.688l-3.626-1.693a.7.7 0 0 0-.556-.019l-3.743 1.444a.71.71 0 0 1-.961-.754l.495-3.994a.72.72 0 0 0-.152-.537z"/><path fill="#c17d4f" d="M72.444 48.235c13.516 0 9.973-17.24 9.973-17.24-8.19-1.357-13.783 9.441-13.783 9.441H45.081s-5.594-10.797-13.783-9.441c0 0-3.544 17.24 9.973 17.24"/><path fill="#985e33" d="M71.282 42.773s3.173-4.901 7.315-4.901c0 0 2.213 7.422-7.847 9.022m-28.317-4.121s-3.173-4.901-7.315-4.901c0 0-2.213 7.422 7.847 9.022"/><path fill="#c17d4f" d="M49.686 84.954a8.25 8.25 0 0 0 7.172 4.167 8.25 8.25 0 0 0 7.17-4.167l-7.245-3.784zm20.618-8.661H43.411c0-4.09-5.452-9.27-3.64-17.427.571-2.566.885-5.34 1.18-7.94.645-5.663 1.201-10.49 4.13-10.49 4.272 0 7.893 1.986 11.777 1.986s7.504-1.986 11.776-1.986 3.496 10.272 5.31 18.43c1.812 8.157-3.64 13.336-3.64 17.427"/><path fill="#985e33" d="m52.911 67.772-8.59 8.521h-.91c0-4.09-5.452-9.27-3.64-17.427.57-2.566.885-5.34 1.18-7.94 0 0 11.96-5.065 11.96 16.846"/><path fill="#ce9875" d="m60.804 67.772 8.59 8.521h.91c0-4.09 5.452-9.27 3.64-17.427-.57-2.566-.885-5.34-1.18-7.94 0 0-11.96-5.065-11.96 16.846"/><path fill="#f1d0a5" d="M62.693 67.498c-1.442 0-2.79.464-3.94 1.27-1.14.8-2.65.8-3.792 0-1.149-.806-2.497-1.27-3.939-1.27-4.203 0-7.611 3.938-7.611 8.796s3.408 8.795 7.611 8.795q.377 0 .744-.042c3.388-.38 6.795-.38 10.183 0q.367.042.744.042c4.204 0 7.611-3.938 7.611-8.795 0-4.858-3.407-8.796-7.611-8.796"/><path fill="#f1b986" d="M53.246 84.906q-.74.058-1.48.141a6 6 0 0 1-.744.043c-4.204 0-7.611-3.938-7.611-8.797 0-4.857 3.407-8.795 7.61-8.795.652 0 1.285.095 1.89.274-3.29.97-5.721 4.419-5.721 8.521 0 4.242 2.599 7.784 6.056 8.612"/><path fill="#454045" d="M49.5 77a1.5 1.5 0 1 0 0-3 1.5 1.5 0 0 0 0 3m13 0a1.5 1.5 0 1 0 0-3 1.5 1.5 0 0 0 0 3"/><path fill="#665e66" d="M63.454 40.942c.05.069 2.299 3.118.575 8.138l-2.96-2.14s-1.174 6.299-4.212 7.63a3.5 3.5 0 0 1-.677-.398c-2.536-1.88-3.535-7.232-3.535-7.232l-2.959 2.14c-1.724-5.02.524-8.07.575-8.138l-2.92 1.592c0-3.958 1.8-7.306 4.205-9.36 1.619-1.382 3.512-2.178 5.311-2.178 2.726 0 5.664 1.824 7.543 4.75a12.53 12.53 0 0 1 1.974 6.788z"/><path fill="#454045" d="M64.4 35.746c-1.879-2.926-4.817-4.75-7.543-4.75-4.471 0-9.516 4.914-9.516 11.538l2.92-1.592c-.05.069-2.299 3.118-.575 8.138l2.96-2.14s.999 5.353 3.534 7.232c-1.182-5.091-.893-11.4-.893-11.4l-2.642.739a20.4 20.4 0 0 1-.026-4.755c.596-4.449 7.303-4.797 11.78-3.01"/><path fill="#394240" d="M83.278 30.818a.88.88 0 0 0-.718-.69c-3.648-.604-7.361.942-10.74 4.471a26.7 26.7 0 0 0-3.71 4.969q-.568.02-1.163.084a13.2 13.2 0 0 0-2.006-4.682.88.88 0 0 0-1.452.991 11.5 11.5 0 0 1 1.91 5.04l-1.494-.814a.879.879 0 0 0-1.152 1.285c.114.157 1.664 2.388.78 6.164l-1.948-1.408a.88.88 0 0 0-1.38.55c-.287 1.534-1.425 5.56-3.347 6.796-1.922-1.235-3.06-5.262-3.348-6.795a.88.88 0 0 0-1.38-.551l-1.947 1.408c-.865-3.714.628-5.95.779-6.164a.874.874 0 0 0-.094-1.167.88.88 0 0 0-1.046-.125l-1.504.82a11.45 11.45 0 0 1 2.762-6.137c1.657-1.871 3.816-2.988 5.778-2.988 1.544 0 3.203.678 4.67 1.91a.879.879 0 1 0 1.13-1.347c-1.783-1.497-3.843-2.321-5.8-2.321-2.494 0-5.08 1.305-7.094 3.58a13.15 13.15 0 0 0-2.996 5.954 16 16 0 0 0-1.163-.084 26.7 26.7 0 0 0-3.71-4.968c-3.379-3.53-7.092-5.075-10.74-4.471a.88.88 0 0 0-.718.69c-.02.096-.481 2.378-.434 5.316.066 4.017 1.02 7.184 2.836 9.412 1.753 2.15 4.253 3.337 7.441 3.538q-.104.878-.207 1.786c-.296 2.605-.602 5.299-1.16 7.805-1.21 5.452.638 9.608 2.124 12.948.802 1.802 1.495 3.358 1.495 4.67 0 4.59 2.82 8.441 6.59 9.428A9.15 9.15 0 0 0 56.857 90c3.142 0 6.07-1.63 7.735-4.28 3.77-.985 6.59-4.836 6.59-9.426h.001c0-1.313.692-2.87 1.494-4.671 1.486-3.34 3.335-7.496 2.124-12.948-.557-2.506-.864-5.2-1.16-7.805q-.102-.908-.207-1.786c3.188-.2 5.689-1.388 7.441-3.538 1.817-2.228 2.771-5.395 2.836-9.412.048-2.937-.414-5.22-.433-5.316m-49.073 13.62c-3.174-3.887-2.46-10.6-2.15-12.653 5.753-.488 10.15 5.622 11.67 8.068-.613.29-1.078.761-1.432 1.274-1.299-1.564-3.928-4.134-7.175-4.134a.879.879 0 1 0 0 1.758c3.005 0 5.545 3.089 6.328 4.148-.054.161-.097.303-.132.416-.348 1.145-.598 2.518-.808 4.018-2.735-.15-4.853-1.12-6.301-2.894m8.439 26.47c-1.435-3.224-3.057-6.874-2.052-11.67.45 1.273 1.345 2.142 2.374 2.142 1.479 0 2.683-1.8 2.683-4.01 0-2.212-1.204-4.01-2.684-4.01-.554 0-1.07.252-1.498.684.106-.823.201-1.645.294-2.462.902-.253 2.962-.633 4.947.423 2.26 1.202 3.825 3.886 4.652 7.978a.88.88 0 0 0 1.723-.348c-.94-4.646-2.815-7.74-5.574-9.195-2.104-1.11-4.211-.985-5.534-.719.526-4.484 1.148-8.406 3.106-8.406q.692 0 1.428.078-.046.567-.047 1.142a.88.88 0 0 0 1.3.772l.693-.378c-.392 1.537-.53 3.726.4 6.437a.88.88 0 0 0 1.347.426l1.892-1.368c.163.603.393 1.358.7 2.15.98 2.536 2.23 4.152 3.71 4.8a.88.88 0 0 0 .706 0c1.482-.648 2.73-2.264 3.712-4.8a22 22 0 0 0 .7-2.15l1.892 1.368a.878.878 0 0 0 1.346-.426c.93-2.704.784-4.902.391-6.443l.703.384a.88.88 0 0 0 1.3-.772q-.001-.575-.049-1.142.737-.076 1.43-.078c1.957 0 2.58 3.922 3.105 8.407-1.464-.296-3.886-.419-6.201 1.114-3.635 2.409-5.52 7.895-5.61 16.31a8 8 0 0 0-1.68.901 2.43 2.43 0 0 1-2.783 0 8 8 0 0 0-1.68-.902 48 48 0 0 0-.218-4.211.879.879 0 1 0-1.75.173c.111 1.113.178 2.314.203 3.58a7.5 7.5 0 0 0-.999-.068c-3.448 0-6.421 2.357-7.75 5.73-.195-.466-.408-.945-.628-1.441m14.214 17.334a7.4 7.4 0 0 1-5.34-2.292q.174-.01.346-.03a45 45 0 0 1 9.987 0q.171.02.347.03a7.4 7.4 0 0 1-5.34 2.292m5.835-4.032q-.325 0-.646-.036a46.5 46.5 0 0 0-10.379 0q-.32.036-.646.036c-3.712 0-6.732-3.551-6.732-7.916s3.02-7.917 6.732-7.917c1.211 0 2.399.384 3.435 1.11a4.2 4.2 0 0 0 4.801 0c1.036-.726 2.224-1.11 3.435-1.11 3.712 0 6.732 3.551 6.732 7.916s-3.02 7.917-6.732 7.917m8.379-13.302c-.221.496-.434.975-.63 1.44-1.327-3.372-4.3-5.729-7.749-5.729q-.503.001-.998.068c.145-7.41 1.795-12.37 4.796-14.373 2.167-1.446 4.487-1.019 5.462-.736q.138 1.227.295 2.466c-.428-.432-.944-.684-1.498-.684-1.48 0-2.683 1.799-2.683 4.01s1.203 4.01 2.683 4.01c1.028 0 1.922-.87 2.373-2.142 1.005 4.796-.617 8.446-2.051 11.67m8.438-26.47c-1.447 1.774-3.566 2.744-6.3 2.895-.211-1.5-.46-2.873-.81-4.017q-.05-.173-.131-.418c.78-1.059 3.311-4.147 6.328-4.147a.879.879 0 1 0 0-1.758c-3.247 0-5.876 2.57-7.175 4.135-.354-.514-.819-.985-1.43-1.275 1.518-2.446 5.916-8.557 11.668-8.068.31 2.053 1.024 8.766-2.15 12.654"/><path fill="#ce9875" d="m73.125 59.238-.879-5.215-.352-.82-1.933-.762-2.637 4.16L68.38 61.7h4.453z"/><path fill="#985e33" d="m41.543 53.613-.937 5.625.175 1.817 3.047 2.285 2.813-3.106-.293-5.273-2.989-2.402z"/><circle cx="46.25" cy="57.25" r="1.25" fill="#394240"/><circle cx="66.25" cy="57.25" r="1.25" fill="#394240"/></svg>