<svg xmlns="http://www.w3.org/2000/svg" width="114" height="146" fill="none" viewBox="0 0 114 146"><path fill="#a8c5ff" d="M53.91 5.148a6.02 6.02 0 0 1 9.046 0 6.02 6.02 0 0 0 7.51 1.253c3.153-1.803 7.173-.423 8.554 2.937a6.02 6.02 0 0 0 6.696 3.623c3.568-.68 6.922 1.93 7.138 5.556a6.02 6.02 0 0 0 5.156 5.601c3.596.515 5.921 4.073 4.948 7.573a6.02 6.02 0 0 0 3.058 6.972c3.234 1.654 4.277 5.774 2.22 8.768a6.02 6.02 0 0 0 .629 7.588c2.522 2.614 2.171 6.85-.747 9.014a6.02 6.02 0 0 0-1.869 7.38c1.536 3.292-.171 7.184-3.633 8.284a6.02 6.02 0 0 0-4.164 6.373c.383 3.613-2.495 6.74-6.126 6.655a6.02 6.02 0 0 0-6.009 4.676c-.81 3.541-4.547 5.564-7.954 4.305a6.02 6.02 0 0 0-7.201 2.472 6.02 6.02 0 0 1-8.922 1.489 6.02 6.02 0 0 0-7.614 0c-2.814 2.297-7.006 1.598-8.921-1.489a6.02 6.02 0 0 0-7.201-2.472c-3.408 1.259-7.145-.764-7.955-4.305a6.02 6.02 0 0 0-6.008-4.676 6.02 6.02 0 0 1-6.126-6.655 6.02 6.02 0 0 0-4.165-6.373c-3.462-1.1-5.169-4.992-3.633-8.284a6.02 6.02 0 0 0-1.869-7.38c-2.918-2.164-3.269-6.4-.747-9.014a6.02 6.02 0 0 0 .629-7.588c-2.057-2.994-1.014-7.114 2.22-8.768a6.02 6.02 0 0 0 3.059-6.972c-.974-3.5 1.35-7.058 4.947-7.573a6.02 6.02 0 0 0 5.156-5.601c.216-3.626 3.57-6.236 7.138-5.556a6.02 6.02 0 0 0 6.696-3.623c1.382-3.36 5.401-4.74 8.555-2.937a6.02 6.02 0 0 0 7.51-1.253"/><path fill="#a8c5ff" d="M26.473 76.33h60.343v52.97c0 7.389-7.737 12.226-14.38 8.991l-11.412-5.56a10 10 0 0 0-8.759 0l-11.413 5.56c-6.642 3.235-14.379-1.602-14.379-8.991z"/><path fill="#da39a1" d="M26.473 76.33H81.07v46.493c0 7.391-7.742 12.228-14.385 8.987l-8.528-4.161a10 10 0 0 0-8.77 0l-8.528 4.161c-6.643 3.241-14.385-1.596-14.385-8.987z"/><path fill="#072a6f" d="M49.979 5.823a5.916 5.916 0 0 1 8.889 0 5.916 5.916 0 0 0 7.38 1.231 5.916 5.916 0 0 1 8.407 2.887 5.916 5.916 0 0 0 6.58 3.56 5.916 5.916 0 0 1 7.015 5.46 5.916 5.916 0 0 0 5.068 5.505 5.916 5.916 0 0 1 4.862 7.442 5.916 5.916 0 0 0 3.005 6.852 5.916 5.916 0 0 1 2.183 8.617 5.916 5.916 0 0 0 .617 7.457 5.915 5.915 0 0 1-.734 8.859 5.916 5.916 0 0 0-1.836 7.253 5.917 5.917 0 0 1-3.571 8.14 5.916 5.916 0 0 0-4.093 6.264 5.916 5.916 0 0 1-6.02 6.54 5.916 5.916 0 0 0-5.904 4.596 5.917 5.917 0 0 1-7.818 4.231 5.915 5.915 0 0 0-7.077 2.429 5.916 5.916 0 0 1-8.768 1.463 5.92 5.92 0 0 0-7.482 0 5.916 5.916 0 0 1-8.768-1.463 5.915 5.915 0 0 0-7.077-2.429 5.917 5.917 0 0 1-7.818-4.231 5.916 5.916 0 0 0-5.904-4.596 5.916 5.916 0 0 1-6.02-6.54 5.916 5.916 0 0 0-4.093-6.264 5.916 5.916 0 0 1-3.57-8.14 5.916 5.916 0 0 0-1.837-7.253 5.916 5.916 0 0 1-.735-8.859 5.916 5.916 0 0 0 .618-7.457A5.916 5.916 0 0 1 7.66 38.76a5.916 5.916 0 0 0 3.006-6.852 5.916 5.916 0 0 1 4.862-7.442 5.916 5.916 0 0 0 5.068-5.504 5.916 5.916 0 0 1 7.014-5.46 5.916 5.916 0 0 0 6.58-3.561 5.916 5.916 0 0 1 8.408-2.887 5.916 5.916 0 0 0 7.38-1.231"/><circle cx="54.041" cy="54.041" r="39.528" fill="#fff"/><path fill="#fa67c7" d="M25.783 20.242a1.367 1.367 0 0 1 2.207-.762l5.856 4.87c.282.235.649.346 1.016.307l7.604-.812a1.352 1.352 0 0 1 1.403 1.851l-2.865 7.066a1.35 1.35 0 0 0 .017 1.057l3.1 6.945c.415.932-.317 1.974-1.34 1.906l-7.627-.504a1.37 1.37 0 0 0-1.005.347l-5.69 5.104c-.763.685-1.982.317-2.23-.673l-1.849-7.377a1.35 1.35 0 0 0-.638-.843l-6.615-3.79a1.352 1.352 0 0 1-.04-2.322l6.485-4.056c.313-.195.533-.508.61-.867z"/><path fill="#da39a1" d="M17.099 56.589a.72.72 0 0 1 .42-1.154l3.933-.776a.72.72 0 0 0 .462-.313l2.191-3.375a.71.71 0 0 1 1.222.041l1.935 3.514a.7.7 0 0 0 .437.344l3.865 1.038c.519.14.701.784.334 1.18l-2.736 2.947a.72.72 0 0 0-.192.526l.197 4.017a.716.716 0 0 1-1.015.688l-3.626-1.693a.7.7 0 0 0-.556-.019l-3.743 1.444a.71.71 0 0 1-.961-.754l.495-3.994a.72.72 0 0 0-.152-.537z"/><path fill="#ffe0b2" stroke="#394240" stroke-width="1.5" d="m25.755 34.674.004.011c1.031 5.79 5.446 10.183 10.353 10.183a3.8 3.8 0 0 1 0 7.597c-2.617 0-6.899-.795-9.66-3.37-1.36-1.266-2.364-2.973-2.632-5.282-.269-2.324.202-5.313 1.905-9.131l.005-.011zm56.672-.002.005.01c1.703 3.818 2.173 6.807 1.904 9.131-.268 2.309-1.271 4.016-2.63 5.283-2.763 2.575-7.045 3.369-9.662 3.369a3.8 3.8 0 0 1-3.798-3.798l.005-.195a3.8 3.8 0 0 1 3.793-3.604c4.907 0 9.323-4.393 10.354-10.183l.003-.011.012-.003z"/><path fill="#a86b38" stroke="#394240" stroke-width="1.5" d="M45.223 38.394h17.712c1.162 0 2.693.637 4.385 1.987 1.674 1.334 3.428 3.304 5.023 5.815 3.189 5.02 5.703 12.134 5.703 20.458 0 5.135-3.376 9.101-7.924 13.045-2.283 1.98-4.738 3.855-7.194 5.903-2.423 2.022-4.779 4.158-6.698 6.544-1.1 1.366-3.203 1.366-4.302 0-1.92-2.386-4.276-4.522-6.7-6.544-2.455-2.048-4.91-3.924-7.193-5.903-4.548-3.944-7.924-7.91-7.924-13.045 0-8.324 2.514-15.438 5.703-20.458 1.595-2.51 3.35-4.481 5.023-5.815 1.693-1.35 3.224-1.987 4.386-1.987Z"/><path fill="#783e22" stroke="#394240" stroke-width="1.5" d="M35.313 38.729c12.516-4.62 25.016-4.62 37.533 0a3.14 3.14 0 0 1 2.057 2.945v3.104c0 .978-.72 1.808-1.69 1.947-2.33.334-6.027 1.015-9.16 2.284-1.565.634-3.038 1.433-4.13 2.447-1.102 1.024-1.856 2.305-1.856 3.865v19.476H50.09V55.321c0-1.56-.753-2.841-1.856-3.865-1.092-1.014-2.565-1.813-4.13-2.447-3.133-1.269-6.83-1.95-9.16-2.284a1.97 1.97 0 0 1-1.69-1.947v-3.104c0-1.314.822-2.489 2.059-2.945Z"/><path fill="#cdb1b1" stroke="#394240" stroke-width="1.5" d="M50.65 68.588h6.856a8.637 8.637 0 0 1 8.637 8.637v4.336a3.77 3.77 0 0 1-3.771 3.773H45.785a3.77 3.77 0 0 1-3.772-3.773v-4.336a8.64 8.64 0 0 1 8.638-8.637Z"/><path fill="#000" stroke="#394240" d="M43.5 57.92c0 .08-.043.192-.196.304a1.14 1.14 0 0 1-.668.197h-1.273c-.281 0-.516-.085-.668-.197s-.196-.225-.196-.303c0-.08.043-.192.196-.304a1.14 1.14 0 0 1 .668-.197h1.273l.104.004c.235.018.431.095.564.193.153.112.195.225.195.303Zm25 0c0 .08-.043.192-.196.304a1.14 1.14 0 0 1-.668.197h-1.273c-.281 0-.516-.085-.668-.197S65.5 58 65.5 57.921c0-.08.042-.192.195-.304a1.14 1.14 0 0 1 .668-.197h1.273l.104.004c.235.018.431.095.564.193.153.112.195.225.195.303Z"/><path fill="#2c302f" stroke="#394240" d="M48.572 75.541a1.31 1.31 0 0 1 1.807.416c.545.871.893 1.925 1.048 3.245.084.72-.43 1.37-1.15 1.455q-.078.01-.155.01a1.31 1.31 0 0 1-1.28-1.037l-.02-.123c-.101-.86-.316-1.597-.666-2.157v-.001a1.31 1.31 0 0 1 .416-1.808Zm9.2.419a1.31 1.31 0 0 1 1.69-.485l.118.064c.614.383.803 1.192.42 1.808-.352.565-.567 1.302-.668 2.16a1.313 1.313 0 0 1-1.3 1.16l-.156-.01-.133-.022a1.313 1.313 0 0 1-1.018-1.434c.152-1.293.51-2.38 1.047-3.242Z"/></svg>