<svg xmlns="http://www.w3.org/2000/svg" width="114" height="146" fill="none" viewBox="0 0 114 146"><path fill="#a8c5ff" d="M53.91 5.148a6.02 6.02 0 0 1 9.046 0 6.02 6.02 0 0 0 7.51 1.253c3.153-1.803 7.173-.423 8.554 2.937a6.02 6.02 0 0 0 6.696 3.623c3.568-.68 6.922 1.93 7.138 5.556a6.02 6.02 0 0 0 5.156 5.602c3.596.514 5.921 4.072 4.948 7.572a6.02 6.02 0 0 0 3.058 6.972c3.234 1.654 4.277 5.774 2.22 8.768a6.02 6.02 0 0 0 .629 7.588 6.02 6.02 0 0 1-.747 9.014 6.02 6.02 0 0 0-1.869 7.38c1.536 3.292-.171 7.184-3.633 8.284a6.02 6.02 0 0 0-4.165 6.373c.385 3.613-2.494 6.74-6.125 6.655a6.02 6.02 0 0 0-6.009 4.676c-.81 3.541-4.547 5.564-7.954 4.305a6.02 6.02 0 0 0-7.202 2.472c-1.915 3.087-6.107 3.786-8.921 1.489a6.02 6.02 0 0 0-7.614 0c-2.814 2.297-7.006 1.598-8.921-1.489a6.02 6.02 0 0 0-7.201-2.472c-3.408 1.259-7.145-.764-7.955-4.305a6.02 6.02 0 0 0-6.008-4.676 6.02 6.02 0 0 1-6.126-6.655 6.02 6.02 0 0 0-4.165-6.373c-3.462-1.1-5.169-4.992-3.633-8.284a6.02 6.02 0 0 0-1.869-7.38c-2.918-2.164-3.269-6.4-.747-9.014a6.02 6.02 0 0 0 .629-7.588c-2.057-2.994-1.014-7.114 2.22-8.768a6.02 6.02 0 0 0 3.059-6.972 6.018 6.018 0 0 1 4.947-7.572 6.02 6.02 0 0 0 5.156-5.602c.216-3.626 3.57-6.236 7.138-5.556a6.02 6.02 0 0 0 6.696-3.623c1.381-3.36 5.401-4.74 8.555-2.937a6.02 6.02 0 0 0 7.51-1.253"/><path fill="#a8c5ff" d="M26.473 76.33h60.343v52.97c0 7.389-7.737 12.226-14.38 8.991l-11.412-5.56a10 10 0 0 0-8.759 0l-11.413 5.56c-6.642 3.235-14.379-1.602-14.379-8.991z"/><path fill="#da39a1" d="M26.473 76.33H81.07v46.493c0 7.391-7.742 12.228-14.385 8.987l-8.528-4.161a10 10 0 0 0-8.77 0l-8.528 4.161c-6.643 3.241-14.385-1.596-14.385-8.987z"/><path fill="#072a6f" d="M49.979 5.823a5.916 5.916 0 0 1 8.889 0 5.916 5.916 0 0 0 7.38 1.231 5.916 5.916 0 0 1 8.407 2.887 5.916 5.916 0 0 0 6.58 3.56 5.916 5.916 0 0 1 7.015 5.46 5.916 5.916 0 0 0 5.068 5.505 5.916 5.916 0 0 1 4.862 7.442 5.916 5.916 0 0 0 3.005 6.852 5.916 5.916 0 0 1 2.183 8.617 5.916 5.916 0 0 0 .617 7.457 5.915 5.915 0 0 1-.734 8.859 5.916 5.916 0 0 0-1.836 7.253 5.917 5.917 0 0 1-3.571 8.14 5.916 5.916 0 0 0-4.093 6.264 5.916 5.916 0 0 1-6.02 6.54 5.916 5.916 0 0 0-5.904 4.596 5.917 5.917 0 0 1-7.818 4.231 5.915 5.915 0 0 0-7.077 2.429 5.916 5.916 0 0 1-8.768 1.463 5.92 5.92 0 0 0-7.482 0 5.916 5.916 0 0 1-8.768-1.463 5.915 5.915 0 0 0-7.077-2.429 5.917 5.917 0 0 1-7.818-4.231 5.916 5.916 0 0 0-5.904-4.596 5.916 5.916 0 0 1-6.02-6.54 5.916 5.916 0 0 0-4.093-6.264 5.916 5.916 0 0 1-3.57-8.14 5.916 5.916 0 0 0-1.837-7.253 5.916 5.916 0 0 1-.735-8.859 5.916 5.916 0 0 0 .618-7.457A5.916 5.916 0 0 1 7.66 38.76a5.916 5.916 0 0 0 3.006-6.852 5.916 5.916 0 0 1 4.862-7.442 5.916 5.916 0 0 0 5.068-5.504 5.916 5.916 0 0 1 7.014-5.46 5.916 5.916 0 0 0 6.58-3.561 5.916 5.916 0 0 1 8.408-2.887 5.916 5.916 0 0 0 7.38-1.231"/><circle cx="54.041" cy="54.041" r="39.528" fill="#fff"/><path fill="#fa67c7" d="M25.783 20.242c.215-1 1.42-1.416 2.207-.762l5.856 4.87c.282.235.649.346 1.016.307l7.604-.812a1.352 1.352 0 0 1 1.403 1.851l-2.865 7.066a1.35 1.35 0 0 0 .017 1.057l3.1 6.945c.415.932-.317 1.974-1.34 1.906l-7.627-.504a1.37 1.37 0 0 0-1.005.347l-5.69 5.104c-.763.685-1.982.317-2.23-.673l-1.849-7.377a1.35 1.35 0 0 0-.638-.843l-6.615-3.79a1.352 1.352 0 0 1-.04-2.322l6.485-4.056c.313-.195.533-.508.61-.867z"/><path fill="#da39a1" d="M17.099 56.589a.72.72 0 0 1 .42-1.154l3.933-.776a.72.72 0 0 0 .462-.313l2.191-3.375a.71.71 0 0 1 1.221.041l1.936 3.514a.7.7 0 0 0 .437.344l3.865 1.038c.519.14.701.784.334 1.18l-2.736 2.947a.72.72 0 0 0-.192.526l.197 4.017a.716.716 0 0 1-1.015.688l-3.626-1.693a.7.7 0 0 0-.556-.019l-3.743 1.444a.71.71 0 0 1-.961-.754l.495-3.994a.72.72 0 0 0-.152-.537z"/><path fill="#c87c5b" d="M45.875 75.07v4.748a7.33 7.33 0 0 0 4.995 6.94q5.13 1.74 10.26 0a7.33 7.33 0 0 0 4.995-6.94V75.07c-4.399-3.881-15.851-3.881-20.25 0"/><path fill="#ffd6a6" d="M88.625 30.25s-16.043 2.002-18.776 7.909a47 47 0 0 0-4.624-1.271l1.519-8.348c.09-.473.405-.866.832-1.057 1.17-.507 1.924-1.35 1.924-2.296 0-1.552-2.014-2.812-4.5-2.812s-4.5 1.26-4.5 2.813c0 .675.383 1.305 1.035 1.8.45.337.619.933.473 1.485l-2.07 7.593a42 42 0 0 0-7.876 0l-2.07-7.594c-.146-.55.023-1.147.473-1.485.652-.494 1.035-1.124 1.035-1.8 0-1.552-2.014-2.812-4.5-2.812s-4.5 1.26-4.5 2.813c0 .945.754 1.788 1.924 2.295.427.19.742.584.832 1.057l1.519 8.348a47 47 0 0 0-4.624 1.27c-2.734-5.906-18.776-7.908-18.776-7.908 1.102 8.798 5.951 14.951 14.074 19.901l-.574 3.724c0 1.778.416 3.487 1.193 5.029a11.1 11.1 0 0 0 3.307 3.971 11.24 11.24 0 0 1 4.5 9v3.195c4.399-3.881 15.851-3.881 20.25 0v-3.195c0-1.778.416-3.487 1.192-5.029a11.1 11.1 0 0 1 3.308-3.971 11.24 11.24 0 0 0 4.5-9l-.574-3.724c8.123-4.95 12.971-11.104 14.074-19.901"/><path fill="#ffa45b" d="M66.373 45.449A7 7 0 0 0 65 44.875c-.698-.203-1.733-.506-2.25 0-.495.484-.36 1.541 0 2.25.304.619.788.979 1.226 1.249a.83.83 0 0 0 1.058-.158c.461-.517.956-1.012 1.473-1.485a.81.81 0 0 0-.146-1.305zm-5.828 1.687H60.5c-1.193-.202-2.824.113-3.375 1.125-.562 1.046.034 2.892 1.811 4.478.304.27.731.349 1.114.202.518-.202 1.125-.259 1.575-.292.394-.023.709-.282.877-.63.045-.113.102-.225.158-.338.9-1.856-.09-4.173-2.115-4.533zm.99 8.685c0-.416-.079-.798-.304-1.147-.214-.327-.36-.765-.731-.799-.439-.034-1.013.517-1.125 1.125-.191.979 2.25 4.5 2.16.821m.754 5.749a6.4 6.4 0 0 0-.664 1.305c-.146.416-.877 2.543 0 4.5.945 2.07 3.105 2.677 4.478 3.814.022.022.056 0 .067-.034.056-1.001.248-1.98.563-2.914 0-.011 0-.034-.012-.045-1.957-1.519-3.532-3.937-4.421-6.637zm7.526-23.422c-.506-.158-1.013-.327-1.519-.462-.022 0-.034 0-.045.023-.349.641-1.294 1.338-2.126 2.677-.664 1.058-1.496 2.385-1.125 3.375.371.968 1.778 1.328 3.218 1.519h.033c1.136-.922 2.329-1.778 3.499-2.633 4.916-3.566 6.649-2.925 11.25-6.75 2.554-2.114 4.129-4.072 5.231-5.5.023-.034 0-.068-.033-.068-2.565.371-15.83 2.508-18.327 7.819 0 .022-.033.022-.045.022zm-24.322 8.595a18 18 0 0 1 1.473 1.484.826.826 0 0 0 1.058.158c.438-.281.922-.641 1.226-1.249.36-.709.495-1.766 0-2.25-.517-.506-1.553-.202-2.25 0-.551.158-.99.36-1.373.574a.816.816 0 0 0-.146 1.305zm3.847 4.927c.056.112.101.225.157.337.158.36.484.608.878.63.45.034 1.057.09 1.575.293.383.146.81.079 1.114-.203 1.777-1.586 2.374-3.43 1.811-4.477-.551-1.013-2.182-1.328-3.375-1.125h-.045c-2.036.36-3.026 2.678-2.115 4.534zM52.625 55c-.112-.608-.686-1.159-1.125-1.125-.371.034-.517.472-.731.799-.225.349-.293.742-.304 1.147-.09 3.679 2.351.158 2.16-.821M45.29 68.208s-.023.022-.011.044c.315.934.506 1.913.562 2.914 0 .034.034.045.068.034 1.361-1.125 3.532-1.733 4.477-3.814.878-1.957.146-4.083 0-4.5a6.4 6.4 0 0 0-.664-1.305c-.888 2.689-2.463 5.108-4.42 6.638zm-3.15-30.083c-2.498-5.31-15.772-7.448-18.326-7.819-.034 0-.056.034-.034.068 1.102 1.428 2.677 3.375 5.231 5.501 4.601 3.825 6.334 3.184 11.25 6.75 1.17.855 2.363 1.71 3.499 2.633h.034c1.44-.192 2.857-.552 3.217-1.52.371-.99-.461-2.317-1.125-3.374-.832-1.328-1.777-2.025-2.126-2.678 0-.011-.023-.022-.045-.022-.506.146-1.013.303-1.519.461-.022 0-.033 0-.045-.023zM65 22.375c-2.486 0-4.5 1.26-4.5 2.813 0 .675.383 1.305 1.035 1.8.45.337.619.933.473 1.485l-2.07 7.593-.89-.067c.102.247-.303.596-.82.967-.214-.394-.44-.742-.642-1.057a37 37 0 0 0-3.172 0c-.214.315-.428.675-.642 1.057-.517-.382-.922-.72-.82-.967l-.89.067-2.07-7.594c-.146-.55.023-1.147.473-1.485.652-.494 1.035-1.124 1.035-1.8 0-1.552-2.014-2.812-4.5-2.812s-4.5 1.26-4.5 2.813c0 .945.754 1.788 1.924 2.295.427.19.742.584.832 1.057l1.519 8.348a32 32 0 0 0-1.406.337c.855 1.789 1.608 3.172 2.261 4.241a1.997 1.997 0 0 0 3.071.405c.383-.36 2.295-.292 3.837-.056a9.8 9.8 0 0 0 2.925 0c1.54-.236 3.453-.304 3.836.056a1.998 1.998 0 0 0 3.071-.405c.652-1.057 1.406-2.441 2.261-4.241a32 32 0 0 0-1.406-.337l1.519-8.348c.09-.473.405-.866.832-1.057 1.17-.507 1.924-1.35 1.924-2.296 0-1.552-2.014-2.812-4.5-2.812"/><path fill="#ffa45b" d="M61.783 44.763c-.102.078-.158 1.237-.158 1.237-.742.416-2.25-.686-3.375 0-1.687 1.024-2.812 1.024-4.5 0-1.125-.686-2.633.416-3.375 0 0 0-.056-1.159-.157-1.237a2.2 2.2 0 0 1 .157-1.013c.292-.697.922-1.035 1.125-1.125.81-.394 1.609-.169 2.25 0 .09.023.225.056.45.157a4.68 4.68 0 0 0 3.611 0c.225-.09.36-.134.45-.157.642-.169 1.44-.394 2.25 0 .203.09.833.428 1.125 1.125.146.349.18.697.158 1.013zM58.059 57.7c-.855.36-1.181.967-1.373 1.541-.247.72-1.282.653-1.474-.09-.146-.551-.382-1.114-1.237-1.462-.461-.18-.63-.698-.394-1.136.36-.664.259-1.294.203-1.767-.09-.776.078-1.586.63-2.137.911-.923 2.261-.923 3.172 0 .552.551.72 1.361.63 2.137-.067.585-.112 1.181.214 1.778.236.427.079.945-.371 1.136"/><path fill="#ffa45b" d="M61.929 60.344c-.102.09-.203.18-.304.281-1.913 1.913-.889 4.331-2.25 5.625-.214.203-.506.09-.911-.124a5.24 5.24 0 0 0-4.928 0c-.405.214-.697.326-.911.124-1.361-1.294-.337-3.712-2.25-5.625a7 7 0 0 0-.304-.281c.056-.248.113-.495.158-.743a1.08 1.08 0 0 1 .529-.754c.1-.067.213-.123.314-.19.282-.18.642-.226.957-.113 1.631.562 2.43 1.372 2.846 2.081.574.968 1.676.968 2.25 0 .416-.709 1.215-1.519 2.846-2.081.315-.113.675-.068.957.112.1.068.213.124.315.191.28.158.472.44.528.754.045.248.102.495.158.743m4.196 13.781v.945C63.931 73.124 59.96 72.156 56 72.168c-3.96-.012-7.931.956-10.125 2.902v-.945c1.271-.484 1.26-1.991 2.25-3.375.956-1.35 2.351-1.868 3.375-2.25 1.699-.63 3.285-.585 4.5-.562 1.215-.023 2.801-.068 4.5.562 1.024.382 2.419.9 3.375 2.25.99 1.384.979 2.891 2.25 3.375"/><path fill="#394240" d="M89.739 30.385a1.14 1.14 0 0 0-.315-.934 1.11 1.11 0 0 0-.934-.326c-1.62.203-15.345 2.07-19.159 7.695a48 48 0 0 0-2.801-.776l1.328-7.301c.022-.102.09-.203.18-.237 1.63-.709 2.598-1.946 2.598-3.33 0-2.205-2.475-3.937-5.625-3.937s-5.625 1.732-5.625 3.937c0 1.013.529 1.969 1.485 2.7.068.045.09.18.056.293l-1.822 6.705a44 44 0 0 0-6.187 0l-1.823-6.694c-.034-.124 0-.247.068-.304.956-.72 1.485-1.676 1.485-2.7 0-2.205-2.476-3.937-5.626-3.937s-5.624 1.732-5.624 3.937c0 1.384.967 2.622 2.587 3.319.09.045.169.135.18.236l1.328 7.313a48 48 0 0 0-2.802.776c-3.814-5.614-17.539-7.492-19.159-7.695a1.11 1.11 0 0 0-.933.326c-.248.248-.36.596-.315.934 1.069 8.516 5.524 14.985 13.961 20.318l-.461 3.003c0 .056-.011.113-.011.169 0 1.946.438 3.803 1.304 5.524a12.4 12.4 0 0 0 3.645 4.376 10.18 10.18 0 0 1 4.05 8.1v7.942a8.45 8.45 0 0 0 5.76 8.01c1.823.62 3.657.923 5.49.923s3.668-.304 5.49-.922a8.45 8.45 0 0 0 5.76-8.01v-7.943c0-1.586.36-3.105 1.08-4.534a9.9 9.9 0 0 1 2.97-3.566c3.094-2.329 4.95-6.03 4.95-9.9 0-.056 0-.112-.01-.169l-.462-3.004c8.449-5.332 12.892-11.8 13.961-20.317zM60.77 85.69c-3.161 1.069-6.379 1.069-9.54 0A6.18 6.18 0 0 1 47 79.817v-4.184c4.084-3.083 13.916-3.083 18 0v4.185a6.18 6.18 0 0 1-4.23 5.872m14.636-37.417-1.001-6.503c1.755-1.249 4.016-2.509 6.795-3.746.563-.248.821-.912.574-1.485-.248-.574-.923-.822-1.485-.574-3.229 1.429-5.85 2.914-7.796 4.399-.012 0-.012.034-.023.045a1.14 1.14 0 0 0-.371 1.181L74 53.965a10.16 10.16 0 0 1-4.05 8.01 12.3 12.3 0 0 0-3.634 4.365A12.26 12.26 0 0 0 65 71.875v1.103c-4.849-2.543-13.151-2.543-18 0v-1.103c0-3.87-1.856-7.571-4.95-9.9a10.1 10.1 0 0 1-2.981-3.578A9.94 9.94 0 0 1 38 53.966l1.879-12.285s.011-.056.022-.09a1.11 1.11 0 0 0-.371-1.17c-.011-.011-.011-.034-.023-.045-1.946-1.485-4.567-2.97-7.796-4.399a1.125 1.125 0 1 0-.911 2.059c2.79 1.238 5.051 2.498 6.795 3.746l-1.001 6.503c-6.818-4.523-10.632-9.889-11.88-16.695 5.017.81 14.591 3.105 16.414 7.054.19.404.584.63 1 .64h.046c.034 0 .056-.01.09-.01a1 1 0 0 0 .236-.034A44 44 0 0 1 47.011 38s.011-.011.023-.011a1.11 1.11 0 0 0 .843-1.282l-1.518-8.36a2.57 2.57 0 0 0-1.497-1.878c-.753-.326-1.248-.821-1.248-1.26 0-.799 1.44-1.687 3.375-1.687s3.375.888 3.375 1.687c0 .394-.371.731-.585.9-.81.608-1.159 1.654-.889 2.678l2.07 7.593s.023.023.034.045c.157.484.618.833 1.159.788a41.5 41.5 0 0 1 7.66 0h.102a1.11 1.11 0 0 0 1.057-.788c0-.011.023-.022.034-.034l2.07-7.605c.27-1.023-.078-2.07-.877-2.666-.225-.168-.585-.506-.585-.9 0-.799 1.44-1.687 3.375-1.687s3.375.889 3.375 1.687c0 .439-.484.934-1.26 1.271a2.63 2.63 0 0 0-1.485 1.88L64.1 36.718c-.112.585.27 1.147.844 1.282 0 0 .011.012.022.012a50 50 0 0 1 4.512 1.237c.112.034.236.056.348.056.417 0 .799-.247.99-.63 0 0 .023-.011.023-.022 1.822-3.938 11.396-6.244 16.414-7.054-1.238 6.806-5.063 12.173-11.88 16.695z"/><path fill="#394240" d="M49.588 77.545a1.12 1.12 0 0 0-1.407.742c-.18.597.147 1.227.743 1.407 2.396.742 2.508 1.721 2.587 2.43a1.13 1.13 0 0 0 1.114 1.001h.124a1.127 1.127 0 0 0 .99-1.249c-.248-2.171-1.53-3.51-4.163-4.32zm12.825 0c-2.633.821-3.915 2.149-4.163 4.32-.068.619.371 1.17.99 1.249h.124a1.13 1.13 0 0 0 1.114-1.002c.078-.708.19-1.687 2.587-2.43.596-.18.922-.81.742-1.406a1.12 1.12 0 0 0-1.406-.742zM48.125 52.75h-4.5c-.619 0-1.125.506-1.125 1.125S43.006 55 43.625 55h1.125A2.257 2.257 0 0 0 47 57.25 2.257 2.257 0 0 0 49.25 55v-1.125c0-.619-.506-1.125-1.125-1.125m20.25 0h-4.5c-.619 0-1.125.506-1.125 1.125V55A2.257 2.257 0 0 0 65 57.25 2.257 2.257 0 0 0 67.25 55h1.125c.619 0 1.125-.506 1.125-1.125s-.506-1.125-1.125-1.125"/></svg>