<svg xmlns="http://www.w3.org/2000/svg" width="114" height="146" fill="none" viewBox="0 0 114 146"><path fill="#a8c5ff" d="M53.91 5.148a6.02 6.02 0 0 1 9.046 0 6.02 6.02 0 0 0 7.51 1.253c3.153-1.803 7.173-.423 8.554 2.937a6.02 6.02 0 0 0 6.696 3.623c3.568-.68 6.922 1.93 7.138 5.556a6.02 6.02 0 0 0 5.156 5.601c3.596.515 5.921 4.073 4.948 7.573a6.02 6.02 0 0 0 3.058 6.972c3.234 1.654 4.277 5.774 2.22 8.768a6.02 6.02 0 0 0 .629 7.588c2.522 2.614 2.171 6.85-.747 9.014a6.02 6.02 0 0 0-1.869 7.38c1.536 3.292-.171 7.184-3.633 8.284a6.02 6.02 0 0 0-4.165 6.373c.385 3.613-2.494 6.74-6.125 6.655a6.02 6.02 0 0 0-6.009 4.676c-.81 3.541-4.547 5.564-7.954 4.305a6.02 6.02 0 0 0-7.202 2.472c-1.915 3.087-6.107 3.786-8.921 1.489a6.02 6.02 0 0 0-7.614 0c-2.814 2.297-7.006 1.598-8.921-1.489a6.02 6.02 0 0 0-7.201-2.472c-3.408 1.259-7.145-.764-7.955-4.305a6.02 6.02 0 0 0-6.008-4.676 6.02 6.02 0 0 1-6.126-6.655 6.02 6.02 0 0 0-4.165-6.373c-3.462-1.1-5.169-4.992-3.633-8.284a6.02 6.02 0 0 0-1.869-7.38c-2.918-2.164-3.269-6.4-.747-9.014a6.02 6.02 0 0 0 .629-7.588c-2.057-2.994-1.014-7.114 2.22-8.768a6.02 6.02 0 0 0 3.059-6.972c-.974-3.5 1.35-7.058 4.947-7.573a6.02 6.02 0 0 0 5.156-5.601c.216-3.626 3.57-6.236 7.138-5.556a6.02 6.02 0 0 0 6.696-3.623c1.381-3.36 5.401-4.74 8.555-2.937a6.02 6.02 0 0 0 7.51-1.253"/><path fill="#a8c5ff" d="M26.473 76.33h60.343v52.97c0 7.389-7.737 12.226-14.38 8.991l-11.412-5.56a10 10 0 0 0-8.759 0l-11.413 5.56c-6.642 3.235-14.379-1.602-14.379-8.991z"/><path fill="#da39a1" d="M26.473 76.33H81.07v46.493c0 7.391-7.742 12.228-14.385 8.987l-8.528-4.161a10 10 0 0 0-8.77 0l-8.528 4.161c-6.643 3.241-14.385-1.596-14.385-8.987z"/><path fill="#072a6f" d="M49.979 5.823a5.916 5.916 0 0 1 8.889 0 5.916 5.916 0 0 0 7.38 1.231 5.916 5.916 0 0 1 8.407 2.887 5.916 5.916 0 0 0 6.58 3.56 5.916 5.916 0 0 1 7.015 5.46 5.916 5.916 0 0 0 5.068 5.505 5.916 5.916 0 0 1 4.862 7.442 5.916 5.916 0 0 0 3.005 6.852 5.916 5.916 0 0 1 2.183 8.617 5.916 5.916 0 0 0 .617 7.457 5.915 5.915 0 0 1-.734 8.859 5.916 5.916 0 0 0-1.836 7.253 5.917 5.917 0 0 1-3.571 8.14 5.916 5.916 0 0 0-4.093 6.264 5.916 5.916 0 0 1-6.02 6.54 5.916 5.916 0 0 0-5.904 4.596 5.917 5.917 0 0 1-7.818 4.231 5.915 5.915 0 0 0-7.077 2.429 5.916 5.916 0 0 1-8.768 1.463 5.92 5.92 0 0 0-7.482 0 5.916 5.916 0 0 1-8.768-1.463 5.915 5.915 0 0 0-7.077-2.429 5.917 5.917 0 0 1-7.818-4.231 5.916 5.916 0 0 0-5.904-4.596 5.916 5.916 0 0 1-6.02-6.54 5.916 5.916 0 0 0-4.093-6.264 5.916 5.916 0 0 1-3.57-8.14 5.916 5.916 0 0 0-1.837-7.253 5.916 5.916 0 0 1-.735-8.859 5.916 5.916 0 0 0 .618-7.457A5.916 5.916 0 0 1 7.66 38.76a5.916 5.916 0 0 0 3.006-6.852 5.916 5.916 0 0 1 4.862-7.442 5.916 5.916 0 0 0 5.068-5.504 5.916 5.916 0 0 1 7.014-5.46 5.916 5.916 0 0 0 6.58-3.561 5.916 5.916 0 0 1 8.408-2.887 5.916 5.916 0 0 0 7.38-1.231"/><circle cx="54.041" cy="54.041" r="39.528" fill="#fff"/><path fill="#fa67c7" d="M25.783 20.242c.215-1 1.42-1.416 2.207-.762l5.856 4.87c.282.235.649.346 1.016.307l7.604-.812a1.352 1.352 0 0 1 1.403 1.851l-2.865 7.066a1.35 1.35 0 0 0 .017 1.057l3.1 6.945c.415.932-.317 1.974-1.34 1.906l-7.627-.504a1.37 1.37 0 0 0-1.005.347l-5.69 5.104c-.763.685-1.982.317-2.23-.673l-1.849-7.377a1.35 1.35 0 0 0-.638-.843l-6.615-3.79a1.352 1.352 0 0 1-.04-2.322l6.485-4.056c.313-.195.533-.508.61-.867z"/><path fill="#da39a1" d="M17.099 56.589a.72.72 0 0 1 .42-1.154l3.933-.776a.72.72 0 0 0 .462-.313l2.191-3.375a.71.71 0 0 1 1.221.041l1.936 3.514a.7.7 0 0 0 .437.344l3.865 1.038c.519.14.701.784.334 1.18l-2.736 2.947a.72.72 0 0 0-.192.526l.197 4.017a.716.716 0 0 1-1.015.688l-3.626-1.693a.7.7 0 0 0-.556-.019l-3.743 1.444a.71.71 0 0 1-.961-.754l.495-3.994a.72.72 0 0 0-.152-.537z"/><path fill="#c78640" d="M78.426 34.962c1.998-1.879 3.546-4.298 3.546-6.18 0-3.594-2.959-6.507-6.608-6.507-2.055 0-4.74 1.76-6.696 3.94z"/><path fill="#975e21" d="M68.668 26.216c-1.518 1.692-2.596 3.638-2.596 5.208 0 3.594 2.959 6.507 6.609 6.507 1.738 0 3.928-1.26 5.746-2.97-3.772-4.78-7.848-7.69-9.759-8.745"/><path fill="#c78640" d="M34.638 22.275a6.7 6.7 0 0 0-2.89.654c-1.765 1.235-2.837 3.72-2.598 5.887.377 3.409 4.989 8.024 7.722 8.024 3.462 0 6.96-3.221 6.96-6.284-.766-3.554-5.828-8.28-9.194-8.28"/><path fill="#975e21" d="M37.319 35.95c-2.577 0-6.925-4.35-7.28-7.564-.225-2.042.353-4.155 1.707-5.456-2.202 1.056-3.72 3.28-3.72 5.852 0 3.594 5.643 9.15 9.293 9.15s6.608-2.914 6.608-6.507q0-.42-.099-.869c-.536 3.063-3.246 5.394-6.51 5.394"/><path fill="#394240" d="M55 74.759a1 1 0 0 1-1.006-.991v-6.755c0-.547.45-.991 1.006-.991a1 1 0 0 1 1.006.99v6.756c0 .547-.45.99-1.006.99"/><path fill="#c78640" d="M26.08 59.455c0 18.531 27.558 27.419 28.921 27.419 1.35 0 21.168-6.82 28.155-19.05 1.157-2.535 1.839-5.322 1.839-8.369 0-19.048-13.848-29.637-17.342-31.505s-8.059-1.895-12.652-.964c-4.493-.91-8.958-.903-12.42.845-5.669 3.46-16.5 15.287-16.5 31.624"/><path fill="#975e21" d="M55 85.949c-1.364 0-27.981-8.668-27.981-26.494 0-16.337 11.103-28.562 15.56-31.624q-.116.058-.231.12c-3.494 1.866-17.342 12.456-17.342 31.504C25.006 79.043 53.155 87.93 55 87.93c1.547 0 21.87-6.338 28.155-20.105C74.157 80.205 56.349 85.949 55 85.949"/><path fill="#f8d3d6" d="M54.999 78.655c3.1 0 3.845-3.021 4.18-5.332l-4.18-.877-4.18.877c.335 2.31 1.08 5.332 4.18 5.332"/><path fill="#ebb3b8" d="M59.178 73.323c-.982 2.38-1.08 4.408-4.18 4.408s-3.197-2.027-4.18-4.408l-2.117.445c1.71 1.684 1.252 5.944 6.298 5.944s4.587-4.26 6.297-5.944z"/><path fill="#ebae9d" d="M65.908 65.86c0-5.092-2.521-8.726-7.795-15.508-1.569-2.017-4.657-2.017-6.226 0-5.79 8.858-6.722 11.185-6.722 15.509 0 1.732.147 2.835.332 4.049.281 1.842 1.22 2.801 3.205 2.801h12.596c2.472 0 3.782-1.17 4.213-2.381l.005-.024c.22-1.213.392-2.713.392-4.445"/><path fill="#c38778" d="M61.297 71.786H48.7c-1.162 0-2.092-.739-2.266-1.877-.185-1.213-.332-2.316-.332-4.048 0-4.324.662-6.52 5.783-15.509-5.274 6.782-7.795 10.416-7.795 15.509 0 1.732.171 3.231.392 4.445.366 2.007 2.148 3.462 4.218 3.462h12.596c2.062 0 3.837-1.444 4.213-3.438-.594.968-1.741 1.456-4.214 1.456"/><path fill="#71471b" d="M51.322 59.21c-.807 1.23-1.129 4.281-.137 5.16.495.44 2.743 1.586 3.816 1.586 1.517 0 3.705-1.242 4.35-1.878.314-.309.65-.967.65-1.773-.148-1.207-.65-2.435-1.32-3.095-1.291-1.272-6.068-1.272-7.36 0"/><path fill="#61390e" d="M55 65.031c-1.073 0-2.845-.859-3.341-1.298-.992-.88-.677-3.8-.339-4.523-1.291 1.27-1.962 4.653-.67 5.925.645.635 2.833 1.878 4.35 1.878s3.705-1.243 4.35-1.878c.621-.612.788-1.712.65-2.83-.124.272-.337.54-.65.848-.645.636-2.833 1.878-4.35 1.878"/><path fill="#394240" d="M55 88.92c-1.148 0-7.983-2.096-14.697-6.098-6.232-3.715-14.049-10.071-15.896-19.253a.99.99 0 0 1 .792-1.164 1.005 1.005 0 0 1 1.182.78c.935 4.645 4.262 11.511 14.805 17.846 6.447 3.874 12.85 5.833 13.813 5.908.543-.045 3.419-.84 7.242-2.52a1.01 1.01 0 0 1 1.329.5.985.985 0 0 1-.509 1.309c-3.998 1.757-7.25 2.693-8.061 2.693m11.171-4.288a1.01 1.01 0 0 1-.892-.53.983.983 0 0 1 .423-1.338c5.112-2.646 9.26-5.706 12.332-9.096 3.95-4.359 5.953-9.14 5.953-14.213 0-12.122-5.677-20.543-10.44-25.473a.98.98 0 0 1 .036-1.4 1.02 1.02 0 0 1 1.423.034 41 41 0 0 1 2.021 2.251c2.253-1.862 3.939-4.427 3.939-6.085 0-3.041-2.514-5.516-5.603-5.516-1.81 0-4.588 1.851-6.485 4.248.698.434 1.756 1.158 3.088 2.27a.98.98 0 0 1 .117 1.396c-.359.418-.994.47-1.418.116-1.877-1.567-3.148-2.29-3.493-2.475-2.92-1.56-7.059-1.86-11.97-.865a1 1 0 0 1-.405 0c-4.91-.995-9.05-.696-11.97.865-1.696.907-5.896 3.96-9.647 9.023-4.756 6.419-7.167 13.69-7.167 21.611a1 1 0 0 1-1.007.991 1 1 0 0 1-1.006-.99c0-4.513.766-8.898 2.278-13.032a38.7 38.7 0 0 1 5.458-9.992 16.5 16.5 0 0 1-3.041-3.264c-.764-1.096-1.673-2.746-1.673-4.386 0-4.134 3.416-7.497 7.614-7.497 1.762 0 3.536.993 4.714 1.826a16.6 16.6 0 0 1 3.576 3.465c3.201-1.347 7.255-1.55 12.074-.602 4.82-.948 8.873-.745 12.074.602a16.6 16.6 0 0 1 3.576-3.465c1.178-.833 2.952-1.826 4.714-1.826 4.198 0 7.614 3.363 7.614 7.497 0 1.64-.91 3.29-1.673 4.386a16.5 16.5 0 0 1-3.039 3.262 39 39 0 0 1 4.161 6.89C84.798 48.357 86 53.786 86 59.455c0 5.574-2.175 10.8-6.464 15.532-3.233 3.567-7.572 6.774-12.898 9.53-.149.078-.31.115-.467.115M34.636 23.266c-3.089 0-5.602 2.475-5.602 5.516 0 1.658 1.686 4.223 3.94 6.086 3.092-3.72 6.242-6.175 8.147-7.356-1.898-2.396-4.675-4.246-6.485-4.246M55 80.703c-4.163 0-5.247-2.58-6.04-4.464-.239-.57-.467-1.113-.744-1.502-2.352-.21-4.3-1.936-4.722-4.256a26 26 0 0 1-.408-4.62c0-5.55 2.891-9.539 8.002-16.111a4.93 4.93 0 0 1 2.906-1.8v-5.037c0-.547.45-.99 1.006-.99a1 1 0 0 1 1.006.99v5.037c.928.19 1.788.64 2.47 1.308a.98.98 0 0 1 0 1.402 1.017 1.017 0 0 1-1.423 0 2.93 2.93 0 0 0-2.25-.824c-.847.055-1.6.453-2.117 1.118-5.392 6.934-7.588 10.224-7.588 14.907 0 1.46.127 2.897.377 4.27.28 1.533 1.637 2.646 3.227 2.646h5.292v-4.889c-1.654-.351-3.42-1.427-4.056-2.053-1.803-1.775-.857-5.822.671-7.326 1.683-1.657 7.1-1.657 8.782 0 1.528 1.504 2.474 5.55.671 7.326-.636.627-2.401 1.702-4.055 2.053v4.889h5.29c1.592 0 2.949-1.113 3.229-2.647.25-1.37.376-2.808.376-4.27 0-4.165-1.826-7.318-5.663-12.402a.98.98 0 0 1 .207-1.386 1.016 1.016 0 0 1 1.408.204c2.306 3.056 3.616 5.077 4.52 6.975 1.05 2.21 1.54 4.31 1.54 6.61 0 1.579-.137 3.133-.408 4.62-.422 2.32-2.37 4.045-4.722 4.256-.277.39-.505.932-.745 1.502-.792 1.884-1.876 4.464-6.039 4.464m-4.492-5.944c.11.239.211.482.312.722.731 1.739 1.362 3.24 4.18 3.24s3.449-1.501 4.18-3.24q.149-.362.311-.722zm1.524-14.849c-1.033 1.018-1.441 3.766-.671 4.524.538.53 2.489 1.588 3.639 1.588s3.101-1.058 3.639-1.588c.77-.758.362-3.506-.671-4.524-.888-.874-5.049-.874-5.936 0m20.328 2.447a1.01 1.01 0 0 1-.873-.496.983.983 0 0 1 .369-1.353c2.967-1.687 3.988-5.437 2.274-8.359a.98.98 0 0 1 .368-1.353 1.015 1.015 0 0 1 1.375.362c2.268 3.868.917 8.832-3.011 11.066-.158.09-.332.133-.502.133m-34.72 0c-.17 0-.343-.043-.502-.133a8.07 8.07 0 0 1-3.835-4.918 7.94 7.94 0 0 1 .824-6.148 1.015 1.015 0 0 1 1.375-.363c.48.274.646.88.368 1.354-1.714 2.922-.693 6.672 2.275 8.359.48.273.646.88.368 1.353a1.01 1.01 0 0 1-.873.496m28.41-10.263h-2.682a1 1 0 0 1-1.007-.99c0-.548.45-.992 1.007-.992h2.683a1 1 0 0 1 1.006.991c0 .547-.45.99-1.006.99m-19.417 0H43.95a1 1 0 0 1-1.006-.99c0-.548.45-.992 1.006-.992h2.684a1 1 0 0 1 1.006.991c0 .547-.45.99-1.007.99"/></svg>