<svg xmlns="http://www.w3.org/2000/svg" width="114" height="146" fill="none" viewBox="0 0 114 146"><path fill="#a8c5ff" d="M53.91 5.148a6.02 6.02 0 0 1 9.046 0 6.02 6.02 0 0 0 7.51 1.253c3.153-1.803 7.173-.423 8.554 2.937a6.02 6.02 0 0 0 6.696 3.623c3.568-.68 6.922 1.93 7.138 5.556a6.02 6.02 0 0 0 5.156 5.601c3.596.515 5.921 4.073 4.948 7.573a6.02 6.02 0 0 0 3.058 6.972c3.234 1.654 4.277 5.774 2.22 8.768a6.02 6.02 0 0 0 .629 7.588c2.522 2.614 2.171 6.85-.747 9.014a6.02 6.02 0 0 0-1.869 7.38c1.536 3.292-.171 7.184-3.633 8.284a6.02 6.02 0 0 0-4.164 6.373c.383 3.613-2.495 6.74-6.126 6.655a6.02 6.02 0 0 0-6.009 4.676c-.81 3.541-4.547 5.564-7.954 4.305a6.02 6.02 0 0 0-7.201 2.472 6.02 6.02 0 0 1-8.922 1.489 6.02 6.02 0 0 0-7.614 0c-2.814 2.297-7.006 1.598-8.921-1.489a6.02 6.02 0 0 0-7.201-2.472c-3.408 1.259-7.145-.764-7.955-4.305a6.02 6.02 0 0 0-6.008-4.676 6.02 6.02 0 0 1-6.126-6.655 6.02 6.02 0 0 0-4.165-6.373c-3.462-1.1-5.169-4.992-3.633-8.284a6.02 6.02 0 0 0-1.869-7.38c-2.918-2.164-3.269-6.4-.747-9.014a6.02 6.02 0 0 0 .629-7.588c-2.057-2.994-1.014-7.114 2.22-8.768a6.02 6.02 0 0 0 3.059-6.972c-.974-3.5 1.35-7.058 4.947-7.573a6.02 6.02 0 0 0 5.156-5.601c.216-3.626 3.57-6.236 7.138-5.556a6.02 6.02 0 0 0 6.696-3.623c1.382-3.36 5.401-4.74 8.555-2.937a6.02 6.02 0 0 0 7.51-1.253"/><path fill="#a8c5ff" d="M26.473 76.33h60.343v52.97c0 7.389-7.737 12.226-14.38 8.991l-11.412-5.56a10 10 0 0 0-8.759 0l-11.413 5.56c-6.642 3.235-14.379-1.602-14.379-8.991z"/><path fill="#da39a1" d="M26.473 76.33H81.07v46.493c0 7.391-7.742 12.228-14.385 8.987l-8.528-4.161a10 10 0 0 0-8.77 0l-8.528 4.161c-6.643 3.241-14.385-1.596-14.385-8.987z"/><path fill="#072a6f" d="M49.979 5.823a5.916 5.916 0 0 1 8.889 0 5.916 5.916 0 0 0 7.38 1.231 5.916 5.916 0 0 1 8.407 2.887 5.916 5.916 0 0 0 6.58 3.56 5.916 5.916 0 0 1 7.015 5.46 5.916 5.916 0 0 0 5.068 5.505 5.916 5.916 0 0 1 4.862 7.442 5.916 5.916 0 0 0 3.005 6.852 5.916 5.916 0 0 1 2.183 8.617 5.916 5.916 0 0 0 .617 7.457 5.915 5.915 0 0 1-.734 8.859 5.916 5.916 0 0 0-1.836 7.253 5.917 5.917 0 0 1-3.571 8.14 5.916 5.916 0 0 0-4.093 6.264 5.916 5.916 0 0 1-6.02 6.54 5.916 5.916 0 0 0-5.904 4.596 5.917 5.917 0 0 1-7.818 4.231 5.915 5.915 0 0 0-7.077 2.429 5.916 5.916 0 0 1-8.768 1.463 5.92 5.92 0 0 0-7.482 0 5.916 5.916 0 0 1-8.768-1.463 5.915 5.915 0 0 0-7.077-2.429 5.917 5.917 0 0 1-7.818-4.231 5.916 5.916 0 0 0-5.904-4.596 5.916 5.916 0 0 1-6.02-6.54 5.916 5.916 0 0 0-4.093-6.264 5.916 5.916 0 0 1-3.57-8.14 5.916 5.916 0 0 0-1.837-7.253 5.916 5.916 0 0 1-.735-8.859 5.916 5.916 0 0 0 .618-7.457A5.916 5.916 0 0 1 7.66 38.76a5.916 5.916 0 0 0 3.006-6.852 5.916 5.916 0 0 1 4.862-7.442 5.916 5.916 0 0 0 5.068-5.504 5.916 5.916 0 0 1 7.014-5.46 5.916 5.916 0 0 0 6.58-3.561 5.916 5.916 0 0 1 8.408-2.887 5.916 5.916 0 0 0 7.38-1.231"/><circle cx="54.041" cy="54.041" r="39.528" fill="#fff"/><path fill="#fa67c7" d="M25.783 20.242c.215-1 1.42-1.416 2.207-.762l5.856 4.87c.282.235.649.346 1.016.307l7.604-.812a1.352 1.352 0 0 1 1.403 1.851l-2.865 7.066a1.35 1.35 0 0 0 .017 1.057l3.1 6.945c.415.932-.317 1.974-1.34 1.906l-7.627-.504a1.37 1.37 0 0 0-1.005.347l-5.69 5.104c-.763.685-1.982.317-2.23-.673l-1.849-7.377a1.35 1.35 0 0 0-.638-.843l-6.615-3.79a1.352 1.352 0 0 1-.04-2.322l6.485-4.056c.313-.195.533-.508.61-.867z"/><path fill="#da39a1" d="M17.099 56.589a.72.72 0 0 1 .42-1.154l3.933-.776a.72.72 0 0 0 .462-.313l2.191-3.375a.71.71 0 0 1 1.221.041l1.936 3.514a.7.7 0 0 0 .437.344l3.865 1.038c.519.14.701.784.334 1.18l-2.736 2.947a.72.72 0 0 0-.192.526l.197 4.017a.716.716 0 0 1-1.015.688l-3.626-1.693a.7.7 0 0 0-.556-.019l-3.743 1.444a.71.71 0 0 1-.961-.754l.495-3.994a.72.72 0 0 0-.152-.537z"/><mask id="a" width="80" height="80" x="15" y="15" maskUnits="userSpaceOnUse" style="mask-type:alpha"><path fill="#fff" d="M94.057 54.528c0 21.831-17.698 39.529-39.529 39.529C32.698 94.057 15 76.358 15 54.527 15 32.698 32.697 15 54.528 15s39.529 17.697 39.529 39.528"/></mask><g mask="url(#a)"><path fill="#b9afb9" d="M82.102 94.68c-.035-6.134-3.31-11.475-4.702-16.02-1.483-4.84-1.511-10.072-.226-14.983.58-2.215.89-4.657.89-7.327 0-18.212-10.542-23.418-23.547-23.418S30.97 38.138 30.97 56.35c0 2.67.31 5.112.89 7.327 1.286 4.91 1.257 10.142-.226 14.984-1.392 4.544-4.666 9.885-4.702 16.02z"/><path fill="#a99fa9" d="M82.102 94.68h-4.22c-.037-6.134-3.31-11.476-4.704-16.02-1.482-4.841-1.51-10.073-.226-14.983.58-2.215.891-4.658.891-7.327 0-17.216-9.42-22.81-21.437-23.37q1.044-.048 2.111-.048c13.005 0 23.547 5.205 23.547 23.418 0 2.67-.31 5.112-.89 7.327-1.286 4.91-1.257 10.142.226 14.984 1.393 4.543 4.667 9.885 4.702 16.02"/><path fill="#a99fa9" d="M60.344 61.99H48.436c-4.092 0-7.503 3.256-7.556 7.347a7.446 7.446 0 0 0 11.316 6.46 4.1 4.1 0 0 1 4.283.004 7.4 7.4 0 0 0 4.1 1.078c3.953-.122 7.155-3.382 7.21-7.337a7.446 7.446 0 0 0-7.445-7.552"/><path fill="#d7d0d6" d="M60.345 58.192H48.436c-4.093 0-7.504 3.255-7.557 7.347a7.446 7.446 0 0 0 11.317 6.46 4.1 4.1 0 0 1 4.283.004 7.4 7.4 0 0 0 4.099 1.077c3.953-.121 7.156-3.381 7.21-7.336a7.446 7.446 0 0 0-7.445-7.552"/><path fill="#554e55" d="M60.315 58.97c0 2.48-3.499 5.978-5.98 5.978-2.48 0-5.979-3.498-5.979-5.979s3.499-3.004 5.98-3.004c2.48 0 5.979.523 5.979 3.004"/><path fill="#433f43" d="M60.314 58.97c0 2.48-3.498 5.978-5.979 5.978-.985 0-2.13-.551-3.152-1.37 2.42-.425 5.46-3.62 5.46-5.931a2.17 2.17 0 0 0-.667-1.6c2.145.222 4.338.958 4.338 2.923"/><path fill="#394240" d="M67.35 52.912a1.426 1.426 0 1 0 0-2.852 1.426 1.426 0 0 0 0 2.852m-25.666 0a1.426 1.426 0 1 0 0-2.852 1.426 1.426 0 0 0 0 2.852M81.75 87.513a.932.932 0 0 0-1.771.576c.8 2.463 1.18 4.559 1.192 6.597.002.513.42.927.931.927h.006a.93.93 0 0 0 .926-.937c-.013-2.237-.42-4.513-1.283-7.163"/><path fill="#394240" d="m80.172 83.313-.263-.642c-.62-1.514-1.207-2.943-1.618-4.283-1.152-3.76-1.414-7.78-.782-11.77q.494-.12.95-.273a.932.932 0 0 0-.545-1.78q.077-.327.162-.652c.61-2.334.92-4.878.92-7.563 0-8.747-2.432-15.224-7.23-19.252C67.739 33.715 61.936 32 54.518 32c-6.927 0-12.452 1.495-16.421 4.444a.932.932 0 0 0 1.111 1.496c3.64-2.705 8.792-4.076 15.31-4.076 6.967 0 12.368 1.568 16.051 4.661 4.356 3.657 6.564 9.655 6.564 17.825 0 2.526-.289 4.911-.86 7.091q-.209.801-.373 1.608c-2.35.39-5.14.37-7.183.274a8.4 8.4 0 0 0-.338-2.07c1.643-.474 4.007-1.384 6.592-3.108a.932.932 0 1 0-1.034-1.55c-2.507 1.671-4.802 2.512-6.295 2.925a8.4 8.4 0 0 0-1.332-1.764 8.3 8.3 0 0 0-5.546-2.485c-.926-1.44-3.157-2.237-6.429-2.237-3.278 0-5.512.8-6.434 2.245a8.54 8.54 0 0 0-6.797 4.158c-1.492-.439-3.655-1.275-6.005-2.843a.931.931 0 1 0-1.034 1.55c2.42 1.614 4.645 2.515 6.268 3.012a8.2 8.2 0 0 0-.377 2.182c-2.003.082-4.605.078-6.82-.29a30 30 0 0 0-.373-1.607c-.57-2.18-.86-4.565-.86-7.09 0-6.622 1.448-11.831 4.306-15.484a.932.932 0 1 0-1.468-1.148c-3.12 3.988-4.702 9.584-4.702 16.631 0 2.685.31 5.23.92 7.563q.085.325.162.652a.931.931 0 0 0-.545 1.78q.456.152.95.273c.632 3.99.37 8.01-.782 11.77-.41 1.34-.996 2.768-1.617 4.28-1.453 3.541-3.1 7.555-3.126 12.007a.93.93 0 0 0 .927.938h.005a.93.93 0 0 0 .932-.927c.023-4.09 1.597-7.926 2.986-11.31.637-1.554 1.24-3.021 1.675-4.442 1.172-3.826 1.485-7.9.937-11.954 1.478.2 3.048.269 4.494.269.757 0 1.479-.019 2.136-.047.15.805.419 1.578.795 2.3a20.4 20.4 0 0 1-4.658 1.191.932.932 0 0 0 .248 1.847 22.2 22.2 0 0 0 5.484-1.456q.192.225.401.44a8.32 8.32 0 0 0 5.963 2.492c1.54 0 3.047-.422 4.356-1.221a3.17 3.17 0 0 1 3.313.004 8.3 8.3 0 0 0 2.136.92.932.932 0 0 0 .492-1.797 6.5 6.5 0 0 1-1.658-.715 5.03 5.03 0 0 0-5.254-.003 6.5 6.5 0 0 1-3.385.949 6.47 6.47 0 0 1-4.601-1.905c.472-.258.736-.436.77-.46a.93.93 0 0 0-1.05-1.539 10 10 0 0 1-.851.487 6.4 6.4 0 0 1-.62-1.645c.82-.062 1.35-.122 1.432-.131a.932.932 0 0 0-.213-1.852c-.02.002-.538.06-1.368.123.035-.56.144-1.1.316-1.614.488.096.78.127.823.132a.931.931 0 0 0 .188-1.854l-.115-.016a6.67 6.67 0 0 1 4.396-2.68c.088 1.361.941 2.968 2.323 4.35 1.46 1.46 3.172 2.333 4.58 2.333 1.406 0 3.118-.872 4.578-2.333 1.387-1.386 2.241-3 2.324-4.363a6.46 6.46 0 0 1 3.745 1.878q.4.408.719.868a.932.932 0 0 0 .37 1.817c.032-.004.201-.022.487-.07q.232.737.284 1.523c-.612-.05-.983-.092-1-.094a.932.932 0 0 0-.213 1.852 37 37 0 0 0 1.068.102 6.5 6.5 0 0 1-.55 1.517 8 8 0 0 1-.555-.329.932.932 0 0 0-1.053 1.538c.029.02.208.14.524.322a6.54 6.54 0 0 1-2.56 1.67.932.932 0 0 0 .626 1.755 8.4 8.4 0 0 0 3.662-2.57 22 22 0 0 0 5.766 1.575.932.932 0 0 0 .248-1.847 20.3 20.3 0 0 1-4.975-1.318 8.4 8.4 0 0 0 .744-2.19c.752.037 1.603.064 2.504.064 1.446 0 3.016-.07 4.494-.27-.548 4.054-.235 8.129.937 11.954.436 1.422 1.038 2.89 1.676 4.445l.262.64a.932.932 0 0 0 1.725-.705M54.334 64.018c-1.98 0-5.047-3.066-5.047-5.047 0-.279 0-1.019 1.453-1.56.889-.33 2.166-.513 3.594-.513 1.43 0 2.706.182 3.595.513 1.453.541 1.453 1.281 1.453 1.56 0 1.98-3.066 5.047-5.048 5.047"/></g></svg>