<svg xmlns="http://www.w3.org/2000/svg" width="114" height="146" fill="none" viewBox="0 0 114 146"><path fill="#a8c5ff" d="M53.91 5.148a6.02 6.02 0 0 1 9.046 0 6.02 6.02 0 0 0 7.51 1.253c3.153-1.803 7.173-.423 8.554 2.937a6.02 6.02 0 0 0 6.696 3.623c3.568-.68 6.922 1.93 7.138 5.556a6.02 6.02 0 0 0 5.156 5.601c3.596.515 5.921 4.073 4.948 7.573a6.02 6.02 0 0 0 3.058 6.972c3.234 1.654 4.277 5.774 2.22 8.768a6.02 6.02 0 0 0 .629 7.588c2.522 2.614 2.171 6.85-.747 9.014a6.02 6.02 0 0 0-1.869 7.38c1.536 3.292-.171 7.184-3.633 8.284a6.02 6.02 0 0 0-4.165 6.373c.385 3.613-2.494 6.74-6.125 6.655a6.02 6.02 0 0 0-6.009 4.676c-.81 3.541-4.547 5.564-7.954 4.305a6.02 6.02 0 0 0-7.202 2.472c-1.915 3.087-6.107 3.786-8.921 1.489a6.02 6.02 0 0 0-7.614 0c-2.814 2.297-7.006 1.598-8.921-1.489a6.02 6.02 0 0 0-7.201-2.472c-3.408 1.259-7.145-.764-7.955-4.305a6.02 6.02 0 0 0-6.008-4.676 6.02 6.02 0 0 1-6.126-6.655 6.02 6.02 0 0 0-4.165-6.373c-3.462-1.1-5.169-4.992-3.633-8.284a6.02 6.02 0 0 0-1.869-7.38c-2.918-2.164-3.269-6.4-.747-9.014a6.02 6.02 0 0 0 .629-7.588c-2.057-2.994-1.014-7.114 2.22-8.768a6.02 6.02 0 0 0 3.059-6.972c-.974-3.5 1.35-7.058 4.947-7.573a6.02 6.02 0 0 0 5.156-5.601c.216-3.626 3.57-6.236 7.138-5.556a6.02 6.02 0 0 0 6.696-3.623c1.381-3.36 5.401-4.74 8.555-2.937a6.02 6.02 0 0 0 7.51-1.253"/><path fill="#a8c5ff" d="M26.473 76.33h60.343v52.97c0 7.389-7.737 12.226-14.38 8.991l-11.412-5.56a10 10 0 0 0-8.759 0l-11.413 5.56c-6.642 3.235-14.379-1.602-14.379-8.991z"/><path fill="#da39a1" d="M26.473 76.33H81.07v46.493c0 7.391-7.742 12.228-14.385 8.987l-8.528-4.161a10 10 0 0 0-8.77 0l-8.528 4.161c-6.643 3.241-14.385-1.596-14.385-8.987z"/><path fill="#072a6f" d="M49.979 5.823a5.916 5.916 0 0 1 8.889 0 5.916 5.916 0 0 0 7.38 1.231 5.916 5.916 0 0 1 8.407 2.887 5.916 5.916 0 0 0 6.58 3.56 5.916 5.916 0 0 1 7.015 5.46 5.916 5.916 0 0 0 5.068 5.505 5.916 5.916 0 0 1 4.862 7.442 5.916 5.916 0 0 0 3.005 6.852 5.916 5.916 0 0 1 2.183 8.617 5.916 5.916 0 0 0 .617 7.457 5.915 5.915 0 0 1-.734 8.859 5.916 5.916 0 0 0-1.836 7.253 5.917 5.917 0 0 1-3.571 8.14 5.916 5.916 0 0 0-4.093 6.264 5.916 5.916 0 0 1-6.02 6.54 5.916 5.916 0 0 0-5.904 4.596 5.917 5.917 0 0 1-7.818 4.231 5.915 5.915 0 0 0-7.077 2.429 5.916 5.916 0 0 1-8.768 1.463 5.92 5.92 0 0 0-7.482 0 5.916 5.916 0 0 1-8.768-1.463 5.915 5.915 0 0 0-7.077-2.429 5.917 5.917 0 0 1-7.818-4.231 5.916 5.916 0 0 0-5.904-4.596 5.916 5.916 0 0 1-6.02-6.54 5.916 5.916 0 0 0-4.093-6.264 5.916 5.916 0 0 1-3.57-8.14 5.916 5.916 0 0 0-1.837-7.253 5.916 5.916 0 0 1-.735-8.859 5.916 5.916 0 0 0 .618-7.457A5.916 5.916 0 0 1 7.66 38.76a5.916 5.916 0 0 0 3.006-6.852 5.916 5.916 0 0 1 4.862-7.442 5.916 5.916 0 0 0 5.068-5.504 5.916 5.916 0 0 1 7.014-5.46 5.916 5.916 0 0 0 6.58-3.561 5.916 5.916 0 0 1 8.408-2.887 5.916 5.916 0 0 0 7.38-1.231"/><circle cx="54.041" cy="54.041" r="39.528" fill="#fff"/><path fill="#fa67c7" d="M25.783 20.242c.215-1 1.42-1.416 2.207-.762l5.856 4.87c.282.235.649.346 1.016.307l7.604-.812a1.352 1.352 0 0 1 1.403 1.851l-2.865 7.066a1.35 1.35 0 0 0 .017 1.057l3.1 6.945c.415.932-.317 1.974-1.34 1.906l-7.627-.504a1.37 1.37 0 0 0-1.005.347l-5.69 5.104c-.763.685-1.982.317-2.23-.673l-1.849-7.377a1.35 1.35 0 0 0-.638-.843l-6.615-3.79a1.352 1.352 0 0 1-.04-2.322l6.485-4.056c.313-.195.533-.508.61-.867z"/><path fill="#da39a1" d="M17.099 56.589a.72.72 0 0 1 .42-1.154l3.933-.776a.72.72 0 0 0 .462-.313l2.191-3.375a.71.71 0 0 1 1.221.041l1.936 3.514a.7.7 0 0 0 .437.344l3.865 1.038c.519.14.701.784.334 1.18l-2.736 2.947a.72.72 0 0 0-.192.526l.197 4.017a.716.716 0 0 1-1.015.688l-3.626-1.693a.7.7 0 0 0-.556-.019l-3.743 1.444a.71.71 0 0 1-.961-.754l.495-3.994a.72.72 0 0 0-.152-.537z"/><path fill="#999" d="M76.208 55.923a8.25 8.25 0 0 0 2.024 3.218c8.729-3.786 9.979-11.221 9.94-15.337a8.3 8.3 0 0 0-1.53-4.702 8.36 8.36 0 0 1-.717-8.418l1.981-4.153c-17.22 3.228-24.14 10.71-26.88 15.567 7.085 1.608 12.815 6.899 15.182 13.825"/><path fill="#737373" d="M80.382 56.754c-1.485-7.288-5.486-11.082-9.116-13.053-3.398-1.846-3.686-6.633-.4-8.671 5.45-3.38 12.774-5.943 16.403-7.162l.637-1.337c-17.22 3.228-24.14 10.71-26.88 15.567 7.085 1.608 12.815 6.899 15.182 13.825a8.25 8.25 0 0 0 2.024 3.218 19 19 0 0 0 2.417-1.268 18 18 0 0 1-.267-1.119"/><path fill="#999" d="M36.792 55.923a8.25 8.25 0 0 1-2.024 3.218c-8.729-3.786-9.979-11.221-9.94-15.337a8.3 8.3 0 0 1 1.53-4.702 8.36 8.36 0 0 0 .717-8.418l-1.981-4.153c17.22 3.228 24.14 10.71 26.88 15.567-7.085 1.608-12.815 6.899-15.182 13.825"/><path fill="#737373" d="M32.618 56.754c1.485-7.288 5.486-11.082 9.116-13.053 3.398-1.846 3.686-6.633.4-8.671-5.45-3.38-12.774-5.943-16.403-7.162l-.637-1.337c17.22 3.228 24.14 10.71 26.88 15.567-7.085 1.608-12.815 6.899-15.182 13.825a8.25 8.25 0 0 1-2.024 3.218 19 19 0 0 1-2.417-1.268 18 18 0 0 0 .267-1.119"/><path fill="#999" d="M81.374 61.093c-2.436-.852-4.331-2.729-5.166-5.17C73.354 47.57 65.616 41.58 56.5 41.58s-16.854 5.992-19.708 14.343c-.835 2.441-2.73 4.318-5.166 5.17-2.59.905-4.079 2.357-4.079 4.68 0 6.856 12.963 18.696 28.953 18.696s28.953-11.84 28.953-18.696c0-2.323-1.49-3.775-4.079-4.68"/><path fill="#737373" d="M56.5 81.329c-14.748 0-26.911-10.07-28.714-17.014a4.5 4.5 0 0 0-.239 1.458c0 6.856 12.963 18.696 28.953 18.696s28.953-11.84 28.953-18.696a4.5 4.5 0 0 0-.24-1.458C83.412 71.26 71.249 81.33 56.5 81.33"/><path fill="#bdbdbd" d="M59.764 68.817c.1 2.688.7 5 2.15 6.672 1.752-1.665 2.557-3.673 2.454-6.011l-.923-1.592zm-6.528 0c-.1 2.688-.7 5-2.15 6.672-1.752-1.665-2.557-3.673-2.454-6.011l.923-1.592z"/><path fill="#737373" d="M65.6 66.965c0 4.584-4.074 1.494-9.1 1.494s-9.1 3.09-9.1-1.494c0-4.585 4.074-8.707 9.1-8.707s9.1 4.122 9.1 8.707"/><path fill="#394240" d="M81.72 60.104a7.5 7.5 0 0 1-1.547-.75c7.909-4.206 9.085-11.475 9.047-15.559a9.3 9.3 0 0 0-1.724-5.297 7.32 7.32 0 0 1-.626-7.363l1.98-4.153a1.046 1.046 0 0 0-1.137-1.48c-3.815.715-7.356 1.683-10.524 2.879a1.046 1.046 0 1 0 .738 1.959c2.485-.937 5.212-1.73 8.13-2.367l-1.077 2.26a9.41 9.41 0 0 0 .806 9.472 7.2 7.2 0 0 1 1.34 4.11c.034 3.713-1.067 10.412-8.643 14.047a7.2 7.2 0 0 1-1.285-2.278 22.5 22.5 0 0 0-5.136-8.385 17 17 0 0 1 4.613-3.598 1.046 1.046 0 1 0-.98-1.85 19.1 19.1 0 0 0-5.15 4.008 22 22 0 0 0-2.59-1.9c1.228-2.017 4.939-6.889 12.567-7.915a1.048 1.048 0 0 0-.28-2.076c-8.558 1.153-12.738 6.694-14.112 8.962a21.6 21.6 0 0 0-3.48-1.377c1.873-2.836 5.317-6.496 11.566-9.525a1.046 1.046 0 1 0-.914-1.883c-7.122 3.452-10.869 7.731-12.8 10.881a21.3 21.3 0 0 0-4.002-.393 21.3 21.3 0 0 0-4.01.395c-3.32-5.438-10.712-12.336-27.204-15.425a1.047 1.047 0 0 0-1.137 1.48l1.981 4.152a7.32 7.32 0 0 1-.626 7.363 9.3 9.3 0 0 0-1.724 5.297c-.037 4.091 1.14 11.357 9.046 15.56a7.5 7.5 0 0 1-1.546.749c-3.171 1.11-4.78 3.017-4.78 5.669 0 3.83 3.365 8.685 8.78 12.67a1.047 1.047 0 1 0 1.241-1.686c-4.741-3.489-7.927-7.903-7.927-10.984 0-1.169.384-2.645 3.377-3.692 2.76-.965 4.878-3.087 5.811-5.82 2.788-8.155 10.31-13.634 18.718-13.634s15.929 5.479 18.717 13.634c.935 2.734 3.054 4.855 5.812 5.82 2.993 1.047 3.377 2.523 3.377 3.692 0 5.886-12.065 17.65-27.906 17.65-5.379 0-10.844-1.4-15.807-4.045a1.048 1.048 0 0 0-.984 1.848c5.264 2.807 11.07 4.29 16.791 4.29 16.27 0 30-12.127 30-19.743 0-2.652-1.609-4.559-4.78-5.67m-45.919-4.52a7.2 7.2 0 0 1-1.282 2.276c-7.572-3.634-8.68-10.327-8.645-14.045a7.2 7.2 0 0 1 1.34-4.109 9.41 9.41 0 0 0 .806-9.473l-1.079-2.26c13.758 2.985 20.299 8.739 23.41 13.48a21.6 21.6 0 0 0-3.484 1.378c-1.336-2.194-5.536-7.809-14.11-8.963a1.048 1.048 0 0 0-.28 2.075c7.634 1.028 11.365 5.955 12.566 7.917a22 22 0 0 0-2.588 1.899 19 19 0 0 0-5.151-4.008 1.047 1.047 0 0 0-.98 1.85 17 17 0 0 1 4.614 3.598 22.5 22.5 0 0 0-5.137 8.385"/><path fill="#394240" d="M56.5 57.212c-5.5 0-10.148 4.466-10.148 9.753 0 1.405.353 2.375 1.079 2.961.05.041.106.066.158.102.04 2.406.964 4.498 2.776 6.22a1.045 1.045 0 0 0 1.511-.073c1.365-1.574 2.13-3.7 2.35-6.47a14.5 14.5 0 0 1 2.274-.199c.78 0 1.542.082 2.274.199.219 2.772.985 4.897 2.35 6.47a1.05 1.05 0 0 0 1.511.073c1.812-1.721 2.736-3.813 2.776-6.218.052-.036.108-.063.158-.104.726-.586 1.079-1.556 1.079-2.961 0-5.287-4.648-9.754-10.148-9.754m-5.513 16.613a6.2 6.2 0 0 1-1.276-3.319c.723-.041 1.517-.2 2.367-.382-.172 1.48-.526 2.714-1.091 3.7m11.026 0c-.565-.986-.917-2.22-1.09-3.7.85.18 1.643.337 2.366.379-.107 1.232-.52 2.335-1.276 3.32m2.24-5.526c-.39.314-1.79.014-3.029-.25-1.325-.284-2.974-.637-4.724-.637s-3.4.353-4.725.636c-1.238.265-2.641.563-3.027.25-.19-.153-.302-.651-.302-1.333 0-4.152 3.688-7.66 8.054-7.66s8.054 3.508 8.054 7.66c0 .682-.112 1.18-.302 1.334M66.03 54.99a1.047 1.047 0 0 0-1.42.418 3.36 3.36 0 0 0 .455 3.858l.112.124a1.04 1.04 0 0 0 1.478.078c.43-.388.464-1.05.078-1.479l-.113-.124a1.27 1.27 0 0 1-.172-1.455 1.046 1.046 0 0 0-.418-1.42m-19.761 2.998a1.047 1.047 0 0 0 1.553 1.404l.113-.125a3.365 3.365 0 0 0 .455-3.859 1.046 1.046 0 1 0-1.838 1.002 1.27 1.27 0 0 1-.171 1.454z"/><path fill="#394240" d="m53.52 62.638-1.269 1.045a1.048 1.048 0 0 0 1.331 1.617l1.27-1.045a1.048 1.048 0 0 0-1.332-1.617m5.96.002a1.044 1.044 0 0 0-1.473.141 1.045 1.045 0 0 0 .142 1.473l1.269 1.045a1.043 1.043 0 0 0 1.473-.142 1.045 1.045 0 0 0-.142-1.473z"/></svg>