<svg xmlns="http://www.w3.org/2000/svg" width="114" height="146" fill="none" viewBox="0 0 114 146"><path fill="#a8c5ff" d="M53.91 5.148a6.02 6.02 0 0 1 9.046 0 6.02 6.02 0 0 0 7.51 1.253c3.153-1.803 7.173-.423 8.554 2.937a6.02 6.02 0 0 0 6.696 3.623c3.568-.68 6.922 1.93 7.138 5.556a6.02 6.02 0 0 0 5.156 5.602c3.596.514 5.921 4.072 4.948 7.572a6.02 6.02 0 0 0 3.058 6.972c3.234 1.654 4.277 5.774 2.22 8.768a6.02 6.02 0 0 0 .629 7.588 6.02 6.02 0 0 1-.747 9.014 6.02 6.02 0 0 0-1.869 7.38c1.536 3.292-.171 7.184-3.633 8.284a6.02 6.02 0 0 0-4.164 6.373c.383 3.613-2.495 6.74-6.126 6.655a6.02 6.02 0 0 0-6.009 4.676c-.81 3.541-4.547 5.564-7.954 4.305a6.02 6.02 0 0 0-7.201 2.472 6.02 6.02 0 0 1-8.922 1.489 6.02 6.02 0 0 0-7.614 0c-2.814 2.297-7.006 1.598-8.921-1.489a6.02 6.02 0 0 0-7.201-2.472c-3.408 1.259-7.145-.764-7.955-4.305a6.02 6.02 0 0 0-6.008-4.676 6.02 6.02 0 0 1-6.126-6.655 6.02 6.02 0 0 0-4.165-6.373c-3.462-1.1-5.169-4.992-3.633-8.284a6.02 6.02 0 0 0-1.869-7.38c-2.918-2.164-3.269-6.4-.747-9.014a6.02 6.02 0 0 0 .629-7.588c-2.057-2.994-1.014-7.114 2.22-8.768a6.02 6.02 0 0 0 3.059-6.972 6.018 6.018 0 0 1 4.947-7.572 6.02 6.02 0 0 0 5.156-5.602c.216-3.626 3.57-6.236 7.138-5.556a6.02 6.02 0 0 0 6.696-3.623c1.382-3.36 5.401-4.74 8.555-2.937a6.02 6.02 0 0 0 7.51-1.253"/><path fill="#a8c5ff" d="M26.473 76.33h60.343v52.97c0 7.389-7.737 12.226-14.38 8.991l-11.412-5.56a10 10 0 0 0-8.759 0l-11.413 5.56c-6.642 3.235-14.379-1.602-14.379-8.991z"/><path fill="#da39a1" d="M26.473 76.33H81.07v46.493c0 7.391-7.742 12.228-14.385 8.987l-8.528-4.161a10 10 0 0 0-8.77 0l-8.528 4.161c-6.643 3.241-14.385-1.596-14.385-8.987z"/><path fill="#072a6f" d="M49.979 5.823a5.916 5.916 0 0 1 8.889 0 5.916 5.916 0 0 0 7.38 1.231 5.916 5.916 0 0 1 8.407 2.887 5.916 5.916 0 0 0 6.58 3.56 5.916 5.916 0 0 1 7.015 5.46 5.916 5.916 0 0 0 5.068 5.505 5.916 5.916 0 0 1 4.862 7.442 5.916 5.916 0 0 0 3.005 6.852 5.916 5.916 0 0 1 2.183 8.617 5.916 5.916 0 0 0 .617 7.457 5.915 5.915 0 0 1-.734 8.859 5.916 5.916 0 0 0-1.836 7.253 5.917 5.917 0 0 1-3.571 8.14 5.916 5.916 0 0 0-4.093 6.264 5.916 5.916 0 0 1-6.02 6.54 5.916 5.916 0 0 0-5.904 4.596 5.917 5.917 0 0 1-7.818 4.231 5.915 5.915 0 0 0-7.077 2.429 5.916 5.916 0 0 1-8.768 1.463 5.92 5.92 0 0 0-7.482 0 5.916 5.916 0 0 1-8.768-1.463 5.915 5.915 0 0 0-7.077-2.429 5.917 5.917 0 0 1-7.818-4.231 5.916 5.916 0 0 0-5.904-4.596 5.916 5.916 0 0 1-6.02-6.54 5.916 5.916 0 0 0-4.093-6.264 5.916 5.916 0 0 1-3.57-8.14 5.916 5.916 0 0 0-1.837-7.253 5.916 5.916 0 0 1-.735-8.859 5.916 5.916 0 0 0 .618-7.457A5.916 5.916 0 0 1 7.66 38.76a5.916 5.916 0 0 0 3.006-6.852 5.916 5.916 0 0 1 4.862-7.442 5.916 5.916 0 0 0 5.068-5.504 5.916 5.916 0 0 1 7.014-5.46 5.916 5.916 0 0 0 6.58-3.561 5.916 5.916 0 0 1 8.408-2.887 5.916 5.916 0 0 0 7.38-1.231"/><circle cx="54.041" cy="54.041" r="39.528" fill="#fff"/><path fill="#fa67c7" d="M25.783 20.242a1.367 1.367 0 0 1 2.207-.762l5.856 4.87c.282.235.649.346 1.016.307l7.604-.812a1.352 1.352 0 0 1 1.403 1.851l-2.865 7.066a1.35 1.35 0 0 0 .017 1.057l3.1 6.945c.415.932-.317 1.974-1.34 1.906l-7.627-.504a1.37 1.37 0 0 0-1.005.347l-5.69 5.104c-.763.685-1.982.317-2.23-.673l-1.849-7.377a1.35 1.35 0 0 0-.638-.843l-6.615-3.79a1.352 1.352 0 0 1-.04-2.322l6.485-4.056c.313-.195.533-.508.61-.867z"/><path fill="#da39a1" d="M17.099 56.589a.72.72 0 0 1 .42-1.154l3.933-.776a.72.72 0 0 0 .462-.313l2.191-3.375a.71.71 0 0 1 1.222.041l1.935 3.514a.7.7 0 0 0 .437.344l3.865 1.038c.519.14.701.784.334 1.18l-2.736 2.947a.72.72 0 0 0-.192.526l.197 4.017a.716.716 0 0 1-1.015.688l-3.626-1.693a.7.7 0 0 0-.556-.019l-3.743 1.444a.71.71 0 0 1-.961-.754l.495-3.994a.72.72 0 0 0-.152-.537z"/><path fill="#ff8c95" d="M74.931 71.435c-2.961 1.46-6.348 1.44-9.452.514 1.042 2.597 3.16 4.608 5.898 5.231 2.347.535 1.983 3.994-.398 3.994-2.312 0-5.386-.803-7.613-2.583 2.893 2.303-.345 6.753-3.37 4.627-2.312-1.624-4.456-5.163-4.998-11.486-.543 6.323-2.687 9.862-4.998 11.486-3.025 2.127-6.263-2.325-3.37-4.627-1.867 1.486-4.423 2.456-7.512 2.581-2.465.1-2.882-3.451-.5-3.992 2.798-.635 4.855-2.634 5.898-5.23-1.945.58-5.746 1.312-9.452-.515-13.775-6.79-3.597-28.747-5.613-31.552-.632-.88-.593-2.08.012-2.978 1.424-2.114 4.741-1.24 4.9 1.304.57 9.08-6.451 28.259 5.9 28.259 3.158 0 5.239-1.62 5.507-6.233 4.068-7.28 14.406-7.268 18.455-.002.269 4.613 2.349 6.235 5.507 6.235 12.351 0 5.33-19.179 5.9-28.26.159-2.542 3.477-3.417 4.9-1.303.606.899.644 2.098.012 2.978-2.016 2.805 8.162 24.762-5.613 31.552"/><path fill="#ff6d7a" d="M66.78 57.028c-.145 1.704-1.294 2.976-2.655 3.226a50.4 50.4 0 0 1-18.255 0c-1.363-.25-2.51-1.525-2.655-3.226C41.91 41.8 45.51 26.693 53.292 14.43c.837-1.322 2.574-1.322 3.411 0 7.552 11.9 11.42 26.932 10.077 42.598"/><path fill="#ffaeb5" d="M71.426 67.12c-1.193 0-2.232-.23-3.078-.769q.43.05.892.049c12.35 0 5.33-19.179 5.9-28.26.146-2.34 2.97-3.268 4.528-1.747-1.18.148-2.255 1.047-2.342 2.468-.57 9.08 6.451 28.26-5.9 28.26m-26.334 9.827c-1.247 1.96-3.108 3.593-6.466 4.156-2.465.1-2.883-3.452-.5-3.992a7.97 7.97 0 0 0 4.09-2.358c1.432-1.532 4.08.302 2.876 2.194m-5.949-10.566c4.178.25 5.892-2.049 6.134-6.215 0-.015 1.38.303 3.81.567.81 7.949-7.221 7.835-9.944 5.648m-4.735 4.902c-13.53-6.882-3.442-28.673-5.45-31.47-.632-.879-.592-2.078.013-2.977 1.631-2.423 5.342-.811 4.759 2.04-.94 4.597-6.622 21.188.678 32.407"/><path fill="#e84857" d="M56.656 15.075c11.237 7.994 18.584 17.593 7.95 19.255a27.48 27.48 0 0 1-7.95-19.255m-4.3 0c.677 7.444-2.358 14.566-7.95 19.255-10.634-1.662-3.287-11.261 7.95-19.255"/><path fill="#ff8c95" d="M56.334 17.094c-1.547 2.96-4.793 10.547-6.183 19.827a71 71 0 0 0 .308 22.691c.082.469.24.904.46 1.29a50 50 0 0 1-5.54-.715c-1.328-.236-2.507-1.492-2.655-3.226-1.344-15.668 2.525-30.7 10.076-42.598.837-1.323 2.575-1.323 3.412 0 .54.851.563 1.886.122 2.73"/><path fill="#394240" d="M81.055 40.5c.893-1.264.89-3.004-.009-4.34-2.075-3.082-6.886-1.785-7.117 1.906-.45 7.193 3.751 20.874-.313 25.484-1.788 2.028-5.661 2.031-7.098.844a1.213 1.213 0 0 0-1.545 1.87c2.442 2.018 7.798 1.912 10.462-1.11 5.08-5.761.455-19.597.915-26.936.087-1.387 1.905-1.86 2.684-.703.34.506.355 1.146.034 1.593-2.611 3.635 7.846 24.76-5.164 31.172-2.977 1.468-6.102 1.08-7.996.597a9.7 9.7 0 0 1-.383-1.658 1.213 1.213 0 0 0-2.402.338c.633 4.486 3.504 7.834 7.495 8.738.956.217.808 1.642-.183 1.597-4.797-.196-8.548-2.702-9.556-6.384a1.213 1.213 0 1 0-2.34.64c.582 2.125 1.842 3.942 3.58 5.325 1.688 1.344-.191 3.9-1.918 2.686-1.422-1-3.896-3.707-4.487-10.599a1.213 1.213 0 0 0-2.417 0c-.591 6.892-3.065 9.599-4.487 10.598-1.727 1.215-3.606-1.341-1.918-2.685 1.724-1.368 2.996-3.191 3.58-5.324a1.213 1.213 0 1 0-2.34-.64c-1.008 3.681-4.758 6.187-9.555 6.383-1 .044-1.134-1.382-.183-1.597 3.99-.904 6.862-4.252 7.494-8.738a1.213 1.213 0 0 0-2.402-.339 9.7 9.7 0 0 1-.383 1.659c-1.893.483-5.019.87-7.996-.597-13.045-6.43-2.53-27.505-5.164-31.173-.32-.446-.306-1.086.035-1.592.778-1.156 2.596-.684 2.683.703.46 7.35-4.17 21.17.915 26.936 2.9 3.289 11.567 4.463 12.774-3.567 5.64.912 11.52.905 17.505-.207 1.958-.364 3.455-2.139 3.642-4.317 1.12-13.075-1.331-26.133-6.943-37.445 2.776 2.343 9.757 8.94 7.622 11.858a1.213 1.213 0 0 0 1.958 1.433c4.047-5.532-7.006-14.691-12.582-18.685-.751-1.212-1.527-2.065-3.046-2.065-1.534 0-2.306.872-3.047 2.066-6.071 4.348-17.43 14.015-12.08 19.262a1.213 1.213 0 1 0 1.698-1.732c-2.776-2.724 4.246-9.477 7.375-12.126-5.608 11.31-8.058 24.363-6.938 37.435.147 1.718 1.112 3.182 2.473 3.903-.74 5.878-6.836 4.573-8.59 2.583-4.07-4.615.138-18.273-.314-25.484-.233-3.702-5.047-4.98-7.117-1.906-.9 1.336-.902 3.077-.009 4.34 1.176 2.808-8.23 24.904 6.078 31.957 2.38 1.173 4.988 1.48 7.57 1.164a6.83 6.83 0 0 1-3.747 2.309c-3.776.855-3.155 6.55.818 6.387 1.866-.077 3.606-.453 5.154-1.082.373 2.863 3.601 4.859 6.376 2.908 1.874-1.317 3.335-3.484 4.3-6.311.964 2.827 2.425 4.994 4.3 6.312 2.713 1.906 5.992.036 6.376-2.909 1.547.629 3.287 1.005 5.153 1.082 3.974.162 4.595-5.532.819-6.387-1.491-.339-2.775-1.15-3.748-2.309 2.587.316 5.195.006 7.57-1.164 14.316-7.057 4.9-29.143 6.079-31.957m-27.23-25.488c.36-.568.998-.575 1.362 0 7.656 12.09 11.17 26.95 9.894 41.845-.094 1.093-.78 1.973-1.669 2.138a48.6 48.6 0 0 1-17.812 0c-.889-.165-1.575-1.045-1.669-2.139-1.276-14.894 2.238-29.754 9.894-41.844"/><path fill="#394240" d="M57.906 66.923a1.213 1.213 0 1 0 0-2.426 1.213 1.213 0 0 0 0 2.426m-6.799 0a1.213 1.213 0 1 0 0-2.426 1.213 1.213 0 0 0 0 2.426"/></svg>