<svg xmlns="http://www.w3.org/2000/svg" width="114" height="146" fill="none" viewBox="0 0 114 146"><path fill="#a8c5ff" d="M53.91 5.148a6.02 6.02 0 0 1 9.046 0 6.02 6.02 0 0 0 7.51 1.253c3.153-1.803 7.173-.423 8.554 2.937a6.02 6.02 0 0 0 6.696 3.623c3.568-.68 6.922 1.93 7.138 5.556a6.02 6.02 0 0 0 5.156 5.601c3.596.515 5.921 4.073 4.948 7.573a6.02 6.02 0 0 0 3.058 6.972c3.234 1.654 4.277 5.774 2.22 8.768a6.02 6.02 0 0 0 .629 7.588c2.522 2.614 2.171 6.85-.747 9.014a6.02 6.02 0 0 0-1.869 7.38c1.536 3.292-.171 7.184-3.633 8.284a6.02 6.02 0 0 0-4.165 6.373c.385 3.613-2.494 6.74-6.125 6.655a6.02 6.02 0 0 0-6.009 4.676c-.81 3.541-4.547 5.564-7.954 4.305a6.02 6.02 0 0 0-7.202 2.472c-1.915 3.087-6.107 3.786-8.921 1.489a6.02 6.02 0 0 0-7.614 0c-2.814 2.297-7.006 1.598-8.921-1.489a6.02 6.02 0 0 0-7.201-2.472c-3.408 1.259-7.145-.764-7.955-4.305a6.02 6.02 0 0 0-6.008-4.676 6.02 6.02 0 0 1-6.126-6.655 6.02 6.02 0 0 0-4.165-6.373c-3.462-1.1-5.169-4.992-3.633-8.284a6.02 6.02 0 0 0-1.869-7.38c-2.918-2.164-3.269-6.4-.747-9.014a6.02 6.02 0 0 0 .629-7.588c-2.057-2.994-1.014-7.114 2.22-8.768a6.02 6.02 0 0 0 3.059-6.972c-.974-3.5 1.35-7.058 4.947-7.573a6.02 6.02 0 0 0 5.156-5.601c.216-3.626 3.57-6.236 7.138-5.556a6.02 6.02 0 0 0 6.696-3.623c1.381-3.36 5.401-4.74 8.555-2.937a6.02 6.02 0 0 0 7.51-1.253"/><path fill="#a8c5ff" d="M26.473 76.33h60.343v52.97c0 7.389-7.737 12.226-14.38 8.991l-11.412-5.56a10 10 0 0 0-8.759 0l-11.413 5.56c-6.642 3.235-14.379-1.602-14.379-8.991z"/><path fill="#da39a1" d="M26.473 76.33H81.07v46.493c0 7.391-7.742 12.228-14.385 8.987l-8.528-4.161a10 10 0 0 0-8.77 0l-8.528 4.161c-6.643 3.241-14.385-1.596-14.385-8.987z"/><path fill="#072a6f" d="M49.979 5.823a5.916 5.916 0 0 1 8.889 0 5.916 5.916 0 0 0 7.38 1.231 5.916 5.916 0 0 1 8.407 2.887 5.916 5.916 0 0 0 6.58 3.56 5.916 5.916 0 0 1 7.015 5.46 5.916 5.916 0 0 0 5.068 5.505 5.916 5.916 0 0 1 4.862 7.442 5.916 5.916 0 0 0 3.005 6.852 5.916 5.916 0 0 1 2.183 8.617 5.916 5.916 0 0 0 .617 7.457 5.915 5.915 0 0 1-.734 8.859 5.916 5.916 0 0 0-1.836 7.253 5.917 5.917 0 0 1-3.571 8.14 5.916 5.916 0 0 0-4.093 6.264 5.916 5.916 0 0 1-6.02 6.54 5.916 5.916 0 0 0-5.904 4.596 5.917 5.917 0 0 1-7.818 4.231 5.915 5.915 0 0 0-7.077 2.429 5.916 5.916 0 0 1-8.768 1.463 5.92 5.92 0 0 0-7.482 0 5.916 5.916 0 0 1-8.768-1.463 5.915 5.915 0 0 0-7.077-2.429 5.917 5.917 0 0 1-7.818-4.231 5.916 5.916 0 0 0-5.904-4.596 5.916 5.916 0 0 1-6.02-6.54 5.916 5.916 0 0 0-4.093-6.264 5.916 5.916 0 0 1-3.57-8.14 5.916 5.916 0 0 0-1.837-7.253 5.916 5.916 0 0 1-.735-8.859 5.916 5.916 0 0 0 .618-7.457A5.916 5.916 0 0 1 7.66 38.76a5.916 5.916 0 0 0 3.006-6.852 5.916 5.916 0 0 1 4.862-7.442 5.916 5.916 0 0 0 5.068-5.504 5.916 5.916 0 0 1 7.014-5.46 5.916 5.916 0 0 0 6.58-3.561 5.916 5.916 0 0 1 8.408-2.887 5.916 5.916 0 0 0 7.38-1.231"/><circle cx="54.041" cy="54.041" r="39.528" fill="#fff"/><path fill="#fa67c7" d="M25.783 20.242c.215-1 1.42-1.416 2.207-.762l5.856 4.87c.282.235.649.346 1.016.307l7.604-.812a1.352 1.352 0 0 1 1.403 1.851l-2.865 7.066a1.35 1.35 0 0 0 .017 1.057l3.1 6.945c.415.932-.317 1.974-1.34 1.906l-7.627-.504a1.37 1.37 0 0 0-1.005.347l-5.69 5.104c-.763.685-1.982.317-2.23-.673l-1.849-7.377a1.35 1.35 0 0 0-.638-.843l-6.615-3.79a1.352 1.352 0 0 1-.04-2.322l6.485-4.056c.313-.195.533-.508.61-.867z"/><path fill="#da39a1" d="M17.099 56.589a.72.72 0 0 1 .42-1.154l3.933-.776a.72.72 0 0 0 .462-.313l2.191-3.375a.71.71 0 0 1 1.221.041l1.936 3.514a.7.7 0 0 0 .437.344l3.865 1.038c.519.14.701.784.334 1.18l-2.736 2.947a.72.72 0 0 0-.192.526l.197 4.017a.716.716 0 0 1-1.015.688l-3.626-1.693a.7.7 0 0 0-.556-.019l-3.743 1.444a.71.71 0 0 1-.961-.754l.495-3.994a.72.72 0 0 0-.152-.537z"/><mask id="a" width="80" height="80" x="15" y="15" maskUnits="userSpaceOnUse" style="mask-type:alpha"><path fill="#fff" d="M94.057 54.528c0 21.831-17.698 39.529-39.529 39.529C32.698 94.057 15 76.358 15 54.527 15 32.698 32.697 15 54.528 15s39.529 17.697 39.529 39.528"/></mask><g mask="url(#a)"><path fill="#ccc2b8" d="M70.047 33.52c-.539 2.678-.517 4.728-.517 4.728l7.082 1.576-4.582 2.856 3.332 2.758-3.957 1.98 1.829 2.747c-16.167 4.219-13.746 24.644-13.746 24.644H48.433s2.42-20.425-13.746-24.644l1.83-2.748-3.958-1.98 3.332-2.757-4.582-2.856 7.082-1.576s.022-2.05-.517-4.727c-.636-3.16-2.054-7.191-5.21-9.75l4.893.653.209-3.312 4.999 3.312s4.5-2.917 11.196-2.917 11.195 2.917 11.195 2.917l5-3.312.207 3.312 4.894-.653c-3.156 2.559-4.574 6.59-5.21 9.75M64.58 45.892a5.51 5.51 0 0 1-4.396-3.031 6.97 6.97 0 0 0-2.512-2.797 6.933 6.933 0 0 0-9.934 2.796c-.926 1.884-2.858 3.062-4.957 3.062h.645c2.69 0 5.2 1.21 7.01 3.202.435.479.967 1.355 1.565 2.11.599.757 1.262 1.394 1.96 1.394 1.398 0 2.654-2.547 3.525-3.504 1.81-1.991 4.32-3.203 7.011-3.203h.08zm-5.092 28.917H48.433V99h11.055z"/><path fill="#f78a68" d="m64.579 45.891-.003.03h-.08c-2.692 0-5.201 1.211-7.011 3.202-.871.958-2.127 3.504-3.525 3.504-.698 0-1.362-.637-1.96-1.393s-1.13-1.632-1.564-2.11c-1.811-1.992-4.321-3.203-7.011-3.203h-.646c2.1 0 4.032-1.178 4.958-3.061a6.934 6.934 0 0 1 12.445 0 5.51 5.51 0 0 0 4.397 3.031"/><path fill="#394240" d="M46.74 42.37c-.73 1.48-2.284 2.439-3.96 2.439h-.668a1.112 1.112 0 0 0 0 2.224h1.313c2.292 0 4.547 1.035 6.187 2.838.19.21.441.568.707.947.243.346.517.738.809 1.106.668.846 1.594 1.816 2.833 1.816 1.592 0 2.724-1.617 3.634-2.915.268-.382.52-.742.713-.954 1.64-1.803 3.895-2.838 6.188-2.838h.08q.083 0 .163-.013.195.012.4.013h.67a1.112 1.112 0 0 0 0-2.224h-.67a4 4 0 0 1-.45-.024 4.37 4.37 0 0 1-3.509-2.416 8.06 8.06 0 0 0-2.912-3.244 8 8 0 0 0-4.308-1.25 8 8 0 0 0-7.22 4.494m12.445.982c.413.837.986 1.56 1.676 2.138a11 11 0 0 0-4.198 2.885c-.288.315-.58.732-.89 1.173-.357.51-.762 1.089-1.159 1.498-.449.464-.651.47-.653.47-.014 0-.33-.012-1.089-.971a22 22 0 0 1-.731-1.004c-.307-.438-.597-.851-.883-1.166a11 11 0 0 0-4.211-2.89 6.5 6.5 0 0 0 1.688-2.133 5.79 5.79 0 0 1 5.225-3.253 5.83 5.83 0 0 1 5.225 3.253m-1.491-20.413q.095.015.188.015a1.113 1.113 0 0 0 .185-2.208l-.186-.031a1.113 1.113 0 0 0-.358 2.195z"/><path fill="#394240" d="M77.708 39.637a1.11 1.11 0 0 0-.855-.898l-6.182-1.376a26 26 0 0 1 .304-2.73h3.62a1.112 1.112 0 0 0 0-2.224h-3.15c.687-2.628 2.002-5.738 4.513-7.774a1.112 1.112 0 0 0-.848-1.966l-3.712.495-.133-2.121a1.112 1.112 0 0 0-1.724-.858l-4.425 2.932a21.7 21.7 0 0 0-3.413-1.46 1.112 1.112 0 1 0-.705 2.11c2.22.742 3.542 1.583 3.553 1.59.371.241.85.239 1.22-.006l3.395-2.25.087 1.393a1.11 1.11 0 0 0 1.257 1.033l1.784-.238c-1.672 2.256-2.612 4.893-3.141 7.12h-8.94a1.112 1.112 0 0 0 0 2.224h1.99v1.252a1.112 1.112 0 0 0 2.225 0v-1.252h4.294c-.315 2.081-.304 3.553-.304 3.627.006.517.366.961.87 1.074l4.428.985-2.274 1.417a1.112 1.112 0 0 0-.121 1.8l2.018 1.67-2.431 1.216a1.112 1.112 0 0 0-.429 1.611l.995 1.495c-6.205 2.085-10.425 6.636-12.248 13.245-1.026 3.723-1.037 33.15-.944 34.923H49.64c.032-.61.051-27.415.021-28.36h1.936a1.112 1.112 0 0 0 0-2.225h-2.089a28 28 0 0 0-.367-2.44h2.456a1.112 1.112 0 0 0 0-2.225H48.6c-1.87-6.432-6.05-10.868-12.153-12.918l.995-1.495a1.112 1.112 0 0 0-.428-1.61l-2.432-1.217 2.018-1.67a1.112 1.112 0 0 0-.12-1.8l-2.274-1.417 4.426-.986c.504-.112.865-.557.87-1.073.001-.074.012-1.546-.303-3.627h4.294v1.252a1.112 1.112 0 0 0 2.224 0v-1.252h1.99a1.112 1.112 0 0 0 0-2.224h-8.939c-.529-2.227-1.47-4.864-3.142-7.12l1.785.238a1.114 1.114 0 0 0 1.257-1.033l.087-1.392 3.396 2.25c.367.243.846.245 1.217.006.043-.027 4.336-2.74 10.593-2.74a1.112 1.112 0 1 0 0-2.224c-5.546 0-9.635 1.894-11.157 2.722l-4.424-2.93a1.111 1.111 0 0 0-1.724.856l-.133 2.122-3.712-.495a1.111 1.111 0 0 0-.848 1.966c2.511 2.035 3.826 5.146 4.513 7.774h-3.15a1.112 1.112 0 0 0 0 2.224h3.62c.185 1.124.268 2.084.304 2.73l-6.183 1.376a1.112 1.112 0 0 0-.346 2.03l3.272 2.038-2.144 1.774a1.112 1.112 0 0 0 .212 1.852l2.831 1.416-1.13 1.7a1.112 1.112 0 0 0 .644 1.692c6.27 1.636 10.35 5.693 12.126 12.057 1.357 4.865.803 35.323.798 35.366a1.112 1.112 0 0 0 1.102 1.257h11.056a1.113 1.113 0 0 0 1.103-1.257c-.006-.044-.56-30.44.78-35.3 1.765-6.402 5.85-10.48 12.143-12.123a1.112 1.112 0 0 0 .645-1.693l-1.131-1.7 2.831-1.416a1.112 1.112 0 0 0 .212-1.851l-2.143-1.774 3.272-2.039c.383-.239.584-.686.508-1.13"/></g></svg>