<svg xmlns="http://www.w3.org/2000/svg" width="114" height="146" fill="none" viewBox="0 0 114 146"><path fill="#a8c5ff" d="M53.91 5.148a6.02 6.02 0 0 1 9.046 0 6.02 6.02 0 0 0 7.51 1.253c3.153-1.803 7.173-.423 8.554 2.937a6.02 6.02 0 0 0 6.696 3.623c3.568-.68 6.922 1.93 7.138 5.556a6.02 6.02 0 0 0 5.156 5.601c3.596.515 5.921 4.073 4.948 7.573a6.02 6.02 0 0 0 3.058 6.972c3.234 1.654 4.277 5.774 2.22 8.768a6.02 6.02 0 0 0 .629 7.588c2.522 2.614 2.171 6.85-.747 9.014a6.02 6.02 0 0 0-1.869 7.38c1.536 3.292-.171 7.184-3.633 8.284a6.02 6.02 0 0 0-4.165 6.373c.385 3.613-2.494 6.74-6.125 6.655a6.02 6.02 0 0 0-6.009 4.676c-.81 3.541-4.547 5.564-7.954 4.305a6.02 6.02 0 0 0-7.202 2.472c-1.915 3.087-6.107 3.786-8.921 1.489a6.02 6.02 0 0 0-7.614 0c-2.814 2.297-7.006 1.598-8.921-1.489a6.02 6.02 0 0 0-7.201-2.472c-3.408 1.259-7.145-.764-7.955-4.305a6.02 6.02 0 0 0-6.008-4.676 6.02 6.02 0 0 1-6.126-6.655 6.02 6.02 0 0 0-4.165-6.373c-3.462-1.1-5.169-4.992-3.633-8.284a6.02 6.02 0 0 0-1.869-7.38c-2.918-2.164-3.269-6.4-.747-9.014a6.02 6.02 0 0 0 .629-7.588c-2.057-2.994-1.014-7.114 2.22-8.768a6.02 6.02 0 0 0 3.059-6.972c-.974-3.5 1.35-7.058 4.947-7.573a6.02 6.02 0 0 0 5.156-5.601c.216-3.626 3.57-6.236 7.138-5.556a6.02 6.02 0 0 0 6.696-3.623c1.381-3.36 5.401-4.74 8.555-2.937a6.02 6.02 0 0 0 7.51-1.253"/><path fill="#a8c5ff" d="M26.473 76.33h60.343v52.97c0 7.389-7.737 12.226-14.38 8.991l-11.412-5.56a10 10 0 0 0-8.759 0l-11.413 5.56c-6.642 3.235-14.379-1.602-14.379-8.991z"/><path fill="#da39a1" d="M26.473 76.33H81.07v46.493c0 7.391-7.742 12.228-14.385 8.987l-8.528-4.161a10 10 0 0 0-8.77 0l-8.528 4.161c-6.643 3.241-14.385-1.596-14.385-8.987z"/><path fill="#072a6f" d="M49.979 5.823a5.916 5.916 0 0 1 8.889 0 5.916 5.916 0 0 0 7.38 1.231 5.916 5.916 0 0 1 8.407 2.887 5.916 5.916 0 0 0 6.58 3.56 5.916 5.916 0 0 1 7.015 5.46 5.916 5.916 0 0 0 5.068 5.505 5.916 5.916 0 0 1 4.862 7.442 5.916 5.916 0 0 0 3.005 6.852 5.916 5.916 0 0 1 2.183 8.617 5.916 5.916 0 0 0 .617 7.457 5.915 5.915 0 0 1-.734 8.859 5.916 5.916 0 0 0-1.836 7.253 5.917 5.917 0 0 1-3.571 8.14 5.916 5.916 0 0 0-4.093 6.264 5.916 5.916 0 0 1-6.02 6.54 5.916 5.916 0 0 0-5.904 4.596 5.917 5.917 0 0 1-7.818 4.231 5.915 5.915 0 0 0-7.077 2.429 5.916 5.916 0 0 1-8.768 1.463 5.92 5.92 0 0 0-7.482 0 5.916 5.916 0 0 1-8.768-1.463 5.915 5.915 0 0 0-7.077-2.429 5.917 5.917 0 0 1-7.818-4.231 5.916 5.916 0 0 0-5.904-4.596 5.916 5.916 0 0 1-6.02-6.54 5.916 5.916 0 0 0-4.093-6.264 5.916 5.916 0 0 1-3.57-8.14 5.916 5.916 0 0 0-1.837-7.253 5.916 5.916 0 0 1-.735-8.859 5.916 5.916 0 0 0 .618-7.457A5.916 5.916 0 0 1 7.66 38.76a5.916 5.916 0 0 0 3.006-6.852 5.916 5.916 0 0 1 4.862-7.442 5.916 5.916 0 0 0 5.068-5.504 5.916 5.916 0 0 1 7.014-5.46 5.916 5.916 0 0 0 6.58-3.561 5.916 5.916 0 0 1 8.408-2.887 5.916 5.916 0 0 0 7.38-1.231"/><circle cx="54.041" cy="54.041" r="39.528" fill="#fff"/><path fill="#fa67c7" d="M25.783 20.242c.215-1 1.42-1.416 2.207-.762l5.856 4.87c.282.235.649.346 1.016.307l7.604-.812a1.352 1.352 0 0 1 1.403 1.851l-2.865 7.066a1.35 1.35 0 0 0 .017 1.057l3.1 6.945c.415.932-.317 1.974-1.34 1.906l-7.627-.504a1.37 1.37 0 0 0-1.005.347l-5.69 5.104c-.763.685-1.982.317-2.23-.673l-1.849-7.377a1.35 1.35 0 0 0-.638-.843l-6.615-3.79a1.352 1.352 0 0 1-.04-2.322l6.485-4.056c.313-.195.533-.508.61-.867z"/><path fill="#da39a1" d="M17.099 56.589a.72.72 0 0 1 .42-1.154l3.933-.776a.72.72 0 0 0 .462-.313l2.191-3.375a.71.71 0 0 1 1.221.041l1.936 3.514a.7.7 0 0 0 .437.344l3.865 1.038c.519.14.701.784.334 1.18l-2.736 2.947a.72.72 0 0 0-.192.526l.197 4.017a.716.716 0 0 1-1.015.688l-3.626-1.693a.7.7 0 0 0-.556-.019l-3.743 1.444a.71.71 0 0 1-.961-.754l.495-3.994a.72.72 0 0 0-.152-.537z"/><mask id="a" width="78" height="78" x="15" y="16" maskUnits="userSpaceOnUse" style="mask-type:alpha"><path fill="#fff" d="M93 55c0 21.54-17.46 39-39 39S15 76.54 15 55s17.46-39 39-39 39 17.46 39 39"/></mask><g mask="url(#a)"><path fill="#e39b74" d="M30.786 78.158h47.358v15.786H30.786z"/><path fill="#e39b74" d="M32.386 79.203c1.564 0 2.78-4.82 2.78-4.82.316 1.24 1.835 4.82 2.895 4.82 1.334 0 2.634-4.82 2.634-4.82l23.522-.017c.085 2.71 1.341 4.837 1.597 4.837 1.06 0 2.963-3.58 3.363-4.82 0 0 .978 4.82 2.038 4.82s2.964-3.58 3.364-4.82c0 0 1.252 4.82 2.311 4.82.789 0 2.468-2.542 3.085-5.13.138-.89.218-1.845.218-2.84 0-10.589-9.329-20.613-9.329-20.613H40.066s-10.22 10.024-10.22 20.613c0 4.993 2.058 7.97 2.54 7.97"/><path fill="#dd8858" d="M77.272 78.312c-.73 0-1.663-2.699-2.172-4.377a.445.445 0 0 0-.843-.031c-.7 1.825-1.832 4.407-2.66 4.407-.714 0-1.496-2.577-1.932-4.26a.445.445 0 0 0-.846-.05c-.702 1.818-1.81 4.31-2.623 4.31-.256 0-.413-.39-.52-.841 1.61-2.163 2.679-4.8 2.679-7.203 0-5.292-3.678-9.914-3.678-9.914H44.344s-3.678 4.622-3.678 9.914c0 .903.176 2.36.176 2.36s-1.34 5.685-2.4 5.685c-.828 0-1.96-2.583-2.66-4.408a.445.445 0 0 0-.842.03c-.51 1.68-1.443 4.378-2.173 4.378-.48 0-2.03-2.085-2.03-7.078 0-10.59 9.33-20.614 9.33-20.614h-1.91s-9.329 10.024-9.329 20.614c0 4.993 1.98 8.987 3.558 8.987s2.546-3.648 2.546-3.648c.513 1.462 1.55 3.648 3.128 3.648s2.273-3.648 2.273-3.648c.513 1.462 1.551 3.648 3.129 3.648 1.577 0 2.272-4.47 2.272-4.47h17.553s.695 4.47 2.272 4.47c1.578 0 2.616-2.186 3.129-3.648 0 0 .695 3.648 2.272 3.648 1.578 0 2.616-2.186 3.13-3.648 0 0 .968 3.648 2.546 3.648 1.263 0 2.783-2.562 3.339-6.147-.948 2.565-2.387 4.238-2.703 4.238"/><path fill="#f87c68" d="M70.864 50.63c-.61-5.065-3.652-10.63-6.037-12.334H46.74c-2.983 1.903-7.676 8.622-7.676 14.082 0 5.252 8.29 8.833 8.29 8.833s-3.76 4.562-3.76 9.056c0 4.495 5.08 8.936 7.417 8.936 3.39 0 3.5-2.481 3.5-2.481s.732 2.48 3.499 2.48c2.08 0 5.022-1.788 6.545-3.364 1.15-1.724 1.89-3.728 1.89-5.57 0-4.495-3.123-8.42-3.123-8.42 1.824-1.13 7.53-5.762 7.542-11.217"/><path fill="#ec625e" d="M58.01 78.312c2.08 0 4.595-.944 6.545-2.474-1.657 2.482-4.165 4.383-6.546 4.383a3.5 3.5 0 0 1-3.499-3.5v-6.86a.955.955 0 0 1 1.91 0v6.86c0 .915.675 1.59 1.59 1.59m-6.999 0c-2.337 0-6.526-3.55-6.526-8.045 0-4.494 3.76-9.056 3.76-9.056s-8.29-3.58-8.29-8.833c0-5.46 3.802-12.18 6.785-14.082h-2.546c-2.664 1.903-6.148 8.622-6.148 14.082s7.653 9.47 7.653 9.47-3.124 3.925-3.124 8.42c0 4.494 4.401 9.953 8.436 9.953a3.5 3.5 0 0 0 3.5-3.5c-.318.588-1.583 1.59-3.5 1.59m19.964-25.934c0-.57-.04-1.156-.111-1.747-.012 5.455-8.636 9.767-8.636 9.767s.48.678 1.094 1.45c0 0 7.653-4.01 7.653-9.47"/><path fill="#e39b74" d="M59.872 35.983s2.29.41 4.955 2.313l-6.163 7.818-3.957-10.131z"/><path fill="#f87c68" d="M51.39 16.955q-.486.002-.864.08c-1.614 1.75-.024 4.713 1.59 9.21 0 0-4.631-2.732-7.419-2.309-1.933 1.75.132 5.452 2.466 9.457 0 0-3.771-1.35-5.93-.664-2.796 4.301 10.142 13.385 10.142 13.385 0 4.281 1.414 5.327 3.268 5.327s3.51-1.382 4.021-5.327V42.3s2.825-8.183 2.825-14.487c0-4.873-4.72-10.857-10.1-10.857"/><path fill="#ec625e" d="M48.861 34.026a71 71 0 0 0-1.698-.633s-5.994-6.028-3.988-8.634c.367-.476.899-.728 1.522-.823-1.372 2.282 2.19 6.497 4.12 8.439q.343.343.672.654c.48.453-.013 1.235-.628.997m4.656-9.053c-1.869-2.59-3.562-6.056-2.991-7.937-4.4.904 1.59 9.21 1.59 9.21.577.34 1.138.692 1.662 1.033.565.369 1.215-.327.807-.864-.36-.475-.724-.965-1.069-1.442m1.508 25.449c-1.855 0-2.887-1.046-2.887-5.326 0 0-11.91-8.205-10.906-12.368-.654.208-1.16.603-1.37 1.28-1.27 4.121 10.494 12.106 10.494 12.106 0 3.088.272 4.622 2.414 6.19h3.481c2.142-1.568 2.413-3.102 2.413-6.19-.486 2.02-1.785 4.308-3.64 4.308"/><path fill="#fff0af" d="M54.51 51.562c-.522 0-1.129.279-1.742.745-1.385 1.36-2.856 4.668-2.856 6.285 0 1.364 3.012 4.133 4.795 4.133 1.084 0 3.753-1.524 5.015-3.089.096-.245.15-.48.15-.696 0-3.144-3.32-7.378-5.362-7.378"/><path fill="#e39b74" d="M50.676 57.828c0-1.617 1.367-4.652 2.092-5.522-1.782 1.354-3.62 4.295-3.62 6.634 0 1.78 3.579 4.759 5.362 4.759 1.567 0 4.517-2.298 5.212-4.063-1.498 1.114-3.619 2.026-4.703 2.026-1.783 0-4.343-2.47-4.343-3.834"/><path fill="#394240" d="M76.635 81.176c-1.004 0-1.884-.725-2.62-2.154-.854 1.417-1.89 2.154-3.055 2.154-1.154 0-1.931-.968-2.434-2.01-.837 1.323-1.842 2.01-2.967 2.01-.997 0-1.79-.743-2.405-2.263-1.628 1.455-3.438 2.263-5.144 2.263a4.45 4.45 0 0 1-3.5-1.701 4.45 4.45 0 0 1-3.499 1.7c-1.706 0-3.516-.807-5.144-2.262-.616 1.52-1.408 2.263-2.405 2.263-1.125 0-2.13-.687-2.967-2.01-.503 1.042-1.28 2.01-2.434 2.01-1.653 0-3.046-1.483-4.03-4.287a.955.955 0 0 1 1.802-.633c.651 1.857 1.505 3.01 2.227 3.01.342 0 1.05-1.393 1.335-2.873a.956.956 0 0 1 1.839-.137c.644 1.835 1.485 2.983 2.202 3.01.072-.046.495-.37.953-1.918-1.737-2.164-2.768-4.794-2.768-7.08 0-3.51 1.727-6.64 2.695-8.118-2.01-1.24-6.559-4.492-7.16-8.823-2.614 3.396-7.373 10.582-7.373 17.906 0 2.166.388 4.28 1.094 5.954.66 1.566 1.337 2.072 1.509 2.08a.955.955 0 1 1 0 1.909c-2.404 0-4.513-4.646-4.513-9.943 0-10.006 7.869-19.337 9.376-21.032.533-3.838 2.343-7.85 4.214-10.405-2.184-2.462-3.008-4.462-2.513-6.07.23-.745.734-1.33 1.456-1.692 1.123-.561 2.68-.52 4.05-.306a23 23 0 0 1-.829-1.138c-1.914-2.811-2.32-4.97-1.209-6.413 1.112-1.444 3.23-1.63 6.296-.553q.44.156.858.325a24 24 0 0 1-.26-.495c-1.36-2.665-1.694-4.597-1.025-5.906C48.65 16.842 49.48 16 51.39 16c2.775 0 5.631 1.452 7.834 3.983a.955.955 0 1 1-1.44 1.254c-1.84-2.115-4.171-3.328-6.394-3.328-.758 0-1.23.171-1.403.509-.662 1.294 1.341 5.103 2.904 7.269a.955.955 0 0 1-1.26 1.38c-2.505-1.475-6.685-3.044-7.7-1.726-1.018 1.323 1.731 5.185 3.91 7.38a.955.955 0 0 1-1 1.57c-1.507-.537-4.356-1.162-5.58-.548-.26.13-.41.298-.486.546-.185.6-.117 2.444 4.498 6.609 2.702 2.439 5.59 4.407 5.62 4.426a.96.96 0 0 1 .418.79c0 2.72.218 3.88 1.512 5.013.588-.338 1.162-.52 1.687-.52s1.1.182 1.688.52c1.292-1.133 1.512-2.306 1.512-5.013V42.3q0-.16.052-.311c.028-.08 2.773-8.11 2.773-14.177 0-1.18-.318-2.482-.919-3.767a.955.955 0 1 1 1.73-.809c.718 1.536 1.098 3.119 1.098 4.576 0 2.483-.416 5.219-.933 7.657a16 16 0 0 1 3.87 2.05c1.467 1.049 3.107 3.323 4.385 6.084 1.028 2.22 1.716 4.497 2.007 6.6.795.899 3.878 4.525 6.275 9.334a.955.955 0 0 1-1.709.852c-1.475-2.96-3.218-5.445-4.474-7.07-.596 4.336-5.149 7.59-7.16 8.832.968 1.479 2.695 4.608 2.695 8.118 0 2.286-1.031 4.916-2.769 7.08.459 1.548.882 1.873.954 1.918.717-.027 1.558-1.175 2.202-3.01a.955.955 0 0 1 1.839.137c.284 1.48.993 2.874 1.334 2.874.723 0 1.577-1.154 2.228-3.01a.955.955 0 0 1 1.824.07c.415 1.555 1.254 2.94 1.623 2.94.171-.008.848-.514 1.508-2.08.706-1.673 1.095-3.788 1.095-5.953 0-2.371-.498-4.923-1.482-7.586a.955.955 0 1 1 1.792-.661c1.061 2.875 1.6 5.65 1.6 8.247 0 5.296-2.109 9.942-4.513 9.942m-21.17-4.454a2.547 2.547 0 0 0 2.545 2.544c1.592 0 3.46-1.102 4.997-2.947 1.555-1.868 2.484-4.13 2.484-6.052 0-4.113-2.887-7.788-2.916-7.825a.954.954 0 0 1 .304-1.44c.07-.037 7.141-3.81 7.141-8.624 0-5.336-3.433-11.652-5.748-13.305a14.3 14.3 0 0 0-3.19-1.728 66 66 0 0 1-1.463 5.112v.904l2.179-2.764a.955.955 0 0 1 1.5 1.181l-3.68 4.668c-.015 2.423-.22 4.242-1.906 5.878q.519.521 1.01 1.176c1.318 1.764 2.105 3.797 2.105 5.44 0 1.572-1.638 3.16-2.342 3.769-.527.456-2.371 1.945-3.975 1.945-1.603 0-3.447-1.489-3.974-1.945-.705-.61-2.342-2.197-2.342-3.769 0-1.643.787-3.676 2.105-5.44q.49-.656 1.01-1.176c-1.647-1.597-1.881-3.367-1.905-5.71-.918-.646-3.198-2.301-5.41-4.299q-.633-.57-1.188-1.114c-1.93 2.766-3.805 7.339-3.805 11.177 0 4.813 7.07 8.586 7.142 8.624a.955.955 0 0 1 .303 1.44c-.028.036-2.916 3.73-2.916 7.825 0 1.922.929 4.184 2.484 6.052 1.537 1.845 3.405 2.947 4.997 2.947a2.55 2.55 0 0 0 2.545-2.544v-6.86a.955.955 0 1 1 1.91 0zm-.955-24.205c-.542 0-1.638.73-2.682 2.127-1.064 1.423-1.725 3.07-1.725 4.296 0 .432.578 1.37 1.682 2.325 1.122.971 2.22 1.48 2.725 1.48s1.604-.509 2.725-1.48c1.105-.956 1.682-1.893 1.682-2.325 0-1.227-.66-2.873-1.725-4.296-1.044-1.396-2.14-2.127-2.682-2.127m8.777-.826a.955.955 0 0 1-.955-.955v-1.062c0-.527.438-1.086.965-1.086.528 0 .966.559.966 1.086l-.022 1.062a.955.955 0 0 1-.954.955m-17.553 0a.955.955 0 0 1-.955-.955v-1.062c0-.527.49-1.086 1.018-1.086.527 0 .836.559.836 1.086l.056 1.062a.955.955 0 0 1-.955.955"/><path stroke="#394240" stroke-linecap="round" d="m49.056 58.907 5.43-3.258 5.432 3.801"/><path fill="#394240" d="M30 79h2v9h-2zm47 0h2v9h-2z"/></g></svg>