<svg xmlns="http://www.w3.org/2000/svg" width="114" height="146" fill="none" viewBox="0 0 114 146"><path fill="#a8c5ff" d="M53.91 5.148a6.02 6.02 0 0 1 9.046 0 6.02 6.02 0 0 0 7.51 1.253c3.153-1.803 7.173-.423 8.554 2.937a6.02 6.02 0 0 0 6.696 3.623c3.568-.68 6.922 1.93 7.138 5.556a6.02 6.02 0 0 0 5.156 5.602c3.596.514 5.921 4.072 4.948 7.572a6.02 6.02 0 0 0 3.058 6.972c3.234 1.654 4.277 5.774 2.22 8.768a6.02 6.02 0 0 0 .629 7.588 6.02 6.02 0 0 1-.747 9.014 6.02 6.02 0 0 0-1.869 7.38c1.536 3.292-.171 7.184-3.633 8.284a6.02 6.02 0 0 0-4.164 6.373c.383 3.613-2.495 6.74-6.126 6.655a6.02 6.02 0 0 0-6.009 4.676c-.81 3.541-4.547 5.564-7.954 4.305a6.02 6.02 0 0 0-7.201 2.472 6.02 6.02 0 0 1-8.922 1.489 6.02 6.02 0 0 0-7.614 0c-2.814 2.297-7.006 1.598-8.921-1.489a6.02 6.02 0 0 0-7.201-2.472c-3.408 1.259-7.145-.764-7.955-4.305a6.02 6.02 0 0 0-6.008-4.676 6.02 6.02 0 0 1-6.126-6.655 6.02 6.02 0 0 0-4.165-6.373c-3.462-1.1-5.169-4.992-3.633-8.284a6.02 6.02 0 0 0-1.869-7.38c-2.918-2.164-3.269-6.4-.747-9.014a6.02 6.02 0 0 0 .629-7.588c-2.057-2.994-1.014-7.114 2.22-8.768a6.02 6.02 0 0 0 3.059-6.972 6.018 6.018 0 0 1 4.947-7.572 6.02 6.02 0 0 0 5.156-5.602c.216-3.626 3.57-6.236 7.138-5.556a6.02 6.02 0 0 0 6.696-3.623c1.382-3.36 5.401-4.74 8.555-2.937a6.02 6.02 0 0 0 7.51-1.253"/><path fill="#a8c5ff" d="M26.473 76.33h60.343v52.97c0 7.389-7.737 12.226-14.38 8.991l-11.412-5.56a10 10 0 0 0-8.759 0l-11.413 5.56c-6.642 3.235-14.379-1.602-14.379-8.991z"/><path fill="#da39a1" d="M26.473 76.33H81.07v46.493c0 7.391-7.742 12.228-14.385 8.987l-8.528-4.161a10 10 0 0 0-8.77 0l-8.528 4.161c-6.643 3.241-14.385-1.596-14.385-8.987z"/><path fill="#072a6f" d="M49.979 5.823a5.916 5.916 0 0 1 8.889 0 5.916 5.916 0 0 0 7.38 1.231 5.916 5.916 0 0 1 8.407 2.887 5.916 5.916 0 0 0 6.58 3.56 5.916 5.916 0 0 1 7.015 5.46 5.916 5.916 0 0 0 5.068 5.505 5.916 5.916 0 0 1 4.862 7.442 5.916 5.916 0 0 0 3.005 6.852 5.916 5.916 0 0 1 2.183 8.617 5.916 5.916 0 0 0 .617 7.457 5.915 5.915 0 0 1-.734 8.859 5.916 5.916 0 0 0-1.836 7.253 5.917 5.917 0 0 1-3.571 8.14 5.916 5.916 0 0 0-4.093 6.264 5.916 5.916 0 0 1-6.02 6.54 5.916 5.916 0 0 0-5.904 4.596 5.917 5.917 0 0 1-7.818 4.231 5.915 5.915 0 0 0-7.077 2.429 5.916 5.916 0 0 1-8.768 1.463 5.92 5.92 0 0 0-7.482 0 5.916 5.916 0 0 1-8.768-1.463 5.915 5.915 0 0 0-7.077-2.429 5.917 5.917 0 0 1-7.818-4.231 5.916 5.916 0 0 0-5.904-4.596 5.916 5.916 0 0 1-6.02-6.54 5.916 5.916 0 0 0-4.093-6.264 5.916 5.916 0 0 1-3.57-8.14 5.916 5.916 0 0 0-1.837-7.253 5.916 5.916 0 0 1-.735-8.859 5.916 5.916 0 0 0 .618-7.457A5.916 5.916 0 0 1 7.66 38.76a5.916 5.916 0 0 0 3.006-6.852 5.916 5.916 0 0 1 4.862-7.442 5.916 5.916 0 0 0 5.068-5.504 5.916 5.916 0 0 1 7.014-5.46 5.916 5.916 0 0 0 6.58-3.561 5.916 5.916 0 0 1 8.408-2.887 5.916 5.916 0 0 0 7.38-1.231"/><circle cx="54.041" cy="54.041" r="39.528" fill="#fff"/><path fill="#fa67c7" d="M25.783 20.242a1.367 1.367 0 0 1 2.207-.762l5.856 4.87c.282.235.649.346 1.016.307l7.604-.812a1.352 1.352 0 0 1 1.403 1.851l-2.865 7.066a1.35 1.35 0 0 0 .017 1.057l3.1 6.945c.415.932-.317 1.974-1.34 1.906l-7.627-.504a1.37 1.37 0 0 0-1.005.347l-5.69 5.104c-.763.685-1.982.317-2.23-.673l-1.849-7.377a1.35 1.35 0 0 0-.638-.843l-6.615-3.79a1.352 1.352 0 0 1-.04-2.322l6.485-4.056c.313-.195.533-.508.61-.867z"/><path fill="#da39a1" d="M17.099 56.589a.72.72 0 0 1 .42-1.154l3.933-.776a.72.72 0 0 0 .462-.313l2.191-3.375a.71.71 0 0 1 1.222.041l1.935 3.514a.7.7 0 0 0 .437.344l3.865 1.038c.519.14.701.784.334 1.18l-2.736 2.947a.72.72 0 0 0-.192.526l.197 4.017a.716.716 0 0 1-1.015.688l-3.626-1.693a.7.7 0 0 0-.556-.019l-3.743 1.444a.71.71 0 0 1-.961-.754l.495-3.994a.72.72 0 0 0-.152-.537z"/><path fill="#7c8ca6" d="M72.088 66.33c.688 1.391 1.67 2.722 3.067 3.577 4.167 2.55 10.35-.243 10.35-.243s1.126-6.015-4.54-9.201c-1.953-1.098-4.266-1.244-6.257-.983z"/><path fill="#677b92" d="M57.678 50.44c-2.966-3.128-6.944-5.589-10.83-7.996-3.487-2.16-4.221-6.909-1.55-10.014l.993-1.153c2.751-3.198 3.611-7.64 2.125-11.583q-.051-.138-.107-.275l-1.28-3.161-.711 1.085a12.1 12.1 0 0 1-3.925 3.76l-4.313 2.566a6.4 6.4 0 0 0-2.476 2.687 6.36 6.36 0 0 0 .056 5.696l-.149-.111.01.059a6.424 6.424 0 0 0-8.489-1.758l-4.313 2.566a12.1 12.1 0 0 1-5.184 1.66l-1.296.108 2.186 2.623q.094.113.192.224c2.78 3.174 7.116 4.526 11.247 3.628l1.431-.312c4.013-.872 7.862 2.024 8.117 6.107.285 4.563.573 9.233 1.938 13.326zm-19.66 15.89c-.688 1.391-1.67 2.722-3.067 3.577-4.167 2.55-10.35-.243-10.35-.243s-1.126-6.015 4.54-9.201c1.953-1.098 4.266-1.244 6.257-.983z"/><path fill="#fff" d="M32.462 60.36C32.462 48.01 42.51 38 54.904 38s22.443 10.01 22.443 22.36S67.3 80.155 54.905 80.155 32.462 72.71 32.462 60.36"/><path fill="#d2dcfd" d="M46.602 54.713c0-5.577.895-10.945 2.55-15.971-9.608 2.531-16.69 11.25-16.69 21.619 0 11.833 9.226 19.164 20.902 19.756a50.8 50.8 0 0 1-6.762-25.404"/><path fill="#7c8ca6" d="M54.904 60.603c7.952 0 14.958 4.296 19.073 10.822 2.136-3.014 3.37-6.738 3.37-11.065C77.347 48.01 67.299 38 54.904 38S44.729 59.078 44.729 59.078l2.395 2.961a21.7 21.7 0 0 1 7.78-1.436"/><path fill="#677b92" d="M46.602 54.713c0-5.577.895-10.945 2.55-15.971-9.608 2.531-16.69 11.25-16.69 21.619 0 4.326 1.233 8.051 3.37 11.065 2.7-4.285 6.649-7.608 11.293-9.386a51.4 51.4 0 0 1-.523-7.327"/><path fill="#394240" d="M55.673 79.816c-.199 0-.36-.777-.36-1.734V62.345c0-.958.161-1.734.36-1.734s.36.776.36 1.734v15.737c0 .957-.161 1.734-.36 1.734m8.873-.481q-.087.002-.17-.23c-.17-.494-.232-1.614-.137-2.502l.09-.857c.345-3.246.447-7.025.288-10.64-.044-.99.074-1.977.264-2.205s.379.39.422 1.38c.199 4.501.072 9.207-.357 13.25l-.091.857c-.065.605-.185.947-.309.947m-4.321.721q-.089.002-.17-.263c-.17-.56-.232-1.832-.138-2.841l.091-.974c.345-3.688.447-7.98.287-12.087-.043-1.125.075-2.247.264-2.506.19-.258.38.443.423 1.568.198 5.114.071 10.46-.358 15.053l-.09.973c-.065.689-.185 1.077-.31 1.077m8.644-2.881q-.089.001-.17-.155c-.17-.33-.232-1.08-.138-1.675l.091-.574c.345-2.175.447-4.707.287-7.129-.043-.663.075-1.325.264-1.478.19-.152.38.261.423.925.198 3.016.071 6.169-.358 8.877l-.09.574c-.065.406-.185.635-.31.635M46.318 62.291q.088-.002.17.232c.17.492.232 1.612.138 2.5l-.091.858c-.345 3.246-.447 7.025-.288 10.64.044.99-.074 1.977-.264 2.205s-.378-.39-.422-1.38c-.199-4.502-.072-9.208.358-13.25l.09-.857c.065-.606.185-.948.309-.948m4.801-1.44q.088-.002.17.263c.17.56.232 1.832.138 2.841l-.091.974c-.345 3.688-.447 7.98-.288 12.087.044 1.125-.074 2.247-.264 2.506s-.378-.443-.422-1.567c-.198-5.115-.071-10.461.358-15.054l.09-.973c.065-.688.185-1.077.309-1.077m-9.361 3.841q.087-.001.17.155c.17.33.232 1.08.137 1.676l-.09.574c-.345 2.175-.447 4.707-.288 7.129.044.663-.074 1.325-.264 1.477s-.379-.26-.422-.924c-.199-3.016-.072-6.17.358-8.878l.09-.574c.065-.406.185-.635.309-.635"/><path fill="#394240" d="M86.731 65.95c-.452-2.015-1.7-4.814-5.078-6.714a9.7 9.7 0 0 0-2.864-1.044c-1.172-12.022-11.37-21.45-23.736-21.45-3.313 0-6.47.677-9.34 1.899-.484-1.703-.37-3.782.802-5.145l.992-1.153c3.12-3.625 4.03-8.605 2.376-12.996a13 13 0 0 0-.12-.307l-1.281-3.161a1.407 1.407 0 0 0-2.48-.243l-.711 1.085a10.7 10.7 0 0 1-3.468 3.322l-4.312 2.566a7.76 7.76 0 0 0-3.788 6.176 7.8 7.8 0 0 0-2.935-.697 7.8 7.8 0 0 0-4.326 1.094l-4.312 2.566a10.8 10.8 0 0 1-4.582 1.467l-1.296.109a1.407 1.407 0 0 0-.963 2.302l2.186 2.623q.105.126.214.25c3.093 3.532 7.923 5.094 12.604 4.075l1.431-.31c1.956-.427 4.256.825 5.565 2.381a23.64 23.64 0 0 0-5.993 13.548 9.8 9.8 0 0 0-2.863 1.043c-3.378 1.9-4.626 4.7-5.078 6.714-.485 2.16-.169 3.9-.155 3.973.084.452.384.834.803 1.023.184.083 3.24 1.438 6.667 1.438 1.223 0 2.493-.173 3.696-.637a19.8 19.8 0 0 0 3.894 4.368c4.304 3.609 10.26 5.596 16.773 5.596s12.47-1.987 16.773-5.596a19.8 19.8 0 0 0 3.895-4.368c1.203.464 2.472.637 3.695.637 3.427 0 6.484-1.356 6.667-1.438.42-.19.719-.572.804-1.023.013-.073.329-1.814-.156-3.973M31.146 39.514l-1.43.311c-3.682.801-7.472-.417-9.89-3.18l-.17-.198-.509-.61a13.6 13.6 0 0 0 4.441-1.671l4.313-2.566a5 5 0 0 1 2.771-.7 4.97 4.97 0 0 1 3.857 2.071c.183.254.437.431.72.52a1.407 1.407 0 0 0 1.812-1.932 4.98 4.98 0 0 1-.043-4.437 4.97 4.97 0 0 1 1.931-2.096l4.313-2.565a13.6 13.6 0 0 0 3.59-3.112l.303.747q.049.12.095.243c1.291 3.427.573 7.324-1.876 10.17l-.992 1.152c-2.035 2.366-2.072 5.736-1.216 8.25a24 24 0 0 0-3.85 2.754c-1.906-2.161-5.099-3.82-8.17-3.151M25.92 68.669c-.05-1.499.272-4.933 3.913-6.98q.634-.357 1.38-.576c.073 2.941.683 5.673 1.803 8.136-2.575.814-5.698-.082-7.096-.58m29.134 10.229c-12.386 0-21.036-7.562-21.036-18.39 0-11.553 9.437-20.952 21.036-20.952s21.036 9.4 21.036 20.953c0 10.827-8.65 18.389-21.036 18.389m29.136-10.23c-1.397.498-4.521 1.396-7.098.58 1.12-2.462 1.73-5.194 1.804-8.135a6.6 6.6 0 0 1 1.38.575c3.654 2.055 3.97 5.479 3.914 6.98"/><path fill="#394240" d="M38.988 52.05c-1.325 0-2.4.225-2.4.502v1.398c0 .277 1.075.501 2.4.501 1.326 0 2.401-.224 2.401-.501v-1.398c0-.277-1.075-.501-2.4-.501m32.407-.001c-1.326 0-2.4.225-2.4.502v1.398c0 .277 1.074.501 2.4.501s2.4-.224 2.4-.501v-1.398c0-.277-1.074-.501-2.4-.501"/></svg>