<svg xmlns="http://www.w3.org/2000/svg" width="114" height="146" fill="none" viewBox="0 0 114 146"><path fill="#a8c5ff" d="M53.91 5.148a6.02 6.02 0 0 1 9.046 0 6.02 6.02 0 0 0 7.51 1.253c3.153-1.803 7.173-.423 8.554 2.937a6.02 6.02 0 0 0 6.696 3.623c3.568-.68 6.922 1.93 7.138 5.556a6.02 6.02 0 0 0 5.156 5.601c3.596.515 5.921 4.073 4.948 7.573a6.02 6.02 0 0 0 3.058 6.972c3.234 1.654 4.277 5.774 2.22 8.768a6.02 6.02 0 0 0 .629 7.588c2.522 2.614 2.171 6.85-.747 9.014a6.02 6.02 0 0 0-1.869 7.38c1.536 3.292-.171 7.184-3.633 8.284a6.02 6.02 0 0 0-4.164 6.373c.383 3.613-2.495 6.74-6.126 6.655a6.02 6.02 0 0 0-6.009 4.676c-.81 3.541-4.547 5.564-7.954 4.305a6.02 6.02 0 0 0-7.201 2.472 6.02 6.02 0 0 1-8.922 1.489 6.02 6.02 0 0 0-7.614 0c-2.814 2.297-7.006 1.598-8.921-1.489a6.02 6.02 0 0 0-7.201-2.472c-3.408 1.259-7.145-.764-7.955-4.305a6.02 6.02 0 0 0-6.008-4.676 6.02 6.02 0 0 1-6.126-6.655 6.02 6.02 0 0 0-4.165-6.373c-3.462-1.1-5.169-4.992-3.633-8.284a6.02 6.02 0 0 0-1.869-7.38c-2.918-2.164-3.269-6.4-.747-9.014a6.02 6.02 0 0 0 .629-7.588c-2.057-2.994-1.014-7.114 2.22-8.768a6.02 6.02 0 0 0 3.059-6.972c-.974-3.5 1.35-7.058 4.947-7.573a6.02 6.02 0 0 0 5.156-5.601c.216-3.626 3.57-6.236 7.138-5.556a6.02 6.02 0 0 0 6.696-3.623c1.382-3.36 5.401-4.74 8.555-2.937a6.02 6.02 0 0 0 7.51-1.253"/><path fill="#a8c5ff" d="M26.473 76.33h60.343v52.97c0 7.389-7.737 12.226-14.38 8.991l-11.412-5.56a10 10 0 0 0-8.759 0l-11.413 5.56c-6.642 3.235-14.379-1.602-14.379-8.991z"/><path fill="#da39a1" d="M26.473 76.33H81.07v46.493c0 7.391-7.742 12.228-14.385 8.987l-8.528-4.161a10 10 0 0 0-8.77 0l-8.528 4.161c-6.643 3.241-14.385-1.596-14.385-8.987z"/><path fill="#072a6f" d="M49.979 5.823a5.916 5.916 0 0 1 8.889 0 5.916 5.916 0 0 0 7.38 1.231 5.916 5.916 0 0 1 8.407 2.887 5.916 5.916 0 0 0 6.58 3.56 5.916 5.916 0 0 1 7.015 5.46 5.916 5.916 0 0 0 5.068 5.505 5.916 5.916 0 0 1 4.862 7.442 5.916 5.916 0 0 0 3.005 6.852 5.916 5.916 0 0 1 2.183 8.617 5.916 5.916 0 0 0 .617 7.457 5.915 5.915 0 0 1-.734 8.859 5.916 5.916 0 0 0-1.836 7.253 5.917 5.917 0 0 1-3.571 8.14 5.916 5.916 0 0 0-4.093 6.264 5.916 5.916 0 0 1-6.02 6.54 5.916 5.916 0 0 0-5.904 4.596 5.917 5.917 0 0 1-7.818 4.231 5.915 5.915 0 0 0-7.077 2.429 5.916 5.916 0 0 1-8.768 1.463 5.92 5.92 0 0 0-7.482 0 5.916 5.916 0 0 1-8.768-1.463 5.915 5.915 0 0 0-7.077-2.429 5.917 5.917 0 0 1-7.818-4.231 5.916 5.916 0 0 0-5.904-4.596 5.916 5.916 0 0 1-6.02-6.54 5.916 5.916 0 0 0-4.093-6.264 5.916 5.916 0 0 1-3.57-8.14 5.916 5.916 0 0 0-1.837-7.253 5.916 5.916 0 0 1-.735-8.859 5.916 5.916 0 0 0 .618-7.457A5.916 5.916 0 0 1 7.66 38.76a5.916 5.916 0 0 0 3.006-6.852 5.916 5.916 0 0 1 4.862-7.442 5.916 5.916 0 0 0 5.068-5.504 5.916 5.916 0 0 1 7.014-5.46 5.916 5.916 0 0 0 6.58-3.561 5.916 5.916 0 0 1 8.408-2.887 5.916 5.916 0 0 0 7.38-1.231"/><circle cx="54.041" cy="54.041" r="39.528" fill="#fff"/><path fill="#fa67c7" d="M25.783 20.242a1.367 1.367 0 0 1 2.207-.762l5.856 4.87c.282.235.649.346 1.016.307l7.604-.812a1.352 1.352 0 0 1 1.403 1.851l-2.865 7.066a1.35 1.35 0 0 0 .017 1.057l3.1 6.945c.415.932-.317 1.974-1.34 1.906l-7.627-.504a1.37 1.37 0 0 0-1.005.347l-5.69 5.104c-.763.685-1.982.317-2.23-.673l-1.849-7.377a1.35 1.35 0 0 0-.638-.843l-6.615-3.79a1.352 1.352 0 0 1-.04-2.322l6.485-4.056c.313-.195.533-.508.61-.867z"/><path fill="#da39a1" d="M17.099 56.589a.72.72 0 0 1 .42-1.154l3.933-.776a.72.72 0 0 0 .462-.313l2.191-3.375a.71.71 0 0 1 1.222.041l1.935 3.514a.7.7 0 0 0 .437.344l3.865 1.038c.519.14.701.784.334 1.18l-2.736 2.947a.72.72 0 0 0-.192.526l.197 4.017a.716.716 0 0 1-1.015.688l-3.626-1.693a.7.7 0 0 0-.556-.019l-3.743 1.444a.71.71 0 0 1-.961-.754l.495-3.994a.72.72 0 0 0-.152-.537z"/><path fill="#c7865b" d="m45.512 54.419-2.746 2.872a3.003 3.003 0 0 1-4.382 0L27.258 44.993c-.735-.769-1.345-1.585-1.186-2.582.017-.113-.049-.38-.049-.38a3.26 3.26 0 0 1 .795-1.424l2.746-2.872a3.003 3.003 0 0 1 4.383 0l.393.411.24.618 10.932 11.07c1.21 1.266 1.21 3.319 0 4.585"/><path fill="#c27e4e" d="m26.023 42.031 2.535 2.651a.57.57 0 0 0 .934-.152c.455-.937.98-1.853 1.59-2.736a19.5 19.5 0 0 1 3.258-3.647l11.173 11.687c.395.415.661.914.798 1.442.224.942.13 2.174-.798 3.144l-2.746 2.872a3.005 3.005 0 0 1-4.383 0l-9.901-10.357-1.665-1.742c-.818-.856-1.084-2.073-.795-3.162"/><path fill="#c7865b" d="m64.52 54.419 2.747 2.872a3.003 3.003 0 0 0 4.382 0l11.126-12.298c.735-.769 1.345-1.585 1.186-2.582-.017-.113.049-.38.049-.38a3.26 3.26 0 0 0-.795-1.424l-2.746-2.872a3.003 3.003 0 0 0-4.383 0l-.393.411-.24.618-10.932 11.07c-1.21 1.266-1.21 3.319 0 4.585"/><path fill="#c27e4e" d="m84.01 42.031-2.533 2.651a.57.57 0 0 1-.935-.152 21 21 0 0 0-1.589-2.736 19.5 19.5 0 0 0-3.259-3.647L64.522 49.834a3.26 3.26 0 0 0-.798 1.442c-.225.942-.132 2.174.798 3.144l2.746 2.872a3.005 3.005 0 0 0 4.383 0l9.9-10.357 1.666-1.742c.817-.856 1.083-2.073.794-3.162"/><path fill="#cf9875" d="M81.779 60.221c0 11.088-11.99 13.62-26.78 13.62-14.789 0-26.224-2.578-26.224-13.665 0-6.837.288-15.213 6.69-20.72a88 88 0 0 1 1.648-1.35c3.968-2.699 9.679-4.415 17.886-4.415 24.62 0 26.78 15.443 26.78 26.53"/><path fill="#c7865b" d="M57.26 73.82q-1.12.021-2.26.02c-14.79 0-26.78-2.532-26.78-13.62 0-7.4.963-16.74 8.925-22.134-6.35 5.507-7.166 13.97-7.166 20.786 0 11.087 11.989 13.62 26.779 13.62.154 0 .324.553.501 1.328"/><path fill="#f0e9e6" d="M55.41 80.248h-.82c-2.009 0-3.839-.801-5.214-2.115 0 0-.02-.544-.162-.703-1.288-1.446-2.358-3.141-2.358-5.274h16.29c0 2.024-.928 3.687-2.101 5.105-.2.241-.42.872-.42.872-1.375 1.314-3.205 2.115-5.214 2.115"/><path fill="#e5dcd8" d="M63.146 72.156a8.26 8.26 0 0 1-2.521 5.977c-1.788-.182-3.75-.702-5.322-2.072a.455.455 0 0 0-.605 0c-1.572 1.37-3.534 1.89-5.322 2.072-1.549-1.48-2.52-3.609-2.52-5.977z"/><path fill="#faf8f8" d="M66.721 62.49c-2.047-1.23-3.798-2.91-5.202-4.894-1.147-1.62-3.051-2.539-5.278-2.783 0 0-.819.012-1.241.012-2.752 0-4.847 1.037-6.202 2.95-1.359 1.92-3.148 3.567-5.161 4.696-2.281 1.28-4.534 3.192-4.534 7.215 0 2.593 1.303 4.853 3.836 5.95 1.3.563 2.819.873 4.443.873 2.72 0 5.149-.471 6.739-2.233 0 0 .344-.842.5-1.072a.454.454 0 0 1 .758 0c.155.23.5 1.072.5 1.072 1.59 1.762 4.017 2.233 6.738 2.233 4.79 0 8.673-2.697 8.673-6.62 0-3.754-2.329-6.055-4.569-7.4"/><path fill="#f0e9e6" d="M56.24 54.813c-2.535.115-4.733 1.084-6.003 2.944-1.358 1.99-3.054 3.685-5.066 4.856-2.282 1.327-4.704 3.717-4.704 7.89 0 2.306 1.248 4.204 3.2 5.415-2.93-1-4.958-3.195-4.958-6.03 0-4.024 2.422-6.33 4.704-7.609 2.012-1.129 3.708-2.763 5.067-4.683 1.354-1.914 3.767-2.85 6.519-2.85q.635 0 1.241.067"/><path fill="#c7865b" d="m55.203 68.444.228-.088c2.193-.842 3.997-1.984 5.307-4.007.063-.097.18-.308.18-.308a.62.62 0 0 0-.265-.542l-1.703-1.162a1.7 1.7 0 0 0-.95-.298l-5.978-.035a1.7 1.7 0 0 0-.985.309l-1.698 1.184a.62.62 0 0 0-.26.54s.108.198.17.294l.004.006c1.31 2.022 3.124 3.176 5.317 4.019l.228.088c.13.05.274.05.404 0"/><path fill="#c27e4e" d="M60.917 64.041a.63.63 0 0 1-.1.315c-1.31 2.023-3.194 3.564-5.387 4.407l-.229.087a.56.56 0 0 1-.403 0l-.228-.087c-2.193-.843-4.078-2.384-5.388-4.407l-.003-.005a.63.63 0 0 1-.1-.314c1.491 1.28 3.326 2.27 5.372 2.886l.292.088c.165.05.348.05.515 0l.291-.087c2.043-.616 3.877-1.605 5.368-2.883"/><path fill="#394240" d="m83.838 39.957-2.746-2.872a3.86 3.86 0 0 0-5.626 0l-1.007 1.054a20 20 0 0 0-1.76-1.237l.62-2.855c.109-.495-.187-.988-.66-1.1-.474-.114-.945.197-1.053.692l-.513 2.354a25 25 0 0 0-3.962-1.598l-.594-4.599c-.065-.503-.508-.855-.99-.788-.48.068-.817.531-.752 1.035l.496 3.84a37 37 0 0 0-5.027-.854c-.483-.05-.913.32-.961.825s.305.955.788 1.005c2.001.207 3.813.54 5.453.984l1.008 7.809c.04.35.45.853.99.788.48-.068.818-.531.753-1.034l-.903-6.99c1.199.42 2.294.904 3.294 1.447l-1.19 5.462c-.107.495.189.988.662 1.1.367.089.88-.119 1.052-.692l1.068-4.903c7.414 5.013 8.623 13.672 8.623 21.391 0 5.197-2.888 8.7-8.81 10.678q.077-.497.079-1.01c0-2.463-.894-4.61-2.658-6.38a.85.85 0 0 0-1.242.027.95.95 0 0 0 .025 1.3c1.405 1.41 2.117 3.11 2.117 5.053q-.001.422-.075.825l-1.974-.822c-.45-.187-.962.043-1.141.515s.04 1.006.492 1.194l1.948.811c-.567.884-1.434 1.628-2.515 2.174l-1.981-2.734a.853.853 0 0 0-1.232-.177.95.95 0 0 0-.17 1.288l1.65 2.276c-.86.227-1.8.35-2.795.35-3.527 0-5.618-.875-6.739-2.832v-3.19c2.316-.925 4.273-2.544 5.667-4.694.222-.344.301-.756.223-1.163a1.52 1.52 0 0 0-.636-.981l-1.704-1.162a2.55 2.55 0 0 0-1.425-.448l-5.977-.034a2.56 2.56 0 0 0-1.478.463l-1.698 1.184c-.327.229-.55.577-.625.98-.076.404.004.815.229 1.16 1.393 2.15 3.35 3.77 5.666 4.695v3.19c-1.12 1.957-3.212 2.832-6.739 2.832-.994 0-1.934-.123-2.794-.35l1.648-2.276a.95.95 0 0 0-.169-1.288.853.853 0 0 0-1.231.177l-1.981 2.734c-1.082-.546-1.948-1.29-2.516-2.174l1.949-.81c.45-.189.67-.724.491-1.195s-.69-.702-1.141-.515l-1.973.822a4.6 4.6 0 0 1-.076-.825c0-2.934 1.427-5.22 4.24-6.799 2.044-1.146 3.846-2.81 5.358-4.946 1.131-1.598 3.195-2.477 5.813-2.477s4.682.88 5.813 2.477c1.208 1.706 2.633 3.162 4.237 4.326a.855.855 0 0 0 1.223-.231.947.947 0 0 0-.221-1.28 16.8 16.8 0 0 1-3.826-3.91c-1.47-2.078-4.037-3.222-7.226-3.222s-5.755 1.145-7.225 3.222c-1.357 1.916-2.964 3.404-4.776 4.42-3.38 1.896-5.168 4.807-5.168 8.42q.002.515.08 1.011c-5.074-1.688-7.901-4.467-8.622-8.464-.09-.5-.55-.828-1.027-.733s-.79.575-.7 1.074c.484 2.684 1.784 4.94 3.864 6.705 1.274 1.081 2.82 1.978 4.682 2.713l-5.956 2.479c-.45.188-.67.722-.491 1.194a.88.88 0 0 0 .817.58.9.9 0 0 0 .325-.065l7.87-3.277q.3.536.703 1.023l-3.766 2.903a.95.95 0 0 0-.186 1.285.85.85 0 0 0 1.23.195l4.05-3.122a9.5 9.5 0 0 0 1.069.69l-4.67 6.445a.95.95 0 0 0 .17 1.288.85.85 0 0 0 1.23-.177l4.948-6.828c1.151.391 2.722.647 4.153.62a8.67 8.67 0 0 0 3.592 3.014q.17.074.346.074a.88.88 0 0 0 .809-.557c.19-.467-.016-1.007-.462-1.208a6.8 6.8 0 0 1-2.099-1.471c1.862-.26 3.823-.945 5.21-2.657 1.387 1.712 3.347 2.396 5.209 2.657-1.233 1.264-2.887 2.008-4.65 2.047-.486.011-.872.431-.861.94.01.5.401.9.878.9l.02-.001c2.714-.06 5.221-1.448 6.801-3.738 1.26.028 2.916-.193 4.152-.62l4.947 6.828a.85.85 0 0 0 1.231.177.95.95 0 0 0 .17-1.288l-4.67-6.445a10 10 0 0 0 1.07-.69l4.05 3.122a.85.85 0 0 0 1.229-.195.947.947 0 0 0-.186-1.285l-3.766-2.903q.404-.487.704-1.023l7.87 3.277a.9.9 0 0 0 .324.065c.35 0 .68-.22.817-.58.18-.472-.04-1.006-.491-1.194l-5.958-2.48c2.293-.905 4.113-2.054 5.513-3.482 2.16-2.204 3.255-5.06 3.255-8.49 0-3.479-.198-7.656-1.393-11.689l2.572-2.69c1.55-1.623 1.55-4.263 0-5.886M50.076 64.09l1.45-1.011a.85.85 0 0 1 .487-.154l5.982.034a.85.85 0 0 1 .475.15l1.45.989c-1.166 1.719-2.964 3.134-4.92 3.851-1.884-.685-3.723-2.087-4.924-3.86m32.519-19.547-1.98 2.071a21.6 21.6 0 0 0-1.477-3.088 19 19 0 0 0-3.32-4.208l.891-.932a2.154 2.154 0 0 1 3.14 0l2.746 2.873a2.4 2.4 0 0 1 0 3.284M28.22 59.25h.025c.474 0 .865-.395.878-.894.117-4.436.718-10.905 4.57-15.84a17 17 0 0 1 4.025-3.706l1.072 4.923c.082.346.515.824 1.053.692.473-.113.77-.605.661-1.1l-1.19-5.47a23 23 0 0 1 3.294-1.434l-.902 6.985c-.065.503.272.966.753 1.034.373.054.856-.203.99-.788l1.007-7.799c3.058-.826 6.576-1.242 10.544-1.242q.54 0 1.066.01c.48.008.886-.396.895-.903.009-.508-.378-.927-.863-.936-.36-.007-.729-.01-1.098-.01-3.813 0-7.257.373-10.29 1.111l.496-3.84c.065-.503-.272-.966-.753-1.034-.482-.068-.924.284-.989.788l-.594 4.595q-1.111.346-2.138.764-.944.386-1.824.838l-.513-2.355c-.108-.495-.58-.805-1.053-.692-.473.112-.77.605-.661 1.1l.622 2.859q-.923.577-1.76 1.233l-1.008-1.054a3.86 3.86 0 0 0-5.626 0l-2.746 2.873c-1.55 1.622-1.55 4.262 0 5.885l2.572 2.69c-1.042 3.51-1.296 7.014-1.369 9.773-.013.507.369.93.854.944m-.814-14.708a2.4 2.4 0 0 1 0-3.284l2.746-2.873a2.154 2.154 0 0 1 3.14 0l.89.932a18.6 18.6 0 0 0-1.85 2.036c-1.287 1.648-2.238 3.437-2.944 5.262z"/><path fill="#394240" d="M43.867 55.887c-.485 0-.879-.411-.879-.92v-3.064c0-.508.394-.92.88-.92.485 0 .878.412.878.92v3.065c0 .507-.393.92-.879.92m22.266-.001c-.486 0-.88-.411-.88-.92v-3.064c0-.508.394-.92.88-.92.485 0 .879.412.879.92v3.065c0 .507-.394.92-.88.92"/></svg>