<svg xmlns="http://www.w3.org/2000/svg" width="114" height="146" fill="none" viewBox="0 0 114 146"><path fill="#a8c5ff" d="M53.91 5.148a6.02 6.02 0 0 1 9.046 0 6.02 6.02 0 0 0 7.51 1.253c3.153-1.803 7.173-.423 8.554 2.937a6.02 6.02 0 0 0 6.696 3.623c3.568-.68 6.922 1.93 7.138 5.556a6.02 6.02 0 0 0 5.156 5.601c3.596.515 5.921 4.073 4.948 7.573a6.02 6.02 0 0 0 3.058 6.972c3.234 1.654 4.277 5.774 2.22 8.768a6.02 6.02 0 0 0 .629 7.588c2.522 2.614 2.171 6.85-.747 9.014a6.02 6.02 0 0 0-1.869 7.38c1.536 3.292-.171 7.184-3.633 8.284a6.02 6.02 0 0 0-4.165 6.373c.385 3.613-2.494 6.74-6.125 6.655a6.02 6.02 0 0 0-6.009 4.676c-.81 3.541-4.547 5.564-7.954 4.305a6.02 6.02 0 0 0-7.202 2.472c-1.915 3.087-6.107 3.786-8.921 1.489a6.02 6.02 0 0 0-7.614 0c-2.814 2.297-7.006 1.598-8.921-1.489a6.02 6.02 0 0 0-7.201-2.472c-3.408 1.259-7.145-.764-7.955-4.305a6.02 6.02 0 0 0-6.008-4.676 6.02 6.02 0 0 1-6.126-6.655 6.02 6.02 0 0 0-4.165-6.373c-3.462-1.1-5.169-4.992-3.633-8.284a6.02 6.02 0 0 0-1.869-7.38c-2.918-2.164-3.269-6.4-.747-9.014a6.02 6.02 0 0 0 .629-7.588c-2.057-2.994-1.014-7.114 2.22-8.768a6.02 6.02 0 0 0 3.059-6.972c-.974-3.5 1.35-7.058 4.947-7.573a6.02 6.02 0 0 0 5.156-5.601c.216-3.626 3.57-6.236 7.138-5.556a6.02 6.02 0 0 0 6.696-3.623c1.381-3.36 5.401-4.74 8.555-2.937a6.02 6.02 0 0 0 7.51-1.253"/><path fill="#a8c5ff" d="M26.473 76.33h60.343v52.97c0 7.389-7.737 12.226-14.38 8.991l-11.412-5.56a10 10 0 0 0-8.759 0l-11.413 5.56c-6.642 3.235-14.379-1.602-14.379-8.991z"/><path fill="#da39a1" d="M26.473 76.33H81.07v46.493c0 7.391-7.742 12.228-14.385 8.987l-8.528-4.161a10 10 0 0 0-8.77 0l-8.528 4.161c-6.643 3.241-14.385-1.596-14.385-8.987z"/><path fill="#072a6f" d="M49.979 5.823a5.916 5.916 0 0 1 8.889 0 5.916 5.916 0 0 0 7.38 1.231 5.916 5.916 0 0 1 8.407 2.887 5.916 5.916 0 0 0 6.58 3.56 5.916 5.916 0 0 1 7.015 5.46 5.916 5.916 0 0 0 5.068 5.505 5.916 5.916 0 0 1 4.862 7.442 5.916 5.916 0 0 0 3.005 6.852 5.916 5.916 0 0 1 2.183 8.617 5.916 5.916 0 0 0 .617 7.457 5.915 5.915 0 0 1-.734 8.859 5.916 5.916 0 0 0-1.836 7.253 5.917 5.917 0 0 1-3.571 8.14 5.916 5.916 0 0 0-4.093 6.264 5.916 5.916 0 0 1-6.02 6.54 5.916 5.916 0 0 0-5.904 4.596 5.917 5.917 0 0 1-7.818 4.231 5.915 5.915 0 0 0-7.077 2.429 5.916 5.916 0 0 1-8.768 1.463 5.92 5.92 0 0 0-7.482 0 5.916 5.916 0 0 1-8.768-1.463 5.915 5.915 0 0 0-7.077-2.429 5.917 5.917 0 0 1-7.818-4.231 5.916 5.916 0 0 0-5.904-4.596 5.916 5.916 0 0 1-6.02-6.54 5.916 5.916 0 0 0-4.093-6.264 5.916 5.916 0 0 1-3.57-8.14 5.916 5.916 0 0 0-1.837-7.253 5.916 5.916 0 0 1-.735-8.859 5.916 5.916 0 0 0 .618-7.457A5.916 5.916 0 0 1 7.66 38.76a5.916 5.916 0 0 0 3.006-6.852 5.916 5.916 0 0 1 4.862-7.442 5.916 5.916 0 0 0 5.068-5.504 5.916 5.916 0 0 1 7.014-5.46 5.916 5.916 0 0 0 6.58-3.561 5.916 5.916 0 0 1 8.408-2.887 5.916 5.916 0 0 0 7.38-1.231"/><circle cx="54.041" cy="54.041" r="39.528" fill="#fff"/><path fill="#fa67c7" d="M25.783 20.242c.215-1 1.42-1.416 2.207-.762l5.856 4.87c.282.235.649.346 1.016.307l7.604-.812a1.352 1.352 0 0 1 1.403 1.851l-2.865 7.066a1.35 1.35 0 0 0 .017 1.057l3.1 6.945c.415.932-.317 1.974-1.34 1.906l-7.627-.504a1.37 1.37 0 0 0-1.005.347l-5.69 5.104c-.763.685-1.982.317-2.23-.673l-1.849-7.377a1.35 1.35 0 0 0-.638-.843l-6.615-3.79a1.352 1.352 0 0 1-.04-2.322l6.485-4.056c.313-.195.533-.508.61-.867z"/><path fill="#da39a1" d="M17.099 56.589a.72.72 0 0 1 .42-1.154l3.933-.776a.72.72 0 0 0 .462-.313l2.191-3.375a.71.71 0 0 1 1.221.041l1.936 3.514a.7.7 0 0 0 .437.344l3.865 1.038c.519.14.701.784.334 1.18l-2.736 2.947a.72.72 0 0 0-.192.526l.197 4.017a.716.716 0 0 1-1.015.688l-3.626-1.693a.7.7 0 0 0-.556-.019l-3.743 1.444a.71.71 0 0 1-.961-.754l.495-3.994a.72.72 0 0 0-.152-.537z"/><path fill="#ffcdbe" d="M31.07 32.28c-1.358 0-2.463.372-3.345 1.026-.672.597-.877 1.316-.796 1.909l8.577 16.426c.66.236 1.227-.206 1.606-.79.917-1.587 1.324-3.726 1.324-6.083 0-4.892-2.919-12.488-7.365-12.488"/><path fill="#ebae9d" d="M35.507 51.64v-4.046c0-4.892-2.919-12.488-7.365-12.488q-.644.001-1.212.109a8.6 8.6 0 0 1 .796-1.909c-.737.546-1.317 1.289-1.755 2.18v3.902c0 6.968 2.746 13.271 7.192 13.271.41 0 2.344-.116 2.344 0 .65-.462 1.183-1.076 1.606-1.808a5 5 0 0 1-1.606.79"/><path fill="#c38778" d="M33.767 51.877c-4.446 0-7.365-7.595-7.365-12.488 0-1.51.167-2.93.528-4.174a5.5 5.5 0 0 0-.959.27c-.755 1.535-1.092 3.505-1.092 5.654 0 4.892 2.918 12.487 7.365 12.487 1.317 0 2.395-.35 3.263-.967v-1.018a6.2 6.2 0 0 1-1.74.236"/><path fill="#ffcdbe" d="m72.493 49.244 9.536-13.758c-.964-1.958-2.608-3.206-5.101-3.206-1.092 0-2.092.46-2.98 1.223-2.192 2.851-3.563 6.637-3.563 9.578 0 2.427.78 5.814 2.108 6.162"/><path fill="#ebae9d" d="M82.028 35.486a6 6 0 0 0-2.17-.38c-4.448 0-7.366 7.596-7.366 12.488v1.65c-.976-1.6-1.406-3.798-1.406-6.225 0-2.94 1.055-6.858 2.862-9.515-2.724 2.346-4.385 7.574-4.385 11.264 0 3.444.867 6.426 2.93 7.892 4.204.618 6.153 0 7.765-2.006 1.807-2.657 2.862-6.574 2.862-9.515 0-2.15-.337-4.12-1.092-5.653"/><path fill="#c38778" d="M72.492 49.244v3.415c.868.617 1.947.967 3.263.967 1.774 0 3.304-1.209 4.503-2.972-.887.764-1.887 1.223-2.98 1.223-2.24 0-3.794-1.008-4.786-2.633"/><path fill="#56555b" d="M68.536 34.24c-2.744-4.49-9.006-6.23-14.537-6.23-3.252 0-6.757.602-9.651 2.011-1.761 1.375-3.065 2.773-3.948 4.22-3.143 5.143-5.271 14.504-5.271 21.993 0 12.233 14.255 19.09 18.87 19.09 3.16 0 12.488-3.819 17.424-10.11 1.46-2.538 2.384-5.523 2.384-8.98 0-7.49-2.129-16.85-5.271-21.994"/><path fill="#444145" d="M35.951 56.233c0-7.489 2.128-16.85 5.27-21.993.885-1.447 1.932-2.906 3.129-4.22-2.028.988-3.756 2.37-4.886 4.22-3.142 5.143-5.27 14.504-5.27 21.993 0 14.028 15.192 20.301 19.807 20.301 3.478 0 12.96-3.563 17.424-11.321-5.326 5.632-14.264 9.169-17.424 9.169-4.615 0-18.05-5.915-18.05-18.149"/><path fill="#c38778" d="M45.296 69.69c-.476 5.65 3.307 10.482 8.758 10.482 2.769 0 5.936-1.37 7.902-3.373 1.561-2.022 2.504-4.558 2.504-7.11z"/><path fill="#8c5e5e" d="M45.297 69.69h-1.758c0 5.687 4.684 11.3 10.46 11.3 3.187 0 6.04-1.707 7.958-4.192-2.32 1.474-5.038 2.432-7.317 2.432-5.45 0-9.343-4.869-9.343-9.54"/><path fill="#664646" d="M47.338 69.757c0 3.622 2.983 7.198 6.663 7.198s6.663-3.576 6.663-7.198z"/><path fill="#ebae9d" d="M67.808 40.735c-.624-1.797-2.266-2.838-3.926-2.508-2.902.576-6.298 1.379-9.882 1.379-3.585 0-6.98-.803-9.883-1.38a3.14 3.14 0 0 0-1.75.154c-.643.332-1.183 1.507-1.327 2.014-.783 2.763-2.161 7.306-2.161 12.023 0 2.205 5.123 4.855 8.809 4.855h12.975c1.853 0 6.237-.541 8.522-2.313.537-.672.873-1.467.873-2.408 0-4.717-1.289-9.053-2.25-11.816"/><path fill="#c38778" d="M47.688 56.33c-3.686 0-7.989-1.708-7.989-3.913 0-4.717 1.299-9.93 2.082-12.694.143-.507.34-.96.586-1.343-.966.372-1.778 1.21-2.176 2.355-.961 2.764-2.25 7.1-2.25 11.817 0 4.71 8.408 5.796 8.408 5.796h15.3s5.385-.696 7.536-3.388c-2.76 1.37-6.669 1.37-8.522 1.37z"/><path fill="#ffcdbe" d="M47.495 72.243c2.366 0 3.75-1.343 6.51-1.343s4.144 1.343 6.51 1.343c3.003 0 3.946-2.553 3.946-2.553l.004-.021c-.006-6.605-3.132-13.455-4.998-15.797-2.402-3.015-5.467-.811-5.467-.811s-2.125-1.527-4.223-.298c-2.228 1.859-5.3 9.912-5.3 16.524 0 0 1.474 2.956 3.018 2.956"/><path fill="#ebae9d" d="M64.46 69.69s-.942 1.61-3.945 1.61c-2.366 0-3.751-1.343-6.51-1.343s-4.144 1.344-6.51 1.344c-1.544 0-2.198-2.014-2.198-2.014 0-6.612 2.613-14.18 4.48-16.524a4.5 4.5 0 0 0-1.244 1.11c-1.868 2.343-4.994 9.205-4.994 15.817 0 0 .952 3.63 3.956 3.63 2.366 0 3.75-1.344 6.51-1.344s4.144 1.343 6.51 1.343c3.003 0 3.95-3.629 3.95-3.629v-.021z"/><path fill="#394240" d="M54 82c-2.97 0-5.814-1.35-8.01-3.803a13.25 13.25 0 0 1-2.717-4.72c-2.837-1.888-5.125-4.136-6.803-6.687-2.095-3.183-3.157-6.735-3.157-10.557q0-.828.033-1.677-.533.08-1.102.08c-2.319 0-4.488-1.743-6.108-4.907C24.82 47.155 24 43.864 24 41.139c0-2.799.55-5.167 1.592-6.848 1.222-1.975 3.117-3.02 5.48-3.02 2.379 0 4.633 1.896 6.237 5.164.452-1.02.932-1.952 1.435-2.774 1.388-2.273 3.63-4.015 6.664-5.178C47.94 27.513 50.911 27 54 27c2.651 0 5.261.386 7.548 1.117.468.15.741.706.61 1.243-.13.537-.614.85-1.081.702-2.136-.683-4.583-1.044-7.077-1.044-4.966 0-11.204 1.524-13.818 5.802-2.961 4.847-5.11 13.853-5.11 21.414 0 3.372.942 6.515 2.8 9.34 1.243 1.889 2.864 3.605 4.832 5.118a12 12 0 0 1-.044-1.026c.004-3.7.935-7.486 2.121-10.59a19 19 0 0 1-2.685-.811c-.46-.179-.706-.752-.55-1.28s.655-.81 1.115-.631c1.102.429 2.19.693 2.907.838.782-1.716 1.607-3.11 2.317-4 2.045-2.568 4.67-2.067 6.115-1.278 1.446-.789 4.07-1.29 6.116 1.277.71.891 1.534 2.285 2.316 4 .923-.187 2.57-.594 4.012-1.329 1.815-.923 2.735-2.037 2.735-3.31 0-3.468-.715-7.21-2.186-11.443-.467-1.341-1.712-2.136-2.96-1.887q-.563.112-1.15.232c-1.92.392-4.024.822-6.246 1.032v2.867c0 .558-.394 1.01-.88 1.01-.485 0-.878-.452-.878-1.01V40.6c-.583.02-1.175.02-1.758 0v2.753c0 .558-.393 1.01-.879 1.01-.485 0-.879-.452-.879-1.01v-2.867c-2.222-.21-4.326-.64-6.246-1.032q-.586-.12-1.15-.232c-1.248-.248-2.493.546-2.96 1.888-1.47 4.232-2.186 7.974-2.186 11.442 0 .803.353 1.521 1.079 2.195.378.35.436.986.13 1.42-.304.433-.858.5-1.235.15-1.15-1.067-1.732-2.334-1.732-3.765 0-3.729.756-7.716 2.312-12.19.773-2.223 2.83-3.538 4.892-3.129q.567.113 1.157.234c2.594.53 5.534 1.13 8.576 1.13s5.982-.6 8.576-1.13q.59-.121 1.157-.234c2.062-.409 4.12.906 4.892 3.128 1.556 4.475 2.312 8.462 2.312 12.19 0 2.671-2.056 4.279-3.781 5.157-1.367.696-2.848 1.122-3.937 1.369 1.172 3.067 2.095 6.8 2.12 10.458.014.103-.019.877-.043 1.158 1.968-1.514 3.589-3.23 4.831-5.119 1.86-2.825 2.802-5.967 2.802-9.34 0-7.561-2.15-16.567-5.112-21.414-.838-1.373-2.098-2.54-3.744-3.47-.436-.246-.615-.85-.4-1.35.213-.501.74-.707 1.176-.46 1.914 1.08 3.397 2.467 4.407 4.121a24 24 0 0 1 1.436 2.774c1.603-3.267 3.857-5.163 6.236-5.163 2.362 0 4.258 1.044 5.48 3.019C83.45 35.972 84 38.34 84 41.139c0 .557-.393 1.01-.879 1.01-.485 0-.879-.453-.879-1.01 0-1.905-.28-3.544-.82-4.81a5.5 5.5 0 0 0-1.564-.213c-1.85 0-3.248 1.644-4.095 3.023-1.071 1.745-1.904 4.144-2.236 6.44.474 2.27.818 4.616 1.003 6.912q.576.127 1.226.127c2.78 0 4.993-3.802 5.952-7.57.136-.535.624-.842 1.09-.685s.733.717.597 1.252c-1.06 4.161-3.696 9.02-7.639 9.02q-.569 0-1.102-.079.033.849.033 1.678c0 3.822-1.062 7.374-3.157 10.557-1.678 2.55-3.966 4.799-6.803 6.686a13.25 13.25 0 0 1-2.717 4.72C59.814 80.649 56.97 82 54 82m-8.743-8.327a11.2 11.2 0 0 0 1.959 3.077c1.866 2.084 4.275 3.232 6.784 3.232s4.918-1.148 6.784-3.232a11.2 11.2 0 0 0 1.955-3.068 4.1 4.1 0 0 1-2.224.647q-.174 0-.342-.009c-1.445 2.259-3.771 3.643-6.173 3.643-2.401 0-4.728-1.384-6.172-3.642q-.164.008-.333.008a4.1 4.1 0 0 1-2.238-.656m4.6.27c1.104 1.259 2.605 2.002 4.143 2.002 1.539 0 3.04-.744 4.145-2.004-.298-.09-.588-.19-.874-.287-1.009-.344-1.961-.669-3.266-.669s-2.258.325-3.266.669c-.289.098-.58.198-.882.29m4.148-2.976c1.56 0 2.732.4 3.766.752.93.317 1.734.592 2.744.592 2.01 0 2.866-2.156 3.066-2.757-.026-3.998-1.223-8.023-2.522-10.994-.458 1.46-1.445 2.677-2.737 3.337-.443.227-.963-.003-1.16-.512-.197-.51.002-1.106.446-1.332.989-.505 1.704-1.493 1.913-2.643.188-1.037-.061-2.052-.702-2.856-1.887-2.367-4.253-.71-4.352-.638a.78.78 0 0 1-.933 0c-.097-.068-2.486-1.704-4.352.638-.642.804-.89 1.819-.702 2.856.209 1.15.924 2.138 1.913 2.643.443.226.643.823.445 1.332-.197.51-.716.738-1.16.512-1.291-.66-2.279-1.876-2.737-3.337-1.295 2.964-2.49 6.978-2.522 10.965.185.572 1.03 2.785 3.076 2.785 1.01 0 1.814-.273 2.744-.59 1.034-.353 2.206-.753 3.766-.753M26.577 36.33c-.538 1.265-.82 2.904-.82 4.809 0 2.35.744 5.32 1.895 7.567.748 1.46 2.339 3.911 4.592 3.911q.65 0 1.226-.126c.185-2.296.53-4.642 1.003-6.913-.332-2.295-1.165-4.694-2.236-6.44-.848-1.378-2.245-3.023-4.095-3.023-.563 0-1.088.072-1.565.215m1.704-2.23c3.244.096 5.797 3.593 7.122 7.689.297-1.04.62-2.046.965-3.002-1.317-3.449-3.285-5.497-5.296-5.497-1.094 0-2.027.271-2.79.81m43.351 4.687c.346.956.668 1.961.965 3.002 1.325-4.096 3.878-7.593 7.122-7.69-.764-.538-1.697-.81-2.79-.81-2.012 0-3.98 2.05-5.297 5.498m-19.42 19.99c-.321 0-.632-.203-.786-.556l-.763-1.75c-.218-.498-.042-1.105.392-1.354s.962-.048 1.18.45l.763 1.75c.217.498.042 1.104-.392 1.354a.8.8 0 0 1-.393.107m3.575 0a.8.8 0 0 1-.393-.106c-.434-.25-.61-.856-.392-1.354l.763-1.75c.218-.498.746-.7 1.18-.45s.61.856.392 1.354l-.764 1.75c-.154.353-.464.557-.786.557m5.033-7.504c-.486 0-.88-.451-.88-1.009v-3.747c0-.557.394-1.009.88-1.009.485 0 .879.452.879 1.01v3.746c0 .558-.394 1.01-.88 1.01m-13.64 0c-.485 0-.879-.451-.879-1.009V46.52c0-.557.394-1.009.88-1.009.485 0 .878.452.878 1.01v3.746c0 .558-.393 1.01-.879 1.01"/></svg>