<svg xmlns="http://www.w3.org/2000/svg" width="114" height="146" fill="none" viewBox="0 0 114 146"><path fill="#a8c5ff" d="M53.91 5.148a6.02 6.02 0 0 1 9.046 0 6.02 6.02 0 0 0 7.51 1.253c3.153-1.803 7.173-.423 8.554 2.937a6.02 6.02 0 0 0 6.696 3.623c3.568-.68 6.922 1.93 7.138 5.556a6.02 6.02 0 0 0 5.156 5.601c3.596.515 5.921 4.073 4.948 7.573a6.02 6.02 0 0 0 3.058 6.972c3.234 1.654 4.277 5.774 2.22 8.768a6.02 6.02 0 0 0 .629 7.588c2.522 2.614 2.171 6.85-.747 9.014a6.02 6.02 0 0 0-1.869 7.38c1.536 3.292-.171 7.184-3.633 8.284a6.02 6.02 0 0 0-4.165 6.373c.385 3.613-2.494 6.74-6.125 6.655a6.02 6.02 0 0 0-6.009 4.676c-.81 3.541-4.547 5.564-7.954 4.305a6.02 6.02 0 0 0-7.202 2.472c-1.915 3.087-6.107 3.786-8.921 1.489a6.02 6.02 0 0 0-7.614 0c-2.814 2.297-7.006 1.598-8.921-1.489a6.02 6.02 0 0 0-7.201-2.472c-3.408 1.259-7.145-.764-7.955-4.305a6.02 6.02 0 0 0-6.008-4.676 6.02 6.02 0 0 1-6.126-6.655 6.02 6.02 0 0 0-4.165-6.373c-3.462-1.1-5.169-4.992-3.633-8.284a6.02 6.02 0 0 0-1.869-7.38c-2.918-2.164-3.269-6.4-.747-9.014a6.02 6.02 0 0 0 .629-7.588c-2.057-2.994-1.014-7.114 2.22-8.768a6.02 6.02 0 0 0 3.059-6.972c-.974-3.5 1.35-7.058 4.947-7.573a6.02 6.02 0 0 0 5.156-5.601c.216-3.626 3.57-6.236 7.138-5.556a6.02 6.02 0 0 0 6.696-3.623c1.381-3.36 5.401-4.74 8.555-2.937a6.02 6.02 0 0 0 7.51-1.253"/><path fill="#a8c5ff" d="M26.473 76.33h60.343v52.97c0 7.389-7.737 12.226-14.38 8.991l-11.412-5.56a10 10 0 0 0-8.759 0l-11.413 5.56c-6.642 3.235-14.379-1.602-14.379-8.991z"/><path fill="#da39a1" d="M26.473 76.33H81.07v46.493c0 7.391-7.742 12.228-14.385 8.987l-8.528-4.161a10 10 0 0 0-8.77 0l-8.528 4.161c-6.643 3.241-14.385-1.596-14.385-8.987z"/><path fill="#072a6f" d="M49.979 5.823a5.916 5.916 0 0 1 8.889 0 5.916 5.916 0 0 0 7.38 1.231 5.916 5.916 0 0 1 8.407 2.887 5.916 5.916 0 0 0 6.58 3.56 5.916 5.916 0 0 1 7.015 5.46 5.916 5.916 0 0 0 5.068 5.505 5.916 5.916 0 0 1 4.862 7.442 5.916 5.916 0 0 0 3.005 6.852 5.916 5.916 0 0 1 2.183 8.617 5.916 5.916 0 0 0 .617 7.457 5.915 5.915 0 0 1-.734 8.859 5.916 5.916 0 0 0-1.836 7.253 5.917 5.917 0 0 1-3.571 8.14 5.916 5.916 0 0 0-4.093 6.264 5.916 5.916 0 0 1-6.02 6.54 5.916 5.916 0 0 0-5.904 4.596 5.917 5.917 0 0 1-7.818 4.231 5.915 5.915 0 0 0-7.077 2.429 5.916 5.916 0 0 1-8.768 1.463 5.92 5.92 0 0 0-7.482 0 5.916 5.916 0 0 1-8.768-1.463 5.915 5.915 0 0 0-7.077-2.429 5.917 5.917 0 0 1-7.818-4.231 5.916 5.916 0 0 0-5.904-4.596 5.916 5.916 0 0 1-6.02-6.54 5.916 5.916 0 0 0-4.093-6.264 5.916 5.916 0 0 1-3.57-8.14 5.916 5.916 0 0 0-1.837-7.253 5.916 5.916 0 0 1-.735-8.859 5.916 5.916 0 0 0 .618-7.457A5.916 5.916 0 0 1 7.66 38.76a5.916 5.916 0 0 0 3.006-6.852 5.916 5.916 0 0 1 4.862-7.442 5.916 5.916 0 0 0 5.068-5.504 5.916 5.916 0 0 1 7.014-5.46 5.916 5.916 0 0 0 6.58-3.561 5.916 5.916 0 0 1 8.408-2.887 5.916 5.916 0 0 0 7.38-1.231"/><circle cx="54.041" cy="54.041" r="39.528" fill="#fff"/><path fill="#fa67c7" d="M25.783 20.242c.215-1 1.42-1.416 2.207-.762l5.856 4.87c.282.235.649.346 1.016.307l7.604-.812a1.352 1.352 0 0 1 1.403 1.851l-2.865 7.066a1.35 1.35 0 0 0 .017 1.057l3.1 6.945c.415.932-.317 1.974-1.34 1.906l-7.627-.504a1.37 1.37 0 0 0-1.005.347l-5.69 5.104c-.763.685-1.982.317-2.23-.673l-1.849-7.377a1.35 1.35 0 0 0-.638-.843l-6.615-3.79a1.352 1.352 0 0 1-.04-2.322l6.485-4.056c.313-.195.533-.508.61-.867z"/><path fill="#da39a1" d="M17.099 56.589a.72.72 0 0 1 .42-1.154l3.933-.776a.72.72 0 0 0 .462-.313l2.191-3.375a.71.71 0 0 1 1.221.041l1.936 3.514a.7.7 0 0 0 .437.344l3.865 1.038c.519.14.701.784.334 1.18l-2.736 2.947a.72.72 0 0 0-.192.526l.197 4.017a.716.716 0 0 1-1.015.688l-3.626-1.693a.7.7 0 0 0-.556-.019l-3.743 1.444a.71.71 0 0 1-.961-.754l.495-3.994a.72.72 0 0 0-.152-.537z"/><path fill="#fed2a4" d="m45.742 47.092-6.625 11.012-5.743-3.182c-3.169-1.756-4.255-5.644-2.425-8.685s5.88-4.083 9.05-2.328zm21.663 0 6.625 11.012 5.743-3.182c3.18-1.762 4.082-5.656 2.425-8.685-1.83-3.041-5.88-4.083-9.05-2.328z"/><path fill="#6f6571" d="M64.276 83.043H48.95c-6.57 0-12.216-4.472-13.463-10.663l-1.54-7.646a12.67 12.67 0 0 1 .784-7.51L45.677 31.72c1.797-4.189 6.05-6.922 10.77-6.922 4.67 0 8.889 2.677 10.718 6.8l11.318 25.52a12.67 12.67 0 0 1 .827 7.742l-1.59 7.61c-1.284 6.148-6.91 10.573-13.444 10.573"/><path fill="#5d5360" d="m39.146 72.38-1.54-7.646a12.67 12.67 0 0 1 .784-7.51L49.335 31.72c1.562-3.639 4.977-6.18 8.941-6.783a12 12 0 0 0-1.829-.139c-4.72 0-8.973 2.734-10.77 6.922L34.732 57.225a12.67 12.67 0 0 0-.784 7.509l1.54 7.647c1.247 6.19 6.893 10.662 13.463 10.662h3.658c-6.57 0-12.216-4.472-13.463-10.663"/><path fill="#fed2a4" d="m67.363 52.8 1.47-3.556c1.357-3.283-2.046-6.571-6.295-6.081l-5.962.687-5.963-.687c-4.25-.49-7.652 2.798-6.295 6.081l1.47 3.556a3.8 3.8 0 0 1-.071 3.107l-2.242 4.822q-.073.156-.141.314c-3.447 7.974 2.81 16.735 11.804 16.735h2.875c9.015 0 15.264-8.795 11.786-16.778q-.06-.136-.122-.271l-2.243-4.822a3.8 3.8 0 0 1-.07-3.107"/><path fill="#ffbd86" d="M46.992 61.043q.069-.158.14-.314l2.243-4.822c.464-.998.49-2.095.071-3.107l-1.47-3.556c-1.08-2.615.858-5.233 3.839-5.943l-1.202-.139c-4.25-.49-7.652 2.799-6.295 6.082l1.47 3.556a3.8 3.8 0 0 1-.071 3.107l-2.242 4.822a13 13 0 0 0-.141.314c-3.447 7.974 2.81 16.735 11.804 16.735h2.875q.196 0 .391-.006c-8.783-.25-14.809-8.871-11.412-16.729"/><path fill="#394240" d="M82.991 45.798c-1.933-3.213-6.342-4.51-9.818-2.894l-3.243-7.312c-.198-.446-.735-.654-1.2-.463a.865.865 0 0 0-.483 1.15l9.395 21.183a11.78 11.78 0 0 1 .773 7.226l-1.59 7.61c-1.195 5.718-6.472 9.867-12.548 9.867H48.952c-6.998 0-11.998-5.294-12.907-11.651-.096-.476-.576-.787-1.072-.695s-.82.552-.724 1.028c1.25 7.173 6.676 13.074 14.703 13.074h15.325c6.944 0 12.975-4.743 14.341-11.278l1.59-7.61c.615-2.944.214-6.01-1.093-8.733 4.086-1.832 6.306-6.463 3.876-10.502m-4.598 8.875-1.892-4.266 2.875-1.592a.86.86 0 0 0 .335-1.2.936.936 0 0 0-1.25-.32L75.78 48.78l-1.888-4.258c2.686-1.3 6.026-.324 7.516 2.154.763 1.267 2.036 5.329-3.014 7.997"/><path fill="#394240" d="M69.683 49.568c1.808-4.374-3.2-7.744-7.254-7.277l-5.853.675-5.854-.675c-2.574-.297-5.067.632-6.505 2.423-1.155 1.44-1.428 3.21-.748 4.854l1.47 3.556a3 3 0 0 1-.057 2.425c-2.646 5.69-5.676 9.297-1.132 17.254 2.207 3.864 6.807 5.852 11.388 5.852h2.875c4.587 0 9.028-2.082 11.395-5.865 4.483-7.164 1.5-11.568-1.138-17.24a3 3 0 0 1-.056-2.426zM66.6 56.265l2.242 4.821c1.671 3.597 1.181 7.907-1.22 11.096-2.753-.791-5.752-1.268-8.925-1.42-.508-.024-.934.35-.959.833-.025.484.364.897.868.92 2.682.129 5.315.517 7.702 1.134-2.194 2.066-5.156 3.251-8.294 3.251h-2.875c-3.144 0-6.112-1.19-8.31-3.264 2.455-.621 5.15-1.008 7.878-1.127.505-.022.895-.433.872-.917s-.45-.859-.955-.837c-3.172.139-6.307.624-9.108 1.41-2.392-3.186-2.875-7.488-1.205-11.079l2.242-4.821a4.66 4.66 0 0 0 .086-3.789l-1.47-3.555c-1.265-3.063 2.642-5.197 5.336-4.887l5.963.687c.072.008 6.18-.687 6.18-.687 2.69-.31 6.62 1.781 5.336 4.887l-1.47 3.555a4.67 4.67 0 0 0 .087 3.789"/><path fill="#394240" d="M59.821 57.929c-2.202.813-4.287.815-6.373.008-5.463-2.114-9.259 4.779-5.554 8.515q.639.53 1.293.03a.853.853 0 0 0 .032-1.24c-2.296-2.316-.046-7.067 3.545-5.677 2.5.968 5.096.968 7.714.002 3.526-1.301 6.118 3.028 3.682 5.609a.853.853 0 0 0 .065 1.24.94.94 0 0 0 1.291-.062c3.631-3.848-.314-10.411-5.695-8.425M48.757 49.11c2.594 1.245 5.205 1.867 7.816 1.867s5.224-.622 7.817-1.866a.86.86 0 0 0 .409-1.178.933.933 0 0 0-1.227-.392c-4.71 2.26-9.288 2.26-13.997 0a.933.933 0 0 0-1.227.392.86.86 0 0 0 .409 1.178"/><path fill="#394240" d="M34.564 67.786c.496-.093.82-.553.724-1.029-.714-3.082-1.004-6.181.29-9.198l10.945-25.505c1.663-3.874 5.559-6.378 9.925-6.378 4.666 0 8.66 2.937 10.238 7.084.197.447.734.655 1.2.465a.865.865 0 0 0 .483-1.151 12.795 12.795 0 0 0-11.92-8.153c-5.111 0-9.671 2.93-11.617 7.464l-4.929 11.486c-9.188-4.16-16.048 8.945-5.783 13.477-1.63 3.483-1.49 7.114-.628 10.743q.385.818 1.072.695m-.732-13.625c-2.699-1.494-3.648-4.896-2.09-7.485 1.48-2.461 4.785-3.443 7.464-2.179l-1.838 4.283-2.681-1.486a.935.935 0 0 0-1.25.321.86.86 0 0 0 .335 1.2l2.893 1.602-1.842 4.294zm18.775.182a.94.94 0 0 1-1.293 0 .853.853 0 0 1 0-1.241.94.94 0 0 1 1.293 0 .853.853 0 0 1 0 1.241m9.395 0a.94.94 0 0 1-1.293 0 .853.853 0 0 1 0-1.241.94.94 0 0 1 1.293 0 .853.853 0 0 1 0 1.241m-9.395 9.194a.94.94 0 0 1-1.293 0 .853.853 0 0 1 0-1.24.94.94 0 0 1 1.293 0 .853.853 0 0 1 0 1.24m9.395 0a.94.94 0 0 1-1.293 0 .853.853 0 0 1 0-1.24.94.94 0 0 1 1.293 0 .853.853 0 0 1 0 1.24"/></svg>