<svg xmlns="http://www.w3.org/2000/svg" width="114" height="146" fill="none" viewBox="0 0 114 146"><path fill="#a8c5ff" d="M53.91 5.148a6.02 6.02 0 0 1 9.046 0 6.02 6.02 0 0 0 7.51 1.253c3.153-1.803 7.173-.423 8.554 2.937a6.02 6.02 0 0 0 6.696 3.623c3.568-.68 6.922 1.93 7.138 5.556a6.02 6.02 0 0 0 5.156 5.601c3.596.515 5.921 4.073 4.948 7.573a6.02 6.02 0 0 0 3.058 6.972c3.234 1.654 4.277 5.774 2.22 8.768a6.02 6.02 0 0 0 .629 7.588c2.522 2.614 2.171 6.85-.747 9.014a6.02 6.02 0 0 0-1.869 7.38c1.536 3.292-.171 7.184-3.633 8.284a6.02 6.02 0 0 0-4.165 6.373c.385 3.613-2.494 6.74-6.125 6.655a6.02 6.02 0 0 0-6.009 4.676c-.81 3.541-4.547 5.564-7.954 4.305a6.02 6.02 0 0 0-7.202 2.472c-1.915 3.087-6.107 3.786-8.921 1.489a6.02 6.02 0 0 0-7.614 0c-2.814 2.297-7.006 1.598-8.921-1.489a6.02 6.02 0 0 0-7.201-2.472c-3.408 1.259-7.145-.764-7.955-4.305a6.02 6.02 0 0 0-6.008-4.676 6.02 6.02 0 0 1-6.126-6.655 6.02 6.02 0 0 0-4.165-6.373c-3.462-1.1-5.169-4.992-3.633-8.284a6.02 6.02 0 0 0-1.869-7.38c-2.918-2.164-3.269-6.4-.747-9.014a6.02 6.02 0 0 0 .629-7.588c-2.057-2.994-1.014-7.114 2.22-8.768a6.02 6.02 0 0 0 3.059-6.972c-.974-3.5 1.35-7.058 4.947-7.573a6.02 6.02 0 0 0 5.156-5.601c.216-3.626 3.57-6.236 7.138-5.556a6.02 6.02 0 0 0 6.696-3.623c1.381-3.36 5.401-4.74 8.555-2.937a6.02 6.02 0 0 0 7.51-1.253"/><path fill="#a8c5ff" d="M26.473 76.33h60.343v52.97c0 7.389-7.737 12.226-14.38 8.991l-11.412-5.56a10 10 0 0 0-8.759 0l-11.413 5.56c-6.642 3.235-14.379-1.602-14.379-8.991z"/><path fill="#da39a1" d="M26.473 76.33H81.07v46.493c0 7.391-7.742 12.228-14.385 8.987l-8.528-4.161a10 10 0 0 0-8.77 0l-8.528 4.161c-6.643 3.241-14.385-1.596-14.385-8.987z"/><path fill="#072a6f" d="M49.979 5.823a5.916 5.916 0 0 1 8.889 0 5.916 5.916 0 0 0 7.38 1.231 5.916 5.916 0 0 1 8.407 2.887 5.916 5.916 0 0 0 6.58 3.56 5.916 5.916 0 0 1 7.015 5.46 5.916 5.916 0 0 0 5.068 5.505 5.916 5.916 0 0 1 4.862 7.442 5.916 5.916 0 0 0 3.005 6.852 5.916 5.916 0 0 1 2.183 8.617 5.916 5.916 0 0 0 .617 7.457 5.915 5.915 0 0 1-.734 8.859 5.916 5.916 0 0 0-1.836 7.253 5.917 5.917 0 0 1-3.571 8.14 5.916 5.916 0 0 0-4.093 6.264 5.916 5.916 0 0 1-6.02 6.54 5.916 5.916 0 0 0-5.904 4.596 5.917 5.917 0 0 1-7.818 4.231 5.915 5.915 0 0 0-7.077 2.429 5.916 5.916 0 0 1-8.768 1.463 5.92 5.92 0 0 0-7.482 0 5.916 5.916 0 0 1-8.768-1.463 5.915 5.915 0 0 0-7.077-2.429 5.917 5.917 0 0 1-7.818-4.231 5.916 5.916 0 0 0-5.904-4.596 5.916 5.916 0 0 1-6.02-6.54 5.916 5.916 0 0 0-4.093-6.264 5.916 5.916 0 0 1-3.57-8.14 5.916 5.916 0 0 0-1.837-7.253 5.916 5.916 0 0 1-.735-8.859 5.916 5.916 0 0 0 .618-7.457A5.916 5.916 0 0 1 7.66 38.76a5.916 5.916 0 0 0 3.006-6.852 5.916 5.916 0 0 1 4.862-7.442 5.916 5.916 0 0 0 5.068-5.504 5.916 5.916 0 0 1 7.014-5.46 5.916 5.916 0 0 0 6.58-3.561 5.916 5.916 0 0 1 8.408-2.887 5.916 5.916 0 0 0 7.38-1.231"/><circle cx="54.041" cy="54.041" r="39.528" fill="#fff"/><path fill="#fa67c7" d="M25.783 20.242c.215-1 1.42-1.416 2.207-.762l5.856 4.87c.282.235.649.346 1.016.307l7.604-.812a1.352 1.352 0 0 1 1.403 1.851l-2.865 7.066a1.35 1.35 0 0 0 .017 1.057l3.1 6.945c.415.932-.317 1.974-1.34 1.906l-7.627-.504a1.37 1.37 0 0 0-1.005.347l-5.69 5.104c-.763.685-1.982.317-2.23-.673l-1.849-7.377a1.35 1.35 0 0 0-.638-.843l-6.615-3.79a1.352 1.352 0 0 1-.04-2.322l6.485-4.056c.313-.195.533-.508.61-.867z"/><path fill="#da39a1" d="M17.099 56.589a.72.72 0 0 1 .42-1.154l3.933-.776a.72.72 0 0 0 .462-.313l2.191-3.375a.71.71 0 0 1 1.221.041l1.936 3.514a.7.7 0 0 0 .437.344l3.865 1.038c.519.14.701.784.334 1.18l-2.736 2.947a.72.72 0 0 0-.192.526l.197 4.017a.716.716 0 0 1-1.015.688l-3.626-1.693a.7.7 0 0 0-.556-.019l-3.743 1.444a.71.71 0 0 1-.961-.754l.495-3.994a.72.72 0 0 0-.152-.537z"/><path fill="#f8d3d6" d="m46.861 43.307-7.6-12.937s-1.778 7.438-1.778 19.14h9.378z"/><path fill="#ebb3b8" d="M27.797 39.429c0 6.444 4.422 10.807 12.423 10.807l1.329-1.983c-2.187-1.891-2.7-4.627-2.7-6.312v-9.714c0-.643-.267-1.37-.595-1.857-.52-.772-1.374-1.434-2.972-1.434-1.382.167-2.726.695-3.918 1.521-1.973 1.811-3.567 4.818-3.567 8.972"/><path fill="#e27f86" d="M39.767 41.941v-9.714c0-.643-.226-1.37-.505-1.857-.544-.952-1.483-1.491-3.042-1.491q-.471 0-.938.057c1.08.162 1.781.662 2.222 1.434.279.488.505 1.214.505 1.857v9.714c0 2.495.78 4.686 2.697 6.343l-.815 1.217c-5.292 0-11.254-3.003-11.254-10.072 0-4.154.966-7.225 2.727-8.972-2.602 1.804-4.485 5.023-4.485 8.972 0 7.069 5.324 11.81 13.605 11.81l2.276-3.396c-1.818-1.198-2.993-3.094-2.993-5.902"/><path fill="#f8d3d6" d="m62.092 43.307 7.6-12.937s1.778 7.437 1.778 19.14h-9.378z"/><path fill="#ebb3b8" d="M73.671 28.936c-1.563 0-2.507.662-3.035 1.434-.333.488-.512 1.214-.512 1.857v9.714c0 2.707-.901 4.576-2.79 6.208l1.468 2.19c6.307 0 10.266-2.738 11.897-5.24.895-1.638 1.375-3.55 1.375-5.67 0-5.758-4.002-9.963-8.403-10.493"/><path fill="#e27f86" d="m69.062 49.501-.815-1.217c1.916-1.657 2.697-3.848 2.697-6.343v-9.714c0-.643.226-1.37.505-1.857.441-.772 1.142-1.272 2.222-1.434a8 8 0 0 0-.938-.057c-1.56 0-2.498.539-3.042 1.491-.279.488-.505 1.214-.505 1.857v9.714c0 2.808-1.175 4.704-2.993 5.902l2.276 3.397c5.796 0 10.143-2.324 12.23-6.142-2.928 3.236-7.241 4.403-11.637 4.403"/><path fill="#fdfbef" d="M54.71 78.835c1.081 0 2.24-.31 2.835-.906.086-.318.168-.683.25-1.107l-3.318-3.515-2.071 2.194c0 3.159.68 3.334 2.305 3.334"/><path fill="#fff5df" d="M54.711 78.234c-1.625 0-1.818-.002-2.305-2.733l-1.247 1.321c.608 3.173 1.246 3.17 3.318 3.17 1.795 0 2.513 0 3.069-2.063-.856.218-1.755.305-2.835.305"/><path fill="#f5fcff" d="M62.092 43.307c-1.92-.953-4.577-1.364-7.615-1.364-2.37 0-4.508.251-6.245.814-5.472 5.086-11.25 15.244-11.25 20.466 0 4.513 5.03 8.282 9.392 8.997 1.115 2.585 2.26 3.672 4.785 3.672 1.215 0 3.318-.585 3.318-.585s2.337.585 3.4.585c2.631 0 4.269-1.27 5.405-3.906 2.817-.462 7.528-2.913 9.216-6.389a7.2 7.2 0 0 0 .41-2.374c0-7.425-8.896-18.963-10.816-19.916"/><path fill="#d8e2f3" d="M63.253 71.165c-1.1 2.637-2.745 3.907-5.376 3.907-1.063 0-3.4-.586-3.4-.586s-2.103.586-3.318.586c-2.526 0-3.208-1.087-4.287-3.672-4.227-.715-9.069-3.664-9.069-8.178 0-5.221 4.368-12.28 10.43-20.465-.49.159-.95.34-1.372.55-1.92.953-10.816 12.49-10.816 19.915 0 5.019 5.428 8.986 9.655 9.7 1.08 2.586 2.933 3.908 5.459 3.908 1.215 0 3.318-.586 3.318-.586s2.102.586 3.165.586c2.632 0 4.51-1.27 5.611-3.907 3.534-.597 7.906-3.468 9.245-7.326-2.862 3.367-6.516 5.107-9.245 5.568"/><path fill="#394240" d="M74.15 88a.88.88 0 0 1-.759-.436c-2.353-4.028-7.03-8.599-11.489-11.255q-1.409 1.15-3.385 1.356c-.274 1.203-.63 2.113-1.313 2.641-.73.565-1.61.565-2.723.565-1.123 0-2.002 0-2.732-.565-.68-.527-1.037-1.432-1.31-2.63-1.302-.123-2.44-.584-3.39-1.366-4.458 2.656-9.134 7.226-11.487 11.254a.879.879 0 0 1-1.518-.886c2.432-4.163 7.195-8.865 11.79-11.687a8.5 8.5 0 0 1-.675-1.137c-5.263.532-11.512 2.68-15.351 5.294a.88.88 0 0 1-.99-1.453c3.333-2.27 8.37-4.205 13.127-5.134a15 15 0 0 1-3.248-2.223c-2.277-2.064-3.53-4.59-3.53-7.116 0-3.318 1.666-7.42 3.803-11.156-2.722-.189-5.124-.894-7.154-2.104a.879.879 0 1 1 .9-1.51c1.978 1.18 4.491 1.835 7.28 1.903a52 52 0 0 1 1.546-2.324c-1.74-1.46-2.654-3.55-2.654-6.09v-9.714c0-.436-.16-1.02-.389-1.42-.28-.489-.79-1.05-2.279-1.05-2.102 0-4.22.979-5.81 2.684-1.71 1.834-2.652 4.315-2.652 6.988 0 2.665.824 5.04 2.383 6.869a.879.879 0 1 1-1.338 1.14C26.97 45.287 26 42.518 26 39.428c0-3.118 1.11-6.025 3.124-8.186C31.046 29.182 33.633 28 36.22 28c1.79 0 3.068.649 3.802 1.929l7.2 12.256c1.866-.745 4.301-1.121 7.255-1.121s5.388.377 7.255 1.12l7.2-12.255c.733-1.28 2.012-1.929 3.8-1.929 2.588 0 5.174 1.182 7.097 3.242a.879.879 0 0 1-1.286 1.2c-1.59-1.706-3.708-2.684-5.81-2.684-1.487 0-1.999.559-2.278 1.047l-.001.002c-.229.4-.389.984-.389 1.42v9.714c0 2.54-.913 4.63-2.651 6.088a52 52 0 0 1 1.544 2.326c7.443-.178 12.237-4.447 12.237-10.926 0-1.546-.306-3.012-.911-4.358a.879.879 0 0 1 1.603-.72 12.3 12.3 0 0 1 1.066 5.078c0 3.703-1.355 6.866-3.92 9.149-2.288 2.037-5.398 3.232-9.05 3.488.504.881.984 1.786 1.423 2.697a.879.879 0 0 1-1.583.763c-2.815-5.84-7.117-10.923-8.116-11.43l-.012-.005c-1.7-.842-4.128-1.27-7.218-1.27s-5.518.428-7.218 1.27l-.011.005c-.05.025-.274.157-.786.661a.879.879 0 0 1-1.234-1.251q.252-.25.472-.44l-5.055-8.605v7.48c0 1.979.651 3.545 1.937 4.667q.218-.285.432-.56a.879.879 0 0 1 1.384 1.084c-5.163 6.588-7.474 12.828-7.474 16.09 0 2.023 1.049 4.087 2.954 5.813 1.709 1.55 3.94 2.678 5.969 3.021a.88.88 0 0 1 .664.528c.946 2.266 2.466 3.367 4.648 3.367.609 0 1.555-.184 2.273-.35-.45-.287-.845-.708-1.144-1.088-.236-.299-1.006-1.336-1.006-2.14a.879.879 0 0 1 1.758-.028c.087.46.994 1.67 1.437 1.833.443-.162 1.35-1.372 1.436-1.833a.88.88 0 0 1 1.758.027c0 .805-.77 1.843-1.006 2.141-.3.38-.696.803-1.147 1.09.7.165 1.603.348 2.124.348 2.316 0 3.841-1.07 4.8-3.367a.88.88 0 0 1 .665-.528c2.028-.343 4.26-1.472 5.969-3.02 1.904-1.727 2.953-3.791 2.953-5.814 0-1.28-.292-2.787-.87-4.477a.879.879 0 1 1 1.664-.568c.64 1.874.964 3.572.964 5.045 0 2.525-1.254 5.052-3.53 7.116a15 15 0 0 1-3.248 2.223c4.757.93 9.794 2.864 13.126 5.134a.88.88 0 0 1-.99 1.453c-3.838-2.614-10.088-4.762-15.35-5.294a8.5 8.5 0 0 1-.674 1.138c4.594 2.822 9.357 7.523 11.788 11.686A.879.879 0 0 1 74.151 88M52.234 77.62c.147.566.341 1.102.592 1.296.255.197.838.197 1.647.197.817 0 1.401 0 1.656-.197.25-.193.442-.724.589-1.286-.855-.123-1.8-.36-2.242-.476a22 22 0 0 1-2.242.465m3.68-5.25v.002zm-2.873 0v.002zm10.21-29.299c.811.707 1.924 1.955 3.124 3.534 1.284-1.121 1.934-2.687 1.934-4.664v-7.48zm-1.465 22.25a.88.88 0 0 1-.879-.88v-4.1a.879.879 0 1 1 1.758 0v4.1a.88.88 0 0 1-.879.88m-14.617 0a.88.88 0 0 1-.879-.88v-4.1a.879.879 0 0 1 1.758 0v4.1a.88.88 0 0 1-.88.88"/></svg>
