<svg width="39" height="59" viewBox="0 0 39 59" fill="none" xmlns="http://www.w3.org/2000/svg">
<path d="M19.0688 43.5389C16.1769 43.5389 13.8324 41.3265 13.8324 38.5976V36.5017C13.8324 31.6245 17.0871 27.2616 21.9314 25.6454C25.5752 24.4296 27.9232 21.0292 27.6409 17.3763C27.332 13.3764 23.9 10.1624 19.6581 9.90025C15.1712 9.62052 11.1738 12.6784 10.556 16.8561C10.5007 17.2295 10.4728 17.6123 10.4728 17.9938C10.4728 20.7227 8.12827 22.9351 5.23637 22.9351C2.34448 22.9351 0 20.7227 0 17.9938C0 17.1572 0.0618435 16.315 0.183793 15.4904C1.55591 6.21212 10.4105 -0.576428 20.3423 0.038689C29.7709 0.621345 37.3991 7.76603 38.0861 16.6577C38.7103 24.7393 33.5029 32.2665 25.4226 34.9628C24.7542 35.1857 24.3053 35.8042 24.3053 36.5017V38.5976C24.3052 41.3266 21.9608 43.5389 19.0688 43.5389Z" fill="#7C8583"/>
<path d="M19.0684 58.2419C16.1765 58.2419 13.832 56.0295 13.832 53.3006V53.2597C13.832 50.5307 16.1765 48.3184 19.0684 48.3184C21.9603 48.3184 24.3048 50.5307 24.3048 53.2597V53.3006C24.3048 56.0295 21.9604 58.2419 19.0684 58.2419Z" fill="#7C8583"/>
<path d="M4.81253 15.4915C4.68959 16.3158 4.62948 17.1575 4.62948 17.9942C4.62948 19.939 5.81955 21.6223 7.55093 22.4269C6.85264 22.7527 6.06792 22.9354 5.23625 22.9354C2.3461 22.9354 0 20.724 0 17.9942C0 17.1575 0.0627127 16.3158 0.185656 15.4915C1.55628 6.21136 10.4124 -0.575906 20.3433 0.0386245C20.699 0.0607729 21.0522 0.0928822 21.4026 0.134835C12.9938 1.1123 6.01837 7.34175 4.81253 15.4915Z" fill="#7C8583"/>
<path d="M26.56 25.6456C21.716 27.2622 18.4598 31.6258 18.4598 36.5029V38.5983C18.4598 40.5432 19.6524 42.2265 21.3839 43.0311C20.6856 43.3568 19.9009 43.5395 19.0693 43.5395C16.1765 43.5395 13.833 41.3281 13.833 38.5983V36.5029C13.833 31.6259 17.0867 27.2623 21.9332 25.6456C25.5765 24.4288 27.9226 21.0302 27.6402 17.3774C27.3761 13.9419 24.8077 11.0862 21.3997 10.1853C22.3178 9.94097 23.2907 9.83972 24.2873 9.90148C28.5295 10.163 31.9611 13.3766 32.2697 17.3774C32.552 21.0302 30.2033 24.4288 26.56 25.6456Z" fill="#7C8583"/>
<path d="M21.3839 57.7333C20.6856 58.0591 19.9009 58.2418 19.0693 58.2418C16.1765 58.2418 13.833 56.0303 13.833 53.3005V53.2586C13.833 50.5313 16.1765 48.3174 19.0693 48.3174C19.9009 48.3174 20.6856 48.5001 21.3839 48.8259C19.6524 49.6329 18.4598 51.3162 18.4598 53.2586V53.3005C18.4598 55.2454 19.6524 56.9287 21.3839 57.7333Z" fill="#7C8583"/>
</svg>
