<svg xmlns="http://www.w3.org/2000/svg" width="114" height="146" fill="none" viewBox="0 0 114 146"><path fill="#a8c5ff" d="M53.91 5.148a6.02 6.02 0 0 1 9.046 0 6.02 6.02 0 0 0 7.51 1.253c3.153-1.803 7.173-.423 8.554 2.937a6.02 6.02 0 0 0 6.696 3.623c3.568-.68 6.922 1.93 7.138 5.556a6.02 6.02 0 0 0 5.156 5.601c3.596.515 5.921 4.073 4.948 7.573a6.02 6.02 0 0 0 3.058 6.972c3.234 1.654 4.277 5.774 2.22 8.768a6.02 6.02 0 0 0 .629 7.588c2.522 2.614 2.171 6.85-.747 9.014a6.02 6.02 0 0 0-1.869 7.38c1.536 3.292-.171 7.184-3.633 8.284a6.02 6.02 0 0 0-4.164 6.373c.383 3.613-2.495 6.74-6.126 6.655a6.02 6.02 0 0 0-6.009 4.676c-.81 3.541-4.547 5.564-7.954 4.305a6.02 6.02 0 0 0-7.201 2.472 6.02 6.02 0 0 1-8.922 1.489 6.02 6.02 0 0 0-7.614 0c-2.814 2.297-7.006 1.598-8.921-1.489a6.02 6.02 0 0 0-7.201-2.472c-3.408 1.259-7.145-.764-7.955-4.305a6.02 6.02 0 0 0-6.008-4.676 6.02 6.02 0 0 1-6.126-6.655 6.02 6.02 0 0 0-4.165-6.373c-3.462-1.1-5.169-4.992-3.633-8.284a6.02 6.02 0 0 0-1.869-7.38c-2.918-2.164-3.269-6.4-.747-9.014a6.02 6.02 0 0 0 .629-7.588c-2.057-2.994-1.014-7.114 2.22-8.768a6.02 6.02 0 0 0 3.059-6.972c-.974-3.5 1.35-7.058 4.947-7.573a6.02 6.02 0 0 0 5.156-5.601c.216-3.626 3.57-6.236 7.138-5.556a6.02 6.02 0 0 0 6.696-3.623c1.382-3.36 5.401-4.74 8.555-2.937a6.02 6.02 0 0 0 7.51-1.253"/><path fill="#a8c5ff" d="M26.473 76.33h60.343v52.97c0 7.389-7.737 12.226-14.38 8.991l-11.412-5.56a10 10 0 0 0-8.759 0l-11.413 5.56c-6.642 3.235-14.379-1.602-14.379-8.991z"/><path fill="#da39a1" d="M26.473 76.33H81.07v46.493c0 7.391-7.742 12.228-14.385 8.987l-8.528-4.161a10 10 0 0 0-8.77 0l-8.528 4.161c-6.643 3.241-14.385-1.596-14.385-8.987z"/><path fill="#072a6f" d="M49.979 5.823a5.916 5.916 0 0 1 8.889 0 5.916 5.916 0 0 0 7.38 1.231 5.916 5.916 0 0 1 8.407 2.887 5.916 5.916 0 0 0 6.58 3.56 5.916 5.916 0 0 1 7.015 5.46 5.916 5.916 0 0 0 5.068 5.505 5.916 5.916 0 0 1 4.862 7.442 5.916 5.916 0 0 0 3.005 6.852 5.916 5.916 0 0 1 2.183 8.617 5.916 5.916 0 0 0 .617 7.457 5.915 5.915 0 0 1-.734 8.859 5.916 5.916 0 0 0-1.836 7.253 5.917 5.917 0 0 1-3.571 8.14 5.916 5.916 0 0 0-4.093 6.264 5.916 5.916 0 0 1-6.02 6.54 5.916 5.916 0 0 0-5.904 4.596 5.917 5.917 0 0 1-7.818 4.231 5.915 5.915 0 0 0-7.077 2.429 5.916 5.916 0 0 1-8.768 1.463 5.92 5.92 0 0 0-7.482 0 5.916 5.916 0 0 1-8.768-1.463 5.915 5.915 0 0 0-7.077-2.429 5.917 5.917 0 0 1-7.818-4.231 5.916 5.916 0 0 0-5.904-4.596 5.916 5.916 0 0 1-6.02-6.54 5.916 5.916 0 0 0-4.093-6.264 5.916 5.916 0 0 1-3.57-8.14 5.916 5.916 0 0 0-1.837-7.253 5.916 5.916 0 0 1-.735-8.859 5.916 5.916 0 0 0 .618-7.457A5.916 5.916 0 0 1 7.66 38.76a5.916 5.916 0 0 0 3.006-6.852 5.916 5.916 0 0 1 4.862-7.442 5.916 5.916 0 0 0 5.068-5.504 5.916 5.916 0 0 1 7.014-5.46 5.916 5.916 0 0 0 6.58-3.561 5.916 5.916 0 0 1 8.408-2.887 5.916 5.916 0 0 0 7.38-1.231"/><circle cx="54.041" cy="54.041" r="39.528" fill="#fff"/><path fill="#fa67c7" d="M25.783 20.242a1.367 1.367 0 0 1 2.207-.762l5.856 4.87c.282.235.649.346 1.016.307l7.604-.812a1.352 1.352 0 0 1 1.403 1.851l-2.865 7.066a1.35 1.35 0 0 0 .017 1.057l3.1 6.945c.415.932-.317 1.974-1.34 1.906l-7.627-.504a1.37 1.37 0 0 0-1.005.347l-5.69 5.104c-.763.685-1.982.317-2.23-.673l-1.849-7.377a1.35 1.35 0 0 0-.638-.843l-6.615-3.79a1.352 1.352 0 0 1-.04-2.322l6.485-4.056c.313-.195.533-.508.61-.867z"/><path fill="#da39a1" d="M17.099 56.589a.72.72 0 0 1 .42-1.154l3.933-.776a.72.72 0 0 0 .462-.313l2.191-3.375a.71.71 0 0 1 1.222.041l1.935 3.514a.7.7 0 0 0 .437.344l3.865 1.038c.519.14.701.784.334 1.18l-2.736 2.947a.72.72 0 0 0-.192.526l.197 4.017a.716.716 0 0 1-1.015.688l-3.626-1.693a.7.7 0 0 0-.556-.019l-3.743 1.444a.71.71 0 0 1-.961-.754l.495-3.994a.72.72 0 0 0-.152-.537z"/><path fill="#e8ad8c" d="m51.52 49.476-7.593 5.505c-9.57-2.241-15.542-8.268-16.963-19.09-.396-2.502 2.307-4.666 4.777-3.801a32.8 32.8 0 0 1 6.307 2.704c5.958 3.334 10.719 8.46 13.473 14.682m28.531-13.585c-1.42 10.822-7.394 16.849-16.962 19.09l-7.595-5.505c2.755-6.222 7.515-11.348 13.474-14.682a32.8 32.8 0 0 1 6.307-2.704c2.47-.865 5.172 1.299 4.776 3.801"/><path fill="#e19974" d="M75.275 32.09q-.395.122-.785.254c1.263.68 2.13 2.054 1.894 3.547-1.285 9.79-6.296 15.655-14.323 18.345l1.028.745c9.569-2.241 15.542-8.268 16.963-19.09.396-2.502-2.307-4.666-4.777-3.801"/><path fill="#e19974" d="m63.09 54.982-7.595-5.506c2.755-6.221 7.516-11.347 13.474-14.682h.003c-5.019 6.938-7.79 13.723-5.882 20.188m-19.163-.001c1.907-6.465-.863-13.25-5.882-20.187h.002c5.96 3.335 10.72 8.46 13.474 14.682z"/><path fill="#e8ad8c" d="M66.8 62.338v10.986c0 3.834-1.957 7.339-5.058 9.06l-8.233 4.57-8.234-4.57c-3.1-1.721-5.058-5.226-5.058-9.06V62.338c0-2.992 1.197-5.831 3.27-7.757l.033-.031 4.113-3.786c1.65-1.519 3.729-2.35 5.875-2.35a8.4 8.4 0 0 1 3.125.606 9 9 0 0 1 2.75 1.744l4.113 3.786.047.045c2.065 1.924 3.257 4.757 3.257 7.743"/><path fill="#e8ad8c" d="m63.542 54.595-4.41 5.118a11.92 11.92 0 0 0-2.917 7.787v8.443H50.8V67.5c0-2.846-1.032-5.601-2.917-7.787l-4.397-5.132.034-.031 4.112-3.786c1.65-1.519 3.729-2.35 5.876-2.35 1.073 0 2.13.208 3.124.606a9 9 0 0 1 2.751 1.744l4.113 3.786z"/><path fill="#e19974" d="M63.544 54.594 61.64 56.8c.962 1.63 1.49 3.55 1.49 5.538v10.986c0 3.832-1.956 7.338-5.057 9.059l-6.4 3.552 1.834 1.018 8.234-4.57c3.1-1.721 5.057-5.227 5.057-9.06V62.34c0-2.986-1.192-5.82-3.256-7.745"/><path fill="#e19974" d="m63.497 54.55-4.114-3.786c-1.649-1.519-3.728-2.35-5.875-2.35-.62 0-1.234.07-1.834.204a8.85 8.85 0 0 1 4.042 2.146l4.113 3.786a9.9 9.9 0 0 1 1.813 2.25l1.902-2.206z"/><path fill="#fae2c0" d="m58.731 88.605-2.7 1.044a7 7 0 0 1-5.046 0l-2.7-1.044c-2.58-.997-4.271-3.411-4.271-6.096 0-3.626 3.041-6.566 6.793-6.566h5.401c3.752 0 6.793 2.94 6.793 6.566 0 2.685-1.69 5.1-4.27 6.096"/><path fill="#fddeb0" d="M56.208 75.943h-3.667c3.751 0 6.793 2.94 6.793 6.566 0 2.685-1.691 5.1-4.27 6.096l-2.7 1.044a7 7 0 0 1-.69.226 7 7 0 0 0 4.357-.225l2.7-1.045c2.58-.997 4.27-3.411 4.27-6.096 0-3.626-3.041-6.566-6.793-6.566"/><path fill="#685e68" d="m50.806 75.943-1.37 1.662c-.791.96-.358 2.388.843 2.783l2.637.867c.383.126.798.126 1.181 0l2.637-.867c1.202-.395 1.635-1.823.844-2.783l-1.37-1.662z"/><path fill="#554e56" d="m57.58 77.605-1.371-1.662H52.54l1.37 1.662c.792.96.359 2.388-.843 2.783l-1.394.458 1.244.409c.382.126.797.126 1.18 0l2.637-.867c1.202-.395 1.635-1.823.844-2.783"/><path fill="#394240" d="M79.308 32.043c-1.255-.995-2.87-1.288-4.326-.785-8.535 2.64-15.717 8.629-19.653 16.458a9.3 9.3 0 0 0-3.641 0 32 32 0 0 0-3.131-4.994.93.93 0 0 0-1.271-.185.86.86 0 0 0-.191 1.229 30 30 0 0 1 2.838 4.484c-1.668.61-3.23 2.133-4.515 3.34.23-4.725-1.568-9.315-4.204-13.666a31 31 0 0 1 3.381 2.965.93.93 0 0 0 1.285.031.86.86 0 0 0 .032-1.242c-3.813-3.874-8.613-6.785-13.878-8.42-2.968-1.147-6.56 1.723-5.97 4.755C27.36 45.7 32.232 52.347 41.65 55.277c-1.504 1.965-2.342 4.453-2.342 7.061v3.414c0 .486.407.879.91.879.501 0 .908-.394.908-.879v-3.414c0-2.42.836-4.71 2.32-6.428l3.74 4.365A11.08 11.08 0 0 1 49.89 67.5v7.617c-2.901.334-5.313 2.233-6.302 4.796-1.561-1.725-2.463-4.096-2.463-6.589v-3.709c0-.485-.407-.878-.909-.878s-.909.393-.909.878v3.71c0 3.364 1.42 6.554 3.819 8.633-.39 4.688 3.319 7.29 7.52 8.507a7.92 7.92 0 0 0 5.722 0c4.204-1.218 7.91-3.82 7.521-8.507 2.4-2.08 3.819-5.269 3.819-8.634V62.338c0-2.608-.839-5.097-2.342-7.062 4.834-1.493 8.61-4.053 11.237-7.621a.86.86 0 0 0-.214-1.225.93.93 0 0 0-1.267.206c-2.531 3.438-6.26 5.857-11.09 7.195l-.379-.35c-1.008-5.152.939-11.053 5.944-18.02a31.8 31.8 0 0 1 5.955-2.535c1.748-.712 3.974 1.063 3.597 2.855-.375 2.861-1.092 5.434-2.13 7.648a.867.867 0 0 0 .452 1.163c.457.2.996.005 1.204-.437 1.112-2.372 1.878-5.111 2.276-8.143.23-1.485-.383-2.968-1.644-3.969m-51.442 3.738-.003-.022c-.138-.87.236-1.752 1-2.358.757-.601 1.718-.783 2.568-.485q.017.007.032.01a32 32 0 0 1 5.956 2.535c5.005 6.968 6.951 12.868 5.943 18.021l-.38.35c-8.898-2.46-13.845-8.37-15.116-18.051m20.718 23.371-3.856-4.5c2.335-2.088 5.298-5.616 8.78-5.36 3.567-.23 6.43 3.276 8.793 5.371l-3.867 4.487a12.8 12.8 0 0 0-3.127 8.35v7.564H51.71V67.5c0-3.045-1.11-6.01-3.125-8.348m5.222 21.27a.96.96 0 0 1-.596 0l-2.636-.866c-.595-.176-.828-.945-.426-1.403l1.097-1.332h4.526l1.097 1.332c.402.458.169 1.227-.425 1.403zm-5.218-3.18c-1.004 1.376-.268 3.477 1.4 3.978l2.611.858v1.451c.03 1.368-1.218 2.575-2.634 2.547h-3.748c-2.488-2.782-1.146-7.604 2.37-8.834m.146 10.59c2.22-.02 4.196-.04 4.774-1.695.66 1.744 2.833 1.814 4.774 1.696-3.313 1.87-6.491 1.802-9.547 0M60.8 86.077h-3.748c-1.416.028-2.664-1.179-2.634-2.547v-1.451l2.61-.858c1.67-.5 2.405-2.602 1.402-3.978 3.517 1.23 4.858 6.053 2.37 8.834m5.092-12.752c0 2.493-.902 4.864-2.463 6.59-.99-2.564-3.401-4.463-6.303-4.797V67.5c0-2.635.961-5.201 2.706-7.225l3.75-4.352c1.478 1.716 2.31 4.001 2.31 6.415zM61.598 51.59c-1.294-1.212-2.83-2.722-4.515-3.34 2.086-4.05 5.082-7.568 8.715-10.32-2.255 3.645-4.695 8.341-4.2 13.66"/><path fill="#394240" d="M46.822 64.93v-1.834c0-.485-.407-.879-.909-.879s-.909.394-.909.879v1.835c0 .485.407.878.91.878.501 0 .908-.393.908-.878m14.281-2.714c-.503 0-.91.394-.91.879v1.835c0 .485.408.878.91.878s.908-.393.908-.878v-1.835c0-.485-.406-.879-.908-.879"/></svg>