<svg xmlns="http://www.w3.org/2000/svg" width="114" height="146" fill="none" viewBox="0 0 114 146"><path fill="#a8c5ff" d="M53.91 5.148a6.02 6.02 0 0 1 9.046 0 6.02 6.02 0 0 0 7.51 1.253c3.153-1.803 7.173-.423 8.554 2.937a6.02 6.02 0 0 0 6.696 3.623c3.568-.68 6.922 1.93 7.138 5.556a6.02 6.02 0 0 0 5.156 5.601c3.596.515 5.921 4.073 4.948 7.573a6.02 6.02 0 0 0 3.058 6.972c3.234 1.654 4.277 5.774 2.22 8.768a6.02 6.02 0 0 0 .629 7.588c2.522 2.614 2.171 6.85-.747 9.014a6.02 6.02 0 0 0-1.869 7.38c1.536 3.292-.171 7.184-3.633 8.284a6.02 6.02 0 0 0-4.165 6.373c.385 3.613-2.494 6.74-6.125 6.655a6.02 6.02 0 0 0-6.009 4.676c-.81 3.541-4.547 5.564-7.954 4.305a6.02 6.02 0 0 0-7.202 2.472c-1.915 3.087-6.107 3.786-8.921 1.489a6.02 6.02 0 0 0-7.614 0c-2.814 2.297-7.006 1.598-8.921-1.489a6.02 6.02 0 0 0-7.201-2.472c-3.408 1.259-7.145-.764-7.955-4.305a6.02 6.02 0 0 0-6.008-4.676 6.02 6.02 0 0 1-6.126-6.655 6.02 6.02 0 0 0-4.165-6.373c-3.462-1.1-5.169-4.992-3.633-8.284a6.02 6.02 0 0 0-1.869-7.38c-2.918-2.164-3.269-6.4-.747-9.014a6.02 6.02 0 0 0 .629-7.588c-2.057-2.994-1.014-7.114 2.22-8.768a6.02 6.02 0 0 0 3.059-6.972c-.974-3.5 1.35-7.058 4.947-7.573a6.02 6.02 0 0 0 5.156-5.601c.216-3.626 3.57-6.236 7.138-5.556a6.02 6.02 0 0 0 6.696-3.623c1.381-3.36 5.401-4.74 8.555-2.937a6.02 6.02 0 0 0 7.51-1.253"/><path fill="#a8c5ff" d="M26.473 76.33h60.343v52.97c0 7.389-7.737 12.226-14.38 8.991l-11.412-5.56a10 10 0 0 0-8.759 0l-11.413 5.56c-6.642 3.235-14.379-1.602-14.379-8.991z"/><path fill="#da39a1" d="M26.473 76.33H81.07v46.493c0 7.391-7.742 12.228-14.385 8.987l-8.528-4.161a10 10 0 0 0-8.77 0l-8.528 4.161c-6.643 3.241-14.385-1.596-14.385-8.987z"/><path fill="#072a6f" d="M49.979 5.823a5.916 5.916 0 0 1 8.889 0 5.916 5.916 0 0 0 7.38 1.231 5.916 5.916 0 0 1 8.407 2.887 5.916 5.916 0 0 0 6.58 3.56 5.916 5.916 0 0 1 7.015 5.46 5.916 5.916 0 0 0 5.068 5.505 5.916 5.916 0 0 1 4.862 7.442 5.916 5.916 0 0 0 3.005 6.852 5.916 5.916 0 0 1 2.183 8.617 5.916 5.916 0 0 0 .617 7.457 5.915 5.915 0 0 1-.734 8.859 5.916 5.916 0 0 0-1.836 7.253 5.917 5.917 0 0 1-3.571 8.14 5.916 5.916 0 0 0-4.093 6.264 5.916 5.916 0 0 1-6.02 6.54 5.916 5.916 0 0 0-5.904 4.596 5.917 5.917 0 0 1-7.818 4.231 5.915 5.915 0 0 0-7.077 2.429 5.916 5.916 0 0 1-8.768 1.463 5.92 5.92 0 0 0-7.482 0 5.916 5.916 0 0 1-8.768-1.463 5.915 5.915 0 0 0-7.077-2.429 5.917 5.917 0 0 1-7.818-4.231 5.916 5.916 0 0 0-5.904-4.596 5.916 5.916 0 0 1-6.02-6.54 5.916 5.916 0 0 0-4.093-6.264 5.916 5.916 0 0 1-3.57-8.14 5.916 5.916 0 0 0-1.837-7.253 5.916 5.916 0 0 1-.735-8.859 5.916 5.916 0 0 0 .618-7.457A5.916 5.916 0 0 1 7.66 38.76a5.916 5.916 0 0 0 3.006-6.852 5.916 5.916 0 0 1 4.862-7.442 5.916 5.916 0 0 0 5.068-5.504 5.916 5.916 0 0 1 7.014-5.46 5.916 5.916 0 0 0 6.58-3.561 5.916 5.916 0 0 1 8.408-2.887 5.916 5.916 0 0 0 7.38-1.231"/><circle cx="54.041" cy="54.041" r="39.528" fill="#fff"/><path fill="#fa67c7" d="M25.783 20.242c.215-1 1.42-1.416 2.207-.762l5.856 4.87c.282.235.649.346 1.016.307l7.604-.812a1.352 1.352 0 0 1 1.403 1.851l-2.865 7.066a1.35 1.35 0 0 0 .017 1.057l3.1 6.945c.415.932-.317 1.974-1.34 1.906l-7.627-.504a1.37 1.37 0 0 0-1.005.347l-5.69 5.104c-.763.685-1.982.317-2.23-.673l-1.849-7.377a1.35 1.35 0 0 0-.638-.843l-6.615-3.79a1.352 1.352 0 0 1-.04-2.322l6.485-4.056c.313-.195.533-.508.61-.867z"/><path fill="#da39a1" d="M17.099 56.589a.72.72 0 0 1 .42-1.154l3.933-.776a.72.72 0 0 0 .462-.313l2.191-3.375a.71.71 0 0 1 1.221.041l1.936 3.514a.7.7 0 0 0 .437.344l3.865 1.038c.519.14.701.784.334 1.18l-2.736 2.947a.72.72 0 0 0-.192.526l.197 4.017a.716.716 0 0 1-1.015.688l-3.626-1.693a.7.7 0 0 0-.556-.019l-3.743 1.444a.71.71 0 0 1-.961-.754l.495-3.994a.72.72 0 0 0-.152-.537z"/><mask id="a" width="80" height="80" x="15" y="15" maskUnits="userSpaceOnUse" style="mask-type:alpha"><path fill="#fff" d="M94.057 54.528c0 21.831-17.698 39.529-39.529 39.529C32.698 94.057 15 76.358 15 54.527 15 32.698 32.697 15 54.528 15s39.529 17.697 39.529 39.528"/></mask><g mask="url(#a)"><path fill="#efcb83" d="m62.797 41.174 7.746.086 6.286-8.293c-3.525 0-9.762 4.642-14.032 8.207"/><path fill="#e9a761" d="M62.797 41.174c-2.66 2.222-4.558 4.026-4.558 4.026h9.317l2.987-3.94c-2.364-.66-5.165-.978-7.746-.086"/><path fill="#ffead9" d="M76.83 32.967c-1.745 0-4.82 4.568-6.948 8.12l6.864 7.71s3.413-14.13.084-15.83"/><path fill="#f4dabd" d="M76.83 32.967c.712 1.175.197 5.3-.255 8.066a1.93 1.93 0 0 1-2.701 1.449 22.7 22.7 0 0 0-3.992-1.394c-1.355 2.261-2.326 4.112-2.326 4.112l9.199 14.347s6.732-26.58.075-26.58"/><path fill="#efcb83" d="M47.203 41.174c-4.27-3.565-10.507-8.207-14.032-8.207l6.434 8.488z"/><path fill="#e9a761" d="M51.762 45.2s-1.898-1.804-4.559-4.026c-2.365-.818-4.678-.689-7.598.28l2.84 3.746z"/><path fill="#ffead9" d="M33.17 32.967c-3.35 0-3.308 6.737-2.44 13.428L42.444 45.2z"/><path fill="#f4dabd" d="M42.444 45.2s-6.419-12.233-9.273-12.233c1.315 2.28 2.825 5.653 3.682 7.639a1.93 1.93 0 0 1-.827 2.45c-1.327.746-3.345 1.942-5.296 3.339.856 6.598 2.515 13.152 2.515 13.152z"/><path fill="#efcb83" d="M76.379 47.807a61.3 61.3 0 0 0-10.882-5.703C62.446 40.884 59.383 40.18 55 40.18s-7.445.704-10.496 1.925c-7.962 3.187-14.598 7.553-18.266 11.727 0 0-3.016 17.326-3.255 38.046l60.183 1.289c0-17.088-3.397-38.694-6.787-45.36"/><path fill="#e9a761" d="M87.033 94.455c0-21.445-3.27-40.54-3.27-40.54-1.841-2.028-4.407-4.137-7.384-6.108.812 7.02 2.765 25.512 2.911 42.122a1.933 1.933 0 0 1-1.934 1.948H22.983q-.016 1.28-.016 2.578z"/><path fill="#ddfdea" d="M46.443 59.402H37.67c0 1.839.851 3.48 2.184 4.561 0 0 1.195.691 2.273.691 2.84 0 5.18-2.053 4.316-5.252"/><path fill="#beeedd" d="M46.442 59.402c-.588 2.64-2.96 4.614-5.8 4.614q-.401-.001-.789-.053a5.95 5.95 0 0 0 3.76 1.329c3.282 0 5.942-2.637 5.942-5.89z"/><path fill="#ddfdea" d="M69.218 59.402h-8.772c0 1.839.85 3.48 2.183 4.561 0 0 1.195.691 2.273.691 2.84 0 5.18-2.053 4.316-5.252"/><path fill="#beeedd" d="M69.218 59.402c-.589 2.64-2.962 4.614-5.801 4.614q-.401-.001-.788-.053a5.95 5.95 0 0 0 3.759 1.329c3.282 0 5.942-2.637 5.942-5.89z"/><path fill="#394240" d="M50.459 60.313q.442.054.916.055a.967.967 0 1 0 0-1.933c-1.645 0-2.813-.609-3.571-1.86-.657-1.087-1.004-2.672-1.004-4.586a.967.967 0 1 0-1.934 0c0 2.828.67 5.016 1.917 6.446H37.67a.967.967 0 0 0-.967.967c0 3.78 3.1 6.857 6.91 6.857 3.498 0 6.395-2.594 6.846-5.946m-6.846 4.012c-2.41 0-4.425-1.703-4.88-3.957h2.624v1.325a.967.967 0 1 0 1.933 0v-1.325h5.202c-.455 2.254-2.47 3.957-4.88 3.957m20.817 13.047c-3.26-.915-5.314-3.85-6.463-6.15-1.4-2.805-1.948-5.582-1.995-6.906.391-.086.879-.23 1.429-.474a.967.967 0 1 0-.785-1.768c-.944.42-1.61.433-1.613.433-.006 0-.673-.014-1.617-.433a.967.967 0 0 0-.784 1.768c.55.244 1.037.388 1.429.474-.047 1.324-.595 4.101-1.995 6.905-1.15 2.301-3.203 5.236-6.463 6.151a.967.967 0 0 0 .522 1.862c3.942-1.106 6.347-4.498 7.67-7.149.5-1.002.911-2.025 1.236-3.006.325.981.736 2.004 1.236 3.006 1.324 2.65 3.729 6.043 7.67 7.149a.967.967 0 0 0 .523-1.862m8.868-17.97a.967.967 0 0 0-.967-.967h-9.112c1.247-1.43 1.917-3.618 1.917-6.446a.967.967 0 1 0-1.934 0c0 1.914-.347 3.5-1.004 4.585-.758 1.252-1.926 1.86-3.572 1.86a.967.967 0 1 0 0 1.935q.474-.001.917-.056c.45 3.352 3.348 5.946 6.846 5.946 3.81 0 6.91-3.076 6.91-6.857m-6.909 4.923c-2.41 0-4.424-1.703-4.88-3.957h5.202v1.325a.967.967 0 1 0 1.934 0v-1.325h2.623c-.455 2.254-2.47 3.957-4.879 3.957m-12.356-10.41v5.487a.967.967 0 1 0 1.934 0v-5.487a.967.967 0 1 0-1.934 0m-30.28 21.063a.97.97 0 0 0-1.036.892C22.242 82.276 22 88.528 22 94.455a.967.967 0 1 0 1.934 0c0-5.879.24-12.083.712-18.442a.967.967 0 0 0-.893-1.035m63.101 11.515h.039a.967.967 0 0 0 .928-1.004 271 271 0 0 0-.771-12.375.967.967 0 0 0 .71-1.605 70 70 0 0 0-.95-1.058 291 291 0 0 0-.757-7.092.966.966 0 1 0-1.92.229c.185 1.553.357 3.119.518 4.687-1.46-1.34-3.221-2.694-5.611-4.093a.967.967 0 0 0-.977 1.669c3.202 1.874 5.166 3.614 6.88 5.43.445 4.848.767 9.686.946 14.283.02.52.449.93.965.93m1.093 3.116a.967.967 0 1 0-1.933.042c.035 1.618.053 3.234.053 4.803a.967.967 0 1 0 1.933 0c0-1.583-.018-3.213-.053-4.846"/><path fill="#394240" d="M32.284 64.528a.967.967 0 0 0-1.323-.346c-2.403 1.406-4.171 2.767-5.635 4.115.337-3.297.688-6.162.994-8.445 1.573-.735 3.247-1.321 5.364-1.777a.967.967 0 1 0-.407-1.89c-1.77.38-3.27.858-4.645 1.423.244-1.694.43-2.85.512-3.342 3.69-4.093 10.287-8.29 17.719-11.264 3.294-1.319 6.231-1.857 10.137-1.857s6.843.538 10.138 1.857c6.956 2.784 13.87 7.22 17.718 11.355.08.49.26 1.608.492 3.23-1.302-.53-2.796-1.008-4.625-1.402a.967.967 0 0 0-.407 1.89c3.797.818 5.973 1.98 8.227 3.305a.966.966 0 1 0 .98-1.667 43 43 0 0 0-2.087-1.162c-.415-3.006-.718-4.782-.72-4.8a.97.97 0 0 0-.238-.486c-1.266-1.395-2.835-2.806-4.62-4.178q.524-3.315.737-5.968c1.054.273 2.05.652 2.947 1.138a.967.967 0 1 0 .921-1.7c-1.133-.614-2.405-1.077-3.75-1.39.155-4.03-.346-6.69-1.51-8.057-.618-.726-1.44-1.11-2.374-1.11-2.96 0-7.76 2.73-14.264 8.11-2.354-.62-4.757-.898-7.565-.898s-5.211.278-7.565.899C40.93 34.73 36.131 32 33.171 32c-.868 0-1.644.333-2.243.964-1.26 1.326-1.797 4.013-1.635 8.202-1.348.313-2.621.776-3.756 1.391a.967.967 0 0 0 .92 1.7c3.513-1.904 8.53-2.166 12.634-.793-2.625 1.302-5.053 2.725-7.208 4.218a85 85 0 0 1-.288-2.159.966.966 0 1 0-1.92.23 91 91 0 0 0 .447 3.21c-1.797 1.378-3.355 2.8-4.61 4.23a.97.97 0 0 0-.227.472 162 162 0 0 0-.742 4.907c-.695.356-1.376.736-2.066 1.141a.967.967 0 1 0 .98 1.667q.389-.227.77-.443a278 278 0 0 0-1.057 9.536q-.473.517-.928 1.036a.967.967 0 1 0 1.45 1.278c2.1-2.384 4.17-4.551 8.246-6.936a.966.966 0 0 0 .346-1.323m45.815-16.73a60 60 0 0 0-7.235-4.32c2.445-.825 5.217-1.07 7.804-.73a74 74 0 0 1-.57 5.05m.675-6.97c-2.656-.323-5.469-.104-8.007.658 4.463-7.457 6.046-7.552 6.062-7.552.37 0 .649.132.902.43.923 1.083 1.137 3.664 1.043 6.464m-6.305-5.381c-1.153 1.496-2.58 3.645-4.342 6.724q-1.129-.507-2.27-.964-.544-.217-1.08-.407c3.322-2.68 5.823-4.34 7.692-5.353m-28.325 5.76q-1.155.462-2.275.957c-1.76-3.077-3.186-5.222-4.338-6.718 1.87 1.014 4.37 2.674 7.693 5.354q-.536.19-1.079.407m-12.928-.377c-.141-4.492.626-6.02 1.114-6.534a1.08 1.08 0 0 1 .841-.362c.017 0 1.6.095 6.062 7.552-2.541-.763-5.358-.982-8.017-.656m4.314 33.936a.967.967 0 0 0-1.366.046c-3.415 3.657-4.91 6.587-6.26 9.515a.967.967 0 1 0 1.756.81c1.33-2.885 2.694-5.554 5.917-9.005a.967.967 0 0 0-.046-1.366m5.019 8.371a.967.967 0 0 0-1.312.38c-2.414 4.383-3.144 7.591-3.735 10.76a.967.967 0 0 0 1.901.355c.582-3.123 1.25-6.045 3.527-10.181a.967.967 0 0 0-.38-1.314m35.285-8.325a.967.967 0 1 0-1.413 1.32c3.224 3.451 4.587 6.12 5.918 9.005a.967.967 0 1 0 1.756-.81c-1.35-2.928-2.846-5.858-6.26-9.515m-5.074 8.706a.967.967 0 0 0-1.694.933c2.278 4.136 2.945 7.058 3.527 10.18a.967.967 0 0 0 1.901-.353c-.59-3.17-1.32-6.378-3.734-10.76"/></g></svg>