<svg xmlns="http://www.w3.org/2000/svg" width="114" height="146" fill="none" viewBox="0 0 114 146"><path fill="#a8c5ff" d="M53.91 5.148a6.02 6.02 0 0 1 9.046 0 6.02 6.02 0 0 0 7.51 1.253c3.153-1.803 7.173-.423 8.554 2.937a6.02 6.02 0 0 0 6.696 3.623c3.568-.68 6.922 1.93 7.138 5.556a6.02 6.02 0 0 0 5.156 5.602c3.596.514 5.921 4.072 4.948 7.572a6.02 6.02 0 0 0 3.058 6.972c3.234 1.654 4.277 5.774 2.22 8.768a6.02 6.02 0 0 0 .629 7.588 6.02 6.02 0 0 1-.747 9.014 6.02 6.02 0 0 0-1.869 7.38c1.536 3.292-.171 7.184-3.633 8.284a6.02 6.02 0 0 0-4.165 6.373c.385 3.613-2.494 6.74-6.125 6.655a6.02 6.02 0 0 0-6.009 4.676c-.81 3.541-4.547 5.564-7.954 4.305a6.02 6.02 0 0 0-7.202 2.472c-1.915 3.087-6.107 3.786-8.921 1.489a6.02 6.02 0 0 0-7.614 0c-2.814 2.297-7.006 1.598-8.921-1.489a6.02 6.02 0 0 0-7.201-2.472c-3.408 1.259-7.145-.764-7.955-4.305a6.02 6.02 0 0 0-6.008-4.676 6.02 6.02 0 0 1-6.126-6.655 6.02 6.02 0 0 0-4.165-6.373c-3.462-1.1-5.169-4.992-3.633-8.284a6.02 6.02 0 0 0-1.869-7.38c-2.918-2.164-3.269-6.4-.747-9.014a6.02 6.02 0 0 0 .629-7.588c-2.057-2.994-1.014-7.114 2.22-8.768a6.02 6.02 0 0 0 3.059-6.972 6.018 6.018 0 0 1 4.947-7.572 6.02 6.02 0 0 0 5.156-5.602c.216-3.626 3.57-6.236 7.138-5.556a6.02 6.02 0 0 0 6.696-3.623c1.381-3.36 5.401-4.74 8.555-2.937a6.02 6.02 0 0 0 7.51-1.253"/><path fill="#a8c5ff" d="M26.473 76.33h60.343v52.97c0 7.389-7.737 12.226-14.38 8.991l-11.412-5.56a10 10 0 0 0-8.759 0l-11.413 5.56c-6.642 3.235-14.379-1.602-14.379-8.991z"/><path fill="#da39a1" d="M26.473 76.33H81.07v46.493c0 7.391-7.742 12.228-14.385 8.987l-8.528-4.161a10 10 0 0 0-8.77 0l-8.528 4.161c-6.643 3.241-14.385-1.596-14.385-8.987z"/><path fill="#072a6f" d="M49.979 5.823a5.916 5.916 0 0 1 8.889 0 5.916 5.916 0 0 0 7.38 1.231 5.916 5.916 0 0 1 8.407 2.887 5.916 5.916 0 0 0 6.58 3.56 5.916 5.916 0 0 1 7.015 5.46 5.916 5.916 0 0 0 5.068 5.505 5.916 5.916 0 0 1 4.862 7.442 5.916 5.916 0 0 0 3.005 6.852 5.916 5.916 0 0 1 2.183 8.617 5.916 5.916 0 0 0 .617 7.457 5.915 5.915 0 0 1-.734 8.859 5.916 5.916 0 0 0-1.836 7.253 5.917 5.917 0 0 1-3.571 8.14 5.916 5.916 0 0 0-4.093 6.264 5.916 5.916 0 0 1-6.02 6.54 5.916 5.916 0 0 0-5.904 4.596 5.917 5.917 0 0 1-7.818 4.231 5.915 5.915 0 0 0-7.077 2.429 5.916 5.916 0 0 1-8.768 1.463 5.92 5.92 0 0 0-7.482 0 5.916 5.916 0 0 1-8.768-1.463 5.915 5.915 0 0 0-7.077-2.429 5.917 5.917 0 0 1-7.818-4.231 5.916 5.916 0 0 0-5.904-4.596 5.916 5.916 0 0 1-6.02-6.54 5.916 5.916 0 0 0-4.093-6.264 5.916 5.916 0 0 1-3.57-8.14 5.916 5.916 0 0 0-1.837-7.253 5.916 5.916 0 0 1-.735-8.859 5.916 5.916 0 0 0 .618-7.457A5.916 5.916 0 0 1 7.66 38.76a5.916 5.916 0 0 0 3.006-6.852 5.916 5.916 0 0 1 4.862-7.442 5.916 5.916 0 0 0 5.068-5.504 5.916 5.916 0 0 1 7.014-5.46 5.916 5.916 0 0 0 6.58-3.561 5.916 5.916 0 0 1 8.408-2.887 5.916 5.916 0 0 0 7.38-1.231"/><circle cx="54.041" cy="54.041" r="39.528" fill="#fff"/><path fill="#fa67c7" d="M25.783 20.242c.215-1 1.42-1.416 2.207-.762l5.856 4.87c.282.235.649.346 1.016.307l7.604-.812a1.352 1.352 0 0 1 1.403 1.851l-2.865 7.066a1.35 1.35 0 0 0 .017 1.057l3.1 6.945c.415.932-.317 1.974-1.34 1.906l-7.627-.504a1.37 1.37 0 0 0-1.005.347l-5.69 5.104c-.763.685-1.982.317-2.23-.673l-1.849-7.377a1.35 1.35 0 0 0-.638-.843l-6.615-3.79a1.352 1.352 0 0 1-.04-2.322l6.485-4.056c.313-.195.533-.508.61-.867z"/><path fill="#da39a1" d="M17.099 56.589a.72.72 0 0 1 .42-1.154l3.933-.776a.72.72 0 0 0 .462-.313l2.191-3.375a.71.71 0 0 1 1.221.041l1.936 3.514a.7.7 0 0 0 .437.344l3.865 1.038c.519.14.701.784.334 1.18l-2.736 2.947a.72.72 0 0 0-.192.526l.197 4.017a.716.716 0 0 1-1.015.688l-3.626-1.693a.7.7 0 0 0-.556-.019l-3.743 1.444a.71.71 0 0 1-.961-.754l.495-3.994a.72.72 0 0 0-.152-.537z"/><path fill="#bac4c8" d="M60.91 64.525c-1.113 3.342-2.228 4.456-6.684 4.456s-5.57-1.114-6.685-4.456c0 0 .691-19.364 3.71-33.022a42.3 42.3 0 0 1 2.975-9.314 42.3 42.3 0 0 1 2.975 9.314c3.019 13.658 3.71 33.022 3.71 33.022"/><path fill="#a4afb3" d="M57.2 31.503a42.3 42.3 0 0 0-2.974-9.314 29 29 0 0 0-1.671 4.322 59 59 0 0 1 1.303 4.992c3.02 13.658 3.71 33.022 3.71 33.022-.958 2.874-1.927 4.1-5.013 4.39.501 0 1.047.066 1.67.066 4.457 0 5.571-1.114 6.685-4.456 0 0-.69-19.364-3.71-33.022"/><path fill="#b7c4ce" d="M76.508 73.438c0 4.98-3.342 13.369-22.282 13.369s-22.282-8.39-22.282-13.37c0-11.14 3.799-10.661 2.228-21.167a17.67 17.67 0 0 1 1.003-10.161c.54.711.955 1.51 1.225 2.362a3.275 3.275 0 0 0 3.343-3.342s-1.114-1.115 0-3.343c.701-1.404 1.114-1.114 1.114-5.57a6.6 6.6 0 0 0 .523 2.974 35.9 35.9 0 0 1 9.871-3.687c-3.019 13.658-3.71 33.022-3.71 33.022 1.114 3.342 2.229 4.456 6.685 4.456s5.57-1.114 6.685-4.456c0 0-.691-19.364-3.71-33.022a35.9 35.9 0 0 1 9.87 3.687 6.6 6.6 0 0 0 .524-2.974c0 4.456.412 4.166 1.114 5.57 1.114 2.228 0 3.343 0 3.343a3.275 3.275 0 0 0 3.343 3.342c.27-.852.684-1.65 1.225-2.362a17.67 17.67 0 0 1 1.003 10.16c-1.571 10.507 2.228 10.028 2.228 21.169"/><path fill="#a0acb9" d="M74.28 52.27a17.67 17.67 0 0 0-1.003-10.161 7.8 7.8 0 0 0-1.225 2.362 3.8 3.8 0 0 1-1.36-.234c.63 2.632.714 5.366.245 8.032-1.57 10.507 2.229 10.028 2.229 21.169 0 4.835-3.142 12.867-20.611 13.369h1.67c18.94 0 22.283-8.39 22.283-13.37 0-11.14-3.8-10.661-2.228-21.167"/><path fill="#9e9e9e" d="M54.226 86.807c-5.57 0-14.673-6.752-13.37-10.027 2.229-5.57 6.685-5.57 6.685-12.255 1.115 3.342 2.229 4.456 6.685 4.456s5.57-1.114 6.685-4.456c0 6.684 4.456 6.684 6.684 12.255 1.304 3.275-7.798 10.027-13.369 10.027"/><path fill="#707070" d="M67.595 76.78c-2.228-5.57-6.684-5.57-6.684-12.255-.658 1.972-1.315 3.164-2.663 3.81 1.326 3.186 4.311 4.211 6.005 8.445 1.18 2.963-6.161 8.768-11.698 9.837.55.115 1.11.179 1.67.19 5.571 0 14.674-6.752 13.37-10.027"/><path fill="#9e9e9e" d="M39.743 37.786c-1.114 2.228 0 3.342 0 3.342a3.275 3.275 0 0 1-3.343 3.343 7.8 7.8 0 0 0-1.225-2.362c-1.315-1.694-3.342-2.719-6.573-4.323-4.457-2.228-2.229-8.913 1.114-11.14a13.4 13.4 0 0 0 4.456-4.457c6.685 0 6.685 6.684 6.685 10.027 0 4.456-.413 4.166-1.114 5.57m40.107 0c-3.208 1.604-5.258 2.63-6.573 4.323a7.8 7.8 0 0 0-1.225 2.362 3.276 3.276 0 0 1-3.343-3.343s1.114-1.114 0-3.342c-.702-1.404-1.114-1.114-1.114-5.57 0-3.343 0-10.027 6.685-10.027a13.4 13.4 0 0 0 4.456 4.456c3.343 2.228 5.57 8.913 1.114 11.141"/><path fill="#707070" d="M78.736 26.645a13.4 13.4 0 0 1-4.456-4.456 7.1 7.1 0 0 0-2.975.59 14.9 14.9 0 0 0 4.089 3.866c3.342 2.228 5.57 8.913 1.114 11.141-3.209 1.604-5.259 2.63-6.573 4.323a7 7 0 0 0-.635.991 3.02 3.02 0 0 0 2.751 1.37c.27-.851.685-1.65 1.226-2.361 1.315-1.694 3.342-2.719 6.573-4.323 4.457-2.228 2.228-8.913-1.114-11.141"/><path fill="#394240" d="M46.427 76.78a1.114 1.114 0 0 0 0 2.228s2.228.067 2.228 1.114a1.114 1.114 0 0 0 2.228 0c0-2.64-2.919-3.342-4.456-3.342m4.1-4.156a1.115 1.115 0 1 0-1.549 1.605c.245.234 1.627 1.437 5.248 1.437 3.62 0 5.002-1.203 5.247-1.437.41-.43.41-1.108 0-1.538a1.114 1.114 0 0 0-1.56-.067s-.969.814-3.687.814-3.632-.758-3.699-.814m7.041 7.498a1.114 1.114 0 0 0 2.228 0c0-1.047 2.229-1.114 2.229-1.114a1.114 1.114 0 0 0 0-2.228c-1.538 0-4.457.702-4.457 3.342"/><path fill="#394240" d="M79.349 25.72a12.7 12.7 0 0 1-4.078-4.033 1.11 1.11 0 0 0-.991-.613c-7.799 0-7.799 7.8-7.799 11.142a9 9 0 0 1-.09 1.325 40 40 0 0 0-8.255-2.963 41 41 0 0 0-2.919-8.913 1.114 1.114 0 0 0-1.983 0 41 41 0 0 0-2.919 8.913 40 40 0 0 0-8.255 2.963 9 9 0 0 1-.09-1.325c0-3.343 0-11.141-7.798-11.141-.42 0-.803.238-.992.612a12.7 12.7 0 0 1-4.077 4.033 9.93 9.93 0 0 0-4.1 8.278 5.5 5.5 0 0 0 3.097 4.78c2.796 1.404 4.59 2.306 5.782 3.565a19.25 19.25 0 0 0-.824 10.094 20.06 20.06 0 0 1-.69 10.54 32.1 32.1 0 0 0-1.538 10.46c0 4.357 2.284 14.484 23.396 14.484s23.396-10.127 23.396-14.484a32.1 32.1 0 0 0-1.549-10.46 20.05 20.05 0 0 1-.68-10.54 19.25 19.25 0 0 0-.812-10.094c1.192-1.26 2.985-2.162 5.782-3.565a5.5 5.5 0 0 0 3.097-4.78 9.93 9.93 0 0 0-4.111-8.278m-25.123-.701c4.345 11.764 5.459 36.832 5.57 39.35-.89 2.64-1.593 3.498-5.57 3.498s-4.668-.858-5.57-3.498c.11-2.518 1.225-27.586 5.57-39.35m6.105 43.104a11.7 11.7 0 0 0 3.053 4.535 13.5 13.5 0 0 1 3.175 4.534 2.34 2.34 0 0 1-.59 1.816c-1.995 2.941-7.922 6.685-11.743 6.685s-9.748-3.721-11.743-6.685a2.34 2.34 0 0 1-.59-1.838 13.5 13.5 0 0 1 3.175-4.535 11.7 11.7 0 0 0 3.053-4.534c1.114 1.348 2.896 1.972 6.105 1.972s4.958-.602 6.105-1.95m-27.273 5.314a29.5 29.5 0 0 1 1.46-9.826 22.4 22.4 0 0 0 .768-11.509 18.9 18.9 0 0 1 .123-7.174c.176.392.562.647.991.657q.18-.005.357-.056a1.114 1.114 0 0 0 .757-1.415c-1.259-3.777-3.777-5.035-8.356-7.32a3.34 3.34 0 0 1-1.871-2.93 7.8 7.8 0 0 1 3.041-6.294 15.9 15.9 0 0 0 4.457-4.245c4.556.357 4.958 4.757 4.958 8.89 0 3.343-.212 3.71-.602 4.368a8 8 0 0 0-.39.702c-1.114 2.328-.423 4.01.2 4.635.21.208.495.324.791.323a1.114 1.114 0 0 0 .858-1.861s-.534-.668.167-2.083c.123-.234.223-.413.324-.569q.215-.362.39-.746a4.45 4.45 0 0 0 2.718.802 1.114 1.114 0 0 0 0-2.228 3.4 3.4 0 0 1-.992-.1 37.3 37.3 0 0 1 6.563-2.451c-2.663 13.302-3.343 30.515-3.343 31.518 0 3.498-1.315 4.857-2.963 6.595a15.45 15.45 0 0 0-3.643 5.248c-.312.78-.424 2.083.824 3.91a18.3 18.3 0 0 0 5.303 4.746c-11.453-2.083-12.89-8.523-12.89-11.586m46.291-36.642c-4.579 2.283-7.097 3.542-8.356 7.32a1.114 1.114 0 0 0 .702 1.47q.178.023.357 0a1.11 1.11 0 0 0 1.002-.657 18.9 18.9 0 0 1 .112 7.174 22.4 22.4 0 0 0 .757 11.51 29.5 29.5 0 0 1 1.47 9.825c0 3.064-1.436 9.504-12.89 11.587a18.3 18.3 0 0 0 5.304-4.746c1.248-1.827 1.114-3.13.824-3.91a15.45 15.45 0 0 0-3.643-5.248c-1.649-1.738-2.963-3.097-2.963-6.595 0-.958-.68-18.171-3.343-31.474a37.3 37.3 0 0 1 6.585 2.451 3.3 3.3 0 0 1-1.014.056 1.114 1.114 0 0 0 0 2.228c.982.04 1.95-.246 2.752-.813q.176.384.39.746c.1.156.2.334.323.569.68 1.37.222 2.016.178 2.083a1.114 1.114 0 0 0 0 1.548 1.114 1.114 0 0 0 1.582 0c.624-.623 1.37-2.306.2-4.634a8 8 0 0 0-.39-.702c-.367-.657-.579-1.025-.579-4.367 0-4.134.401-8.535 4.958-8.913a15.9 15.9 0 0 0 4.457 4.244 7.8 7.8 0 0 1 3.097 6.295 3.34 3.34 0 0 1-1.872 2.953"/><ellipse cx="41" cy="58.5" fill="#394240" rx="2" ry="1.5"/><ellipse cx="68" cy="58.5" fill="#394240" rx="2" ry="1.5"/><path stroke="#394240" stroke-linecap="round" d="M66 57h4m-31 0h4"/></svg>