<svg xmlns="http://www.w3.org/2000/svg" width="114" height="146" fill="none" viewBox="0 0 114 146"><path fill="#a8c5ff" d="M53.91 5.148a6.02 6.02 0 0 1 9.046 0 6.02 6.02 0 0 0 7.51 1.253c3.153-1.803 7.173-.423 8.554 2.937a6.02 6.02 0 0 0 6.696 3.623c3.568-.68 6.922 1.93 7.138 5.556a6.02 6.02 0 0 0 5.156 5.601c3.596.515 5.921 4.073 4.948 7.573a6.02 6.02 0 0 0 3.058 6.972c3.234 1.654 4.277 5.774 2.22 8.768a6.02 6.02 0 0 0 .629 7.588c2.522 2.614 2.171 6.85-.747 9.014a6.02 6.02 0 0 0-1.869 7.38c1.536 3.292-.171 7.184-3.633 8.284a6.02 6.02 0 0 0-4.165 6.373c.385 3.613-2.494 6.74-6.125 6.655a6.02 6.02 0 0 0-6.009 4.676c-.81 3.541-4.547 5.564-7.954 4.305a6.02 6.02 0 0 0-7.202 2.472c-1.915 3.087-6.107 3.786-8.921 1.489a6.02 6.02 0 0 0-7.614 0c-2.814 2.297-7.006 1.598-8.921-1.489a6.02 6.02 0 0 0-7.201-2.472c-3.408 1.259-7.145-.764-7.955-4.305a6.02 6.02 0 0 0-6.008-4.676 6.02 6.02 0 0 1-6.126-6.655 6.02 6.02 0 0 0-4.165-6.373c-3.462-1.1-5.169-4.992-3.633-8.284a6.02 6.02 0 0 0-1.869-7.38c-2.918-2.164-3.269-6.4-.747-9.014a6.02 6.02 0 0 0 .629-7.588c-2.057-2.994-1.014-7.114 2.22-8.768a6.02 6.02 0 0 0 3.059-6.972c-.974-3.5 1.35-7.058 4.947-7.573a6.02 6.02 0 0 0 5.156-5.601c.216-3.626 3.57-6.236 7.138-5.556a6.02 6.02 0 0 0 6.696-3.623c1.381-3.36 5.401-4.74 8.555-2.937a6.02 6.02 0 0 0 7.51-1.253"/><path fill="#a8c5ff" d="M26.473 76.33h60.343v52.97c0 7.389-7.737 12.226-14.38 8.991l-11.412-5.56a10 10 0 0 0-8.759 0l-11.413 5.56c-6.642 3.235-14.379-1.602-14.379-8.991z"/><path fill="#da39a1" d="M26.473 76.33H81.07v46.493c0 7.391-7.742 12.228-14.385 8.987l-8.528-4.161a10 10 0 0 0-8.77 0l-8.528 4.161c-6.643 3.241-14.385-1.596-14.385-8.987z"/><path fill="#072a6f" d="M49.979 5.823a5.916 5.916 0 0 1 8.889 0 5.916 5.916 0 0 0 7.38 1.231 5.916 5.916 0 0 1 8.407 2.887 5.916 5.916 0 0 0 6.58 3.56 5.916 5.916 0 0 1 7.015 5.46 5.916 5.916 0 0 0 5.068 5.505 5.916 5.916 0 0 1 4.862 7.442 5.916 5.916 0 0 0 3.005 6.852 5.916 5.916 0 0 1 2.183 8.617 5.916 5.916 0 0 0 .617 7.457 5.915 5.915 0 0 1-.734 8.859 5.916 5.916 0 0 0-1.836 7.253 5.917 5.917 0 0 1-3.571 8.14 5.916 5.916 0 0 0-4.093 6.264 5.916 5.916 0 0 1-6.02 6.54 5.916 5.916 0 0 0-5.904 4.596 5.917 5.917 0 0 1-7.818 4.231 5.915 5.915 0 0 0-7.077 2.429 5.916 5.916 0 0 1-8.768 1.463 5.92 5.92 0 0 0-7.482 0 5.916 5.916 0 0 1-8.768-1.463 5.915 5.915 0 0 0-7.077-2.429 5.917 5.917 0 0 1-7.818-4.231 5.916 5.916 0 0 0-5.904-4.596 5.916 5.916 0 0 1-6.02-6.54 5.916 5.916 0 0 0-4.093-6.264 5.916 5.916 0 0 1-3.57-8.14 5.916 5.916 0 0 0-1.837-7.253 5.916 5.916 0 0 1-.735-8.859 5.916 5.916 0 0 0 .618-7.457A5.916 5.916 0 0 1 7.66 38.76a5.916 5.916 0 0 0 3.006-6.852 5.916 5.916 0 0 1 4.862-7.442 5.916 5.916 0 0 0 5.068-5.504 5.916 5.916 0 0 1 7.014-5.46 5.916 5.916 0 0 0 6.58-3.561 5.916 5.916 0 0 1 8.408-2.887 5.916 5.916 0 0 0 7.38-1.231"/><circle cx="54.041" cy="54.041" r="39.528" fill="#fff"/><path fill="#fa67c7" d="M25.783 20.242c.215-1 1.42-1.416 2.207-.762l5.856 4.87c.282.235.649.346 1.016.307l7.604-.812a1.352 1.352 0 0 1 1.403 1.851l-2.865 7.066a1.35 1.35 0 0 0 .017 1.057l3.1 6.945c.415.932-.317 1.974-1.34 1.906l-7.627-.504a1.37 1.37 0 0 0-1.005.347l-5.69 5.104c-.763.685-1.982.317-2.23-.673l-1.849-7.377a1.35 1.35 0 0 0-.638-.843l-6.615-3.79a1.352 1.352 0 0 1-.04-2.322l6.485-4.056c.313-.195.533-.508.61-.867z"/><path fill="#da39a1" d="M17.099 56.589a.72.72 0 0 1 .42-1.154l3.933-.776a.72.72 0 0 0 .462-.313l2.191-3.375a.71.71 0 0 1 1.221.041l1.936 3.514a.7.7 0 0 0 .437.344l3.865 1.038c.519.14.701.784.334 1.18l-2.736 2.947a.72.72 0 0 0-.192.526l.197 4.017a.716.716 0 0 1-1.015.688l-3.626-1.693a.7.7 0 0 0-.556-.019l-3.743 1.444a.71.71 0 0 1-.961-.754l.495-3.994a.72.72 0 0 0-.152-.537z"/><mask id="a" width="80" height="80" x="15" y="15" maskUnits="userSpaceOnUse" style="mask-type:alpha"><path fill="#fff" d="M94.057 54.528c0 21.831-17.698 39.529-39.529 39.529C32.698 94.057 15 76.358 15 54.527 15 32.698 32.697 15 54.528 15s39.529 17.697 39.529 39.528"/></mask><g mask="url(#a)"><path fill="#ff8ea4" fill-rule="evenodd" d="M65.958 42.015c-4.514-17.197-28.554-17.28-34.221 6.432-4.68 19.58 15.244 30.208.854 41.318 2.963 6.236 10.455 6.236 19.275 6.236 2.485-3.124 4.137-7.33-1.268-18.421-8.91-18.285-6.99-20.34-2.86-24.264 4.894 2.08 11.773 1.985 15.073 1.068-.892-1.63-3.184-5.66-2.967-8.201.193-2.257 4.606-3.692 6.114-4.168m-12.684.319a1.998 1.998 0 1 1 0-3.997 1.998 1.998 0 0 1 0 3.997" clip-rule="evenodd"/><path fill="#29302e" d="M55.102 41.142a1.997 1.997 0 1 0-3.665-1.59 1.997 1.997 0 0 0 3.665 1.59"/><path fill="#ffc45c" fill-rule="evenodd" d="M65.958 42.015c-1.508.476-5.92 1.911-6.114 4.168 11.526 4.893 16.943 6.648 19.999 10.815 1.066-2.358.645-6.143-1.308-11.529z" clip-rule="evenodd"/><path fill="#ff8e42" fill-rule="evenodd" d="M65.958 42.015c-1.508.476-5.92 1.911-6.114 4.168q1.649.7 3.134 1.319c.951-.935 5.664-3.287 8.02-4.102z" clip-rule="evenodd"/><path fill="#ffc45c" fill-rule="evenodd" d="M79.843 56.998c-3.056-4.167-8.474-5.922-19.999-10.815-.217 2.542 2.075 6.57 2.967 8.202 3.214 2.674 6.94 4.224 10.36 5.637 3.456.106 5.692-.856 6.672-3.024" clip-rule="evenodd"/><path fill="#ff8e42" fill-rule="evenodd" d="M62.978 47.502q-1.487-.62-3.134-1.319c-.217 2.542 2.075 6.57 2.967 8.202 1.61 1.34 3.35 2.397 5.114 3.297-1.513-2.665-4.836-8.214-4.947-10.18" clip-rule="evenodd"/><path fill="#29302e" fill-rule="evenodd" d="M79.843 56.998c-.98 2.168-3.216 3.13-6.672 3.024 4.953 2.047 9.26 3.806 10.433 8.277-.944-5.434-1.928-8.802-3.761-11.301" clip-rule="evenodd"/><path fill="#29302e" fill-rule="evenodd" d="M79.843 56.998c1.833 2.5 2.817 5.867 3.76 11.3.288 1.098 1.846 2.693 3.21 2.196.61-4.993-.342-14.687-1.478-18.767s-5.128-5.798-6.8-6.258c1.953 5.386 2.374 9.17 1.308 11.529" clip-rule="evenodd"/><path fill="#ff5476" fill-rule="evenodd" d="M39.28 34.606c-3.32 3.065-6.06 7.638-7.543 13.841-4.68 19.58 15.244 30.208.854 41.318 2.963 6.236 10.455 6.236 19.275 6.236.692-.87 1.319-1.824 1.747-2.987-5.25.066-13.881.372-17.053-2.736 2.32-2.297 3.964-5.06 4.283-8.496.49-5.268-2.41-10.785-4.273-15.59-7.34-18.925 3.36-32.187 2.71-31.586" clip-rule="evenodd"/><path fill="#394240" d="m40.385 34.958-1.312-1.507c-3.947 3.434-6.82 8.539-8.308 14.764-2.183 9.134.739 16.227 3.316 22.485 3.021 7.335 5.204 12.635-2.1 18.274l-.638.493.346.727c1.443 3.037 4 4.976 7.819 5.929l.483-1.94c-2.934-.731-4.903-2.06-6.13-4.154 3.44-2.854 5.047-5.893 5.041-9.51-.005-3.373-1.447-6.873-2.973-10.58-2.462-5.978-5.253-12.754-3.22-21.26 1.39-5.817 4.044-10.562 7.676-13.72m45.913 16.5c-1.403-5.044-6.492-6.678-7.498-6.954l-12.03-3.304c-1.602-5.466-5.301-9.61-10.222-11.419-2.482-.913-5.212-1.196-7.894-.82-2.791.393-5.44 1.452-7.871 3.15l1.144 1.639c4.3-3.004 9.379-3.767 13.932-2.093 4.199 1.543 7.393 5.055 8.873 9.711-3.797 1.325-5.723 2.876-5.882 4.729-.199 2.332 1.35 5.538 2.448 7.593-4.32.725-12.482.32-16.186-3.185l-1.374 1.451a11 11 0 0 0 2.28 1.637c-1.577 1.597-2.85 3.373-2.737 6.504.128 3.588 2.048 8.947 6.42 17.92 5.08 10.425 3.66 14.33 1.675 16.984-1.976 0-3.85-.007-5.633-.09l-.093 1.996c1.976.092 4.036.092 6.217.092h.482l.3-.377c1.154-1.451 2.486-3.538 2.542-6.828.056-3.3-1.152-7.438-3.694-12.653-4.185-8.59-6.103-13.868-6.22-17.115-.091-2.558.852-3.767 2.683-5.54 4.866 1.855 11.156 1.793 14.615.987 3.263 2.595 6.99 4.138 10.295 5.504 4.877 2.015 8.729 3.607 9.769 7.574.268 1.024 1.177 2.118 2.21 2.659.476.25.96.376 1.43.376q.451 0 .877-.154l.576-.21.074-.608c.618-5.054-.328-14.922-1.507-19.156m-20.317-8.402 11.788 3.237c1.29 3.673 1.822 6.555 1.593 8.616-2.821-2.834-7.152-4.641-14.394-7.66-1.17-.489-2.472-1.031-3.85-1.613.472-.63 1.71-1.556 4.863-2.58m-2.39 10.673-.038-.072c-.688-1.252-2.107-3.837-2.572-5.91 1.145.481 2.228.933 3.218 1.346 7.794 3.25 11.933 4.976 14.448 8.013q-.047.072-.095.14c-.905 1.249-2.6 1.831-5.175 1.78-3.339-1.381-6.773-2.833-9.785-5.297m13.41 6.85q1.761-.544 2.828-1.742c.696 1.241 1.24 2.699 1.715 4.491-1.282-1.096-2.847-1.963-4.543-2.75m8.907 8.924a2 2 0 0 1-.133-.063c-.57-.298-1.07-.94-1.196-1.37-.913-5.241-1.917-8.652-3.615-11.202.782-2.27.52-5.463-.79-9.667 1.524.79 3.496 2.264 4.2 4.793 1.055 3.793 1.918 12.562 1.534 17.509"/></g></svg>