<svg xmlns="http://www.w3.org/2000/svg" width="114" height="146" fill="none" viewBox="0 0 114 146"><path fill="#a8c5ff" d="M53.91 5.148a6.02 6.02 0 0 1 9.046 0 6.02 6.02 0 0 0 7.51 1.253c3.153-1.803 7.173-.423 8.554 2.937a6.02 6.02 0 0 0 6.696 3.623c3.568-.68 6.922 1.93 7.138 5.556a6.02 6.02 0 0 0 5.156 5.601c3.596.515 5.921 4.073 4.948 7.573a6.02 6.02 0 0 0 3.058 6.972c3.234 1.654 4.277 5.774 2.22 8.768a6.02 6.02 0 0 0 .629 7.588c2.522 2.614 2.171 6.85-.747 9.014a6.02 6.02 0 0 0-1.869 7.38c1.536 3.292-.171 7.184-3.633 8.284a6.02 6.02 0 0 0-4.164 6.373c.383 3.613-2.495 6.74-6.126 6.655a6.02 6.02 0 0 0-6.009 4.676c-.81 3.541-4.547 5.564-7.954 4.305a6.02 6.02 0 0 0-7.201 2.472 6.02 6.02 0 0 1-8.922 1.489 6.02 6.02 0 0 0-7.614 0c-2.814 2.297-7.006 1.598-8.921-1.489a6.02 6.02 0 0 0-7.201-2.472c-3.408 1.259-7.145-.764-7.955-4.305a6.02 6.02 0 0 0-6.008-4.676 6.02 6.02 0 0 1-6.126-6.655 6.02 6.02 0 0 0-4.165-6.373c-3.462-1.1-5.169-4.992-3.633-8.284a6.02 6.02 0 0 0-1.869-7.38c-2.918-2.164-3.269-6.4-.747-9.014a6.02 6.02 0 0 0 .629-7.588c-2.057-2.994-1.014-7.114 2.22-8.768a6.02 6.02 0 0 0 3.059-6.972c-.974-3.5 1.35-7.058 4.947-7.573a6.02 6.02 0 0 0 5.156-5.601c.216-3.626 3.57-6.236 7.138-5.556a6.02 6.02 0 0 0 6.696-3.623c1.382-3.36 5.401-4.74 8.555-2.937a6.02 6.02 0 0 0 7.51-1.253"/><path fill="#a8c5ff" d="M26.473 76.33h60.343v52.97c0 7.389-7.737 12.226-14.38 8.991l-11.412-5.56a10 10 0 0 0-8.759 0l-11.413 5.56c-6.642 3.235-14.379-1.602-14.379-8.991z"/><path fill="#da39a1" d="M26.473 76.33H81.07v46.493c0 7.391-7.742 12.228-14.385 8.987l-8.528-4.161a10 10 0 0 0-8.77 0l-8.528 4.161c-6.643 3.241-14.385-1.596-14.385-8.987z"/><path fill="#072a6f" d="M49.979 5.823a5.916 5.916 0 0 1 8.889 0 5.916 5.916 0 0 0 7.38 1.231 5.916 5.916 0 0 1 8.407 2.887 5.916 5.916 0 0 0 6.58 3.56 5.916 5.916 0 0 1 7.015 5.46 5.916 5.916 0 0 0 5.068 5.505 5.916 5.916 0 0 1 4.862 7.442 5.916 5.916 0 0 0 3.005 6.852 5.916 5.916 0 0 1 2.183 8.617 5.916 5.916 0 0 0 .617 7.457 5.915 5.915 0 0 1-.734 8.859 5.916 5.916 0 0 0-1.836 7.253 5.917 5.917 0 0 1-3.571 8.14 5.916 5.916 0 0 0-4.093 6.264 5.916 5.916 0 0 1-6.02 6.54 5.916 5.916 0 0 0-5.904 4.596 5.917 5.917 0 0 1-7.818 4.231 5.915 5.915 0 0 0-7.077 2.429 5.916 5.916 0 0 1-8.768 1.463 5.92 5.92 0 0 0-7.482 0 5.916 5.916 0 0 1-8.768-1.463 5.915 5.915 0 0 0-7.077-2.429 5.917 5.917 0 0 1-7.818-4.231 5.916 5.916 0 0 0-5.904-4.596 5.916 5.916 0 0 1-6.02-6.54 5.916 5.916 0 0 0-4.093-6.264 5.916 5.916 0 0 1-3.57-8.14 5.916 5.916 0 0 0-1.837-7.253 5.916 5.916 0 0 1-.735-8.859 5.916 5.916 0 0 0 .618-7.457A5.916 5.916 0 0 1 7.66 38.76a5.916 5.916 0 0 0 3.006-6.852 5.916 5.916 0 0 1 4.862-7.442 5.916 5.916 0 0 0 5.068-5.504 5.916 5.916 0 0 1 7.014-5.46 5.916 5.916 0 0 0 6.58-3.561 5.916 5.916 0 0 1 8.408-2.887 5.916 5.916 0 0 0 7.38-1.231"/><circle cx="54.041" cy="54.041" r="39.528" fill="#fff"/><path fill="#fa67c7" d="M25.783 20.242a1.367 1.367 0 0 1 2.207-.762l5.856 4.87c.282.235.649.346 1.016.307l7.604-.812a1.352 1.352 0 0 1 1.403 1.851l-2.865 7.066a1.35 1.35 0 0 0 .017 1.057l3.1 6.945c.415.932-.317 1.974-1.34 1.906l-7.627-.504a1.37 1.37 0 0 0-1.005.347l-5.69 5.104c-.763.685-1.982.317-2.23-.673l-1.849-7.377a1.35 1.35 0 0 0-.638-.843l-6.615-3.79a1.352 1.352 0 0 1-.04-2.322l6.485-4.056c.313-.195.533-.508.61-.867z"/><path fill="#da39a1" d="M17.099 56.589a.72.72 0 0 1 .42-1.154l3.933-.776a.72.72 0 0 0 .462-.313l2.191-3.375a.71.71 0 0 1 1.222.041l1.935 3.514a.7.7 0 0 0 .437.344l3.865 1.038c.519.14.701.784.334 1.18l-2.736 2.947a.72.72 0 0 0-.192.526l.197 4.017a.716.716 0 0 1-1.015.688l-3.626-1.693a.7.7 0 0 0-.556-.019l-3.743 1.444a.71.71 0 0 1-.961-.754l.495-3.994a.72.72 0 0 0-.152-.537z"/><path fill="#e87f41" d="M41.235 38.966s-3.855-6.088-9.23-6.088c-1.108 0-2.77.455-2.77.455-2.222 1.438-3.19 4.626-3.335 7.851-.035.766.078 1.533.13 2.28.19 2.71 2.696 4.188 4.324 5.326l1.89 1.067c4.999-.35 9.34-5.892 8.99-10.89"/><path fill="#ac5d2e" d="m35.19 43.978-.554-.173-1.977-.456c-.68.96-1.7 2.615-2.219 3.465a.585.585 0 0 1-.843.17c-1.57-1.146-3.498-2.844-3.668-5.277a20 20 0 0 1-.03-.523c-.034.766-.023 1.534.03 2.28.19 2.71 2.01 4.573 3.637 5.71 1.375.962 2.613 1.407 2.613 1.407z"/><path fill="#e87f41" d="M68.67 39.081s3.897-6.192 9.273-6.192c1.108 0 2.822.444 2.822.444 2.221 1.439 3.189 4.626 3.335 7.852.035.765-.034 1.363-.086 2.11-.192 2.748-2.808 4.352-4.453 5.485l-1.855 1.147c-5-.35-9.386-5.847-9.037-10.846"/><path fill="#ac5d2e" d="M84.1 41.184c-.008.175 0 .352-.03.523a7.4 7.4 0 0 1-3.93 5.399.586.586 0 0 1-.795-.27c-.603-1.25-1.24-2.278-2.073-3.46-1.864-2.646-4.022-4.718-6.963-6.5-1.107 1.15-1.64 1.854-1.64 1.854-.017.242 6.374 11.657 9.151 11.85 0 0 1.197-.429 2.545-1.357 1.644-1.134 3.514-3.01 3.706-5.759a20 20 0 0 0 .029-2.28"/><path fill="#faf8f8" d="M34.946 36.917c-.973-.726-2.28-.797-3.29-.185a2.93 2.93 0 0 0-1.38 2.176.35.35 0 0 0 .405.379c.443-.072 1.136-.09 1.822.277.178.095.33.203.46.312a.35.35 0 0 1-.089.586c-.4.173-.943.515-1.268 1.166-.25.502-.273.987-.243 1.322a.35.35 0 0 0 .396.313c.233-.03.56-.034.9.085.158.056.383-.117.537 0 .564.43 5.136-.876 5.136-.876l.14-3.087z"/><path fill="#f0e9e6" d="M32.659 43.349c.157.055.318.137.472.254.563.43.826 1.165.672 1.881l4.528-3.012.666-3.132-1.633-.977a24.1 24.1 0 0 0-4.705 4.986"/><path fill="#faf8f8" d="M75.054 36.918c.973-.726 2.28-.798 3.29-.186a2.93 2.93 0 0 1 1.38 2.176.35.35 0 0 1-.405.379c-.443-.072-1.136-.09-1.822.277a2.75 2.75 0 0 0-.868.738c.142.029 1.239.271 1.766 1.326.25.502.272.987.243 1.321a.35.35 0 0 1-.393.314 1.96 1.96 0 0 0-.972.112c-.135.054-.322-.021-.454.08-.563.428-1.222 1.313-1.067 2.029l-4.083-3.012-.365-4.254z"/><path fill="#f0e9e6" d="m73.13 38.838-2.127.502.666 3.132 4.501 3.032a1.91 1.91 0 0 1 .7-1.9c.131-.101.268-.175.403-.229-1.302-1.847-2.326-3.01-4.142-4.537"/><path fill="#eb874b" d="m38.952 40.507-2.12-1.71c-1.667-1.833-4.365-4.309-7.599-5.465.603-.295 1.863-1.327 5.073-.444 2.274.684 4.253 2.344 5.586 3.72l.818 2.21z"/><path fill="#e87f41" d="M38.645 41.026c.122-1.12 3.284-1.305 3.036-2.297 0 0-.664-.96-1.789-2.12a24 24 0 0 0-3.06 2.187c1.153 1.27 1.813 2.23 1.813 2.23"/><path fill="#eb874b" d="M71.044 40.662s.955-.576 2.085-1.824c1.663-1.836 4.378-4.34 7.636-5.506-.603-.295-1.863-1.327-5.073-.444-2.291.69-4.284 2.371-5.618 3.754-1.105 1.146-1.374 2.524-1.374 2.524-.248.992 2.221.376 2.344 1.495"/><path fill="#e87f41" d="M70.074 36.642c-1.105 1.146-1.757 2.087-1.757 2.087-.247.993 2.914 1.177 3.037 2.297 0 0 .645-.94 1.776-2.188a24 24 0 0 0-3.056-2.196"/><path fill="#eb874b" d="m80.39 58.135-.9-1.935-.217-3.458c-.287-1.02-.577-1.893-.796-2.567-3.19-8.592-10.856-15.391-23.519-15.391-5.581 0-10.192 1.321-13.877 3.535-4.699 2.823-9.323 11.948-9.323 11.948A43 43 0 0 0 30.4 55.58c-.541 2.862-1.38 7.353-.402 12.872.259 1.458.454 3.279 1.383 5.627a.35.35 0 0 0 .598.088c.247-.299.57-.479 1.143-.614.05-.011.122.038.17.03a2.3 2.3 0 0 1 1.475.27c-.113.215-.794 2.027.1 3.857.368.755.677 1.004 1.08 1.287a.35.35 0 0 0 .504-.114c.154-.278.407-.414.794-.747.194-.167.421-.324.687-.455a3.4 3.4 0 0 1 1.402-.34c-.054.254-.31 2.208 1.144 3.904.825.962 1.587 1.269 2.193 1.413.2.048.392-.086.428-.288.038-.214.233-.208.346-.39.18-.29.438-.532.705-.71.481-.322 1.347-.458 2.064-.23.31.1.59.267.802.516l16.104-.223s.262-.171.665-.297l.061-.018.055-.015c.528-.142 1.252-.186 1.946.266.439.286.847.75.939 1.316.033.2.229.33.426.283.607-.145 1.635-.514 2.46-1.477 1.128-1.315 1.135-2.873 1.056-3.625a.35.35 0 0 1 .406-.382c.274.045.596.132.932.297a3.46 3.46 0 0 1 1.48 1.435c.1.18.336.234.504.116a4 4 0 0 0 1.316-1.522c.715-1.466.27-2.92.007-3.552a.35.35 0 0 1 .209-.465c.3-.108.753-.202 1.271-.08a2.23 2.23 0 0 1 1.22.78.35.35 0 0 0 .595-.1 30 30 0 0 0 1.613-5.595l-.162-1.627.626-2.35c.123-2.516-.083-4.738-.355-6.586"/><path fill="#e87f41" d="M36.495 77.193c-.73-1.429-.481-2.386-.062-3.322a.35.35 0 0 0-.433-.475c-.395.132-.869.3-1.234.456-.113.216-1.029 2.028-.135 3.858.37.755.913 1.24 1.316 1.522a.35.35 0 0 0 .503-.116c.154-.277.407-.648.794-.98 0 0-.636-.721-.75-.943m6.306 4.17c-1.935-1.901-2.09-3.378-1.975-4.392a.352.352 0 0 0-.524-.343c-.386.22-.968.712-.968.712-.305 1.529.098 3.01.991 4.051.825.962 1.853 1.332 2.46 1.477a.35.35 0 0 0 .427-.285c.036-.218.12-.42.233-.603-.221-.174-.42-.396-.644-.617m-11.075-13.44c-1.017-5.739-.174-10.423.39-13.399A45 45 0 0 1 33.525 49l.005-.016c1.514-4.116 4.013-7.84 7.55-10.665-4.7 2.823-7.892 7.097-9.67 11.932l-.005.016a43 43 0 0 0-.743 2.555l-.411 3.398-.66 2.016c-.267 1.844-.464 4.053-.336 6.55l.802 2.33-.336 1.62a30 30 0 0 0 1.608 5.56.35.35 0 0 0 .595.097 2.23 2.23 0 0 1 1.367-.81 31.3 31.3 0 0 1-1.567-5.66"/><path fill="#f0e9e6" d="M46.578 78.48s-.432 2.218-.363 2.561a5.33 5.33 0 0 0 5.22 4.263h7.132a5.33 5.33 0 0 0 5.22-4.267c.069-.342-.13-1.058-.13-1.058v-1.5z"/><path fill="#e5dcd8" d="M63.892 79.98v-5.016H46.11v5.015q0 .547.105 1.062c.637.185 1.647.281 2.008.281.901 0 2.946.19 4.758-.997l4.029.002c1.924 1.111 4.142.995 4.777.995.267 0 1.366-.1 2-.285q.104-.514.105-1.058"/><path fill="#8b818e" d="M51.84 79.256c.382.44.614.805 1.14 1.07a4.5 4.5 0 0 0 2.016.476 4.5 4.5 0 0 0 2.012-.476c.531-.266.767-.633 1.152-1.077l-3.053-4.684z"/><path fill="#756e78" d="M51.584 79.226c.366.421.898.838 1.396 1.1.112-.073.933-.758 1.493-1.228a.82.82 0 0 1 1.054 0c.558.467 1.373 1.15 1.481 1.228.531-.266 1-.633 1.386-1.077l-3.008-4.285h-.577z"/><path fill="#faf8f8" d="M53.586 58.478c-5.8 0-10.62 4.602-10.742 10.4l-.003.336v4.369a6.21 6.21 0 0 0 6.232 6.207c1.668-.006 3.258-.71 4.437-1.89l.61-.589.204-.755 1.411.054.142.7.736.791c1.11 1.11 2.642 1.69 4.212 1.69h.108a6.21 6.21 0 0 0 6.22-6.208v-4.37q-.03-.454-.066-.882c-.472-5.57-5.12-9.853-10.71-9.853z"/><path fill="#eb874b" d="m57.266 70.914-1.621 1.297-.645-.273-.644.273-1.622-1.297a1.17 1.17 0 0 1-.407-.641s-.487-.755-.55-.901a2.78 2.78 0 0 0-1.68-1.534l-1.045-.344a1.24 1.24 0 0 1-.683-1.8l.325-.56a1.76 1.76 0 0 1 1.524-.876h9.564c.628 0 1.209.334 1.524.877l.325.558a1.24 1.24 0 0 1-.683 1.8l-1.044.345a2.78 2.78 0 0 0-1.68 1.534c-.063.146-.55.901-.55.901a1.2 1.2 0 0 1-.408.641"/><path fill="#e87f41" d="M55 70.17a6.9 6.9 0 0 1-3.224-.798q.096.22.153.457l.164.678c.06.253.204.479.407.641l1.621 1.297.88-.46.878.46 1.621-1.297c.203-.162.347-.388.407-.64l.164-.68q.058-.236.153-.456A6.9 6.9 0 0 1 55 70.17"/><path fill="#8b818e" d="M64.764 42.551a50.4 50.4 0 0 0-19.533 0c-.353.069-.574-.371-.304-.609 5.436-4.777 14.688-4.75 20.138 0 .271.237.051.678-.301.61m-4.994 5.553c-3.19.205-6.344.208-9.544 0a.352.352 0 0 1-.274-.54c2.145-3.3 7.934-3.284 10.091-.001a.352.352 0 0 1-.273.54m20.62 10.032c-.14-.956-.3-1.812-.44-2.556a33 33 0 0 0-.676-2.838c-1 3.315-2.899 6.062-5.928 8.503-.452.363-.158 1.1.42 1.04 2.75-.285 5.105-1.95 6.624-4.15m-7.815 9.205c-.581.052-.743.834-.225 1.102 2.512 1.298 5.466 1.224 7.932.257l.042-.233a30 30 0 0 0 .42-3.744c-2.241 1.49-4.911 2.33-8.169 2.619m-36.421-5.056c.573.059.872-.675.423-1.037-2.06-1.662-3.598-3.467-4.688-5.49-.5-.93-.889-1.221-1.207-2.25-.212.823-.709 3.732-.854 4.729.499.712.848 1.362 1.502 1.925 1.343 1.152 2.987 1.934 4.824 2.123"/><path fill="#756e78" d="M29.991 55.888a57 57 0 0 0-.397 2.349 10.4 10.4 0 0 0 1.736 1.925 42 42 0 0 1 .559-4.404q-.75-1.393-1.224-2.935a45 45 0 0 0-.674 3.065"/><path fill="#8b818e" d="M37.345 67.342c-2.247-.2-4.181-.636-5.9-1.375-.77-.33-1.348-.272-2.04-.73 0 0 .532 3.259.55 3.35.735.292 1.274.647 2.059.76 1.849.267 3.78.01 5.552-.904.516-.267.358-1.05-.221-1.101"/><path fill="#756e78" d="M32.013 69.348a30 30 0 0 1-.569-3.381q-1.15-.493-2.186-1.179c.068 1.324.223 2.644.466 3.948a10.2 10.2 0 0 0 2.29.612"/><path fill="#394240" d="M82.389 33.559c-1.177-1.262-2.673-1.902-4.446-1.902-4.286 0-7.797 3.445-9.474 5.445-3.84-2.09-8.406-3.199-13.512-3.199-1.075 0-2.14.05-3.167.145a.88.88 0 0 0 .163 1.75 32 32 0 0 1 3.004-.137c11.788-.053 20.58 6.453 23.4 17.073-1.103 3.512-3.237 6.244-6.894 8.83a.879.879 0 0 0 .415 1.591q.501.053.998.053c2.563 0 4.999-1.05 6.89-2.942.112 1.205.17 2.535.12 3.973-2.354 1.472-5.184 2.194-9.098 2.331a.879.879 0 0 0-.517 1.566 10 10 0 0 0 6.269 2.19c.85 0 1.71-.106 2.564-.32a30 30 0 0 1-.978 3.242 3 3 0 0 0-1.072-.489c-1.063-.25-1.93.148-2.254.33a.88.88 0 0 0-.347 1.175c.086.163.819 1.637.123 3.063a3 3 0 0 1-.605.835 4.2 4.2 0 0 0-1.517-1.266 4.2 4.2 0 0 0-1.768-.432.88.88 0 0 0-.882 1.061c.04.194.368 1.936-.8 3.297a3.7 3.7 0 0 1-1.523 1.05c-.22-.51-.612-.974-1.146-1.33a2.5 2.5 0 0 0-1.57-.418c.004-.082.003-.38.003-.578a7.09 7.09 0 0 0 3.264-5.963c-.005-1.043.01-4.041-.008-4.865a.879.879 0 1 0-1.757.055c.014-.08.005 4.766.008 4.81a5.336 5.336 0 0 1-5.33 5.33 5.3 5.3 0 0 1-3.768-1.561l-1.3-1.301v-2.478l2.483-1.987a.88.88 0 0 0 .306-.481l.257-1.07a1.89 1.89 0 0 1 1.253-1.36l1.045-.345c.61-.201 1.09-.66 1.317-1.26a2.11 2.11 0 0 0-.15-1.817l-.324-.56a2.65 2.65 0 0 0-2.285-1.313h-9.564a2.65 2.65 0 0 0-2.284 1.314l-.325.559a2.11 2.11 0 0 0-.15 1.817 2.11 2.11 0 0 0 1.318 1.26l1.044.344a1.89 1.89 0 0 1 1.254 1.362l.257 1.07a.88.88 0 0 0 .305.48l2.484 1.987v2.478l-1.3 1.3a5.3 5.3 0 0 1-3.769 1.562 5.335 5.335 0 0 1-5.329-5.33v-4.368c-.004-2.148.536-4.573 1.68-6.679a14.1 14.1 0 0 1 2.58-3.427.88.88 0 0 0-1.226-1.259 15.9 15.9 0 0 0-2.903 3.855 16 16 0 0 0-1.889 7.51v4.369c0 2.5 1.303 4.7 3.264 5.962.003.215-.004.305.004.574a2.5 2.5 0 0 0-1.57.422c-.534.356-.927.82-1.147 1.33a3.7 3.7 0 0 1-1.523-1.05c-1.168-1.361-.84-3.102-.799-3.296a.88.88 0 0 0-.882-1.062 4.2 4.2 0 0 0-1.768.432c-.69.34-1.178.815-1.517 1.267a3 3 0 0 1-.605-.836c-.696-1.425.037-2.9.123-3.063a.88.88 0 0 0-.347-1.175c-.324-.182-1.192-.579-2.254-.33-.428.1-.783.28-1.073.49a30 30 0 0 1-.972-3.22c.824.199 1.654.297 2.475.297a10 10 0 0 0 6.27-2.19.879.879 0 0 0-.517-1.565c-3.872-.136-6.676-.842-9.014-2.28a31 31 0 0 1 .112-3.95c1.882 1.844 4.292 2.867 6.818 2.867q.495 0 .994-.052a.879.879 0 0 0 .415-1.592c-3.572-2.525-5.76-5.315-6.873-8.765 1.987-8.196 8.256-14.447 16.459-16.356a.879.879 0 0 0-.412-1.709c-2.2.53-4.248 1.317-6.124 2.338-1.667-1.979-5.179-5.415-9.448-5.415-2.337 0-4.226 1.139-5.462 3.294-1.238 2.157-1.547 4.806-1.589 6.647a.879.879 0 0 0 1.758.04c.033-1.476.34-5.508 2.605-7.32.895.357 1.744.818 2.535 1.335q-.357.126-.69.326a3.82 3.82 0 0 0-1.82 3.442.88.88 0 0 0 1.136.803 2.25 2.25 0 0 1 1.151-.046 3.2 3.2 0 0 0-.848 1.057 3.38 3.38 0 0 0-.247 2.309.88.88 0 0 0 1.128.624c.021-.007.514-.159.898.134a.96.96 0 0 1 .368.77 25.5 25.5 0 0 0-2.027 3.945c-1.258-.722-2.883-1.946-3.682-3.748a.879.879 0 1 0-1.607.713c1.052 2.373 3.178 3.887 4.689 4.712-2.396 7.759-3.015 16.748.428 24.578a.88.88 0 0 0 1.614.014c.09-.145.442-.808 1.205-.85-.264.902-.436 2.27.245 3.662a4.95 4.95 0 0 0 2.011 2.116.88.88 0 0 0 1.243-.417c.106-.27.522-.98 1.268-1.346.02.978.273 2.325 1.294 3.516 1.152 1.321 2.654 1.807 3.54 1.862a.88.88 0 0 0 .876-.952c-.037-.436.423-.78.565-.874.29-.194.634-.17.947.05a6.21 6.21 0 0 0 5.847 4.133h7.133a6.21 6.21 0 0 0 5.847-4.131c.317-.224.66-.244.948-.052.142.095.602.438.565.874a.88.88 0 0 0 .876.952c.82-.041 2.303-.477 3.54-1.862 1.02-1.19 1.274-2.538 1.294-3.516.601.264 1.146.989 1.268 1.346a.878.878 0 0 0 1.243.417 4.95 4.95 0 0 0 2.01-2.116c.681-1.393.51-2.76.246-3.661q.12.003.252.033c.654.154.94.789.953.816.14.319.456.524.804.524h.007a.88.88 0 0 0 .803-.538c3.82-8.752 2.463-18.09.362-24.543 1.915-1.035 5.095-3.325 5.367-7.204.294-4.207-.663-7.932-2.56-9.966M36.136 68.097c-1.772.622-3.741.63-5.64-.012a29 29 0 0 1-.235-1.697c1.696.858 3.602 1.415 5.875 1.709m-.967-6.884c-1.792-.458-3.429-1.568-4.66-3.205.13-.84.27-1.585.392-2.228 1.004 1.996 2.405 3.781 4.268 5.433m-3.118-27.799c3.436 0 6.476 2.926 7.911 4.569q-.85.55-1.646 1.17a29 29 0 0 0-2.778-2.893c-1.122-1.009-2.45-2.022-3.933-2.826q.216-.02.446-.02m1.62 9.49a2.6 2.6 0 0 0-1.395-.53q.035-.173.123-.354c.337-.674 1.072-.84 1.155-.858a.88.88 0 0 0 .519-1.4 3.6 3.6 0 0 0-1.147-.974 3.6 3.6 0 0 0-1.592-.42c.166-.364.436-.675.784-.886.7-.423 1.623-.369 2.303.133 1.07.969 1.94 1.934 2.553 2.673a23 23 0 0 0-2.824 3.089 2.7 2.7 0 0 0-.478-.474M52.968 70.4l-.186-.776a3.64 3.64 0 0 0-2.413-2.62l-1.044-.345a.36.36 0 0 1-.225-.214.36.36 0 0 1 .026-.31l.325-.559a.89.89 0 0 1 .765-.44h9.564c.314 0 .607.169.765.44l.325.56a.35.35 0 0 1 .025.309.36.36 0 0 1-.224.214l-1.044.344a3.64 3.64 0 0 0-2.413 2.62l-.187.777-1.15.92v-3.686a.879.879 0 1 0-1.758 0v3.687zm2.03 7.256.937.937q.445.443.95.796a3.61 3.61 0 0 1-3.777.002 7 7 0 0 0 .953-.798zm3.566 6.77h-7.132c-2.31-.014-4.198-1.782-4.43-4.06a7.1 7.1 0 0 0 4.373-.088 5.37 5.37 0 0 0 7.24 0 7.1 7.1 0 0 0 4.378.088 4.45 4.45 0 0 1-4.429 4.06m19.38-51.013q.234 0 .457.02c-3.046 1.651-5.436 4.18-6.744 5.76a23 23 0 0 0-1.654-1.179c1.444-1.66 4.487-4.6 7.94-4.6m-4.945 6.916a26 26 0 0 1 2.579-2.709c.681-.508 1.61-.564 2.311-.139.349.211.618.522.785.886a3.6 3.6 0 0 0-1.593.42 3.6 3.6 0 0 0-1.146.974.878.878 0 0 0 .519 1.4c.082.017.818.184 1.154.858q.089.182.124.353a2.62 2.62 0 0 0-1.917 1.06 23 23 0 0 0-2.816-3.103m1.743 20.884c1.906-1.686 3.326-3.508 4.33-5.546l.015.076c.118.627.256 1.355.384 2.171-1.24 1.69-2.902 2.834-4.728 3.3m-.966 6.883c2.311-.3 4.246-.87 5.963-1.754q-.09.838-.236 1.713c-1.925.672-3.928.672-5.727.04m9.42-24.695c-.203 2.897-2.6 4.733-4.213 5.65a25.6 25.6 0 0 0-1.936-3.816.98.98 0 0 1 .354-.934c.384-.293.878-.14.897-.134a.877.877 0 0 0 1.13-.625 3.38 3.38 0 0 0-.247-2.308 3.25 3.25 0 0 0-.848-1.057c.493-.12.948-.016 1.15.046a.878.878 0 0 0 1.136-.803 3.82 3.82 0 0 0-1.819-3.443 4 4 0 0 0-.692-.325c.79-.515 1.636-.975 2.528-1.332 2.262 1.867 2.77 6.002 2.56 9.081"/><path fill="#394240" d="M66.467 65.61a.88.88 0 0 0 .839-1.142 15.9 15.9 0 0 0-4.066-6.619.878.878 0 1 0-1.227 1.259 14.16 14.16 0 0 1 3.615 5.885.88.88 0 0 0 .838.616m-2.97 7.901a.878.878 0 1 0 .001 0zm-14.181.07a.879.879 0 1 0 0-1.759h-.001a.878.878 0 1 0 .001 1.758m0 3.377a.879.879 0 1 0 0-1.758h-.001a.878.878 0 1 0 .001 1.758m-3.693-2.568a.88.88 0 1 0 .88-.879H46.5a.88.88 0 0 0-.878.88m8.496-21.495v5.508a.879.879 0 1 0 1.758 0v-5.508a.879.879 0 1 0-1.758 0m.855-15.404c-4.468-.013-8.809 1.726-11.576 4.707a.879.879 0 0 0 .832 1.459c7.105-1.598 14.525-1.536 21.726.02.282.05.606-.166.764-.445a.88.88 0 0 0-.125-1.037c-2.825-2.991-7.059-4.705-11.621-4.705m.004 3.227c-2.568 0-5.134.194-7.688.582 2.184-1.32 4.84-2.046 7.647-2.052 2.715-.017 5.577.73 7.75 2.052a51.5 51.5 0 0 0-7.709-.582m6.115 7.786a.88.88 0 0 0 .025-.827 5.8 5.8 0 0 0-2.133-2.343.88.88 0 0 0-.944 1.484q.338.214.619.472a72 72 0 0 1-7.334 0c.82-.762 1.98-1.23 3.308-1.304a.879.879 0 1 0-.098-1.755c-2.554.142-4.67 1.432-5.66 3.45a.88.88 0 0 0 .726 1.263 74 74 0 0 0 10.791 0 .88.88 0 0 0 .7-.44M42.16 55.148l2.49 1.541a.879.879 0 1 0 .925-1.494l-2.491-1.542a.879.879 0 1 0-.925 1.495M68.163 54a.88.88 0 0 0-1.201-.322l-2.537 1.465a.879.879 0 1 0 .879 1.522L67.84 55.2a.88.88 0 0 0 .322-1.2"/></svg>