<svg xmlns="http://www.w3.org/2000/svg" width="114" height="146" fill="none" viewBox="0 0 114 146"><path fill="#a8c5ff" d="M53.91 5.148a6.02 6.02 0 0 1 9.046 0 6.02 6.02 0 0 0 7.51 1.253c3.153-1.803 7.173-.423 8.554 2.937a6.02 6.02 0 0 0 6.696 3.623c3.568-.68 6.922 1.93 7.138 5.556a6.02 6.02 0 0 0 5.156 5.601c3.596.515 5.921 4.073 4.948 7.573a6.02 6.02 0 0 0 3.058 6.972c3.234 1.654 4.277 5.774 2.22 8.768a6.02 6.02 0 0 0 .629 7.588c2.522 2.614 2.171 6.85-.747 9.014a6.02 6.02 0 0 0-1.869 7.38c1.536 3.292-.171 7.184-3.633 8.284a6.02 6.02 0 0 0-4.165 6.373c.385 3.613-2.494 6.74-6.125 6.655a6.02 6.02 0 0 0-6.009 4.676c-.81 3.541-4.547 5.564-7.954 4.305a6.02 6.02 0 0 0-7.202 2.472c-1.915 3.087-6.107 3.786-8.921 1.489a6.02 6.02 0 0 0-7.614 0c-2.814 2.297-7.006 1.598-8.921-1.489a6.02 6.02 0 0 0-7.201-2.472c-3.408 1.259-7.145-.764-7.955-4.305a6.02 6.02 0 0 0-6.008-4.676 6.02 6.02 0 0 1-6.126-6.655 6.02 6.02 0 0 0-4.165-6.373c-3.462-1.1-5.169-4.992-3.633-8.284a6.02 6.02 0 0 0-1.869-7.38c-2.918-2.164-3.269-6.4-.747-9.014a6.02 6.02 0 0 0 .629-7.588c-2.057-2.994-1.014-7.114 2.22-8.768a6.02 6.02 0 0 0 3.059-6.972c-.974-3.5 1.35-7.058 4.947-7.573a6.02 6.02 0 0 0 5.156-5.601c.216-3.626 3.57-6.236 7.138-5.556a6.02 6.02 0 0 0 6.696-3.623c1.381-3.36 5.401-4.74 8.555-2.937a6.02 6.02 0 0 0 7.51-1.253"/><path fill="#a8c5ff" d="M26.473 76.33h60.343v52.97c0 7.389-7.737 12.226-14.38 8.991l-11.412-5.56a10 10 0 0 0-8.759 0l-11.413 5.56c-6.642 3.235-14.379-1.602-14.379-8.991z"/><path fill="#da39a1" d="M26.473 76.33H81.07v46.493c0 7.391-7.742 12.228-14.385 8.987l-8.528-4.161a10 10 0 0 0-8.77 0l-8.528 4.161c-6.643 3.241-14.385-1.596-14.385-8.987z"/><path fill="#072a6f" d="M49.979 5.823a5.916 5.916 0 0 1 8.889 0 5.916 5.916 0 0 0 7.38 1.231 5.916 5.916 0 0 1 8.407 2.887 5.916 5.916 0 0 0 6.58 3.56 5.916 5.916 0 0 1 7.015 5.46 5.916 5.916 0 0 0 5.068 5.505 5.916 5.916 0 0 1 4.862 7.442 5.916 5.916 0 0 0 3.005 6.852 5.916 5.916 0 0 1 2.183 8.617 5.916 5.916 0 0 0 .617 7.457 5.915 5.915 0 0 1-.734 8.859 5.916 5.916 0 0 0-1.836 7.253 5.917 5.917 0 0 1-3.571 8.14 5.916 5.916 0 0 0-4.093 6.264 5.916 5.916 0 0 1-6.02 6.54 5.916 5.916 0 0 0-5.904 4.596 5.917 5.917 0 0 1-7.818 4.231 5.915 5.915 0 0 0-7.077 2.429 5.916 5.916 0 0 1-8.768 1.463 5.92 5.92 0 0 0-7.482 0 5.916 5.916 0 0 1-8.768-1.463 5.915 5.915 0 0 0-7.077-2.429 5.917 5.917 0 0 1-7.818-4.231 5.916 5.916 0 0 0-5.904-4.596 5.916 5.916 0 0 1-6.02-6.54 5.916 5.916 0 0 0-4.093-6.264 5.916 5.916 0 0 1-3.57-8.14 5.916 5.916 0 0 0-1.837-7.253 5.916 5.916 0 0 1-.735-8.859 5.916 5.916 0 0 0 .618-7.457A5.916 5.916 0 0 1 7.66 38.76a5.916 5.916 0 0 0 3.006-6.852 5.916 5.916 0 0 1 4.862-7.442 5.916 5.916 0 0 0 5.068-5.504 5.916 5.916 0 0 1 7.014-5.46 5.916 5.916 0 0 0 6.58-3.561 5.916 5.916 0 0 1 8.408-2.887 5.916 5.916 0 0 0 7.38-1.231"/><circle cx="54.041" cy="54.041" r="39.528" fill="#fff"/><path fill="#fa67c7" d="M25.783 20.242c.215-1 1.42-1.416 2.207-.762l5.856 4.87c.282.235.649.346 1.016.307l7.604-.812a1.352 1.352 0 0 1 1.403 1.851l-2.865 7.066a1.35 1.35 0 0 0 .017 1.057l3.1 6.945c.415.932-.317 1.974-1.34 1.906l-7.627-.504a1.37 1.37 0 0 0-1.005.347l-5.69 5.104c-.763.685-1.982.317-2.23-.673l-1.849-7.377a1.35 1.35 0 0 0-.638-.843l-6.615-3.79a1.352 1.352 0 0 1-.04-2.322l6.485-4.056c.313-.195.533-.508.61-.867z"/><path fill="#da39a1" d="M17.099 56.589a.72.72 0 0 1 .42-1.154l3.933-.776a.72.72 0 0 0 .462-.313l2.191-3.375a.71.71 0 0 1 1.221.041l1.936 3.514a.7.7 0 0 0 .437.344l3.865 1.038c.519.14.701.784.334 1.18l-2.736 2.947a.72.72 0 0 0-.192.526l.197 4.017a.716.716 0 0 1-1.015.688l-3.626-1.693a.7.7 0 0 0-.556-.019l-3.743 1.444a.71.71 0 0 1-.961-.754l.495-3.994a.72.72 0 0 0-.152-.537z"/><g clip-path="url(#a)"><path fill="#ffbd86" d="m67.517 34.234 8.933-7.541c1.897-1.6 4.84-.65 5.399 1.77.881 3.816.338 8.98-7.496 11.567m-40.695 0c-7.834-2.588-8.377-7.751-7.495-11.568.56-2.419 3.5-3.37 5.398-1.77l8.933 7.542m3.078 49.043a11.5 11.5 0 0 0 10.434 6.663c4.623 0 8.61-2.728 10.433-6.663V69.56H43.191"/><path fill="#ea9b58" d="M54.006 89.686c-4.623 0-8.61-2.729-10.434-6.664V69.304h6.005v13.718c.774 3.935 2.466 6.664 4.429 6.664"/><path fill="#ffbd86" d="M70.61 71.814a15.95 15.95 0 0 0 6.387-12.782V48.836c0-8.824-7.153-15.978-15.977-15.978H46.99c-8.823 0-15.976 7.154-15.976 15.978v10.196c0 5.225 2.508 9.865 6.387 12.78"/><path fill="#ea9b58" d="M41.307 48.836v10.196c0 5.225 1.386 9.865 3.528 12.78H37.4a15.95 15.95 0 0 1-6.387-12.78V48.836c0-8.824 7.153-15.978 15.977-15.978h3.14c-4.873 0-8.824 7.154-8.824 15.978"/><path fill="#fff0d2" d="M57.23 53.313h-6.45c-7.39 0-13.38 5.99-13.38 13.38v8.559a8.302 8.302 0 0 0 16.605 0 8.302 8.302 0 0 0 16.605 0v-8.558c0-7.39-5.99-13.381-13.38-13.381"/><path fill="#edd9b7" d="M48.598 83.035a8.3 8.3 0 0 1-2.895.519 8.3 8.3 0 0 1-8.303-8.302v-8.558c0-7.39 5.991-13.38 13.38-13.38h5.791c-7.39 0-13.381 5.99-13.381 13.38v8.558a8.305 8.305 0 0 0 5.408 7.783"/><path fill="#20303f" d="M76.997 48.698v1.243a4.205 4.205 0 0 1-4.203 4.203 4.203 4.203 0 0 1-4.203-4.203v-1.243z"/><path fill="#394d63" d="M76.997 48.698v1.243c0 1.775-1.1 3.292-2.656 3.91a4.2 4.2 0 0 1-2.656-3.91v-1.243z"/><path fill="#20303f" d="M35.217 54.145a4.203 4.203 0 0 0 4.203-4.204v-1.245h-8.406v1.245a4.203 4.203 0 0 0 4.203 4.204"/><path fill="#ffbd86" d="M64.759 47.383v1.313h15.328v-1.313a4.307 4.307 0 0 0-4.307-4.306h-6.714"/><path fill="#ea9b58" d="M43.253 47.383v1.313h-15.33v-1.313a4.307 4.307 0 0 1 4.307-4.306h6.714"/><path fill="#fff" d="M75.252 50.262a1.157 1.157 0 1 1-2.313 0 1.157 1.157 0 0 1 2.313 0"/><path fill="#394d63" d="M39.42 48.697v1.244c0 1.775-1.1 3.292-2.655 3.909a4.2 4.2 0 0 1-2.657-3.91v-1.243z"/><path fill="#fff" d="M37.911 50.262a1.157 1.157 0 1 1-2.314 0 1.157 1.157 0 0 1 2.314 0"/><path fill="#394240" d="M82.253 35.131c.96-1.998 1.145-4.316.55-6.89a4.25 4.25 0 0 0-2.823-3.094 4.3 4.3 0 0 0-4.163.797l-8.47 7.151a17 17 0 0 0-4.251-1.091.98.98 0 1 0-.238 1.945 14.95 14.95 0 0 1 11.563 8.147h-5.355a.98.98 0 0 0 0 1.96h6.714a3.33 3.33 0 0 1 3.327 3.327v.334H65.739v-.334a.98.98 0 1 0-1.96 0v1.313c0 .542.439.98.98.98h2.852v.265a5.19 5.19 0 0 0 5.183 5.184 5.16 5.16 0 0 0 3.223-1.128v5.035c0 4.062-1.592 7.84-4.425 10.642v-2.98c0-7.919-6.443-14.36-14.362-14.36h-6.45c-7.918 0-14.36 6.441-14.36 14.36v2.98c-2.834-2.801-4.426-6.58-4.426-10.642v-5.036a5.16 5.16 0 0 0 3.224 1.13 5.19 5.19 0 0 0 5.183-5.184v-.265h2.851a.98.98 0 0 0 .98-.98v-1.313a.98.98 0 0 0-1.96 0v.333H28.906v-.333a3.33 3.33 0 0 1 3.326-3.327h6.715a.98.98 0 0 0 0-1.96h-5.354a15 15 0 0 1 4.824-5.567 14.9 14.9 0 0 1 8.575-2.692H59.06a.98.98 0 0 0 0-1.96H46.99c-2.192 0-4.33.415-6.324 1.218l-8.472-7.152a4.3 4.3 0 0 0-4.163-.797 4.25 4.25 0 0 0-2.823 3.095c-.595 2.573-.41 4.89.55 6.89 1.126 2.343 3.29 4.159 6.44 5.41a17 17 0 0 0-.8 1.62 5.295 5.295 0 0 0-4.454 5.221v1.313c0 .542.439.98.98.98h2.11v9.356c0 5.217 2.32 10.022 6.386 13.26v2.959q0 .436.039.836a.98.98 0 0 0 1.951-.188 7 7 0 0 1-.03-.648v-8.558c0-6.837 5.563-12.4 12.4-12.4h6.45c6.838 0 12.401 5.563 12.401 12.4v8.558a7.27 7.27 0 0 1-2.145 5.178 7.28 7.28 0 0 1-5.177 2.144c-4.038 0-7.323-3.284-7.323-7.322v-9.042a5.84 5.84 0 0 0 4.854-5.75.98.98 0 1 0-1.96 0 3.88 3.88 0 0 1-3.874 3.873 3.88 3.88 0 0 1-3.874-3.873.98.98 0 1 0-1.96 0 5.84 5.84 0 0 0 4.854 5.75v9.047a7.27 7.27 0 0 1-2.145 5.173 7.28 7.28 0 0 1-5.178 2.144 7.29 7.29 0 0 1-6.19-3.41.98.98 0 0 0-1.657 1.048 9.24 9.24 0 0 0 5.026 3.887 12.53 12.53 0 0 0 11.124 6.823c4.69 0 9.007-2.664 11.124-6.824a9.2 9.2 0 0 0 3.742-2.282 9.22 9.22 0 0 0 2.72-6.564v-2.958c4.065-3.238 6.386-8.044 6.386-13.26v-9.356h2.109a.98.98 0 0 0 .98-.98v-1.313a5.296 5.296 0 0 0-4.454-5.221 17 17 0 0 0-.798-1.622c3.148-1.25 5.312-3.066 6.438-5.41m-55.135-6.448a2.28 2.28 0 0 1 1.532-1.676 2.36 2.36 0 0 1 2.28.435l7.799 6.584q-.736.41-1.435.896l-.272.197c-2.709-4.044-7.053-4.255-7.25-4.263a.976.976 0 0 0-1.015.943.98.98 0 0 0 .943 1.016c.038.001 3.634.177 5.796 3.554a17 17 0 0 0-2.22 2.486c-5.2-1.934-7.272-5.353-6.158-10.172M38.44 49.941a3.227 3.227 0 0 1-3.223 3.223 3.226 3.226 0 0 1-3.223-3.223v-.264h6.446zm15.566 39.02a10.56 10.56 0 0 1-8.576-4.432q.136.005.273.005a9.22 9.22 0 0 0 6.564-2.72 9.3 9.3 0 0 0 1.742-2.407c1.527 3.038 4.674 5.127 8.3 5.127q.138-.001.274-.007a10.56 10.56 0 0 1-8.577 4.434m18.788-35.796a3.227 3.227 0 0 1-3.223-3.224v-.264h6.446v.274a3.226 3.226 0 0 1-3.223 3.213m-.165-16.701c2.128-3.43 5.69-3.641 5.86-3.649a.98.98 0 0 0-.077-1.958c-.198.007-4.596.22-7.302 4.339q-.871-.645-1.822-1.175l7.794-6.579a2.36 2.36 0 0 1 2.28-.435 2.28 2.28 0 0 1 1.532 1.676c1.114 4.819-.96 8.237-6.158 10.172a17 17 0 0 0-2.107-2.391"/></g><defs><clipPath id="a"><path fill="#fff" d="M21 24.92h66v66H21z"/></clipPath></defs></svg>