<svg xmlns="http://www.w3.org/2000/svg" width="114" height="146" fill="none" viewBox="0 0 114 146"><path fill="#a8c5ff" d="M53.91 5.148a6.02 6.02 0 0 1 9.046 0 6.02 6.02 0 0 0 7.51 1.253c3.153-1.803 7.173-.423 8.554 2.937a6.02 6.02 0 0 0 6.696 3.623c3.568-.68 6.922 1.93 7.138 5.556a6.02 6.02 0 0 0 5.156 5.602c3.596.514 5.921 4.072 4.948 7.572a6.02 6.02 0 0 0 3.058 6.972c3.234 1.654 4.277 5.774 2.22 8.768a6.02 6.02 0 0 0 .629 7.588 6.02 6.02 0 0 1-.747 9.014 6.02 6.02 0 0 0-1.869 7.38c1.536 3.292-.171 7.184-3.633 8.284a6.02 6.02 0 0 0-4.165 6.373c.385 3.613-2.494 6.74-6.125 6.655a6.02 6.02 0 0 0-6.009 4.676c-.81 3.541-4.547 5.564-7.954 4.305a6.02 6.02 0 0 0-7.202 2.472c-1.915 3.087-6.107 3.786-8.921 1.489a6.02 6.02 0 0 0-7.614 0c-2.814 2.297-7.006 1.598-8.921-1.489a6.02 6.02 0 0 0-7.201-2.472c-3.408 1.259-7.145-.764-7.955-4.305a6.02 6.02 0 0 0-6.008-4.676 6.02 6.02 0 0 1-6.126-6.655 6.02 6.02 0 0 0-4.165-6.373c-3.462-1.1-5.169-4.992-3.633-8.284a6.02 6.02 0 0 0-1.869-7.38c-2.918-2.164-3.269-6.4-.747-9.014a6.02 6.02 0 0 0 .629-7.588c-2.057-2.994-1.014-7.114 2.22-8.768a6.02 6.02 0 0 0 3.059-6.972 6.018 6.018 0 0 1 4.947-7.572 6.02 6.02 0 0 0 5.156-5.602c.216-3.626 3.57-6.236 7.138-5.556a6.02 6.02 0 0 0 6.696-3.623c1.381-3.36 5.401-4.74 8.555-2.937a6.02 6.02 0 0 0 7.51-1.253"/><path fill="#a8c5ff" d="M26.473 76.33h60.343v52.97c0 7.389-7.737 12.226-14.38 8.991l-11.412-5.56a10 10 0 0 0-8.759 0l-11.413 5.56c-6.642 3.235-14.379-1.602-14.379-8.991z"/><path fill="#da39a1" d="M26.473 76.33H81.07v46.493c0 7.391-7.742 12.228-14.385 8.987l-8.528-4.161a10 10 0 0 0-8.77 0l-8.528 4.161c-6.643 3.241-14.385-1.596-14.385-8.987z"/><path fill="#072a6f" d="M49.979 5.823a5.916 5.916 0 0 1 8.889 0 5.916 5.916 0 0 0 7.38 1.231 5.916 5.916 0 0 1 8.407 2.887 5.916 5.916 0 0 0 6.58 3.56 5.916 5.916 0 0 1 7.015 5.46 5.916 5.916 0 0 0 5.068 5.505 5.916 5.916 0 0 1 4.862 7.442 5.916 5.916 0 0 0 3.005 6.852 5.916 5.916 0 0 1 2.183 8.617 5.916 5.916 0 0 0 .617 7.457 5.915 5.915 0 0 1-.734 8.859 5.916 5.916 0 0 0-1.836 7.253 5.917 5.917 0 0 1-3.571 8.14 5.916 5.916 0 0 0-4.093 6.264 5.916 5.916 0 0 1-6.02 6.54 5.916 5.916 0 0 0-5.904 4.596 5.917 5.917 0 0 1-7.818 4.231 5.915 5.915 0 0 0-7.077 2.429 5.916 5.916 0 0 1-8.768 1.463 5.92 5.92 0 0 0-7.482 0 5.916 5.916 0 0 1-8.768-1.463 5.915 5.915 0 0 0-7.077-2.429 5.917 5.917 0 0 1-7.818-4.231 5.916 5.916 0 0 0-5.904-4.596 5.916 5.916 0 0 1-6.02-6.54 5.916 5.916 0 0 0-4.093-6.264 5.916 5.916 0 0 1-3.57-8.14 5.916 5.916 0 0 0-1.837-7.253 5.916 5.916 0 0 1-.735-8.859 5.916 5.916 0 0 0 .618-7.457A5.916 5.916 0 0 1 7.66 38.76a5.916 5.916 0 0 0 3.006-6.852 5.916 5.916 0 0 1 4.862-7.442 5.916 5.916 0 0 0 5.068-5.504 5.916 5.916 0 0 1 7.014-5.46 5.916 5.916 0 0 0 6.58-3.561 5.916 5.916 0 0 1 8.408-2.887 5.916 5.916 0 0 0 7.38-1.231"/><circle cx="54.041" cy="54.041" r="39.528" fill="#fff"/><path fill="#fa67c7" d="M25.783 20.242c.215-1 1.42-1.416 2.207-.762l5.856 4.87c.282.235.649.346 1.016.307l7.604-.812a1.352 1.352 0 0 1 1.403 1.851l-2.865 7.066a1.35 1.35 0 0 0 .017 1.057l3.1 6.945c.415.932-.317 1.974-1.34 1.906l-7.627-.504a1.37 1.37 0 0 0-1.005.347l-5.69 5.104c-.763.685-1.982.317-2.23-.673l-1.849-7.377a1.35 1.35 0 0 0-.638-.843l-6.615-3.79a1.352 1.352 0 0 1-.04-2.322l6.485-4.056c.313-.195.533-.508.61-.867z"/><path fill="#da39a1" d="M17.099 56.589a.72.72 0 0 1 .42-1.154l3.933-.776a.72.72 0 0 0 .462-.313l2.191-3.375a.71.71 0 0 1 1.221.041l1.936 3.514a.7.7 0 0 0 .437.344l3.865 1.038c.519.14.701.784.334 1.18l-2.736 2.947a.72.72 0 0 0-.192.526l.197 4.017a.716.716 0 0 1-1.015.688l-3.626-1.693a.7.7 0 0 0-.556-.019l-3.743 1.444a.71.71 0 0 1-.961-.754l.495-3.994a.72.72 0 0 0-.152-.537z"/><path fill="#fff0af" d="M79.724 59.312c1.184-2.407 2.044-5.486 2.044-9.352H31.88s1.284 10.645 8.852 16.71c0 0 3.745 11.585 16.093 11.585S72.917 66.67 72.917 66.67s2.75-1.524 6.807-7.358"/><path fill="#ffd064" d="M69.973 72.878s-2.804 6.197-13.15 6.197-13.148-6.197-13.148-6.197l1.265-1.006s2.533 5.445 11.884 5.445c9.35 0 11.884-5.445 11.884-5.445zm2.24-7.38.704 1.172s4.193-2.041 6.808-7.358c-3.083 3.974-7.511 6.186-7.511 6.186m-29.841 0c-5.312-2.397-8.852-8.37-8.852-16.359l-1.64.82c0 12.404 8.85 16.71 8.85 16.71z"/><path fill="#c38778" d="M55.605 82.287c.49-.04 1.84-.93 3.68.698-.433-1.85-.703-3.794-.703-5.837V67.045h-1.758c0 2.409-.993 13.912-1.22 15.242"/><path fill="#8c5e5e" d="M56.467 81.277c.226-1.33.357-2.705.357-4.13V67.046h-1.758v10.103c0 5.687-2.09 10.602-3.965 14.894 1.875-4.292 4.527-9.167 5.723-9.1s3.847 4.808 5.722 9.1c-1.201-2.75-2.49-5.756-3.261-9.056-1.574-1.999-2.329-1.748-2.818-1.709"/><path fill="#c9eb74" d="M73.772 57.833c0-12.645 3.122-19.88 3.122-19.88-2.243-2.499-5.004-4.153-7.717-4.153-5.815 0-12.353 3.24-12.353 3.24S50.286 33.8 44.47 33.8c-2.713 0-5.474 1.654-7.717 4.154 0 0 4.472 10.25 4.472 23.972 0 8.608 4.392 11.903 6.532 11.903 4.291 0 9.062-3.644 9.062-3.644s4.779 3.644 9.07 3.644c2.242 0 3.981-1.497 5.444-2.78 1.224-2.122 2.025-5.156 2.025-9.123 0-1.526.149-2.886.413-4.093"/><path fill="#abd641" d="M56.82 69.365s-4.77 3.643-9.062 3.643c-2.14 0-5.711-2.474-5.711-11.081 0-.91-.053-1.769-.148-2.582l-2.023-1.512c.264 1.207.413 2.567.413 4.093 0 8.608 3.767 12.84 7.469 12.84 4.291 0 9.07-3.643 9.07-3.643s4.77 3.643 9.062 3.643c1.996 0 4.01-1.233 5.444-3.716-1.463 1.282-3.202 1.958-5.444 1.958-4.291 0-9.07-3.643-9.07-3.643"/><path fill="#ebb044" d="M41.899 59.345c1.077-.012 2.157-.845 2.157-2.564v-8.15c0-6.802-7.302-10.677-7.302-10.677-1.564 1.7-3.959 6.37-4.136 11.185 3.749.783 7.258 2.985 9.28 10.206"/><path fill="#e38523" d="M41.899 59.345c-.785-6.721-4.616-10.186-8.365-10.97.178-4.815 1.987-8.882 3.22-10.421-2.858 3.185-4.875 7.743-4.875 12.006 3.046 0 6.772 2.274 7.997 7.874.306 1.007 1.163 1.52 2.023 1.51"/><path fill="#ebb044" d="M81.659 48.203c-.457-3.724-2.297-7.499-4.765-10.25 0 0-7.302 3.875-7.302 10.678v8.15c0 3.09 3.491 3.322 4.18 1.053q.211-.96.512-1.788c.967-4.259 3.093-6.323 7.374-7.843"/><path fill="#e38523" d="M74.284 56.046c1.554-4.301 4.786-6.087 7.484-6.087q-.001-.872-.11-1.756c-3.593.044-6.261 2.228-7.374 7.843"/><path fill="#394240" d="M62.547 92.921a.88.88 0 0 1-.806-.527c-2.16-4.942-4.185-8.02-4.943-8.531-.708.485-2.633 3.36-4.891 8.531a.88.88 0 0 1-1.611-.704c1.456-3.333 3.212-7.352 3.736-11.892-7.831-.909-10.602-5.487-11.081-6.403-1.308-1.383-2.39-3.417-3-6.15-.94-.545-3.24-2.071-5.285-4.965a.879.879 0 1 1 1.435-1.014 16.5 16.5 0 0 0 3.461 3.6 27 27 0 0 1-.152-2.94c0-3.584-.867-6.531-2.506-8.52-1.118-1.357-2.593-2.24-4.128-2.493.107 2.74.68 5.269 1.707 7.528a.879.879 0 1 1-1.6.727C31.632 56.42 31 53.32 31 49.959c0-3.792 1.557-8.08 4.165-11.468 2.724-3.54 6.115-5.57 9.306-5.57 5.199 0 10.828 2.438 12.353 3.146 1.524-.708 7.154-3.146 12.353-3.146 3.502 0 7.258 2.467 10.047 6.599a.879.879 0 1 1-1.457.983q-.507-.75-1.058-1.417c-1.698 1.078-6.238 4.437-6.238 9.544a.879.879 0 1 1-1.758 0c0-5.719 4.701-9.471 6.79-10.856-2.01-1.958-4.275-3.095-6.326-3.095-5.535 0-11.9 3.117-11.963 3.149a.88.88 0 0 1-.78 0c-.064-.032-6.429-3.149-11.963-3.149-2.045 0-4.31 1.128-6.327 3.095 2.088 1.384 6.79 5.136 6.79 10.856a.879.879 0 1 1-1.757 0c0-2.373-.975-4.644-2.898-6.75a17 17 0 0 0-3.341-2.793q-.193.232-.38.476c-2.19 2.847-3.568 6.367-3.773 9.575 2.054.26 4.021 1.384 5.476 3.15 1.901 2.308 2.906 5.64 2.906 9.639 0 4.81 1.198 7.638 2.202 9.164 1.187 1.803 2.745 2.796 4.388 2.796 3.938 0 8.484-3.428 8.53-3.463a.88.88 0 0 1 .526-.18h.014q.056 0 .11.007c.153.02.302.08.424.173.045.034 4.591 3.463 8.53 3.463 1.642 0 3.2-.993 4.387-2.796 1.005-1.526 2.202-4.355 2.202-9.165 0-4 1.006-7.335 2.91-9.643 1.455-1.763 3.421-2.886 5.473-3.145-.115-1.825-.607-3.757-1.44-5.64a.879.879 0 1 1 1.608-.71c1.057 2.389 1.616 4.869 1.616 7.171 0 5.036-1.387 9.39-4.124 12.942-1.926 2.499-3.975 3.85-4.826 4.344-.611 2.732-1.693 4.767-3 6.15-.412.782-2.632 4.474-8.556 5.948a.88.88 0 0 1-.425-1.706c1.737-.432 3.262-1.104 4.55-2.005q-.188.013-.376.013c-2.271 0-4.622-.92-6.43-1.857v3.36c0 5.635 2.158 10.574 3.892 14.542a.877.877 0 0 1-.805 1.231m-5.766-10.86q.046 0 .092.003c.373.021.831.174 1.494.867a26.4 26.4 0 0 1-.664-5.783v-4.27a1 1 0 0 1 .005-.094 24 24 0 0 1-.884-.582c-.23.16-.53.36-.884.582a1 1 0 0 1 .005.094v4.27c0 2.003-.25 3.908-.649 5.711.635-.648 1.093-.797 1.485-.797m-9.379-6.427c1.505 1.045 3.688 2.04 6.767 2.41q.018-.446.018-.896v-3.36c-1.807.938-4.158 1.857-6.43 1.857q-.177 0-.355-.011m33.47-24.721c-1.534.252-3.008 1.134-4.126 2.489-1.64 1.99-2.508 4.937-2.508 8.524q-.001 1.563-.153 2.94a16.5 16.5 0 0 0 3.046-3.038c2.321-3.013 3.577-6.681 3.74-10.915M52.1 69.464a.88.88 0 0 1-.816-.551l-.998-2.487a.879.879 0 0 1 1.63-.655l1 2.486a.88.88 0 0 1-.816 1.207m9.44 0a.877.877 0 0 1-.816-1.207l.999-2.486a.879.879 0 1 1 1.63.655l-.998 2.487a.88.88 0 0 1-.816.551m3.646-7.782a.88.88 0 0 1-.621-.258c-1.634-1.634-4.745-2.732-7.741-2.732s-6.107 1.098-7.742 2.732a.88.88 0 0 1-1.243-1.243c1.973-1.972 5.5-3.247 8.985-3.247s7.011 1.275 8.984 3.247a.879.879 0 0 1-.622 1.5m4.406-4.023a.88.88 0 0 1-.879-.878v-4.635a.879.879 0 1 1 1.758 0v4.635a.88.88 0 0 1-.88.879m-25.536 0a.88.88 0 0 1-.88-.878v-4.635a.879.879 0 1 1 1.758 0v4.635a.88.88 0 0 1-.878.879"/></svg>