<svg width="36" height="35" viewBox="0 0 36 35" fill="none" xmlns="http://www.w3.org/2000/svg">
<path d="M17.999 0.25C18.3343 0.25 18.6681 0.342729 19.0029 0.537109C19.3196 0.72102 19.5567 0.997387 19.7129 1.37891V1.37988L23.6553 10.9033L23.7129 11.0439L23.8643 11.0576L34.0547 11.9658C34.5082 12.0328 34.8408 12.1787 35.0732 12.3857C35.3189 12.6045 35.5071 12.8889 35.6348 13.2461C35.7592 13.5945 35.7825 13.9494 35.7051 14.3154C35.6307 14.6672 35.4434 14.987 35.127 15.2754L27.4004 22.0703L27.2881 22.1689L27.3213 22.3145L29.6348 32.4268C29.7293 32.8444 29.695 33.206 29.5469 33.5234C29.3877 33.8643 29.1663 34.1449 28.8828 34.3682C28.6076 34.5848 28.2859 34.7111 27.9111 34.7441C27.5516 34.7758 27.2042 34.6853 26.8613 34.4619L26.8555 34.459L18.1299 29.1084L17.999 29.0283L17.8682 29.1084L9.14355 34.459H9.14258L9.1377 34.4619C8.79445 34.6842 8.44617 34.7747 8.08594 34.7441C7.71192 34.7124 7.3911 34.5867 7.11621 34.3691C6.83203 34.1441 6.61038 33.8631 6.45117 33.5234C6.30321 33.2077 6.26955 32.8462 6.36426 32.4268L8.67676 22.3145L8.70996 22.1689L8.59766 22.0703L0.871094 15.2754C0.556208 14.9857 0.369342 14.6654 0.294922 14.3135C0.217443 13.9471 0.240172 13.593 0.363281 13.2461C0.489405 12.8908 0.677507 12.6062 0.924805 12.3857C1.15815 12.1778 1.48966 12.0317 1.93945 11.9658L12.1348 11.0576L12.2852 11.0439L12.3428 10.9033L16.2852 1.37988L16.2861 1.37891C16.4423 0.997491 16.6785 0.721003 16.9951 0.537109C17.3299 0.342745 17.6638 0.250015 17.999 0.25Z" fill="#FFD700" stroke="#333333" stroke-width="0.5"/>
</svg>
