<svg width="37" height="35" viewBox="0 0 37 35" fill="none" xmlns="http://www.w3.org/2000/svg">
<path d="M18.3223 0.25C18.6653 0.25 19.0061 0.343308 19.3477 0.538086C19.6711 0.722585 19.9125 0.99906 20.0713 1.37988V1.38086L24.085 10.9053L24.1426 11.0439L24.293 11.0576L34.6699 11.9658C35.1317 12.0332 35.471 12.1803 35.708 12.3877C35.9584 12.6069 36.1496 12.8914 36.2793 13.248C36.4057 13.5957 36.4301 13.9494 36.3516 14.3145C36.2758 14.6665 36.0833 14.9868 35.7588 15.2764L27.8965 22.0693L27.7822 22.168L27.8164 22.3154L30.1709 32.4277C30.267 32.8447 30.2327 33.2055 30.082 33.5225C29.9201 33.8631 29.6945 34.1435 29.4053 34.3672C29.1245 34.5842 28.7962 34.7109 28.4131 34.7441C28.0448 34.776 27.6889 34.6849 27.3389 34.4609L27.333 34.458L18.4512 29.1074L18.3223 29.0293L18.1934 29.1074L9.31152 34.458L9.30566 34.4609C8.95546 34.6837 8.59933 34.7749 8.23047 34.7441C7.8479 34.7123 7.51981 34.5854 7.23926 34.3672C6.94965 34.1419 6.72437 33.8608 6.5625 33.5215C6.41229 33.2064 6.37746 32.8462 6.47363 32.4277L8.82812 22.3154L8.8623 22.168L8.74805 22.0693L0.884766 15.2773H0.885742C0.562496 14.9864 0.371751 14.6648 0.295898 14.3125C0.217196 13.9469 0.240099 13.5934 0.365234 13.2471C0.49345 12.8923 0.685417 12.6084 0.9375 12.3877C1.17756 12.1775 1.51898 12.0302 1.9834 11.9648L12.3516 11.0576L12.502 11.0439L12.5596 10.9053L16.5732 1.38086V1.37988C16.732 0.999054 16.9734 0.722587 17.2969 0.538086C17.6384 0.343301 17.9792 0.250003 18.3223 0.25Z" stroke="#333333" stroke-width="1"/>
</svg>
